<svg width="200" height="80" fill="none" xmlns="http://www.w3.org/2000/svg"><path d="m51.677 23.199-1.21 5.364h.122c.008-.008 1.253-3.758 4.335-4.617a5.393 5.393 0 0 1 1.496-.22l.002.001h.524l-.002.122v13.916c0 .485-.176.83-.528 1.03-.35.203-.907.333-1.67.393v.112h8.003v-.112c-.763-.06-1.319-.189-1.67-.387s-.527-.544-.527-1.036V23.757h.726s.438.01.906.064c4.207.482 3.355 4.734 3.364 4.742h.111l1.225-5.364H51.677Zm18.418 32.2-2.578-5.502h-1.765v7.026h1.354V51.89l2.376 5.034h1.156l2.376-5.076v5.076h1.374v-7.026h-1.725L70.095 55.4Zm121.924-20.391.006.002h-6.899l4.346-10.007 3.626 9.05c.298 1.038-1.079.955-1.079.955Zm6.768 3.59c-.3-.37-.547-1.09-.959-2.162l-4.852-12.264c-.164-.402-.368-.838-.543-1.214a9.61 9.61 0 0 1-2.331 1.19c-.4.142-.798.256-1.19.343l.032.557-4.986 11.5c-.397.937-.76 1.582-1.09 1.938-.329.356-.756.608-1.28.758v.09h4.234v-.09a4.291 4.291 0 0 1-.887-.264 1.79 1.79 0 0 1-.59-.427c-.168-.183-.241-.441-.219-.775.023-.333.135-.735.337-1.207l.506-1.145h8.67l.46 1.145c.307.66.395 1.181.264 1.567-.131.386-.35.655-.657.809-.307.153-.752.252-1.336.297v.09H200v-.09c-.51-.06-.914-.275-1.213-.646ZM82.571 36.657l-.157-.123c-.951 1.168-2.4 1.88-4.347 1.88-2.119 0-3.822-.847-5.11-2.54-1.288-1.691-1.931-3.75-1.931-6.176 0-2.074.423-3.642 1.269-4.706.846-1.063 1.958-1.595 3.335-1.595 1.13 0 2.054.33 2.769.989.715.659 1.13 1.482 1.246 2.47.116.989-.002 2.052-.354 3.19l.028.011v-.001l.04.013.133-.178 3.952-3.78-.525-.782c-1.318-1.61-3.287-2.414-5.907-2.414-1.213 0-2.398.18-3.555.539a11.13 11.13 0 0 0-3.161 1.55c-.951.673-1.719 1.563-2.303 2.667-.584 1.104-.876 2.33-.876 3.678 0 2.396.855 4.38 2.566 5.952 1.711 1.573 3.9 2.359 6.565 2.359 1.565 0 2.875-.264 3.93-.792 1.056-.528 1.854-1.35 2.393-2.21ZM57.437 54.149l1.35-3.064 1.35 3.064h-2.7Zm.507-4.252-3.217 7.026h1.52l.701-1.62h3.678l.71 1.62h1.562l-3.218-7.026h-1.736Zm-46.01-18.12c-.378-.49-.954-.94-1.729-1.347-.775-.408-1.705-.735-2.79-.983-1.46-.336-2.555-.746-3.289-1.229-.674-.444-1.038-1.124-1.092-2.039h.003c-.047-1.268.792-2.334 1.948-2.711.238-.061.461-.102.689-.123 1.078-.1 2.527.362 3.537 1.343 1.01.98 1.269 2.223 1.067 3.727l2.592-3.246c-1.452-1.392-3.61-2.266-6.094-2.266-1.902 0-3.419.415-4.553 1.246-1.133.83-1.7 1.968-1.7 3.413 0 1.182.447 2.277 1.34 3.283.895 1.007 2.387 1.746 4.474 2.217 1.52.352 2.594.734 3.223 1.145.628.412.942 1.056.942 1.931 0 .322-.043.64-.129.954l-.001.007c-.115.416-.29.674-.594.98a3.573 3.573 0 0 1-.39.341c-.91.603-1.864.665-2.592.608-.72-.057-1.427-.273-2.01-.699-1.966-1.435-1.719-4.023-1.713-4.195 0-.004.037-.136.037-.141L0 37.328h.023c1.59 1.4 4.07 2.312 6.868 2.35 3.607-.025 5.143-1.733 5.732-3.3l.005-.015c.008-.018.014-.037.021-.055a4.711 4.711 0 0 0 .312-1.73c0-.487-.077-.952-.23-1.398-.153-.445-.42-.913-.797-1.403Zm128.671 23.622-2.578-5.502h-1.765v7.026h1.353V51.89l2.377 5.034h1.156l2.376-5.076v5.076h1.374v-7.026h-1.725l-2.568 5.502Zm-5.696-21.406-3.11 3.335h.022c1.592 1.4 4.071 2.312 6.869 2.35 3.606-.025 5.143-1.733 5.731-3.3a.728.728 0 0 0 .006-.015l.021-.055a4.705 4.705 0 0 0 .312-1.73 4.27 4.27 0 0 0-.23-1.398c-.154-.445-.42-.913-.797-1.403-.379-.49-.955-.94-1.729-1.347-.775-.408-1.705-.735-2.79-.983-1.459-.336-2.556-.746-3.289-1.229-.675-.444-1.038-1.124-1.092-2.039h.003c-.047-1.268.792-2.334 1.948-2.711.237-.061.461-.102.689-.123 1.077-.1 2.527.362 3.537 1.343 1.01.98 1.269 2.223 1.067 3.727l2.592-3.246c-1.452-1.392-3.61-2.266-6.095-2.266-1.901 0-3.418.415-4.552 1.246-1.134.83-1.701 1.968-1.701 3.413 0 1.182.447 2.277 1.341 3.283.895 1.007 2.386 1.746 4.474 2.217 1.52.352 2.593.734 3.222 1.145.629.412.943 1.056.943 1.931a3.6 3.6 0 0 1-.129.954l-.001.007c-.115.416-.291.674-.594.98a3.582 3.582 0 0 1-.391.341c-.91.603-1.863.665-2.591.608-.72-.057-1.427-.273-2.011-.699-1.965-1.435-1.718-4.023-1.712-4.195 0-.004.037-.136.037-.141ZM26.346 30.046l.027.011.002-.001.038.013.134-.178 3.952-3.78-.525-.782c-1.318-1.61-3.287-2.414-5.908-2.414-1.213 0-2.397.18-3.554.539a11.14 11.14 0 0 0-3.162 1.55c-.95.673-1.718 1.563-2.302 2.667-.584 1.104-.876 2.33-.876 3.678 0 2.396.855 4.38 2.566 5.952 1.71 1.573 3.9 2.359 6.565 2.359 1.564 0 2.874-.264 3.93-.792s1.854-1.35 2.393-2.21l-.158-.124c-.95 1.168-2.4 1.88-4.346 1.88-2.12 0-3.822-.847-5.11-2.54-1.288-1.691-1.932-3.75-1.932-6.176 0-2.074.423-3.642 1.27-4.706.845-1.063 1.957-1.595 3.335-1.595 1.13 0 2.053.33 2.768.989.715.659 1.13 1.482 1.247 2.47.116.989-.002 2.052-.354 3.19ZM44.14 37.56c-.76 1.164-1.769 1.746-3.027 1.746-1.168 0-2.231-.483-3.19-1.448-.958-.966-1.693-2.177-2.206-3.634a13.476 13.476 0 0 1-.77-4.509c0-1.902.38-3.43 1.14-4.588.76-1.156 1.77-1.735 3.027-1.735 1.16 0 2.22.483 3.179 1.449.958.966 1.695 2.177 2.212 3.633.517 1.456.775 2.952.775 4.487 0 1.902-.38 3.435-1.14 4.599Zm2.426-12.31c-1.688-1.515-3.836-2.273-6.441-2.273-2.62 0-4.775.758-6.463 2.274-1.689 1.516-2.533 3.547-2.533 6.092 0 2.546.844 4.579 2.533 6.099 1.688 1.52 3.842 2.28 6.463 2.28 2.605 0 4.753-.76 6.44-2.28 1.689-1.52 2.534-3.553 2.534-6.099 0-2.545-.845-4.576-2.533-6.092Zm131.55 12.112c-.773 1.02-1.884 1.53-3.332 1.53-1.362 0-2.909-.416-3.73-.838a1.115 1.115 0 0 1-.604-.994l.027-13.499h2.314c2.154 0 3.773.765 4.857 2.296 1.085 1.531 1.627 3.64 1.627 6.326 0 2.432-.387 4.158-1.159 5.179Zm2.589-12.175c-1.584-1.332-3.914-1.998-6.991-1.998h-8.607v.124c1.164.135 1.746.533 1.746 1.194v13.046c.007.683-.575 1.238-1.746 1.666v.112h8.146c2.941 0 5.315-.746 7.12-2.24 1.804-1.493 2.707-3.575 2.707-6.247 0-2.439-.792-4.324-2.375-5.657ZM159.376 37.56c-.76 1.164-1.769 1.746-3.026 1.746-1.168 0-2.232-.483-3.19-1.448-.958-.966-1.694-2.177-2.207-3.634a13.474 13.474 0 0 1-.769-4.509c0-1.902.38-3.43 1.14-4.588.76-1.156 1.769-1.735 3.026-1.735 1.161 0 2.22.483 3.179 1.449.958.966 1.696 2.177 2.212 3.633.517 1.456.775 2.952.775 4.487 0 1.902-.38 3.435-1.14 4.599Zm2.426-12.31c-1.688-1.515-3.835-2.273-6.441-2.273-2.62 0-4.775.758-6.463 2.274-1.689 1.516-2.533 3.547-2.533 6.092 0 2.546.844 4.579 2.533 6.099 1.688 1.52 3.843 2.28 6.463 2.28 2.606 0 4.753-.76 6.441-2.28 1.688-1.52 2.533-3.553 2.533-6.099 0-2.545-.845-4.576-2.533-6.092Zm-40.89 29.875c-.452.388-1.13.585-2.014.585h-1.579v-4.6h1.719c1.699 0 2.56.77 2.56 2.29 0 .754-.231 1.334-.686 1.724Zm1.165-4.326c-.703-.598-1.742-.901-3.089-.901h-3.142v7.025h2.982c1.373 0 2.447-.308 3.189-.917.74-.605 1.115-1.479 1.115-2.596 0-1.137-.355-2.015-1.055-2.611Zm-38.17 2.771c-.397-.341-1.033-.584-1.892-.722l-1.47-.23c-.5-.075-.836-.173-1.029-.299-.2-.13-.301-.336-.301-.609 0-.29.163-.513.484-.663.306-.143.752-.215 1.325-.215.507 0 .91.078 1.198.231.28.15.494.394.64.724l1.44-.167c-.168-.643-.507-1.122-1.007-1.425-.522-.317-1.273-.477-2.231-.477-.697 0-1.305.085-1.807.252-.498.166-.881.404-1.14.708a1.609 1.609 0 0 0-.386 1.072c0 .612.22 1.093.653 1.43.44.342 1.149.582 2.108.713l1.2.17c.434.061.758.166.961.31.212.152.32.363.32.628 0 .33-.16.58-.476.747-.304.16-.76.242-1.353.242-.662 0-1.168-.113-1.503-.335-.328-.217-.532-.559-.608-1.015h-1.496c.058.545.219 1.002.478 1.357.269.37.663.648 1.173.83.515.184 1.173.277 1.956.277 1.077 0 1.916-.19 2.494-.566.57-.37.859-.897.859-1.566 0-.593-.199-1.065-.59-1.402Zm44.038.579 1.35-3.064 1.35 3.064h-2.7Zm.507-4.252-3.218 7.026h1.522l.7-1.62h3.678l.71 1.62h1.562l-3.218-7.026h-1.736ZM94.947 39.222v.112h7.109v-.112c-1.168-.142-1.752-.543-1.752-1.202V24.543c0-.659.584-1.056 1.752-1.19v-.124h-7.109v.124c1.16.134 1.74.531 1.74 1.19v6.649h-7.445v-6.649c0-.659.584-1.056 1.752-1.19v-.124h-7.11v.124c1.161.134 1.742.531 1.742 1.19V38.02c.007.667-.573 1.067-1.741 1.202v.112h7.109v-.112c-1.168-.142-1.752-.543-1.752-1.202v-6.435h7.446v6.435c.007.667-.573 1.067-1.74 1.202Zm-7.99 11.889h2.801v5.812h1.484v-5.812h2.8v-1.213h-7.085v1.213Zm23.735 1.773c-.258.169-.661.255-1.197.255h-1.909V51.01h1.929c.557 0 .948.078 1.197.24.253.164.382.436.382.809 0 .373-.135.65-.402.824Zm.532 1.082c.447-.175.783-.42.999-.729.215-.309.325-.701.325-1.167 0-1.462-.96-2.172-2.933-2.172h-3.453v7.025h1.424v-2.67h2.183l1.56 2.67h1.613l-1.782-2.932.064-.025Zm-12.874-.064h4.171V52.71h-4.172v-1.62h4.382v-1.194h-5.866v7.026h5.894l.182-1.194h-4.592v-1.827Zm26.378-16.17a2.233 2.233 0 0 1-1.499 1.234c-.746.19-1.473-.049-2.075-.54-.738-.603-1.416-1.557-1.941-2.647l2.472-2.823c2.171 1.565 3.555 3.415 3.043 4.776Zm-8.108-.57c-1.147 1.229-2.396 1.798-3.157 2.005a4.018 4.018 0 0 1-.656.133h-.001a3.607 3.607 0 0 1-1.684-.195c-1.843-.758-3.256-2.66-3.286-4.837a4.848 4.848 0 0 1 .171-1.374c.388-1.568 1.433-2.37 1.527-2.44.429-.365.991-.54 1.682-.54 1.736 0 2.734 2.019 3.869 4.364.495.951.829 1.648 1.175 2.248l.045.076.316.554-.005.005.004.002Zm9.713-3.103c-.202-1.425-.744-2.633-2.284-3.843l1.669-1.917.338-.402-.176-.07-2.165 2.143c-.43-.3-.812-.507-1.349-.737.006-.003-.379-.149-.514-.211 0 0-4.962-1.796-5.814-2.383a2.158 2.158 0 0 1-.274-.224c-.397-.414-.527-.924-.457-1.463.035-.41.231-.803.562-1.116.425-.416 1.113-.686 1.894-.686 1.307 0 2.366.794 2.38 1.727.004.317-.112.608-.318.855l-.004.005a1.772 1.772 0 0 1-.15.156c-.582.564-1.462.826-1.794.979.457.183 1.945.774 2.455.984 1.379-1.015 1.066-3.099-.297-4.149a3.608 3.608 0 0 0-2.303-.811 3.688 3.688 0 0 0-1.029.144l-.028.009-.046.014-.022.007a3.28 3.28 0 0 0-2.281 3.24l.002.069a2.206 2.206 0 0 0 .005.102c.033.486.165.942.373 1.331.449.838 1.397 2.184 4.534 3.766.64.323 1.235.627 1.808.997l-2.341 2.338-.132-.281-.509-1.045c-1.278-2.51-2.932-4.668-5.56-4.668-1.142 0-2.168.362-2.973 1.027l-.113.092c-1.216 1.038-1.88 2.584-1.857 4.23.042 2.997 2.509 5.472 5.39 5.472.316 0 .627-.03.929-.086h-.001c.012-.001.022-.004.033-.006l.063-.012a7.032 7.032 0 0 0 3.225-1.585c.122.15.251.29.371.392.59.504 1.793 1.194 3.428 1.224.084.005.168.008.254.008.707.025 1.502-.11 2.363-.516a3.882 3.882 0 0 0 .462-.241 3.43 3.43 0 0 0 .406-.292c1.415-1.173 2.13-2.784 1.847-4.567Z" fill="#fff"/></svg>