<svg width="164" height="80" fill="none" xmlns="http://www.w3.org/2000/svg"><path d="M9.008 79.555h3.271V73.06c0-1.157 0-2.584.593-3.42.59-.91 1.648-1.205 2.24-1.205 2.756 0 2.756 3.25 2.756 4.378v6.742h3.27v-7.38c0-1.06 0-3.346-1.254-4.846-1.13-1.38-2.928-1.9-4.107-1.9-2.069 0-3.2 1.136-3.741 1.653v-1.185H9.008v13.658Z" fill="#fff"/><path fill-rule="evenodd" clip-rule="evenodd" d="M36.017 74.192a7.852 7.852 0 0 0 .196-1.647c0-3.442-2.732-7.19-7.063-7.19-4.208 0-7.184 3.548-7.184 7.41 0 3.984 3.15 7.235 7.21 7.235 3.198 0 5.805-2.286 6.593-4.748h-3.447c-.613 1.132-1.694 1.745-3.146 1.745-2.338 0-3.618-1.919-3.766-2.805h10.607Zm-10.706-2.633c.615-2.535 2.659-3.2 3.865-3.2 1.624 0 3.32 1.01 3.69 3.2h-7.555Z" fill="#fff"/><path d="M40.412 79.555h2.014l2.585-8.857h.048l2.562 8.857h2.016l4.995-13.658h-3.493l-2.513 8.343h-.048l-2.217-8.343h-2.605l-2.24 8.343h-.048l-2.485-8.343H35.49l4.923 13.658Z" fill="#fff"/><path fill-rule="evenodd" clip-rule="evenodd" d="M60.966 79.555h3v-1.648c.809.912 1.97 2.092 4.603 2.092 4.993 0 6.79-4.6 6.79-7.334 0-3.614-2.706-7.236-6.864-7.236-1.527 0-3.128.57-4.26 1.702v-5.784h-3.27v18.208Zm3.072-7.01c0-1.994 1.55-4.11 4.06-4.11 2.07 0 3.99 1.597 3.99 4.258 0 2.654-1.798 4.305-3.94 4.305-1.918 0-4.11-1.427-4.11-4.454Zm26.597-6.647h-3.004v1.727h-.049c-.1-.2-1.75-2.197-4.526-2.197-3.789 0-6.842 3.029-6.842 7.215 0 4.55 3.126 7.357 6.646 7.357 1.72 0 3.74-.913 4.771-2.137v1.693h3.004V65.898Zm-3.099 6.796c0 2.533-1.725 4.303-3.99 4.303-2.336 0-4.06-1.895-4.06-4.207 0-2.042 1.378-4.354 4.06-4.354 1.945 0 3.99 1.425 3.99 4.257Z" fill="#fff"/><path d="M95.647 61.347h-3.272v18.209h3.272V61.347Z" fill="#fff"/><path fill-rule="evenodd" clip-rule="evenodd" d="M111.049 65.898h-3.002v1.727h-.05c-.1-.2-1.75-2.197-4.527-2.197-3.793 0-6.841 3.029-6.841 7.215 0 4.55 3.126 7.357 6.644 7.357 1.721 0 3.738-.913 4.774-2.137v1.693h3.002V65.898Zm-3.101 6.796c0 2.533-1.721 4.303-3.986 4.303-2.339 0-4.06-1.895-4.06-4.207 0-2.042 1.378-4.354 4.06-4.354 1.944 0 3.986 1.425 3.986 4.257Z" fill="#fff"/><path d="M112.79 79.555h3.271V73.06c0-1.157 0-2.584.592-3.42.59-.91 1.652-1.205 2.24-1.205 2.754 0 2.754 3.25 2.754 4.378v6.742h3.275v-7.38c0-1.06 0-3.346-1.258-4.846-1.131-1.38-2.925-1.9-4.108-1.9-2.068 0-3.197 1.136-3.74 1.653v-1.185h-3.026v13.658Zm23.759-4.452c-.863 1.378-1.943 1.895-3.025 1.895-2.464 0-4.111-1.944-4.111-4.282 0-2.805 1.969-4.281 3.961-4.281 2.018 0 2.783 1.304 3.175 1.991h3.693c-1.403-4.209-5.147-4.997-6.868-4.997-3.765 0-7.233 3.056-7.233 7.235 0 4.53 3.761 7.335 7.259 7.335 3.199 0 5.731-1.846 6.842-4.896h-3.693Z" fill="#fff"/><path fill-rule="evenodd" clip-rule="evenodd" d="M154.797 74.192a7.639 7.639 0 0 0 .195-1.647c0-3.442-2.73-7.19-7.06-7.19-4.209 0-7.186 3.548-7.186 7.41 0 3.984 3.149 7.235 7.21 7.235 3.197 0 5.808-2.286 6.593-4.748h-3.444c-.616 1.132-1.696 1.745-3.149 1.745-2.339 0-3.618-1.919-3.762-2.805h10.603Zm-10.704-2.633c.616-2.535 2.657-3.2 3.863-3.2 1.626 0 3.322 1.01 3.69 3.2h-7.553Zm-79.39-37.273-4.374 7.553-24.208-1.362 2.423-4.207 26.159-1.984Zm17.5-24.067 2.193 8.335-34.35-2.257 2.422-4.206 29.734-1.872ZM59.43 0l20.107.015 1.518 5.7L57.01 4.207 59.43.001Zm-1.767 46.535-3.491 6.003-25.013.026 2.422-4.204 26.082-1.825Zm43.915-16.195-6.054 10.495h5.766c2.672 0 7.46-1.333 8.933-5.138 1.365-3.536-1.144-5.361-2.895-5.361l-5.75.004Zm5.774-10.039 5.03-.03c3.347-.019 6.839-1.55 8.116-4.656 1.178-2.883-.405-5.338-2.504-5.329l-4.865-.006-5.777 10.021Zm-22.767-1.748 5.079-8.81 17.189-1.104.6-1.07-15.9-1.111L95.27 0h29.49c9.067 0 15.776 3.242 13.168 12.776-.784 2.889-4.47 10.16-15.28 13.205 2.294.273 8.009 2.806 7.024 9.37-1.749 11.64-16.82 17.18-25.203 17.183l-34.813.017-1.715-6.735 18.234-1.286.619-1.066-19.777-1.205-2.13-7.984 28.14-1.642.612-1.058-50.557-3.19 2.422-4.204 54.42-3.533.616-1.058-15.954-1.036Z" fill="#fff"/></svg>