<svg width="164" height="80" fill="none" xmlns="http://www.w3.org/2000/svg"><path d="M24.433 41.094h-4.982V27.022h4.982c5.587 0 7.941 2.135 7.941 6.954 0 4.873-2.41 7.118-7.94 7.118Zm.384-20.262H12.605v38.335h6.846V47.284h5.366c8.816 0 14.677-5.423 14.677-13.69 0-7.997-5.532-12.762-14.677-12.762ZM0 59.167h6.845V20.833H0v38.334Zm42.78 0h25.408v-6.188H49.624v-10.46h17.195V36.33H49.624v-9.31h18.564v-6.189H42.78v38.335Zm85.591-38.335-11.253 15.835-11.253-15.835H93.708L79.96 36.675V20.833h-6.844v38.334h6.844V46.602l4.481-5.194 13.044 17.759h8.599L88.839 36.314 99.574 23.87l14.176 19.11v16.187h6.846V42.894l16.319-22.061h-8.544Zm24.414 32.858c-7.502 0-12.923-5.859-12.923-13.69 0-7.83 5.421-13.69 12.923-13.69 7.448 0 12.87 5.86 12.87 13.69 0 7.831-5.422 13.69-12.87 13.69Zm0-33.679c-11.336 0-20.043 8.707-20.043 19.988 0 11.282 8.707 19.99 20.043 19.99 11.282 0 19.989-8.708 19.989-19.99 0-11.28-8.707-19.988-19.989-19.988Z" fill="#fff"/></svg>