<svg width="200" height="80" fill="none" xmlns="http://www.w3.org/2000/svg"><path d="M0 51.581V6.322h8.365v22.463L39.627 6.322h11.331l-26.462 18.33 27.595 26.93H41.093l-22.43-22.897-10.298 7.232v15.664H0ZM68.822 6.322H60.49v45.293h8.332V6.322Zm14.364 45.259V6.322h8.332v22.463l31.295-22.463h11.298l-26.429 18.33 27.595 26.93h-10.998L101.85 28.684l-10.332 7.232V51.58h-8.332Zm65.123-21.929c0 5.465 2.033 9.765 6.099 12.898 4.099 3.132 9.231 4.699 15.397 4.699 6.266 0 11.431-1.6 15.464-4.766 4.066-3.166 6.099-7.665 6.099-13.498 0-3.666-.866-6.899-2.633-9.631-1.733-2.767-4.266-4.9-7.599-6.4-3.332-1.533-7.065-2.3-11.231-2.3-5.899 0-10.998 1.467-15.264 4.4-4.233 2.9-6.332 7.766-6.332 14.598Zm-8.599-.1c0-7.532 2.8-13.398 8.432-17.63 5.632-4.267 12.865-6.4 21.763-6.4 5.832 0 11.065 1 15.731 3s8.232 4.766 10.665 8.365c2.466 3.566 3.699 7.599 3.699 12.131 0 4.6-1.3 8.7-3.866 12.332-2.566 3.633-6.232 6.365-10.965 8.232-4.732 1.866-9.832 2.8-15.297 2.8-5.933 0-11.232-1.034-15.898-3.1s-8.198-4.866-10.598-8.432c-2.466-3.566-3.666-7.332-3.666-11.298ZM66.189 64.08l-2.966 6.665-2.833-6.666h-2.233l-2.166 10.232h2.333l1.433-6.532 2.933 6.532h1.066l3-6.632 1.433 6.632h2.333l-2.1-10.232h-2.233Zm24.296 0h-2.266v10.23h7.332v-2.033h-5.066v-8.199Zm-10.632 0H77.62v10.23h2.233V64.079Zm46.193 6.298-4.8-6.299h-2.066v10.232h2.233v-6.499l4.966 6.499h1.9V64.079h-2.233v6.3Zm-19.997-6.365L101.65 74.31h2.266l.967-2.3h4.332l.933 2.3h2.333l-4.366-10.298h-2.066Zm-.333 6.032 1.366-3.333 1.367 3.333h-2.733Zm34.694-6.132c-3.133 0-5.432 2.366-5.432 5.266v.033c0 2.9 2.232 5.266 5.399 5.266 3.166 0 5.465-2.367 5.465-5.3v-.033c0-2.866-2.233-5.232-5.432-5.232Zm3.099 5.332c0 1.766-1.266 3.166-3.099 3.166-1.8 0-3.066-1.433-3.066-3.2v-.032c0-1.767 1.266-3.167 3.066-3.167 1.8 0 3.099 1.433 3.099 3.233Z" fill="#fff"/></svg>