<svg width="216" height="80" fill="none" xmlns="http://www.w3.org/2000/svg"><path fill-rule="evenodd" clip-rule="evenodd" d="M197.578 61.272a13.665 13.665 0 0 1-11.419-1.152c-6.211-3.756-7.012-14.524-7.162-16.628-.15-2.103-.651-2.103-.801-1.803-1.152 6.861-3.106 17.43-8.465 19.533-3.305 1.652-7.312.25-8.965-3.056a6.1 6.1 0 0 1-.35-.85 27.522 27.522 0 0 1-1.152-8.816c0-1.151-.351-1.302-.351-1.302-.501 4.558-2.404 8.865-5.559 12.22-1.32 1.422-3.167 2.044-4.38 2.451-.581.196-1.017.342-1.179.505a66.507 66.507 0 0 0-.351 12.22c.15 3.255-.35 5.058-2.604 5.359-2.304.35-2.955-1.302-3.105-3.406-.151-2.103-.151-16.477 0-21.035.15-4.557 1.302-18.08 1.302-18.08l-1.002.35a68.24 68.24 0 0 1-1.302 12.371 29.46 29.46 0 0 1-5.209 12.37c-1.602 2.305-4.808 2.906-7.112 1.253l-.551-.45c-2.103-1.453-3.606-4.408-3.405-11.07.35-5.108 1.302-10.116 2.955-14.974-.309 0-.91-.08-1.543-.162-.701-.092-1.442-.189-1.863-.189a30.413 30.413 0 0 1-.351 12.571c-1.302 10.768-5.859 14.524-9.115 14.675-3.255.15-5.359-3.406-6.01-4.558a96.003 96.003 0 0 1-8.614 4.057 17.965 17.965 0 0 1-16.127-1.152c-5.66-3.556-8.665-10.017-7.813-16.628a81.611 81.611 0 0 1 4.057-21.336 86.128 86.128 0 0 1 8.965-20.384c.7-1.152 1.803-1.953 3.105-2.303.951 0 1.853.1 2.754.35 1.453.15 5.56.501 7.663.501 2.054.05 4.057.55 5.86 1.452.078.06.18.118.301.186.888.498 2.81 1.577 3.956 8.63.851 6.26.1 12.67-2.103 18.58-1.453 5.059-3.907 7.012-5.86 6.36-1.777-.592-1.523-2.676-.973-7.194v-.002l.001-.004c.054-.447.112-.918.17-1.414a37.344 37.344 0 0 0 0-11.569c-.35-2.304-1.001-3.606-2.303-3.606-.802.35-3.256 3.255-4.909 10.417-1.853 7.463-2.754 15.126-2.754 22.838.15 7.663 2.955 11.069 7.312 11.27a9.278 9.278 0 0 0 6.661-3.256c.228-.326.16-.567.084-.833a1.651 1.651 0 0 1-.084-.47 33.715 33.715 0 0 1 3.105-14.824c1.302-3.856 3.957-7.112 7.513-9.115 2.075-.678 2.968.614 3.8 1.816.152.22.302.436.457.638.943 1.225 1.708 1.164 3.423 1.028l.333-.026c1.453-.301 2.755-1.002 3.756-2.104 1.052-1.953 2.405-3.756 3.907-5.359 1.753-.901 3.907-.801 5.559.35 1.235 1.14 1.569 2.8 1.85 4.196.164.813.31 1.536.604 2.015.802-.15 1.002-.35 1.653-1.152a25.825 25.825 0 0 0 1.152-5.86 58.61 58.61 0 0 1 1.803-8.314c1.803-1.652 2.955-1.452 5.209-.8 2.199.634 1.203 3.893.828 5.12a3.79 3.79 0 0 1-.027.088c-.35 1.152-.35 2.103.15 2.103 2.104-.25 4.107.902 5.059 2.755a34.02 34.02 0 0 1 1.953 15.175c-.15 1.152.351 1.302.351 1.302a69.444 69.444 0 0 1 3.606-13.372c1.152-2.905 3.455-5.108 6.36-6.21 2.157-.573 2.534.248 3.036 1.34.069.15.141.305.22.463a29.403 29.403 0 0 1-1.453 16.477c-2.103 6.36-4.908 8.164-7.312 8.965-.501 5.86 1.803 7.513 2.755 7.663 3.493.146 4.213-1.965 6.03-7.286l.18-.527c1.452-5.61 2.254-11.319 2.304-17.129.15-4.557 1.002-5.359 1.953-6.01a11.394 11.394 0 0 1 4.257-1.302c3.105.35 1.653 2.604.501 2.955-1.152.35-1.002 1.302-.501 1.453 1.052.35 1.803 1.302 1.803 2.454a65.69 65.69 0 0 0 1.453 17.429c.801 2.955 2.905 5.309 5.709 6.51 3.306.952 6.862.501 9.767-1.302 2.754-1.302 3.405-.8 3.606-.15.35 2.154-2.104 3.806-7.012 5.71Zm-48.882-17.93c.301-4.458 1.152-8.815 2.605-13.022.651-1.302 1.652-1.152 2.103-.2.751 3.706.852 7.512.351 11.268-.301 4.308-1.202 8.515-2.605 12.572-.851 2.103-1.953 1.652-2.304.65-.45-3.756-.5-7.512-.15-11.268Zm-17.429 5.61c.802-5.06 2.254-9.917 4.408-14.525 1.602-2.154 2.253-1.302 2.454 1.152 0 5.008-.752 9.916-2.304 14.674-1.953 6.31-3.256 7.012-4.057 6.661-.851-.3-1.002-2.904-.501-7.963Zm38.264-15.377a17.097 17.097 0 0 1-2.755 8.815c-1.452 1.453-2.103.15-2.303-1.152.551-2.955 1.502-5.81 2.955-8.464 1.302-1.803 2.103-1.302 2.103.801ZM114.94 53.308a32.196 32.196 0 0 1 4.257-15.475c.351-.451.902-.752 1.402-.702 1.152 1.002.651 5.56-.801 11.27-1.452 5.709-2.304 7.01-3.406 7.01-1.101 0-1.452-.8-1.452-2.103Zm75.326-23.639c.234 0 .468-.033.717-.068.284-.04.589-.082.935-.082a2.62 2.62 0 0 1 1.803.5c.351.301.501.702.501 1.153.05.65-.451 1.252-1.152 1.302.501.15.802.5 1.002 1.452.123.411.213.822.296 1.206l.055.247h-1.002c-.251-.451-.351-.952-.351-1.453-.15-.801-.501-1.002-1.152-1.002h-.651v2.455h-1.001v-5.71Zm1.452.651c1.102 0 1.453.5 1.453 1.002 0 .65-.652.801-1.453.951h-.651V30.32h.651Z" fill="#fff"/><path fill-rule="evenodd" clip-rule="evenodd" d="M192.069 27.215a5.045 5.045 0 0 1 5.058 5.058 4.876 4.876 0 0 1-4.708 5.059h-.35a5.045 5.045 0 0 1-5.059-5.059c0-2.754 2.254-5.058 5.059-5.058Zm4.056 5.209a4.148 4.148 0 0 1-4.056 4.257h-.251c-2.254-.2-3.956-2.154-3.806-4.408a4.148 4.148 0 0 1 4.057-4.257 4.213 4.213 0 0 1 4.056 4.408ZM68.863 54.961c-.651 1.803-2.103 3.907-7.012 5.209-1.252.3-2.504.701-3.756 1.152-.144.061-.229.427-.334.882-.152.653-.346 1.489-.818 1.872a3.798 3.798 0 0 0-.262.241c-.642.629-1.42 1.389-8.052 1.212-7.512-.2-20.534-.801-20.534-.801-.651 1.001-2.755 4.056-11.42 1.953l-.12-.032c-2.407-.637-4.595-1.216-5.088-6.98-.05-2.254 0-4.457.15-6.661-.55-8.464-.15-16.878 1.152-25.242a150.758 150.758 0 0 1 4.057-18.882c-1.152-1.653-2.604-4.557 2.304-6.51C24.088-.082 29.748-.633 35.107.72c2.604.5 3.756 3.606 2.955 4.557l-.193.236c-.713.864-1.288 1.562-1.61 5.474-.351 4.257-2.304 19.232-3.606 26.394-.366 2.008-.77 4.209-1.163 6.348-1.01 5.49-1.943 10.57-1.943 10.93 0 .502.35.802 1.803 1.002.674.093 1.64.208 2.575.319 1.082.128 2.124.252 2.634.332.952.15 1.453 0 .651-2.103a37.949 37.949 0 0 1 0-17.43 54.946 54.946 0 0 1 6.21-16.126c1.453-2.104 3.106-4.257 6.361-2.755 3.255 1.503 4.908 2.955 4.257 6.661-.901 4.458-2.454 8.715-4.557 12.722-1.052 2.404-2.605 4.607-4.558 6.36a9.015 9.015 0 0 1-1.078.49c-.82.33-1.526.614-1.526 1.313-.15 2.204 0 4.408.5 6.511.652 1.002 2.605 0 4.558-2.304a24.545 24.545 0 0 0 4.908-11.269 42.554 42.554 0 0 1 4.558-11.419c1.102-2.003 3.656-2.804 5.71-1.803 2.654.551 4.457 3.005 4.257 5.71-.1 3.305-.852 6.56-2.104 9.616-1.953 4.708-3.907 8.965-5.56 9.616-.472.186-.9.307-1.269.411-.923.26-1.485.42-1.485 1.242a4.1 4.1 0 0 0 3.105 4.407 6.616 6.616 0 0 0 6.862-2.103c.4-.401 3.155-.902 2.504.901ZM46.876 33.075c-.295.487-.486.914-.65 1.282-.394.88-.639 1.425-1.804 1.673-.35 0-.35-1.303.551-3.657.802-2.253 1.453-4.056 1.453-4.056.65-1.302 2.253-2.254 2.103-.802a17.828 17.828 0 0 1-1.653 5.56Zm15.176.5a19.041 19.041 0 0 1-2.955 8.815c-.351.501-1.303 1.302-1.603-.05a25.47 25.47 0 0 1 1.452-6.36c.3-.952 1.453-3.406 1.453-3.406.5-.45 1.653-.801 1.653 1.002Z" fill="#fff"/><path fill-rule="evenodd" clip-rule="evenodd" d="M192.069 27.215a5.045 5.045 0 0 1 5.058 5.058 4.876 4.876 0 0 1-4.708 5.059h-.35a5.045 5.045 0 0 1-5.059-5.059c0-2.754 2.254-5.058 5.059-5.058ZM68.863 54.96c-.651 1.803-2.103 3.907-7.012 5.209-1.252.3-2.504.701-3.756 1.152-.144.061-.229.427-.334.882-.152.653-.346 1.489-.818 1.872a3.798 3.798 0 0 0-.262.241c-.642.629-1.42 1.389-8.052 1.212-7.512-.2-20.534-.801-20.534-.801-.651 1.001-2.755 4.056-11.42 1.953l-.12-.032c-2.407-.637-4.595-1.216-5.088-6.98-.05-2.254 0-4.457.15-6.661-.55-8.464-.15-16.878 1.152-25.242a150.758 150.758 0 0 1 4.057-18.882c-1.152-1.653-2.604-4.557 2.304-6.51C24.088-.082 29.748-.633 35.107.72c2.604.5 3.756 3.606 2.955 4.557l-.193.236c-.713.864-1.288 1.562-1.61 5.474-.351 4.257-2.304 19.232-3.606 26.394-.366 2.008-.77 4.209-1.163 6.348-1.01 5.49-1.943 10.57-1.943 10.93 0 .502.35.802 1.803 1.002.674.093 1.64.208 2.575.319 1.082.128 2.124.252 2.634.332.952.15 1.453 0 .651-2.103a37.949 37.949 0 0 1 0-17.43 54.946 54.946 0 0 1 6.21-16.126c1.453-2.104 3.106-4.257 6.361-2.755 3.255 1.503 4.908 2.955 4.257 6.661-.901 4.458-2.454 8.715-4.557 12.722-1.052 2.404-2.605 4.607-4.558 6.36a9.015 9.015 0 0 1-1.078.49c-.82.33-1.526.614-1.526 1.313-.15 2.204 0 4.408.5 6.511.652 1.002 2.605 0 4.558-2.304a24.545 24.545 0 0 0 4.908-11.269 42.554 42.554 0 0 1 4.558-11.419c1.102-2.003 3.656-2.804 5.71-1.803 2.654.551 4.457 3.005 4.257 5.71-.1 3.305-.852 6.56-2.104 9.616-1.953 4.708-3.907 8.965-5.56 9.616-.472.186-.9.307-1.269.411-.923.26-1.485.42-1.485 1.242a4.1 4.1 0 0 0 3.105 4.407 6.616 6.616 0 0 0 6.862-2.103c.4-.401 3.155-.902 2.504.901Zm128.715 6.31a13.665 13.665 0 0 1-11.419-1.151c-6.211-3.756-7.012-14.524-7.162-16.628-.15-2.103-.651-2.103-.801-1.803-1.152 6.861-3.106 17.43-8.465 19.533-3.305 1.652-7.312.25-8.965-3.056a6.1 6.1 0 0 1-.35-.85 27.522 27.522 0 0 1-1.152-8.816c0-1.151-.351-1.302-.351-1.302-.501 4.558-2.404 8.865-5.559 12.22-1.32 1.422-3.167 2.044-4.38 2.451-.581.196-1.017.342-1.179.505a66.507 66.507 0 0 0-.351 12.22c.15 3.255-.35 5.058-2.604 5.359-2.304.35-2.955-1.302-3.105-3.406-.151-2.103-.151-16.477 0-21.035.15-4.557 1.302-18.08 1.302-18.08l-1.002.35a68.24 68.24 0 0 1-1.302 12.371 29.46 29.46 0 0 1-5.209 12.37c-1.602 2.305-4.808 2.906-7.112 1.253l-.551-.45c-2.103-1.453-3.606-4.408-3.405-11.07.35-5.108 1.302-10.116 2.955-14.974-.309 0-.91-.08-1.543-.162-.701-.092-1.442-.189-1.863-.189a30.413 30.413 0 0 1-.351 12.571c-1.302 10.768-5.859 14.524-9.115 14.675-3.255.15-5.359-3.406-6.01-4.558a96.003 96.003 0 0 1-8.614 4.057 17.965 17.965 0 0 1-16.127-1.152c-5.66-3.556-8.665-10.017-7.813-16.628a81.611 81.611 0 0 1 4.057-21.336 86.128 86.128 0 0 1 8.965-20.384c.7-1.152 1.803-1.953 3.105-2.303.951 0 1.853.1 2.754.35 1.453.15 5.56.501 7.663.501 2.054.05 4.057.55 5.86 1.452.078.06.18.118.301.186.888.498 2.81 1.577 3.956 8.63.851 6.26.1 12.67-2.103 18.58-1.453 5.059-3.907 7.012-5.86 6.36-1.777-.592-1.523-2.676-.973-7.194v-.002l.001-.004c.054-.447.112-.918.17-1.414a37.344 37.344 0 0 0 0-11.569c-.35-2.304-1.001-3.606-2.303-3.606-.802.35-3.256 3.255-4.909 10.417-1.853 7.463-2.754 15.126-2.754 22.838.15 7.663 2.955 11.069 7.312 11.27a9.278 9.278 0 0 0 6.661-3.256c.228-.326.16-.567.084-.833a1.651 1.651 0 0 1-.084-.47 33.715 33.715 0 0 1 3.105-14.824c1.302-3.856 3.957-7.112 7.513-9.115 2.075-.678 2.968.614 3.8 1.816.152.22.302.436.457.638.943 1.225 1.708 1.164 3.423 1.028l.333-.026c1.453-.301 2.755-1.002 3.756-2.104 1.052-1.953 2.405-3.756 3.907-5.359 1.753-.901 3.907-.801 5.559.35 1.235 1.14 1.569 2.8 1.85 4.196.164.813.31 1.536.604 2.015.802-.15 1.002-.35 1.653-1.152a25.825 25.825 0 0 0 1.152-5.86 58.61 58.61 0 0 1 1.803-8.314c1.803-1.652 2.955-1.452 5.209-.8 2.199.634 1.203 3.893.828 5.12l-.027.088c-.35 1.152-.35 2.103.15 2.103 2.104-.25 4.107.902 5.059 2.755a34.02 34.02 0 0 1 1.953 15.175c-.15 1.152.351 1.302.351 1.302a69.444 69.444 0 0 1 3.606-13.372c1.152-2.905 3.455-5.108 6.36-6.21 2.157-.573 2.534.248 3.036 1.34.069.15.141.305.22.463a29.403 29.403 0 0 1-1.453 16.477c-2.103 6.36-4.908 8.164-7.312 8.965-.501 5.86 1.803 7.513 2.755 7.663 3.493.146 4.213-1.965 6.03-7.286l.18-.527c1.452-5.61 2.254-11.319 2.304-17.129.15-4.557 1.002-5.359 1.953-6.01a11.394 11.394 0 0 1 4.257-1.302c3.105.35 1.653 2.604.501 2.955-1.152.35-1.002 1.302-.501 1.453 1.052.35 1.803 1.302 1.803 2.454a65.69 65.69 0 0 0 1.453 17.429c.801 2.955 2.905 5.309 5.709 6.51 3.306.952 6.862.501 9.767-1.302 2.754-1.302 3.405-.8 3.606-.15.35 2.154-2.104 3.806-7.012 5.71ZM59.097 42.392a19.041 19.041 0 0 0 2.955-8.816c0-1.803-1.152-1.452-1.653-1.001 0 0-1.152 2.454-1.453 3.406a25.47 25.47 0 0 0-1.452 6.36c.3 1.352 1.252.551 1.603.05Zm-12.872-8.034c-.393.88-.638 1.425-1.803 1.673-.35 0-.35-1.303.551-3.657.802-2.253 1.453-4.056 1.453-4.056.65-1.302 2.253-2.254 2.103-.802a17.828 17.828 0 0 1-1.653 5.56c-.295.487-.486.914-.65 1.282Zm72.972 3.476a32.196 32.196 0 0 0-4.257 15.475c0 1.303.351 2.104 1.452 2.104 1.102 0 1.954-1.302 3.406-7.012 1.452-5.71 1.953-10.267.801-11.269-.5-.05-1.051.25-1.402.702Zm12.07 11.118c.802-5.058 2.254-9.916 4.408-14.524 1.602-2.154 2.253-1.302 2.454 1.152 0 5.008-.752 9.916-2.304 14.674-1.953 6.31-3.256 7.012-4.057 6.661-.851-.3-1.002-2.904-.501-7.963Zm20.034-18.631c-1.453 4.207-2.304 8.564-2.605 13.022-.35 3.756-.3 7.512.15 11.269.351 1.001 1.453 1.452 2.304-.651 1.403-4.057 2.304-8.264 2.605-12.572.501-3.756.4-7.562-.351-11.268-.451-.952-1.452-1.102-2.103.2Zm18.23 3.255a17.097 17.097 0 0 1-2.755 8.815c-1.452 1.453-2.103.15-2.303-1.152.551-2.955 1.502-5.81 2.955-8.464 1.302-1.803 2.103-1.302 2.103.801Zm22.538 3.106a4.148 4.148 0 0 0 4.056-4.257 4.213 4.213 0 0 0-4.056-4.408 4.148 4.148 0 0 0-4.057 4.257c-.15 2.254 1.552 4.207 3.806 4.408h.251Zm-.151-7.162c-.346 0-.651.042-.935.082-.249.035-.483.068-.717.068v5.71h1.001v-2.455h.651c.651 0 1.002.2 1.152 1.002 0 .501.1 1.002.351 1.453h1.002l-.055-.247a15.945 15.945 0 0 0-.296-1.206c-.2-.952-.501-1.302-1.002-1.452.701-.05 1.202-.651 1.152-1.302 0-.451-.15-.852-.501-1.152a2.617 2.617 0 0 0-1.803-.501Zm-.2.801c1.102 0 1.453.5 1.453 1.002 0 .65-.652.801-1.453.951h-.651V30.32h.651Z" fill="#fff"/></svg>