<svg width="200" height="80" fill="none" xmlns="http://www.w3.org/2000/svg"><path d="M199.476 33.098a2.15 2.15 0 0 1-.85.851 2.324 2.324 0 0 1-1.144.306c-.398 0-.779-.102-1.143-.306a2.142 2.142 0 0 1-.849-.85 2.322 2.322 0 0 1-.303-1.145c0-.4.101-.783.307-1.152.206-.367.492-.65.859-.85a2.34 2.34 0 0 1 1.129-.298c.388 0 .765.1 1.13.299.368.199.654.482.859.85.206.368.309.752.309 1.15 0 .399-.102.78-.304 1.145Zm.185-2.406a2.323 2.323 0 0 0-.941-.929 2.575 2.575 0 0 0-1.238-.325c-.422 0-.834.107-1.235.325a2.313 2.313 0 0 0-.942.93 2.546 2.546 0 0 0-.338 1.26c0 .437.11.855.333 1.254.222.4.533.712.93.933.4.221.816.331 1.252.331.435 0 .852-.11 1.252-.331.399-.221.71-.532.932-.933.223-.399.334-.817.334-1.253a2.56 2.56 0 0 0-.339-1.262Zm-2.623 1.194h-.106v-1.264a.918.918 0 0 1 .298-.056c.207 0 .379.065.511.194a.64.64 0 0 1 .202.481.58.58 0 0 1-.217.46c-.145.123-.373.185-.688.185Zm1.429 1.163-.741-1.058c.282-.073.482-.179.605-.314a.72.72 0 0 0-.086-1.038c-.181-.155-.442-.233-.785-.233h-1.37v.128c.108 0 .181.014.225.044.045.03.075.072.091.126.008.03.011.133.011.309v1.858c0 .174-.005.274-.014.306a.25.25 0 0 1-.105.138.498.498 0 0 1-.249.046v.118h1.301v-.118c-.159 0-.264-.018-.317-.053-.054-.035-.087-.093-.101-.17v-1.096h.269l1.044 1.437h.651v-.118a.408.408 0 0 1-.187-.053 1.037 1.037 0 0 1-.242-.259ZM18.393 30.016c-.876 1.984-1.314 4.271-1.314 6.866l.134 8.659c0 1.652-.248 3.016-.744 4.091-.495 1.073-1.175 1.948-2.038 2.622-.622.483-1.639 1.017-3.049 1.602 1.206-.954 1.992-1.85 2.36-2.69.52-1.156.78-2.77.78-4.843l-.115-8.45c0-2.517.286-4.503.858-5.96a10.894 10.894 0 0 1 2.554-3.843c.85-.814 2.179-1.659 3.982-2.536-1.675 1.615-2.812 3.108-3.408 4.482Zm6.815-6.551-.676-.63c-.93.7-1.81 1.196-2.643 1.489-.833.292-1.84.438-3.024.438-1.26 0-2.995-.253-5.207-.763-2.76-.623-4.718-.935-5.874-.935-1.845 0-3.402.578-4.675 1.737-1.272 1.158-1.907 2.43-1.907 3.816 0 .954.257 1.72.773 2.3.515.578 1.11.868 1.784.868.522 0 .951-.172 1.288-.516.338-.343.506-.769.506-1.278 0-.457-.153-.842-.458-1.155a1.494 1.494 0 0 0-1.107-.467c-.203 0-.436.058-.696.172-.26.115-.455.171-.583.171a.463.463 0 0 1-.352-.152.56.56 0 0 1-.144-.4c0-.535.311-1.06.935-1.575.624-.515 1.476-.773 2.557-.773.828 0 2.01.276 3.55.83 1.54.553 2.938.83 4.199.83 1.22 0 2.74-.286 4.56-.858-1.997 1.285-3.442 2.388-4.332 3.31-.89.923-1.502 1.813-1.832 2.672-.08.21-.153.44-.217.685l-.013.055c-.006.023-.01.05-.015.074-.143.722-.613 4.224.723 14.71.002.02.003.04.007.061l.068.533-.021-.004c.011.16.04.318.04.479 0 1.03-.307 1.86-.925 2.49-.617.63-1.42.944-2.413.944-.51 0-1.292-.171-2.348-.514-.738-.243-1.405-.363-2.003-.363-1.426 0-2.57.47-3.435 1.409C.763 53.75.33 54.677 0 55.935l.772.333c.217-.534.446-.884.687-1.049.357-.242.814-.363 1.374-.363.661 0 1.52.21 2.576.63.776.293 1.339.48 1.689.563.35.082.753.124 1.211.124 1.654 0 3.568-.719 5.744-2.157 2.63-1.73 4.523-3.74 5.68-6.03.877-1.743 1.316-4.376 1.316-7.9a138.2 138.2 0 0 0-.039-3.32c-.05-2.023-.077-3.429-.077-4.218 0-1.577.303-3.037.907-4.379.604-1.342 1.727-2.91 3.368-4.704ZM188.232 33.73l.266-.133 4.76 5.275-5.026 3.523V33.73Zm8.549 3.95-5.381-6.277c-2.113 1.081-3.454 1.755-4.027 2.022-.789.356-1.782.751-2.976 1.183v10.916c0 1.246-.074 2.057-.219 2.433-.148.375-.437.69-.87.944v.477c1.504.319 2.663.624 3.479.916.815.293 1.853.777 3.115 1.45l6.173-4.312-.42-.573-2.996 2.042-4.427-1.755v-3.474l8.549-5.992Zm-18.368 11.09-2.176-1.565V36.098l1.891-1.72 2.412 3.055 2.891-2.566-2.891-3.463-4.303 3.74c0-.674-.127-1.203-.384-1.584-.394-.611-1.135-1.33-2.221-2.156l-3.979 3.453.468.554c.499-.51.891-.763 1.177-.763.262 0 .502.161.719.487.218.324.328.976.328 1.955v7.786c0 1.132-.087 1.898-.259 2.299-.172.401-.537.799-1.096 1.193v.42a9.726 9.726 0 0 1 2.315.954c.704.408 1.576 1.075 2.617 2.004l4.895-3.913-.439-.61-1.965 1.546Zm-9.87-.115c-.247 0-.474-.171-.683-.515-.324-.496-.488-1.323-.488-2.481v-10.02l1.546-1.402-3.405-2.833-3.35 2.833 1.356 1.402v10.42l-3.494 2.574c-.738-.535-1.202-.977-1.392-1.327-.191-.351-.287-.903-.287-1.654V35.506l1.432-1.269-3.464-2.833-4.512 3.701.467.593c.533-.433.933-.65 1.2-.65.356 0 .638.178.845.535.118.203.178.637.178 1.297v9.427c0 1.195.19 2.16.571 2.891.379.731 1.185 1.581 2.416 2.548 2.051-1.81 4.065-3.35 6.04-4.618.024 1.233.192 2.133.503 2.7.31.566.973 1.205 1.986 1.918l4.055-3.11-.467-.592c-.521.406-.871.61-1.053.61ZM147.314 26.92h-.555l-5.324 6.567v.838h1.794v10.949c0 .89-.107 1.573-.324 2.044-.166.369-.503.726-1.012 1.07v.382c1.808.522 3.428 1.514 4.857 2.977l4.208-3.359-.478-.572-1.221.954-2.137-1.584V34.324h3.836v-2.138h-3.836l.192-5.267Zm-7.531 21.735c-.246 0-.474-.171-.681-.515-.326-.496-.488-1.323-.488-2.481v-10.02l1.544-1.402-3.405-2.833-3.349 2.833 1.355 1.402v10.42l-3.494 2.574c-.738-.535-1.201-.977-1.392-1.327-.191-.351-.286-.903-.286-1.654V35.506l1.431-1.269-3.464-2.833-4.512 3.701.468.593c.532-.433.933-.65 1.199-.65.356 0 .638.178.847.535.117.203.176.637.176 1.297v9.427c0 1.195.19 2.16.571 2.891.381.731 1.186 1.581 2.416 2.548 2.051-1.81 4.065-3.35 6.04-4.618.026 1.233.193 2.133.503 2.7.311.566.974 1.205 1.987 1.918l4.055-3.11-.467-.592c-.521.406-.872.61-1.054.61Zm-20.753 0-4.981-2.042V34.665c.65.117 1.203.259 1.661.425.649.232 1.755.714 3.32 1.447v12.117Zm-8.834-13.969v10.477c0 1.03-.091 1.762-.267 2.194-.128.331-.433.7-.917 1.107l.191.382c1.159.051 2.197.242 3.114.573 1.21.432 2.739 1.208 4.585 2.328.6-.547 1.225-1.006 1.874-1.374.853-.496 2.237-1.133 4.148-1.909V34.19c-2.689-.661-4.937-1.59-6.746-2.785-1.657 1.411-3.651 2.505-5.982 3.281ZM92.642 47.061c-1.165-.603-2.26-1.47-3.279-2.601 1.671-1.388 2.973-2.623 3.904-3.706.46-.534.754-1.038.882-1.51.114-.356.172-1.075.172-2.158v-8.71l2.233-1.935.19 21.831c-1.568-.203-2.935-.606-4.102-1.21Zm10.699.386c-1.504.626-3.169.94-4.996.94l-.723-.019-.19-21.793c2.657 1.324 5.042 2.1 7.156 2.33l3.148-3.007-.315-.697h-.438c-1.472 0-2.755-.11-3.847-.333-1.092-.223-2.589-.71-4.492-1.46l-8.178 6.813v8.549c0 1.907-.076 3.075-.229 3.501-.153.426-.61.952-1.373 1.574-1.77-2.277-2.654-4.757-2.654-7.442 0-2.214.599-4.262 1.794-6.145.929-1.463 2.341-2.837 4.237-4.122l-.468-.534c-2.898 1.743-4.994 3.537-6.29 5.382-1.652 2.353-2.478 4.91-2.478 7.67 0 2.24.585 4.415 1.755 6.528 1.17 2.11 2.79 3.733 4.857 4.864a13.55 13.55 0 0 0 6.612 1.7c1.578 0 3.168-.27 4.77-.812 1.604-.542 2.974-1.264 4.113-2.169 1.139-.905 2.299-2.172 3.483-3.803l-.582-.563c-1.612 1.406-3.169 2.422-4.672 3.048Zm-32.038-3.783c-.753 1.405-2.024 2.758-3.811 4.055V36.882l2.846-2.275c1.398 1.64 2.097 3.321 2.097 5.038 0 1.273-.377 2.613-1.132 4.019Zm-3.811-7.662v-.42c0-.954-.162-1.704-.486-2.252-.325-.546-1.034-1.189-2.127-1.926l-4.009 3.339.478.63c.113-.101.195-.179.245-.229.341-.331.618-.496.832-.496.266 0 .512.178.739.533.29.458.435 1.324.435 2.596v9.121c0 .752-.051 1.333-.153 1.746-.103.414-.295.863-.577 1.346-.102.178-.365.484-.788.916-.883.89-1.324 1.806-1.324 2.747 0 .955.393 1.778 1.182 2.472.79.693 1.914 1.04 3.378 1.04 1.399 0 2.557-.318 3.473-.955.598-.394.897-.794.897-1.202a.72.72 0 0 0-.23-.553c-.152-.14-.355-.21-.61-.21a.939.939 0 0 0-.591.191c-.166.127-.363.398-.592.811-.228.413-.465.684-.706.811-.496.267-1.126.4-1.889.4-1.056 0-1.906-.276-2.547-.83-.643-.553-.965-1.153-.965-1.803 0-.381.09-.724.268-1.03.241-.42.648-.853 1.22-1.297.269-.217 1.076-.732 2.424-1.546 3.092-1.845 5.331-3.337 6.718-4.475 1.386-1.138 2.405-2.341 3.053-3.606.648-1.266.974-2.536.974-3.807 0-2.366-.99-4.588-2.968-6.66l-5.754 4.598ZM57.943 48.9l-3.755-1.678V35.048l3.73 2.157 2.032-2.968L55 31.404c-1.55 1.5-3.118 2.613-4.705 3.339V45.6c0 1.056-.101 1.832-.305 2.328-.14.356-.432.687-.878.992v.458c1.258.242 2.319.525 3.182.849.864.325 1.905.83 3.126 1.518l4.722-3.474-.201-.816-1.997 1.445Zm-9.522-24.024h-2.424L45.023 29h.764l2.634-4.122Zm.238 22.957c-.505.42-.839.675-.999.762a.767.767 0 0 1-.38.097c-.195 0-.384-.165-.568-.497-.184-.33-.276-1.042-.276-2.137v-10.38l1.507-1.46-3.387-2.814-3.368 2.814 1.432 1.46v10.648c0 1.603.146 2.726.44 3.368.294.643.952 1.326 1.974 2.052l4.092-3.322-.467-.59Zm-9.096.82c-.247 0-.475-.171-.684-.515-.324-.496-.486-1.323-.486-2.481V35.639l1.544-1.402-3.405-2.833-3.35 2.833 1.356 1.402v10.42l-3.494 2.574c-.738-.535-1.202-.977-1.392-1.327-.191-.351-.286-.903-.286-1.654V35.506l1.431-1.269-3.464-2.833-4.512 3.701.467.593c.533-.433.933-.65 1.2-.65.356 0 .638.178.845.535.118.203.178.637.178 1.297v9.427c0 1.195.19 2.16.571 2.891.38.731 1.186 1.581 2.416 2.548 2.051-1.81 4.065-3.35 6.04-4.618.025 1.233.193 2.133.504 2.7.31.566.972 1.205 1.986 1.918l4.055-3.11-.467-.592c-.52.406-.872.61-1.053.61Z" fill="#fff"/></svg>