<svg width="200" height="80" fill="none" xmlns="http://www.w3.org/2000/svg"><path d="M62.828 36.655h-8.905v-8.489h-4.426V51.83h4.426V40.679h8.905v11.15h4.425V28.167h-4.425v8.49Zm47.305 15.185V28.156h4.213l.004 19.432-.154.217h8.087c2.186 0 3.053-.158 3.913-.75v4.785h-16.063ZM.007 42.846c-.096 3.156.791 5.704 2.366 7.393 1.341 1.434 3.44 2.159 5.676 2.159 4.385 0 6.615-2.992 7.445-4.286V28.101h-4.218v14.93c0 4.079-1.514 5.237-3.57 5.237-.982 0-1.903-.49-2.418-1.071-1.14-1.294-1.539-2.949-1.223-5.82l.092-.892-4.15 2.361Zm24.74 6.144c-1.944-2.331-2.932-5.341-2.932-8.99 0-3.621.988-6.66 2.96-9.024 1.858-2.236 4.422-3.374 7.605-3.374 3.184 0 5.718 1.138 7.577 3.374 1.973 2.366 2.988 5.403 2.988 9.052 0 3.62-1.015 6.63-2.958 8.962-1.917 2.3-4.423 3.404-7.607 3.404-3.183 0-5.718-1.104-7.633-3.404Zm13.774-8.854c0-5.388-2.609-8.536-6.14-8.536-3.502 0-6.139 3.148-6.139 8.432 0 5.254 2.606 8.364 6.139 8.364 3.5 0 6.14-3.179 6.14-8.26Zm94.475 8.854c-1.945-2.331-2.931-5.341-2.931-8.99 0-3.621.986-6.66 2.958-9.024 1.862-2.236 4.426-3.374 7.605-3.374 3.187 0 5.72 1.138 7.578 3.374 1.976 2.366 2.99 5.403 2.99 9.052 0 3.62-1.014 6.63-2.958 8.962-1.917 2.3-4.422 3.404-7.609 3.404-3.179 0-5.716-1.104-7.633-3.404Zm13.775-8.854c0-5.388-2.607-8.536-6.142-8.536-3.499 0-6.137 3.148-6.137 8.432 0 5.254 2.607 8.364 6.137 8.364 3.503 0 6.142-3.179 6.142-8.26Zm24.997-1.476-.276-.097.292-.097c1.885-.574 2.769-3.013 2.429-5.173-.536-3.424-3.045-5.136-8.686-5.136h-7.845v23.684h9.266c5.787 0 8.73-2.288 8.73-7.004 0-3.606-1.902-5.505-3.91-6.178Zm-9.873-6.8h4.296c2.154 0 3.791.484 3.791 2.436v.004c0 1.953-1.637 2.436-3.791 2.436l-4.296.002v-4.877Zm4.627 16.276h-4.627v-7.659h3.941c3.203 0 5.164 1.232 5.164 3.748-.001 3.282-2.368 3.911-4.478 3.911Zm-78.074-4.311v-15.67h4.322l-.002 23.679h-4.32l-8.756-14.846-.36-.838.003 15.692h-4.323V28.154h4.322l8.755 14.832.36.839Zm107.643-5.165-.276-.097.292-.097c1.885-.574 2.769-3.013 2.429-5.173-.536-3.424-3.045-5.136-8.69-5.136h-7.842v23.684h9.262c5.791 0 8.734-2.288 8.734-7.004 0-3.606-1.901-5.505-3.909-6.178Zm-9.873-6.8h4.296c2.15 0 3.791.484 3.791 2.436v.004c0 1.953-1.641 2.436-3.791 2.436l-4.296.002v-4.877Zm4.623 16.276h-4.623v-7.659h3.941c3.203 0 5.159 1.232 5.159 3.748 0 3.282-2.367 3.911-4.477 3.911Z" fill="#fff"/></svg>