<svg width="200" height="80" fill="none" xmlns="http://www.w3.org/2000/svg"><path d="M2.25 39.009c1.4-.067 2.9 2.166 3.967.367.333-.534.433-4.4.333-6.6-.133-3.366.1-4.333 2.733-6.433 2.4-1.866 4.533-3.533 7-4.866.566-.2 1.166-.033 1.5.267.366.3.533.933-.034 1.566-1.966 1.967-3.7 3-5.7 4.567-.733.566-1.832 1.366-2.066 2.333-.166 4.5 1.833 10.232-2.966 13.365-2.3 1.067-4.966.2-6.666-1.5-.334-.333-.467-.866-.234-1.266.567-.7 1.2-1.633 2.134-1.8Zm25.665 5.966c-.8.8-2.067.967-2.2.9-.233-.1-.267-.167-.367-.333-.1-.134-.4-.8-.633-1.267-.5-1.133-.733-2.333-1.166-3.566 0 0-.034-.1-.1-.167-.034-.067-.134-.067-.234.033-1.4 1.267-2.733 2.767-4.433 3.433-.7.134-1.2-.366-1.5-.9-.2-.366-.5-1.133-.666-.966-1.6 1.033-3.666 2.733-5.666 1.3-1-.8-.667-2.367-.3-3.267 1.066-2.6 2.7-4.5 5.533-5.766.633-.3 1.666-.3 2.133 0 1.7 1.334.9 3.6 1.2 5.367.266.366.733.5 1.2.233.866-.6 2.066-1.4 2.466-1.967-.067-5.966 1.133-11.699 5.833-15.665.5-.4 1.2-.366 1.5-.1 1.433 1.233 1.666 3.866 1 6.333-.967 3.266-2.8 6.333-5.1 9-.067 2.332.967 4.399 1.767 6.699.133.433-.1.5-.267.666Zm-14.299-4.5c.067.367.467.667.867.667 1.2-.267 2-1.433 2.4-2.5.133-.566.433-1.466-.067-2.033-.267-.133-.533-.1-.9.133-1.4.867-2.333 2.134-2.3 3.733Zm12.866-9.199c-.034.6-.234 1.6-.067 2.1 1.166-.966 1.733-2.3 2.466-3.7.567-1.266 1.2-3.466.267-4.4-.267-.166-.767.334-.933.668-.967 1.666-1.433 3.5-1.733 5.332Z" fill="#fff"/><path d="M30.915 43.608c-.9-2.533-1.767-6.232-1.8-7.066-.034-.866.7-1.5 1.366-1.966.4-.2.967-.567 1.333-.267.434.3.834 3.033 1.334 4.6.066.167.233.067.466-.2 2.167-2.033 4.1-6.233 7.666-4.633 1.467.6 3.633-1.233 4.633.7.9 1.766-.4 4.066.6 5.966.3 1.267 3.1.067 1.8 1.633-.967 1.067-2.233 1.733-3.633 1.267-.733-.2-1.2-1.4-1.8-1.133-1.366.933-3.1 1.9-4.766 1.133-.467-.334-.833-.8-.8-1.433.133-2.534 1.133-4.2 2.233-5.667.067-.1.167-.266.067-.366-.3-.267-.7 0-1.033.233-2.467 2.1-4.3 4.8-6.4 7.233-.3.3-.433.4-.8.366-.233-.066-.333-.2-.466-.4Zm9.532-3.332c.167.3.567.433.933.333 1.334-.567 2.167-2 2.367-3.4 0-.4-.267-.733-.7-.733-1.5.5-2.733 2.166-2.6 3.8Zm17.998-4.134c-.133-.266-.566-.2-.866-.266-1.433-.033-1.567-.533-2 .833-.9 2.167-1.533 4.466-2.933 6.433-.333.433-.867.566-1.367.4-.966-.433-1.333-1.433-1.7-2.3-.766-2.466-1.733-4.833-2.2-7.433-.066-.7.067-1.8 1-2.166 1.2-.433 4.134.8 5.634 1.066.1.034.233-.066.466-.933.567-2.966 1.267-5.933 1.667-8.999a1.11 1.11 0 0 1 .933-.8c.7.034 1.366.267 1.8.8.166.2.166.6.166.833-.233 3.2-1.266 6.3-2.033 9.4-.133.566.633.6 1.2.7 2.566.666 4.433-.067 6.733-.734.633-.166 1-.367 1.366-.066 1.134 1 2.7.533 3 1.966.4 1.8.167 4.266 1.567 5.233.433.233.833-.067 1.133-.233.766-.534 0-.434.533-2.634.333-1.533 1.5-3.133 3.067-3.7.866-.3 1.866-.3 2.766 0 1.133.634 1.666 1.834 1.5 3.134-.334 2.166-2.167 2.333-3.3 3.366-.067.334.3.733.667.833 2.266.567 5.466-1.6 7.799.5.533.467-.533 1.434-.8 1.7-.167.134-.367.1-.5.067-.966-.367-2.366-1.033-3.633-.467-1.766.7-4.1 1.833-5.866.334-.567-.3-.7-1.234-1.4-.967-1.3.6-3.266 2.133-4.233 1.2-1.8-2.133-1.333-5.066-2.566-7.433-.267-.366-.8-.6-1.133-.4-.367.234.4.9.366 1.967.133 2.333-1.166 4.766-3.5 5.8-1.1.6-2.9.532-3.9-.234-1.133-1-1.266-2.7-.866-4 .334-.866.767-1.666 1.333-2.466a.37.37 0 0 0 .1-.334Zm-7.532 1.9c.033.334.166.6.266.934.067.233.267.833.5.9.134.033.2-.034.367-.3.633-1.1.933-2.1 1.2-3.567.033-.266-.034-.333-.167-.433-.833-.5-1.633-.667-2.6-.867-.233-.066-.266.167-.233.4.033.167.067.334.1.467.067.167.4 1.233.567 2.466Zm8.666 1.7c0 .534.2 1 .7 1.267.433.166.866 0 1.266-.134.567-.333 1.067-.866 1.267-1.5.166-.8.333-1.9-.4-2.5a1.357 1.357 0 0 0-1.334 0c-1.1.6-1.4 1.8-1.5 2.867Zm15.865-1.7c.866-.2 1.733-.666 2.266-1.433.2-.3.167-.966-.233-1.233-.333-.2-.667-.233-1-.067-.967.5-1.467 1.733-1.033 2.733Zm123.089-4.432c.666 0 1.499.533 1.466 1.4-.033.9-.433 1.366-1.366 1.333l-1.034-.1c-2.833-.4-5.966-.4-8.966-.567-.166 0-.366 0-.466.067-.3.266.033.066.166 1.6.2 2.3-.799 4.632-2.966 5.666-1.333.633-3.333.566-4.533-.2-.833-.667-1.166-1.4-1.366-2.3-.134-.633-.7-.1-.967.1-1.467 1.2-3.933 2.733-4.7 2.866-.533.1-.866-.266-1.033-.7-.233-1.133.4-2 .234-2.966-.067-.167-.134-.067-.234 0-1.6 1.433-3.333 4-5.233 3.666-1.3-.9-.4-2.533-.666-3.866 0-.167-.034-.333-.234-.133-1.133.833-1.966 1.766-3.166 2.6-.833.566-2.566 2.133-3.666 1.3-.667-.5-.367-2.734-.467-3.567-.033-.1-.033-.267-.2-.133-1.266 1.1-2.4 2.933-4.033 3.566-.766.1-1.366-.533-1.7-1.133-.133-.2-.166-.467-.366-.667 0-.033-.134-.067-.267 0-1.433.833-2.6 2.333-4.466 1.867-.6-.167-1.133-.634-1.333-1.234-.234-.533-.034-1.266-.367-1.733-.067-.133-.2-.1-.3 0-.9.8-1.767 1.8-2.6 2.733-1 5.933-2.6 12.4-7.732 15.599-.567.233-1.4.366-2.034.133-1.199-.733-1.533-2.166-1.266-3.566 1.066-3.5 3.5-6.466 5.766-9.5l2.466-2.966c.234-.3 0-.2-.2-.133-1.299.467-2.833 1.266-4.232.467-.534-.234-.734-1.3-1.234-1-.966.7-1.833 1.733-3.199 1.3-.767-.234-.967-1.034-1.334-1.6-.1-.134-.2-.234-.333-.134-.866.534-1.866 1.867-3.2 1.733-.733-.033-1.466-.366-1.799-1.033-.067-.266-.2-.833-.467-.733-1.433.667-1.9 3.533-3.7 2.633-2.1-1.866-1.533-5-1.533-7.633.033-.2-.067-.5-.3-.566-.6-.133-.267.466-.866 2.2-.7 2.1-2.267 4.933-4.833 5.432-.634.034-1.234-.366-1.5-.933-.867-1.733-.267-3.966-.267-5.9 0-.133-.067-.233-.133-.266-.067-.033-.167.067-.2.167-.3.866-.667 1.633-1 2.533-.867 1.9-3.066 3.9-4.833 4.266-2.466.433-4.766-.7-6.133-2.8-.266-.4-.6-1.7-.6-1.9-.066-.6-.4-.7-.566-.733-.134-.033.066 0-.334-.1-1.233-.4-2.433-.7-3.7-.833-.233 0-.366.067-.433.233-1.233 2.733-1.866 5.567-3.1 8.3-.366.633-1.3.533-1.832.4-.467-.134-.734-.267-1.1-.6-.2-.167-.167-.534-.067-.867.5-1.933 1.267-3.533 1.9-5.533-.334-1.9-1.333-3.5-1.667-5.366 0-.467.3-.833.7-.967.767-.166 1.367.034 2.233.167.1-.033.2-.1.167-.233-1.2-3.333-2.2-6.433-2.766-10.033-.067-.566.2-1.166.633-1.433.167-.133.433-.233.867-.2 10.599.4 21.431.967 31.663 1.467.8.066 1.067.2.833 1.366-.499 1.933-2.199 1.5-5.666 1.4-8.366-.2-16.631-1.166-24.797-1.9-.367-.033-.834-.1-.867.4-.033.3.033.7.1.967.4 1.466.733 2.833 1.766 4.2.1.1.234.033.3-.034.834-1 1.5-2.733 2.567-3.4.333-.2 1.1.034 1.3.6.033.167.1.634 0 .934l-1.733 5.866c-.134.4.033 1.166.533 1.366.133.067.633.267.733.3.3.134 2.033.7 2.167.767.333.1.433 0 .6-.167 1.299-1.566 2.733-2.766 4.832-2.7 1.2.034 2.2.834 2.7 1.834.4.833.367 1.933-.1 2.666-.866 1.6-2.6 2.033-4.299 1.967-.567.066.066.833.333 1.133 1 .9 2.433 1.366 3.733.833 1.7-.833 2.966-2.666 3.066-4.466 0-.167-.033-.3-.133-.367-.467-.3-1.133-.966-1.133-1.7 0-.5.266-.9.533-1.3.6-.533 1.233-.6 1.933-.433.4.1.767.567 1.433.633.9.1 1.034-.3 1.534-.333.433-.033.7.267.733.633-.133 1.967-1.167 4.3-.1 6 .233.267.6.333.9.233 1.166-.6 1.533-2.9 1.133-3.6-.467-.766-1.167-1.5-.8-2.5.233-.566.567-.8 1.067-.966 1.166-.366 2.299 1.233 3.733.8.833-.166 1.4-1.166 2.333-.666.166.066.5.433.3.966-.667 2.2-1.033 4.266-.767 6.566.067.267.333.7.7.533 2.3-2.8 3.4-6.699 7.266-7.832 1.7-.434 2.5 2.233 2.667 3.466.166 1.2.333 2.633.999 3.466.234.267.967-.433 1.267-.933 1.167-1.9 2-4.4 3.966-5.733.534-.3 3.033-.033 3.933 1.3.7.967.967 2.9.9 4.433.167.4.533.1.7 0 2.433-2.033 4.6-4.966 7.699-5.833.534-.166 1.4.167 1.667.534 1.033 1.533.933 3.533 1.566 5.233.234.433.734.733 1.267.533 2.066-1.733 3.333-5.366 4.933-6.033.333-.2 1.033.133 1.133.633.4 2-.367 3.8-.567 5.7 0 .433.567.033.834-.133 2.3-1.7 3.333-3.4 4.999-5.633.467-.7 1-1.133 1.633-.6.834.966.334 3.166.267 3.633l-.567 2.866c.067.233.467.033.667-.1 2.467-1.8 3.4-4.933 5.733-6.1.533-.3 1.133-.033 1.4.467.433.867-.867 3.767-1.1 5.567-.033.133.067.2.033.2.3.1 1.3-.667 1.9-1.1 3.033-2 5.066-5.7 9.299-5.367h10.933Zm-96.058 2.133c-.367.466-.3 1.1.333 1.133.7.166 1.433.033 2-.4.2-.167.566-.7.333-1.167-.233-.4-.6-.733-1.233-.6-.633.167-1.067.567-1.433 1.034Zm25.231 2.566c-.1.567-.3 1.133.333 1.567.7.333 1.4-.234 1.733-.567.567-.7.867-1.533.7-2.5-.067-.433-.333-1.033-.966-.767-.934.534-1.467 1.267-1.8 2.267Zm12.132 9.1c-1.767 2.032-3.3 4.066-4.233 6.365-.133.334-.433.767-.133 1.133.466.3.933-.233 1.333-.533a11.344 11.344 0 0 0 3.4-7.1c-.034-.2-.2-.066-.367.134Zm-.9-10c-.433 1.133-1 2.666.067 3.733.333.2.9.2 1.233 0 1.533-.9 1.2-2.666 1.066-4.066-.1-.5-.4-1.067-.999-.967-.534.1-1.1.733-1.367 1.3Zm10.899.633c-.2.6-.067 1.6.567 2.033.466.234 1.033-.066 1.433-.433.733-.866 1.166-1.966.766-3.166-.166-.433-.7-.833-1.1-.6-.799.5-1.333 1.3-1.666 2.166Zm32.497 1.634c.067.366.333.666.667.833.766.2 1.499 0 2.033-.567.566-.733.566-1.9.4-2.7-.2-.4-.7-.866-1.2-.566-.967.633-2.1 1.666-1.9 3Z" fill="#fff"/></svg>