<svg width="164" height="34" fill="none" xmlns="http://www.w3.org/2000/svg"><path d="M21.81 13.09a11.737 11.737 0 0 0-.949-1.775 7.649 7.649 0 0 0-1.323-1.563 6.337 6.337 0 0 0-1.684-1.085 4.613 4.613 0 0 0-1.977-.428c-1.057 0-1.923.198-2.599.592-.675.384-1.013 1.08-1.013 2.089 0 .8.267 1.458.801 1.973.545.516 1.215.976 2.01 1.382.795.394 1.662.773 2.599 1.134a14.25 14.25 0 0 1 2.582 1.3 7.427 7.427 0 0 1 2.01 1.858c.545.735.817 1.672.817 2.812 0 .91-.169 1.7-.507 2.368a4.653 4.653 0 0 1-1.356 1.645 5.829 5.829 0 0 1-1.977.954 8.961 8.961 0 0 1-2.403.312 8.63 8.63 0 0 1-1.454-.132c-.502-.087-.98-.186-1.439-.296a92.552 92.552 0 0 0-1.258-.263c-.381-.087-.686-.131-.915-.131-.196 0-.387.033-.572.099a9.2 9.2 0 0 1-.588.197 46.57 46.57 0 0 0-.589-3.125c-.218-1.03-.446-2.066-.686-3.108l.36-.197c.337.657.74 1.337 1.209 2.039.48.702 1.013 1.349 1.601 1.94a9.058 9.058 0 0 0 1.962 1.48 4.854 4.854 0 0 0 2.32.576c.534 0 1.051-.055 1.553-.164a3.74 3.74 0 0 0 1.323-.576c.382-.274.681-.62.9-1.036.228-.417.342-.926.342-1.53 0-.91-.272-1.65-.817-2.22-.534-.58-1.198-1.09-1.994-1.529a22.943 22.943 0 0 0-2.598-1.217 20.682 20.682 0 0 1-2.615-1.25c-.795-.471-1.46-1.02-1.993-1.644-.534-.636-.801-1.442-.801-2.418 0-.734.141-1.398.425-1.99a4.502 4.502 0 0 1 1.127-1.513 4.841 4.841 0 0 1 1.65-.953 5.685 5.685 0 0 1 1.962-.346c.686 0 1.302.044 1.847.132a25.04 25.04 0 0 1 1.601.312c.545.099 1.073.203 1.585.313a9.079 9.079 0 0 0 1.684.148c0 .822.01 1.639.032 2.45.022.8.082 1.595.18 2.385h-.376Zm40.42-5.295c.675.033 1.34.06 1.993.083a153.629 153.629 0 0 0 4.298 0c.741-.022 1.504-.05 2.288-.083v.33c-.468.043-.871.12-1.209.23a2.41 2.41 0 0 0-.8.427 1.6 1.6 0 0 0-.442.707c-.087.296-.13.68-.13 1.151v10.624c0 .899-.202 1.683-.605 2.352a5.429 5.429 0 0 1-1.618 1.694 7.455 7.455 0 0 1-2.288 1.003c-.84.23-1.71.345-2.615.345-.458 0-1.019-.082-1.683-.247a7.912 7.912 0 0 1-1.929-.723 5.15 5.15 0 0 1-1.569-1.349c-.425-.559-.637-1.25-.637-2.072 0-.504.147-.976.441-1.414.305-.45.785-.674 1.438-.674.447 0 .84.153 1.177.46.349.296.523.62.523.97 0 .263-.033.57-.098.921-.065.351-.19.63-.376.839.076.482.212.877.409 1.184.207.307.452.554.735.74.294.175.61.296.948.362.338.055.686.082 1.046.082.926 0 1.661-.164 2.206-.493.556-.33.98-.751 1.275-1.267a4.732 4.732 0 0 0 .572-1.71c.098-.625.147-1.233.147-1.825V11.15c0-.625-.07-1.113-.213-1.463a1.84 1.84 0 0 0-.637-.872c-.283-.22-.648-.378-1.095-.477-.447-.099-.964-.17-1.552-.214v-.329Zm17.65 2.253-2.73 7.121h5.214l-2.484-7.12Zm-3.023 7.96-1.83 5.049a3.312 3.312 0 0 1-.148.394c-.043.12-.065.241-.065.362 0 .34.098.63.294.872.196.24.43.438.703.592.283.153.572.285.866.394.305.099.556.165.752.198v.312a85.294 85.294 0 0 0-1.667-.082 85.82 85.82 0 0 0-3.334 0c-.523.022-1.079.05-1.667.082v-.312c.567-.143 1.04-.346 1.422-.609.381-.274.702-.597.964-.97.261-.373.485-.784.67-1.233.185-.45.376-.916.572-1.398l4.805-11.89c.076-.12.13-.236.163-.346a.98.98 0 0 0 .066-.328c0-.088-.033-.225-.099-.412a1.968 1.968 0 0 0-.228-.51c.49-.087.91-.202 1.258-.345.349-.153.736-.312 1.16-.477L87.3 23.336c.261.735.62 1.31 1.078 1.727.469.417 1.155.685 2.06.806v.312c-.741-.033-1.477-.06-2.207-.082-.719-.011-1.46-.017-2.222-.017-.49 0-.921.006-1.291.017-.37.01-.703.016-.997.016l-.85.033-.883.033v-.312c.774-.11 1.422-.313 1.945-.609.534-.307.8-.723.8-1.25 0-.142-.032-.29-.097-.444a3.213 3.213 0 0 1-.147-.41l-1.814-5.148h-5.818Zm31.684-10.213c.665.033 1.329.06 1.994.083.664.01 1.334.016 2.01.016.599 0 1.187-.005 1.765-.016.588-.022 1.177-.05 1.765-.083v.33a5.14 5.14 0 0 0-1.079.23c-.316.11-.593.257-.833.444-.24.186-.425.422-.556.707-.131.285-.196.652-.196 1.101 0 .318.033.773.098 1.365.065.582.153 1.24.262 1.974.109.734.228 1.53.359 2.384.142.845.289 1.689.441 2.533.153.844.305 1.65.458 2.418.153.767.294 1.43.425 1.99.076.383.169.717.278 1.002.12.286.283.538.49.757.218.208.512.378.882.51.371.131.861.241 1.471.329v.312a151.3 151.3 0 0 0-2.222-.082 147.86 147.86 0 0 0-4.282 0c-.665.022-1.346.05-2.043.082v-.312c.381-.066.746-.143 1.095-.23.36-.088.67-.214.932-.379.272-.164.484-.389.637-.674.153-.285.229-.674.229-1.168 0-.208-.011-.498-.033-.871a9.72 9.72 0 0 0-.18-1.3l-1.912-11.28h-.049a115.165 115.165 0 0 1-1.65 3.995 252.471 252.471 0 0 0-1.7 3.964 146.668 146.668 0 0 0-1.618 4.029 68.514 68.514 0 0 0-1.438 4.128h-.065a81.387 81.387 0 0 0-3.007-8.338 177.564 177.564 0 0 0-3.612-8.058h-.05c-.14 1.03-.288 2.17-.44 3.42a177.93 177.93 0 0 0-.409 3.651 237.958 237.958 0 0 0-.278 3.24c-.076.976-.114 1.705-.114 2.187 0 .625.043 1.162.13 1.612.088.438.251.81.49 1.118.24.296.567.526.981.69.414.154.954.242 1.618.264v.312c-.773-.033-1.53-.06-2.271-.082-.741-.011-1.498-.017-2.272-.017-.577 0-1.155.006-1.732.017a88.65 88.65 0 0 0-1.7.082v-.312a4.703 4.703 0 0 0 1.16-.214c.382-.132.725-.29 1.03-.477a3.22 3.22 0 0 0 .784-.707 1.88 1.88 0 0 0 .409-.97 68.27 68.27 0 0 0 .31-2.04c.099-.723.191-1.441.278-2.154l1.34-9.95a4.604 4.604 0 0 0-1.405-.789 7.945 7.945 0 0 0-1.602-.444v-.329c.796.033 1.586.06 2.37.083.795.01 1.59.016 2.386.016.578 0 1.15-.005 1.716-.016.567-.022 1.139-.05 1.716-.083v.33c-.36.087-.686.24-.981.46-.294.219-.441.564-.441 1.036 0 .307.049.608.147.904.109.296.224.603.343.921l3.923 9.703a168.605 168.605 0 0 0 2.696-5.97 84.783 84.783 0 0 0 2.337-6.1 2.582 2.582 0 0 0-.735-.593 4.15 4.15 0 0 0-.85-.362v-.329Zm17.804 17.185c.316.088.779.176 1.389.264.61.076 1.177.115 1.7.115 1.111 0 2.108-.093 2.99-.28a8.604 8.604 0 0 0 2.419-.888 9.736 9.736 0 0 0 2.076-1.578 20.928 20.928 0 0 0 1.977-2.303l.294.263-2.516 5.608a25.43 25.43 0 0 0-.981-.082 30.216 30.216 0 0 0-.981-.017H124.27c-.545 0-1.085.006-1.618.017-.534.022-1.068.05-1.602.082v-.312c.654-.066 1.166-.17 1.536-.313.371-.142.649-.373.834-.69.185-.33.305-.752.359-1.267.055-.515.082-1.162.082-1.94v-9.341c0-.779-.027-1.42-.082-1.924-.054-.516-.174-.932-.359-1.25-.185-.33-.474-.57-.866-.724-.382-.153-.905-.252-1.569-.296v-.329c.632.022 1.231.039 1.797.05.567 0 1.15.005 1.749.016l1.912.033h2.304c1.297 0 2.588-.005 3.874-.016 1.296-.022 2.614-.05 3.954-.083-.032.417-.049.817-.049 1.2v1.12c0 .416.017.832.049 1.249.044.406.082.866.115 1.381l-.376.099c-.229-.899-.545-1.628-.948-2.187a4.454 4.454 0 0 0-1.389-1.332 4.528 4.528 0 0 0-1.732-.642 11.659 11.659 0 0 0-1.994-.164 46.35 46.35 0 0 0-3.906.164v6.99c.381 0 .741-.006 1.079-.017.337-.022.697-.033 1.078-.033 1.264 0 2.272-.257 3.024-.773.762-.515 1.225-1.452 1.389-2.812h.327c0 .669-.011 1.338-.033 2.006a122.003 122.003 0 0 0 0 4.013c.022.669.033 1.343.033 2.023h-.327c-.164-.79-.36-1.43-.589-1.924-.228-.493-.539-.872-.931-1.135-.381-.263-.839-.438-1.373-.526-.523-.099-1.155-.148-1.896-.148h-1.781v8.634Zm27.904-11.89a11.8 11.8 0 0 0-.948-1.775 7.644 7.644 0 0 0-1.324-1.563 6.332 6.332 0 0 0-1.683-1.085 4.613 4.613 0 0 0-1.978-.428c-1.056 0-1.923.198-2.598.592-.676.384-1.013 1.08-1.013 2.089 0 .8.267 1.458.801 1.973.544.516 1.214.976 2.01 1.382.795.394 1.661.773 2.598 1.134.937.362 1.798.795 2.582 1.3a7.406 7.406 0 0 1 2.01 1.858c.545.735.818 1.672.818 2.812 0 .91-.169 1.7-.507 2.368a4.652 4.652 0 0 1-1.357 1.645 5.82 5.82 0 0 1-1.977.954 8.964 8.964 0 0 1-2.402.312c-.458 0-.943-.044-1.455-.132-.501-.087-.98-.186-1.438-.296a95.197 95.197 0 0 0-1.258-.263c-.382-.087-.687-.131-.916-.131a1.7 1.7 0 0 0-.572.099c-.174.065-.37.131-.588.197a46.195 46.195 0 0 0-.588-3.125 176.76 176.76 0 0 0-.687-3.108l.36-.197a21.07 21.07 0 0 0 1.209 2.039c.48.702 1.014 1.349 1.602 1.94a9.058 9.058 0 0 0 1.961 1.48 4.856 4.856 0 0 0 2.321.576 7.24 7.24 0 0 0 1.552-.164 3.74 3.74 0 0 0 1.324-.576c.381-.274.681-.62.899-1.036.229-.417.343-.926.343-1.53 0-.91-.272-1.65-.817-2.22-.534-.58-1.199-1.09-1.994-1.529a22.903 22.903 0 0 0-2.598-1.217 20.664 20.664 0 0 1-2.615-1.25 7.865 7.865 0 0 1-1.994-1.644c-.534-.636-.801-1.442-.801-2.418 0-.734.142-1.398.425-1.99a4.493 4.493 0 0 1 1.128-1.513 4.833 4.833 0 0 1 1.65-.953 5.687 5.687 0 0 1 1.961-.346c.687 0 1.302.044 1.847.132a24.34 24.34 0 0 1 1.602.312 51.2 51.2 0 0 1 1.585.313 9.077 9.077 0 0 0 1.683.148c0 .822.011 1.639.033 2.45.022.8.082 1.595.18 2.385h-.376ZM45.181 14.956a6.058 6.058 0 0 1 1.65-.23c.513 0 1.02.038 1.52.115.513.077 1.025.115 1.537.115.305 0 .599-.022.882-.066.294-.044.588-.115.883-.213l-.294 2.072c-.49.11-.976.164-1.455.164-.447 0-.888-.038-1.324-.115a6.367 6.367 0 0 0-1.111-.115c-.425 0-.844.022-1.258.066a7.136 7.136 0 0 0-1.226.246l.196-2.039Zm-15.374 5.918c.483-.046.858-.118 1.122-.218.265-.1.464-.26.597-.482.14-.23.226-.524.257-.884.039-.36.058-.81.058-1.354V8.88c-.686 0-1.27.027-1.753.08-.483.054-.9.188-1.25.402-.344.215-.644.544-.901.988-.25.436-.499 1.04-.748 1.813l-.269-.08.292-3.822c.554.023 1.1.042 1.637.057.545.008 1.099.011 1.66.011h4.663c.53 0 1.053-.003 1.567-.011.522-.015 1.048-.034 1.578-.057l.292 3.822-.269.08c-.25-.773-.506-1.377-.771-1.813-.257-.444-.557-.773-.9-.988-.343-.214-.76-.348-1.251-.401a16.855 16.855 0 0 0-1.788-.08v9.055c0 .543.015.995.046 1.354.04.36.129.655.27.884.14.222.346.383.619.482.28.1.666.172 1.157.218v.218a100.18 100.18 0 0 0-1.52-.057 99.962 99.962 0 0 0-2.957 0c-.475.015-.955.034-1.438.057v-.218Z" fill="#fff"/><path fill-rule="evenodd" clip-rule="evenodd" d="M164 1.666H0V.597h164v1.07Zm0 31.367H0v-1.07h164v1.07Z" fill="#fff"/></svg>