<svg width="106" height="46" fill="none" xmlns="http://www.w3.org/2000/svg"><path d="M77.84 1.47v43.69a.644.644 0 0 1-.633.655h-5.598a.633.633 0 0 1-.584-.4l-8.908-21.908V45.16a.644.644 0 0 1-.633.655H54.6a.644.644 0 0 1-.633-.654V1.47c0-.362.283-.655.633-.655h6.018c.255 0 .484.158.583.4L69.69 22.03V1.47c0-.362.284-.655.633-.655h6.885c.35 0 .633.293.633.655Zm28.133.187-8.342 28.991V45.16a.644.644 0 0 1-.633.655h-7.253a.644.644 0 0 1-.633-.654V30.648l-9.19-28.974c-.135-.423.17-.859.6-.859h7.545c.284 0 .534.196.61.479l4.747 17.589 3.99-17.563a.638.638 0 0 1 .616-.505h7.337c.423 0 .727.422.606.842Zm-62.935 43.76-7.803-18.952V45.16a.644.644 0 0 1-.633.655h-7.253a.644.644 0 0 1-.633-.654V1.47c0-.362.283-.655.633-.655h7.253c.35 0 .633.293.633.655v17.28L42.84 1.203a.632.632 0 0 1 .577-.387h7.896c.459 0 .765.489.578.922l-8.98 20.806 9.276 22.36c.179.431-.128.912-.582.912H43.62a.633.633 0 0 1-.582-.398ZM23.873 31.672v-16.65c0-9-4.522-14.207-11.99-14.207H.634A.644.644 0 0 0 0 1.47v43.69c0 .362.283.655.633.655h11.25c7.468 0 11.99-5.207 11.99-14.143Zm-8.519-.193c0 2.636-1.42 4.436-3.47 4.436H8.518v-25.2h3.366c2.05 0 3.47 1.8 3.47 4.436v16.328Z" fill="#fff"/></svg>