<svg width="60" height="67" fill="none" xmlns="http://www.w3.org/2000/svg"><path d="M55.573 7.773c.306 0 .58-.021.58-.398 0-.302-.268-.358-.52-.358h-.494v.756h.434Zm-.434 1.371h-.362v-2.44h.911c.564 0 .844.21.844.694 0 .436-.27.627-.62.671l.679 1.075h-.404l-.63-1.056h-.418v1.056Zm.44.543c.934 0 1.674-.75 1.674-1.769 0-1.003-.74-1.758-1.675-1.758-.946 0-1.686.755-1.686 1.758 0 1.019.74 1.77 1.686 1.77Zm-2.104-1.769a2.09 2.09 0 0 1 2.103-2.11c1.128 0 2.092.896 2.092 2.11a2.09 2.09 0 0 1-2.092 2.123 2.094 2.094 0 0 1-2.103-2.123Zm-2.559 14.431-2.096.608c.555 1.131 1.82 3.394 1.82 3.394l-2.532.083-2.255-2.75c-1.108.24-3.62.817-3.62.817l1.01 1.933-1.825.219-1.42-1.878s-5.18 1.536-7.712 2.347l-.158.241c.04 2.911.239 5.78.555 8.572l.237.606c4.824.932 9.69 1.174 14.794 1.458l.471-.201c1.387-2.025 2.178-4.29 2.928-6.595.792-2.668.989-6.348-.197-8.854ZM9.148 21.136c-.357.808-.317 1.98-.237 2.831.474-.768 1.608-2.3 1.608-2.3l-1.37-.531Zm14.2-.122-5.934 4.974-2.847.122s1.152-1.319 1.548-2.047c-1.03-.486-2.181-.986-3.249-1.31l-2.097 2.871c-.672.081-1.424 0-1.938.245-.158 2.383.357 4.609.793 6.832.196.566.354 1.536 1.185 1.456 5.854 0 11.353.928 17.126 1.534v-9.056c-.275-.607-1.046-1.697-1.44-2.18l-2.673 1.614-4.904.041c-.04-.082 4.035-2.386 5.893-3.64-.515-.526-.83-1.132-1.464-1.456Zm13.29-.606-1.741 2.912 1.978-.19 1.77-2.98-2.007.258Zm-28.11-2.173 3.264 1.548 1.023-1.737-4.287.189Zm7.73-.58-1.85 2.914 3.763 1.489 3.12-2.782-1.186-1.295-3.846-.325Zm13.734-.24-1.319.658.08 1.871 1.08.383.16-2.912Zm-4.825-1.982-1.068 2.185 2.058 2.385a55.598 55.598 0 0 0-.99-4.57Zm7.436.608.198 4.69 3.442-4.489c.308-.332.41-.937.41-.937l-.655-2.115-3.395 2.851Zm9.868-2.983-1.602.192-2.51 4.065 1.623-.052 2.489-4.205Zm-20.666-1.906.16 4.566 1.7-3.963-1.86-.603Zm12.952-1.074-1.105.752.233.842 1.011-.962-.14-.632Zm-19.28-1.154v.162c1.265 1.294 3.8 4.183 3.8 4.183v-3.256l-3.8-1.089Zm6.21-2.95v2.464l1.186.284c-.277-.97-.751-1.86-1.186-2.749Zm7.394-.284-2.538 4.923 1.51 5.065 2.22-1.592.59-4.232c-.593-1.416-1.148-2.871-1.782-4.164Zm3.562 2.344 1.305-.283S31.97 3.223 31.14.92c.71-.042 1.383 0 2.015.16.99 1.71 2.77 5.095 2.77 5.095s3.084-1.778 4.667-2.63c.473.08.949.405 1.305.771L37.161 8.61l1.388 4.01s3.35-4.828 5.01-7.133c.594.081 1.068.608 1.424 1.053-.672 1.252-1.7 2.424-2.214 3.637 2.017.164 4.035.082 6.011.244.514.608 1.107 1.294 1.345 2.062l-5.023.406-2.391 4.23 3.252-.734s2.536-1.074 5.191-2.122c.473.646.751 1.333.948 2.103l-5.417 2.223-4.827 1.052c-.712.809-1.108 1.74-1.661 2.587 4.312-.808 8.505-2.224 12.855-3.112 1.938 6.672.832 14.193-2.689 19.812-11.748 3.033-24.206-.807-36.35.849l-3.52.446C8 37.108 6.734 33.308 6.062 29.346c-.593-4.328-.118-9.02 1.423-12.86.353-.05 5.71-.542 5.71-.542L9.9 11.875c.12-.688.712-1.212 1.148-1.779 1.72 1.838 4.944 5.582 4.944 5.582l1.82-.163-5.657-6.591c.553-.89 1.504-1.82 2.334-2.426l4.786.89s-.04-2.629.039-4.085c.989-.565 2.096-1.05 3.165-1.253.948 1.74 1.66 3.6 2.689 5.337 1.228-2.02 2.295-4.285 3.402-6.468.118-.083.356-.163.512-.042l3.562 7.157Z" fill="#fff"/><path d="M49.453 40.424c-1.463 2.022-3.363 4.085-5.499 5.54-11.075-.162-21.24-3.236-32.036-3.76-.358-.322-.713-.688-.832-1.174 8.423-1.497 16.967-.646 25.314-.12 4.35.2 8.94-.082 13.092-.89l-.039.404ZM32.88 45.802c3.202.363 6.448.649 9.65 1.051-6.683 4.772-17.324 4.852-24.247.688-1.897-1.214-3.914-2.507-5.417-4.327.078-.241.475-.04.712-.162l4.588.405 14.713 2.345Zm21.243 9.008c.128 0 .245-.01.245-.167 0-.124-.115-.15-.22-.15h-.208v.316h.183Zm-.182.575h-.15v-1.026h.38c.237 0 .353.093.353.295 0 .181-.111.263-.26.28l.284.45h-.169l-.262-.443h-.176v.444Zm.184.226c.392 0 .701-.313.701-.74 0-.42-.31-.735-.7-.735-.396 0-.706.316-.706.735 0 .427.31.74.705.74Zm-.881-.74c0-.512.405-.884.881-.884a.87.87 0 0 1 .875.884.873.873 0 0 1-.875.888.877.877 0 0 1-.881-.888ZM8.09 53.462a45.89 45.89 0 0 1 .723 3.329c.034.224-.044.385-.178.531a.594.594 0 0 1-.4.218.718.718 0 0 1-.579-.25c-.469-.708-.614-1.548-1.182-2.187-.144-.115-.344-.195-.523-.104l-.134.137.1 10.194c.045.317.335.581.636.636.244-.068.434-.33.479-.568l.033-.57-.056-4.966c-.089-.364-.557-.375-.624-.716.055-.195.267-.331.434-.41.635-.285 1.303-.466 1.915-.798.19-.012.425-.045.593.057l.112.16.066 7.127c.056.241.122.572.422.63.122.1.09.284.024.407-.147.228-.414.24-.624.263H7.009c-.19.011-.334-.113-.469-.24-.5.4-1.357.24-1.938.275-.679-.08-1.525.192-2.126-.23-.102-.079-.08-.237-.067-.329.11-.227.445-.147.511-.433l.101-.319-.033-7.744-.046-2.426a.365.365 0 0 0-.345-.159c-.255.022-.411.296-.545.489-.301.546-.501 1.152-.769 1.71a.804.804 0 0 1-.434.398c-.267.09-.524-.023-.703-.216-.31-.4-.034-.924 0-1.357l.523-2.458c.068-.127.135-.296.28-.331.422-.16.513.444.914.33l5.19-.046c.312-.02.502-.522.871-.285l.165.252Zm31.803.138.113.16.032 1.683.079 9.782c.044.276.144.55.433.674.088.103.088.273.056.409-.122.33-.478.376-.79.376l-2.173-.01c-.177-.036-.379-.105-.478-.287a.51.51 0 0 1-.013-.455c.224-.147.47-.296.49-.603l-.008-4.555c-.037-.376.009-.912-.037-1.264-.166.409.025.99-.422 1.23-.189.078-.389 0-.546-.092-.2-.194-.289-.456-.355-.718-.123-.123-.29-.034-.413.024-1.694 1.23-.958 3.61-1.101 5.466-.023.377.454.239.5.582a.67.67 0 0 1-.156.41c-.158.157-.413.147-.614.17l-2.395-.023a.502.502 0 0 1-.345-.308c-.044-.112-.044-.272.044-.375.146-.15.402-.113.468-.353l.013-.557-.047-5.135c-.02-.436-.656-.402-.6-.868l.3-.274c.692-.306 1.415-.535 2.095-.852.256-.036.512-.036.657.203.068.377-.033.821.08 1.23.02.046.087.023.12.011.425-.66.97-1.434 1.815-1.375.324.02.692.043.87.35l.044-.102-.032-1.925-.022-.011c.033-.181-.013-.421-.046-.627.023-.42-.634-.443-.432-.898.6-.717 1.602-.65 2.305-1.208a.608.608 0 0 1 .51.115Z" fill="#fff"/><path d="M23.784 59.11c-.155.047-.267.196-.344.331-.523 1.14-.568 2.37-.434 3.677.122.548.156 1.14.568 1.551.123.08.277-.035.388-.115.928-1.447.65-3.61.135-5.17-.088-.09-.135-.307-.313-.274Zm4.67.275c-.168.808-.122 1.525.033 2.31.055.104.088.287.244.276.301-.182.669-.253.914-.56.501-.81-.09-1.684-.466-2.391-.292-.194-.625.08-.726.365Zm-5.56-5.842.078.205.034 4.373c.167.32.356-.183.568-.206.624-.215 1.347.023 1.792.536.87.944 1.005 2.15 1.216 3.382l.032-.034c.136-1.412.414-2.905 1.672-3.678.658-.411 1.627-.366 2.26.01.78.705 1.405 1.586 1.371 2.667 0 .306-.012.567-.098.83-.927.457-1.917.786-2.865 1.197-.223.17-.034.454 0 .65.156.397.356.954.847 1.034.268.091.657.26.914.024.289-.274.066-1.082.712-.878.255.057.49.193.624.444.167.763-.167 1.468-.523 2.05-.657.58-1.571.685-2.418.568-1.65-.341-2.24-2.13-2.462-3.61-.133 1.358-.21 2.996-1.672 3.541-.89.254-1.892.07-2.515-.58-.08-.113-.101-.294-.258-.352-.366.01-.366.434-.557.66-.234.148-.479.376-.78.285-.11-.055-.178-.18-.246-.273-.31.353-.767.243-1.19.26l-1.682-.017c-.19-.038-.391-.162-.436-.367-.032-.206.178-.298.314-.366.155-.273.255-.568.222-.922-.054-1.501-.178-3.028-.412-4.462-.089-.299-.167-.64-.423-.832-.19-.07-.324.077-.445.17l-.146.239.011 5.272c.067.251.167.535.447.627a.346.346 0 0 1 .032.33c-.312.467-.959.24-1.393.297-.544-.08-1.414.226-1.782-.309-.045-.135-.01-.295.133-.363.268-.069.335-.378.413-.593l-.044-5.511a.593.593 0 0 0-.502-.32c-.232.011-.412.226-.534.41-.245.456-.1.968-.134 1.505l.046 3.962c-.012.341.32.444.467.649.043.204-.09.374-.245.477-.926.172-1.716.045-2.651.082-.213-.047-.457-.06-.58-.287-.045-.091-.078-.251.022-.329.2-.103.4-.263.446-.502l.056-.294-.056-5.298c-.056-.42-.69-.375-.58-.83.301-.377.79-.445 1.205-.638a6.904 6.904 0 0 0 1.1-.478c.269-.012.603-.057.726.227 0 .206-.078.49.132.594.313-.025.368-.412.624-.573.502-.432 1.36-.34 1.906-.078.266.162.367.434.568.65.356 0 .402-.456.657-.628.49-.318 1.28-.227 1.749.082.845.706.845 1.844 1.092 2.834.2 1.333.378 2.678.356 4.1.045.274.034.718.38.808l.076.08.055-.114-.1-10.148c-.01-.385-.255-.693-.5-.942a.355.355 0 0 1 .077-.345c.546-.534 1.294-.567 1.928-.919.201-.252.669-.298.869-.035Zm33.241 5.591c-.2.058-.244.274-.323.433-.267 1.025-.492 2.174-.335 3.29.145.638.18 1.334.703 1.813.121.056.288.068.38-.07.656-1.274.577-2.927.265-4.34-.155-.408-.22-.954-.69-1.126Zm3.198-5.522.033.511.098 10.646a.32.32 0 0 0 .202.285c.111.047.301.06.323.228a.659.659 0 0 1-.11.504c-.602.341-1.249.546-1.884.773-.3.046-.613.275-.903.072-.166-.14.124-.404-.142-.481-.27.17-.458.523-.77.602-.691.139-1.382-.16-1.894-.636-1.103-1.287-1.025-3.304-.78-4.965.124-1.128.547-2.177 1.292-3.01.358-.35.86-.454 1.359-.375.267.047.423.263.647.41.056-.01.11-.044.122-.1l-.012-2.495c-.077-.466-1.08-.581-.556-1.195.201-.126.491-.023.702-.137.634-.366 1.337-.593 1.993-.923.124.045.245.136.28.286Z" fill="#fff"/><path d="M43.102 62.163c-.802.467-.579 1.503-.603 2.277.079.31.169.707.526.82.278.092.567 0 .735-.227.032-.934-.056-1.936-.135-2.916-.1-.227-.39-.091-.523.046Zm9.111-3.327c.268.433.413.9.513 1.402.269 1.607.502 3.257.59 4.909.012.205.055.411.168.58.134.115.332.138.332.341a.446.446 0 0 1-.267.412c-.801.15-1.723.067-2.57.067-.18-.032-.38-.136-.445-.33-.037-.136-.013-.319.142-.375.334-.137.312-.523.38-.82.023-1.641-.334-3.293-.78-4.83-.067-.182-.19-.385-.38-.488-.145-.045-.311.023-.354.148l-.046.206.066 5.304c-.012.365.358.435.478.706.036.196-.145.343-.277.423-.79.148-1.783.078-2.595.056-.18-.032-.38-.16-.434-.35-.078.054-.2.203-.301.294-.3.25-.68.273-1.036.25-.414-.093-.702-.386-1.037-.673h-.199c-.625.615-1.549.968-2.374.593-.692-.216-1.326-.887-1.416-1.639-.178-1.002-.11-2.14.715-2.79.647-.718 1.481-.992 2.306-1.276.176-.365.144-.865.032-1.252-.11-.24-.189-.5-.456-.627l-.758-.069c-.077.012-.168.046-.188.138.076.205.346.227.4.466.068.342.068.799-.2 1.057-.39.252-1.015.366-1.416.06-.345-.287-.435-.684-.435-1.117-.01-.693.592-1.195 1.15-1.424.801-.273 1.659-.239 2.528-.135.566.068 1.08.443 1.325.99.302.819.39 1.742.49 2.641.079 1.025.123 2.119.18 3.157.02.112.077.213.187.26.18-.02.414 0 .436.218.078.182.121.397.121.58a.526.526 0 0 0 .413-.34l.1-.345-.055-5.362c-.033-.444-1.125-.638-.357-1.081.623-.31 1.283-.547 1.893-.89.2-.022.447-.022.615.114.122.16.03.388.177.534.2-.078.2-.305.357-.443.278-.25.634-.412 1.036-.295.502.182.958.568 1.246 1.045Z" fill="#fff"/></svg>