<svg width="120" height="37" fill="none" xmlns="http://www.w3.org/2000/svg"><path d="M119.435.882h-5.248a.567.567 0 0 0-.568.563v34.719c0 .31.255.565.568.565h5.248a.566.566 0 0 0 .566-.565V1.445a.565.565 0 0 0-.566-.563Zm-11.668 0h-8.502a.567.567 0 0 0-.568.563v3.933c0 .313.255.567.568.567h3.623c.311 0 .568.253.568.565l-.003 24.657a.568.568 0 0 1-.567.565l-3.62.003a.57.57 0 0 0-.569.565v3.864c0 .31.255.565.568.565h8.502a.57.57 0 0 0 .568-.565V1.444a.57.57 0 0 0-.568-.562ZM29.42 5.889h8.506a.566.566 0 0 0 .567-.565v-3.88a.566.566 0 0 0-.567-.562h-8.505a.566.566 0 0 0-.566.563v3.88c0 .312.254.564.566.564Zm17.457 0h8.504a.565.565 0 0 0 .565-.565v-3.88a.565.565 0 0 0-.565-.562h-8.504a.568.568 0 0 0-.567.563v3.88c0 .312.257.564.567.564Zm17.578 0h8.505a.566.566 0 0 0 .569-.565v-3.88a.567.567 0 0 0-.569-.562h-8.505a.566.566 0 0 0-.564.563v3.88c0 .312.254.564.564.564Zm17.517 0h8.505c.31 0 .564-.252.564-.565v-3.88a.566.566 0 0 0-.564-.562h-8.505a.566.566 0 0 0-.566.563v3.88c0 .312.255.564.566.564ZM37.926 31.741h-8.505a.567.567 0 0 0-.566.568v3.875c0 .31.254.565.566.565h8.505a.567.567 0 0 0 .567-.565V32.31a.568.568 0 0 0-.567-.568Zm17.455 0h-8.504a.57.57 0 0 0-.567.568v3.875c0 .31.257.565.567.565h8.504a.566.566 0 0 0 .565-.565V32.31a.567.567 0 0 0-.565-.568Zm17.579 0h-8.505a.568.568 0 0 0-.564.568v3.875c0 .31.254.565.564.565h8.505a.568.568 0 0 0 .569-.565V32.31a.569.569 0 0 0-.569-.568Zm17.517 0h-8.505a.568.568 0 0 0-.566.568v3.875c0 .31.255.565.566.565h8.505c.31 0 .564-.255.564-.565V32.31a.568.568 0 0 0-.564-.568ZM5.822.882H.576a.566.566 0 0 0-.568.563v34.719c0 .31.254.565.568.565h5.246a.567.567 0 0 0 .565-.565V1.445a.566.566 0 0 0-.565-.563Zm14.831 30.853-3.623-.003a.567.567 0 0 1-.566-.565V6.51c0-.312.255-.565.565-.565h3.624a.567.567 0 0 0 .568-.567V1.445a.566.566 0 0 0-.568-.563H12.15a.568.568 0 0 0-.568.563v34.72c0 .31.256.564.568.564h8.503a.567.567 0 0 0 .568-.565V32.3a.57.57 0 0 0-.568-.565Z" fill="#fff"/><path d="m44.272 10.262-2.418-.001a.787.787 0 0 0-.722.543l-3.075 10.781c-.084.3-.23.303-.32.003l-3.27-10.772a.813.813 0 0 0-.73-.54H31.43c-.31 0-.64.244-.731.54l-3.238 10.739c-.089.299-.233.299-.32-.003L24.05 10.805a.794.794 0 0 0-.722-.543l-2.68-.001c-.31-.002-.49.24-.396.539l4.984 16.087c.093.3.422.543.735.543h2.464a.81.81 0 0 0 .731-.543l3.268-10.737c.09-.299.237-.299.328 0l3.248 10.726c.09.297.418.543.732.546l2.327.005c.31 0 .641-.24.73-.54l4.876-16.084c.089-.296-.093-.54-.404-.54Zm14.228-.019h-2.27a.567.567 0 0 0-.566.568v16.053c0 .31.254.565.567.565H58.5a.567.567 0 0 0 .568-.564V10.81a.567.567 0 0 0-.568-.568Zm25.098 16.611.005-4.32v-.58c0-3.141 2.415-3.39 3.374-3.37.372 0 .387-.33.387-.33v-2.557s.033-.313-.404-.313c-2.486.2-3.357 2.201-3.357 2.201v-1.668a.565.565 0 0 0-.565-.564h-2.174a.564.564 0 0 0-.565.564v10.948c0 .31.252.562.565.562l2.166-.005a.573.573 0 0 0 .568-.568Zm9.234-1.66c-1.757 0-2.638-1.69-2.638-3.771 0-2.082.881-3.772 2.638-3.772s2.64 1.69 2.64 3.771c0 2.082-.883 3.772-2.64 3.772Zm6.158 1.67V10.811a.567.567 0 0 0-.565-.568H96.15a.57.57 0 0 0-.569.568v5.77c-.38-.778-1.115-1.278-2.526-1.424-4.104-.421-5.943 2.886-5.943 6.269 0 3.393 1.836 6.633 5.943 6.27 1.412-.125 2.147-.64 2.526-1.478v.646c0 .31.258.565.569.565h2.274c.31 0 .565-.255.565-.564Zm-53.2-5.427c0-2.081.911-3.767 2.927-3.767 1.925 0 2.924 1.686 2.924 3.767 0 2.084-.999 3.768-2.924 3.768-2.016 0-2.927-1.684-2.927-3.768Zm8.86-.017c0-3.463-2.204-6.273-5.945-6.273s-5.947 2.81-5.947 6.273c0 3.458 2.206 6.267 5.947 6.267 3.74 0 5.945-2.809 5.945-6.267Zm18.89 3.89c-2.014 0-2.927-1.688-2.927-3.773 0-2.084.913-3.77 2.927-3.77 1.927 0 2.923 1.686 2.923 3.77 0 2.085-.996 3.772-2.923 3.772Zm-.011-10.063c-.432 0-.843.039-1.233.11h-7.068c-.193-2.697 1.222-2.44 1.222-2.44s.464-.01.571-.01h.087c.313 0 .564-.219.564-.53V10.81a.565.565 0 0 0-.564-.568l-.512-.023H65.2c-3.92 0-3.344 5.137-3.344 5.137l.003.014-.565.013h-.666a.566.566 0 0 0-.566.563v1.57c0 .31.253.566.566.566h.73l.552.014.014.55v8.218c0 .31.254.564.568.564h2.18a.569.569 0 0 0 .565-.564l-.006-8.234-.014-.565.579.003 2.64.013c-.558.986-.855 2.165-.855 3.433 0 3.464 2.207 6.27 5.948 6.27 3.74 0 5.945-2.806 5.945-6.27 0-3.463-2.205-6.268-5.945-6.268Z" fill="#fff"/></svg>