<svg width="108" height="57" fill="none" xmlns="http://www.w3.org/2000/svg"><path d="M0 56.504h2.42v-4.547c0-.81 0-1.809.439-2.394.436-.636 1.22-.843 1.657-.843 2.039 0 2.039 2.274 2.039 3.064v4.72h2.419v-5.167c0-.742 0-2.342-.927-3.392-.836-.965-2.167-1.33-3.04-1.33-1.53 0-2.367.796-2.767 1.158v-.83H0v9.56Z" fill="#fff"/><path fill-rule="evenodd" clip-rule="evenodd" d="M19.982 52.75c.07-.31.145-.706.145-1.153 0-2.41-2.022-5.033-5.225-5.033-3.114 0-5.316 2.484-5.316 5.186 0 2.79 2.33 5.065 5.334 5.065 2.367 0 4.295-1.6 4.878-3.323h-2.55c-.453.792-1.253 1.221-2.328 1.221-1.729 0-2.676-1.343-2.786-1.964h7.848Zm-7.92-1.844c.454-1.774 1.966-2.239 2.858-2.239 1.202 0 2.457.706 2.73 2.24h-5.588Z" fill="#fff"/><path d="M23.233 56.504h1.49l1.913-6.2h.035l1.895 6.2h1.492l3.695-9.56h-2.584l-1.86 5.84h-.034l-1.64-5.84h-1.928l-1.657 5.84h-.036l-1.838-5.84h-2.585l3.642 9.56Z" fill="#fff"/><path fill-rule="evenodd" clip-rule="evenodd" d="M38.439 56.504h2.219V55.35c.599.638 1.458 1.465 3.406 1.465 3.694 0 5.023-3.22 5.023-5.135 0-2.529-2.002-5.064-5.078-5.064-1.13 0-2.314.398-3.151 1.191v-4.049h-2.42v12.746Zm2.273-4.908c0-1.395 1.147-2.876 3.004-2.876 1.53 0 2.95 1.117 2.95 2.98 0 1.858-1.329 3.014-2.913 3.014-1.42 0-3.041-1-3.041-3.118Zm19.677-4.652h-2.223v1.209h-.036c-.074-.14-1.294-1.538-3.349-1.538-2.803 0-5.061 2.12-5.061 5.05 0 3.185 2.312 5.15 4.916 5.15 1.272 0 2.767-.64 3.53-1.496v1.185h2.223v-9.56ZM58.096 51.7c0 1.773-1.277 3.012-2.952 3.012-1.728 0-3.004-1.326-3.004-2.945 0-1.43 1.02-3.048 3.004-3.048 1.439 0 2.952.998 2.952 2.98Z" fill="#fff"/><path d="M64.096 43.758h-2.42v12.746h2.42V43.76Z" fill="#fff"/><path fill-rule="evenodd" clip-rule="evenodd" d="M75.49 46.944h-2.22v1.209h-.037c-.074-.14-1.294-1.538-3.349-1.538-2.806 0-5.061 2.12-5.061 5.05 0 3.185 2.312 5.15 4.915 5.15 1.273 0 2.765-.64 3.532-1.496v1.185h2.22v-9.56ZM73.197 51.7c0 1.773-1.274 3.012-2.95 3.012-1.73 0-3.003-1.326-3.003-2.945 0-1.43 1.02-3.048 3.004-3.048 1.438 0 2.948.998 2.948 2.98Z" fill="#fff"/><path d="M76.78 56.504h2.418v-4.547c0-.81 0-1.809.439-2.394.436-.636 1.222-.843 1.657-.843 2.038 0 2.038 2.274 2.038 3.064v4.72h2.422v-5.167c0-.742 0-2.342-.93-3.392-.838-.965-2.165-1.33-3.04-1.33-1.53 0-2.365.796-2.767 1.158v-.83H76.78v9.56Zm17.576-3.117c-.639.965-1.437 1.327-2.238 1.327-1.823 0-3.041-1.361-3.041-2.997 0-1.964 1.457-2.998 2.93-2.998 1.493 0 2.059.913 2.349 1.395h2.732c-1.038-2.947-3.808-3.499-5.081-3.499-2.785 0-5.35 2.14-5.35 5.065 0 3.17 2.781 5.134 5.37 5.134 2.366 0 4.24-1.292 5.061-3.427h-2.732Z" fill="#fff"/><path fill-rule="evenodd" clip-rule="evenodd" d="M107.856 52.75a5.13 5.13 0 0 0 .144-1.153c0-2.41-2.019-5.033-5.223-5.033-3.114 0-5.317 2.484-5.317 5.186 0 2.79 2.33 5.065 5.335 5.065 2.365 0 4.296-1.6 4.878-3.323h-2.548c-.456.792-1.255 1.221-2.33 1.221-1.731 0-2.677-1.343-2.783-1.964h7.844Zm-7.92-1.844c.457-1.774 1.966-2.239 2.859-2.239 1.203 0 2.457.706 2.73 2.24h-5.588ZM41.203 24.815l-3.235 5.287-17.91-.953 1.793-2.945 19.352-1.389ZM54.15 7.968l1.623 5.835-25.412-1.58 1.792-2.944L54.15 7.97ZM37.303.816l14.875.01 1.123 3.99L35.513 3.76l1.79-2.944ZM35.996 33.39l-2.583 4.202-18.505.019 1.792-2.943 19.296-1.278Zm32.488-11.336-4.479 7.347h4.266c1.977 0 5.519-.934 6.609-3.597 1.01-2.475-.846-3.753-2.142-3.753l-4.254.003Zm4.272-7.027 3.721-.022c2.476-.013 5.06-1.084 6.004-3.259.871-2.018-.3-3.736-1.852-3.73l-3.6-.004-4.273 7.015Zm-16.844-1.224 3.758-6.167 12.717-.773.444-.748-11.764-.779 2.751-4.52h21.815c6.709 0 11.671 2.269 9.742 8.942-.58 2.022-3.307 7.112-11.304 9.244 1.697.191 5.925 1.964 5.197 6.559-1.295 8.148-12.444 12.026-18.646 12.028l-25.755.012-1.269-4.715 13.49-.9.458-.746-14.631-.843-1.577-5.59 20.819-1.149.453-.74-37.402-2.233L27 17.742l40.26-2.473.455-.741-11.803-.725Z" fill="#fff"/></svg>