<svg width="156" height="29" fill="none" xmlns="http://www.w3.org/2000/svg"><path d="M155.591 9.186a1.714 1.714 0 0 1-.663.694 1.75 1.75 0 0 1-.892.25c-.311 0-.607-.084-.891-.25a1.714 1.714 0 0 1-.663-.694 1.964 1.964 0 0 1 .004-1.873c.16-.3.383-.53.67-.693.284-.162.579-.243.88-.243.303 0 .597.081.881.243.287.163.511.394.67.693a1.963 1.963 0 0 1 .004 1.873Zm.144-1.962a1.851 1.851 0 0 0-.734-.758 1.938 1.938 0 0 0-.965-.266c-.329 0-.65.088-.963.266-.314.175-.559.43-.735.758a2.138 2.138 0 0 0-.004 2.051c.174.326.415.58.726.76.311.181.636.27.976.27.339 0 .664-.089.976-.27a1.88 1.88 0 0 0 .728-.76 2.15 2.15 0 0 0 .26-1.022c0-.357-.089-.7-.265-1.03Zm-2.045.973h-.083v-1.03a.687.687 0 0 1 .232-.046.537.537 0 0 1 .556.55c0 .15-.056.276-.169.375-.113.1-.291.151-.536.151Zm1.114.949-.578-.863c.22-.06.376-.146.472-.257a.577.577 0 0 0 .142-.386.6.6 0 0 0-.209-.46c-.141-.126-.344-.19-.612-.19h-1.069v.105c.084 0 .142.011.176.035a.19.19 0 0 1 .071.103c.006.025.008.109.008.252v1.516c0 .141-.004.223-.011.249a.2.2 0 0 1-.081.113.377.377 0 0 1-.195.037v.096h1.015V9.4c-.124 0-.206-.014-.247-.043a.2.2 0 0 1-.079-.138v-.895h.21l.814 1.172h.508V9.4a.306.306 0 0 1-.146-.043.817.817 0 0 1-.189-.211ZM14.347 6.672c-.684 1.618-1.025 3.484-1.025 5.6l.104 7.062c0 1.348-.194 2.46-.58 3.337-.386.875-.916 1.588-1.59 2.138-.485.394-1.278.83-2.378 1.307.94-.778 1.554-1.51 1.84-2.194.407-.943.61-2.26.61-3.95l-.09-6.892c0-2.053.223-3.672.669-4.86a8.926 8.926 0 0 1 1.992-3.135c.663-.664 1.7-1.353 3.106-2.069-1.307 1.317-2.193 2.535-2.658 3.656Zm5.315-5.343-.527-.514c-.725.571-1.412.976-2.062 1.214-.65.239-1.435.358-2.358.358-.982 0-2.336-.207-4.061-.622-2.153-.509-3.68-.763-4.583-.763-1.438 0-2.653.472-3.646 1.417C1.433 3.363.937 4.4.937 5.53c0 .778.201 1.403.604 1.876.401.471.865.708 1.391.708.407 0 .742-.14 1.005-.42.263-.28.394-.628.394-1.043 0-.373-.12-.687-.357-.942a1.14 1.14 0 0 0-.863-.381c-.159 0-.34.047-.543.14-.204.094-.355.14-.455.14a.354.354 0 0 1-.275-.124.469.469 0 0 1-.112-.327c0-.436.243-.865.73-1.285.486-.42 1.15-.63 1.994-.63.645 0 1.568.226 2.77.677 1.2.452 2.29.677 3.274.677.952 0 2.138-.233 3.557-.7-1.558 1.048-2.684 1.948-3.38 2.7-.694.753-1.17 1.479-1.428 2.18-.063.17-.12.358-.17.558-.001.01-.005.025-.01.045l-.011.06c-.112.589-.478 3.446.564 11.998.002.016.002.032.005.05l.053.434-.016-.003c.009.13.032.26.032.39 0 .84-.24 1.518-.722 2.031-.481.514-1.109.77-1.883.77-.397 0-1.007-.14-1.83-.42-.577-.197-1.097-.295-1.564-.295-1.111 0-2.004.383-2.679 1.15C.595 26.03.258 26.784 0 27.81l.602.272c.17-.435.348-.72.536-.855.279-.198.635-.296 1.072-.296.516 0 1.186.17 2.01.514.604.238 1.043.39 1.316.459.273.066.588.1.945.1 1.29 0 2.783-.585 4.48-1.758 2.051-1.411 3.528-3.05 4.43-4.919.685-1.421 1.027-3.569 1.027-6.443 0-.933-.01-1.836-.03-2.708-.04-1.65-.06-2.796-.06-3.44 0-1.286.236-2.476.707-3.571.471-1.095 1.348-2.374 2.627-3.837Zm127.159 8.373.208-.108 3.712 4.302-3.92 2.873V9.703Zm6.668 3.222-4.197-5.12c-1.648.882-2.694 1.432-3.141 1.65-.616.29-1.39.612-2.322.964v8.903c0 1.016-.057 1.678-.17 1.984-.115.307-.341.563-.679.77v.39c1.173.26 2.077.509 2.714.746.636.24 1.445.634 2.429 1.184l4.815-3.517-.327-.468-2.337 1.666-3.453-1.432V17.81l6.668-4.887Zm-14.327 9.043-1.697-1.276v-9.059l1.475-1.403 1.882 2.493 2.254-2.094-2.254-2.824-3.357 3.05c0-.55-.099-.98-.299-1.292-.308-.498-.886-1.084-1.733-1.758l-3.103 2.817.365.451c.389-.415.694-.622.917-.622.205 0 .392.132.561.397.17.264.256.796.256 1.595v6.35c0 .923-.068 1.548-.202 1.875-.134.327-.419.652-.855.973v.343a7.407 7.407 0 0 1 1.806.778c.549.332 1.229.876 2.042 1.634l3.817-3.19-.342-.5-1.533 1.262Zm-7.699-.094c-.192 0-.369-.14-.532-.42-.253-.404-.381-1.078-.381-2.023v-8.172l1.206-1.143-2.656-2.311-2.613 2.31 1.058 1.144v8.498l-2.725 2.1c-.576-.436-.938-.797-1.087-1.082-.148-.287-.223-.736-.223-1.35V11.15l1.117-1.035-2.702-2.311-3.52 3.019.365.483c.416-.353.728-.53.936-.53.278 0 .498.145.659.437.092.166.139.519.139 1.057v7.69c0 .974.148 1.76.445 2.357.296.597.924 1.29 1.884 2.078 1.601-1.476 3.172-2.732 4.712-3.767.019 1.006.149 1.74.392 2.203.242.462.759.983 1.549 1.564l3.163-2.537-.364-.482c-.406.331-.679.497-.822.497ZM114.905 4.146h-.433l-4.153 5.356v.683h1.4v8.93c0 .727-.084 1.284-.253 1.668-.13.3-.393.592-.79.872v.312c1.411.425 2.674 1.235 3.789 2.428l3.282-2.74-.372-.466-.953.778-1.667-1.292v-10.49h2.992V8.442h-2.992l.15-4.296Zm-5.874 17.727c-.192 0-.37-.14-.532-.42-.253-.404-.38-1.078-.38-2.023v-8.172l1.205-1.143-2.657-2.311-2.612 2.31 1.057 1.144v8.498l-2.725 2.1c-.576-.436-.937-.797-1.086-1.082-.149-.287-.223-.736-.223-1.35V11.15l1.116-1.035-2.701-2.311-3.52 3.019.365.483c.415-.353.727-.53.935-.53.278 0 .498.145.66.437.092.166.138.519.138 1.057v7.69c0 .974.148 1.76.446 2.357.296.597.924 1.29 1.884 2.078 1.6-1.476 3.171-2.732 4.711-3.767.02 1.006.15 1.74.392 2.203.243.462.76.983 1.55 1.564l3.163-2.537-.364-.482c-.406.331-.68.497-.822.497Zm-16.188 0-3.885-1.665v-9.744a7.72 7.72 0 0 1 1.296.347c.506.189 1.369.582 2.59 1.18v9.882Zm-6.89-11.393v8.545c0 .84-.07 1.437-.209 1.79-.1.27-.337.57-.714.903l.148.31c.904.043 1.714.198 2.43.469.943.352 2.135.985 3.576 1.898.467-.446.955-.82 1.461-1.12.666-.405 1.745-.925 3.235-1.557V10.076c-2.096-.54-3.85-1.297-5.261-2.272-1.293 1.151-2.848 2.044-4.666 2.676ZM72.26 20.574c-.91-.492-1.763-1.199-2.558-2.122 1.304-1.132 2.319-2.139 3.046-3.022.358-.436.587-.846.687-1.23.09-.292.134-.878.134-1.762V5.334l1.742-1.578.148 17.806c-1.223-.166-2.289-.494-3.199-.988Zm8.345.315c-1.173.51-2.472.767-3.897.767l-.564-.016-.149-17.774c2.073 1.08 3.934 1.712 5.582 1.9l2.456-2.453-.246-.568h-.341c-1.148 0-2.149-.09-3-.272-.852-.181-2.02-.578-3.505-1.191l-6.379 5.557v6.973c0 1.555-.06 2.508-.178 2.855-.12.348-.476.776-1.071 1.284-1.38-1.857-2.07-3.88-2.07-6.07 0-1.805.467-3.476 1.4-5.011.723-1.194 1.825-2.314 3.304-3.362l-.365-.436c-2.26 1.422-3.895 2.885-4.907 4.39-1.288 1.919-1.932 4.004-1.932 6.256 0 1.826.456 3.6 1.37 5.323.912 1.722 2.174 3.045 3.787 3.968a10.208 10.208 0 0 0 5.158 1.386c1.23 0 2.47-.22 3.72-.662 1.251-.442 2.32-1.031 3.208-1.77.888-.737 1.794-1.77 2.717-3.101l-.454-.46c-1.257 1.148-2.472 1.976-3.644 2.487Zm-24.99-3.086c-.587 1.147-1.579 2.25-2.972 3.307v-8.838l2.22-1.856c1.09 1.339 1.635 2.71 1.635 4.11 0 1.038-.294 2.13-.882 3.277Zm-2.972-6.249v-.341c0-.78-.126-1.391-.38-1.838-.253-.446-.806-.97-1.659-1.571l-3.126 2.723.372.514c.089-.082.153-.145.192-.187.266-.27.482-.404.649-.404.207 0 .399.145.576.435.226.373.34 1.08.34 2.117v7.44c0 .612-.04 1.087-.12 1.424-.08.337-.23.703-.45 1.097-.08.145-.285.394-.614.747-.69.726-1.034 1.473-1.034 2.24 0 .78.307 1.45.922 2.017.616.565 1.494.848 2.636.848 1.09 0 1.994-.26 2.708-.779.466-.321.7-.648.7-.98a.6.6 0 0 0-.179-.451.658.658 0 0 0-.476-.171.712.712 0 0 0-.461.155c-.13.103-.283.325-.462.662-.178.337-.363.557-.55.661-.388.218-.879.327-1.474.327-.824 0-1.487-.226-1.987-.677-.501-.452-.752-.941-.752-1.47 0-.312.069-.592.209-.84.188-.343.505-.697.952-1.06.209-.176.839-.596 1.89-1.26 2.412-1.505 4.158-2.722 5.24-3.65 1.08-.928 1.876-1.91 2.381-2.941.506-1.033.76-2.068.76-3.105 0-1.93-.772-3.742-2.315-5.432l-4.488 3.75Zm-7.448 10.52-2.93-1.368v-9.93l2.91 1.76 1.585-2.421-3.86-2.311c-1.208 1.224-2.432 2.131-3.67 2.723v8.856c0 .862-.079 1.495-.238 1.9-.108.29-.337.56-.684.808v.374c.981.197 1.808.428 2.482.692.673.265 1.486.678 2.438 1.238l3.683-2.833-.157-.666-1.557 1.179ZM37.768 2.482h-1.89l-.76 3.361h.596l2.054-3.361Zm.186 18.723c-.394.343-.654.55-.78.622a.578.578 0 0 1-.295.079c-.152 0-.3-.135-.444-.405-.143-.27-.215-.85-.215-1.743V11.29l1.176-1.19-2.642-2.296-2.627 2.296 1.116 1.19v8.685c0 1.307.114 2.223.344 2.747.23.524.742 1.081 1.54 1.673l3.192-2.709-.365-.482Zm-7.095.67c-.193 0-.37-.14-.533-.42-.253-.405-.38-1.08-.38-2.024v-8.172l1.205-1.143-2.656-2.311-2.613 2.31 1.057 1.144v8.498l-2.724 2.1c-.576-.436-.938-.797-1.087-1.082-.148-.287-.223-.736-.223-1.35V11.15l1.117-1.035-2.702-2.311-3.52 3.019.364.483c.417-.353.729-.53.937-.53.277 0 .497.145.659.437.092.166.139.519.139 1.057v7.69c0 .974.148 1.76.445 2.357.297.597.925 1.29 1.884 2.078 1.6-1.476 3.171-2.732 4.711-3.767.02 1.006.15 1.74.394 2.203.242.462.758.983 1.549 1.564l3.163-2.537-.365-.482c-.406.331-.68.497-.821.497Z" fill="#fff"/></svg>