<svg width="60" height="14" fill="none" xmlns="http://www.w3.org/2000/svg"><path d="M1 1h3.929c1.403.08 2.869.49 3.867 1.5 1.164 1.16 1.528 2.84 1.507 4.4-.02 1.64-.374 3.4-1.56 4.65-.883.95-2.203 1.39-3.502 1.45H1V1Zm2.983 2.18v7.64c.728.02 1.539-.02 2.11-.51.842-.73 1.019-1.89 1.081-2.92.052-1.22-.041-2.59-.935-3.54-.562-.61-1.455-.71-2.256-.67ZM16.436 1h2.972c0 1.64.01 3.28 0 4.92 1.32-1.62 2.578-3.29 3.888-4.92h3.087l-3.461 4.29c-.063.1-.198.17-.198.3 1.455 2.47 2.89 4.95 4.345 7.41h-3.212c-.988-1.72-1.985-3.43-2.973-5.15-.52.56-.966 1.19-1.465 1.78-.021 1.12 0 2.25-.01 3.37h-3.005l.032-.09c-.01-3.97-.01-7.94 0-11.91Zm16.256 0h2.578c1.34 2.31 2.692 4.63 4.033 6.94.052.07.135.19.187.25-.01-2.39-.01-4.79 0-7.19h2.567v12H39.49c-1.393-2.37-2.775-4.76-4.168-7.13l-.073-.07c.031 2.4 0 4.8.02 7.2h-2.577V1ZM47.92 1h3.15c.768 1.64 1.673 3.25 2.473 4.88.031 0 .083 0 .104-.01.821-1.63 1.673-3.25 2.526-4.87h2.723l.104.02c-1.351 2.5-2.692 5-4.043 7.5V13h-3.004c.052-1.49.01-3 .02-4.49-1.35-2.5-2.692-5.01-4.053-7.51Z" fill="#FAFAFA" stroke="#FAFAFA" stroke-width=".094"/></svg>