<svg width="94" height="12" fill="none" xmlns="http://www.w3.org/2000/svg"><mask id="a" fill="#fff"><path d="M0 11.714h2.107V7.535c0-.744 0-1.662.381-2.2.38-.585 1.062-.775 1.442-.775 1.775 0 1.775 2.09 1.775 2.816v4.338h2.106V6.966c0-.682 0-2.153-.807-3.118-.728-.887-1.886-1.222-2.645-1.222-1.332 0-2.061.731-2.41 1.064v-.763H0v8.787Z"/><path fill-rule="evenodd" clip-rule="evenodd" d="M17.392 8.263c.06-.283.126-.648.126-1.06 0-2.214-1.76-4.624-4.548-4.624-2.71 0-4.626 2.282-4.626 4.766C8.344 9.91 10.372 12 12.986 12c2.06 0 3.738-1.47 4.246-3.054h-2.22c-.395.728-1.09 1.122-2.026 1.122-1.505 0-2.33-1.234-2.425-1.805h6.83ZM10.498 6.57c.396-1.631 1.712-2.058 2.488-2.058 1.046 0 2.138.648 2.377 2.058h-4.865Z"/><path d="M20.221 11.714h1.297l1.665-5.698h.03l1.65 5.698h1.299l3.215-8.787h-2.249L25.51 8.295h-.03l-1.428-5.368h-1.677l-1.442 5.368H20.9l-1.6-5.368h-2.25l3.17 8.787Z"/><path fill-rule="evenodd" clip-rule="evenodd" d="M33.456 11.714h1.932v-1.06c.52.586 1.269 1.346 2.964 1.346 3.215 0 4.372-2.96 4.372-4.719 0-2.324-1.742-4.655-4.42-4.655-.983 0-2.014.366-2.742 1.095V0h-2.106v11.714Zm1.978-4.51c0-1.283.999-2.644 2.615-2.644 1.332 0 2.568 1.027 2.568 2.74 0 1.706-1.157 2.769-2.536 2.769-1.235 0-2.647-.918-2.647-2.865ZM52.56 2.928h-1.934v1.11h-.032c-.063-.127-1.126-1.412-2.914-1.412-2.44 0-4.405 1.948-4.405 4.641 0 2.927 2.012 4.733 4.279 4.733 1.107 0 2.407-.588 3.072-1.375v1.09h1.935V2.927ZM50.566 7.3c0 1.63-1.111 2.768-2.57 2.768-1.504 0-2.614-1.219-2.614-2.706 0-1.314.888-2.802 2.614-2.802 1.253 0 2.57.918 2.57 2.74Z"/><path d="M55.787 0h-2.106v11.714h2.106V0Z"/><path fill-rule="evenodd" clip-rule="evenodd" d="M65.705 2.928h-1.933v1.11h-.032c-.064-.127-1.127-1.412-2.915-1.412-2.442 0-4.405 1.948-4.405 4.641 0 2.927 2.012 4.733 4.278 4.733 1.108 0 2.407-.588 3.074-1.375v1.09h1.933V2.927ZM63.708 7.3c0 1.63-1.108 2.768-2.566 2.768-1.507 0-2.615-1.219-2.615-2.706 0-1.314.887-2.802 2.614-2.802 1.252 0 2.567.918 2.567 2.74Z"/><path d="M66.826 11.714h2.106V7.535c0-.744 0-1.662.382-2.2.38-.585 1.063-.775 1.442-.775 1.773 0 1.773 2.09 1.773 2.816v4.338h2.109V6.966c0-.682 0-2.153-.81-3.118-.729-.887-1.884-1.222-2.645-1.222-1.332 0-2.059.731-2.409 1.064v-.763h-1.948v8.787ZM82.124 8.85c-.555.886-1.25 1.219-1.947 1.219-1.587 0-2.647-1.251-2.647-2.755 0-1.805 1.268-2.754 2.55-2.754 1.3 0 1.792.839 2.044 1.28h2.379c-.904-2.707-3.315-3.214-4.423-3.214-2.424 0-4.657 1.966-4.657 4.655 0 2.914 2.421 4.718 4.674 4.718 2.06 0 3.69-1.187 4.406-3.15h-2.379Z"/><path fill-rule="evenodd" clip-rule="evenodd" d="M93.875 8.263c.062-.283.125-.648.125-1.06 0-2.214-1.758-4.624-4.546-4.624-2.71 0-4.627 2.282-4.627 4.766 0 2.564 2.028 4.655 4.642 4.655 2.06 0 3.74-1.47 4.246-3.054h-2.218c-.396.728-1.091 1.122-2.028 1.122-1.506 0-2.33-1.234-2.422-1.805h6.828ZM86.982 6.57c.397-1.631 1.71-2.058 2.487-2.058 1.047 0 2.14.648 2.377 2.058h-4.864Z"/></mask><path d="M0 11.714h2.107V7.535c0-.744 0-1.662.381-2.2.38-.585 1.062-.775 1.442-.775 1.775 0 1.775 2.09 1.775 2.816v4.338h2.106V6.966c0-.682 0-2.153-.807-3.118-.728-.887-1.886-1.222-2.645-1.222-1.332 0-2.061.731-2.41 1.064v-.763H0v8.787Z" fill="#FAFAFA"/><path fill-rule="evenodd" clip-rule="evenodd" d="M17.392 8.263c.06-.283.126-.648.126-1.06 0-2.214-1.76-4.624-4.548-4.624-2.71 0-4.626 2.282-4.626 4.766C8.344 9.91 10.372 12 12.986 12c2.06 0 3.738-1.47 4.246-3.054h-2.22c-.395.728-1.09 1.122-2.026 1.122-1.505 0-2.33-1.234-2.425-1.805h6.83ZM10.498 6.57c.396-1.631 1.712-2.058 2.488-2.058 1.046 0 2.138.648 2.377 2.058h-4.865Z" fill="#FAFAFA"/><path d="M20.221 11.714h1.297l1.665-5.698h.03l1.65 5.698h1.299l3.215-8.787h-2.249L25.51 8.295h-.03l-1.428-5.368h-1.677l-1.442 5.368H20.9l-1.6-5.368h-2.25l3.17 8.787Z" fill="#FAFAFA"/><path fill-rule="evenodd" clip-rule="evenodd" d="M33.456 11.714h1.932v-1.06c.52.586 1.269 1.346 2.964 1.346 3.215 0 4.372-2.96 4.372-4.719 0-2.324-1.742-4.655-4.42-4.655-.983 0-2.014.366-2.742 1.095V0h-2.106v11.714Zm1.978-4.51c0-1.283.999-2.644 2.615-2.644 1.332 0 2.568 1.027 2.568 2.74 0 1.706-1.157 2.769-2.536 2.769-1.235 0-2.647-.918-2.647-2.865ZM52.56 2.928h-1.934v1.11h-.032c-.063-.127-1.126-1.412-2.914-1.412-2.44 0-4.405 1.948-4.405 4.641 0 2.927 2.012 4.733 4.279 4.733 1.107 0 2.407-.588 3.072-1.375v1.09h1.935V2.927ZM50.566 7.3c0 1.63-1.111 2.768-2.57 2.768-1.504 0-2.614-1.219-2.614-2.706 0-1.314.888-2.802 2.614-2.802 1.253 0 2.57.918 2.57 2.74Z" fill="#FAFAFA"/><path d="M55.787 0h-2.106v11.714h2.106V0Z" fill="#FAFAFA"/><path fill-rule="evenodd" clip-rule="evenodd" d="M65.705 2.928h-1.933v1.11h-.032c-.064-.127-1.127-1.412-2.915-1.412-2.442 0-4.405 1.948-4.405 4.641 0 2.927 2.012 4.733 4.278 4.733 1.108 0 2.407-.588 3.074-1.375v1.09h1.933V2.927ZM63.708 7.3c0 1.63-1.108 2.768-2.566 2.768-1.507 0-2.615-1.219-2.615-2.706 0-1.314.887-2.802 2.614-2.802 1.252 0 2.567.918 2.567 2.74Z" fill="#FAFAFA"/><path d="M66.826 11.714h2.106V7.535c0-.744 0-1.662.382-2.2.38-.585 1.063-.775 1.442-.775 1.773 0 1.773 2.09 1.773 2.816v4.338h2.109V6.966c0-.682 0-2.153-.81-3.118-.729-.887-1.884-1.222-2.645-1.222-1.332 0-2.059.731-2.409 1.064v-.763h-1.948v8.787ZM82.124 8.85c-.555.886-1.25 1.219-1.947 1.219-1.587 0-2.647-1.251-2.647-2.755 0-1.805 1.268-2.754 2.55-2.754 1.3 0 1.792.839 2.044 1.28h2.379c-.904-2.707-3.315-3.214-4.423-3.214-2.424 0-4.657 1.966-4.657 4.655 0 2.914 2.421 4.718 4.674 4.718 2.06 0 3.69-1.187 4.406-3.15h-2.379Z" fill="#FAFAFA"/><path fill-rule="evenodd" clip-rule="evenodd" d="M93.875 8.263c.062-.283.125-.648.125-1.06 0-2.214-1.758-4.624-4.546-4.624-2.71 0-4.627 2.282-4.627 4.766 0 2.564 2.028 4.655 4.642 4.655 2.06 0 3.74-1.47 4.246-3.054h-2.218c-.396.728-1.091 1.122-2.028 1.122-1.506 0-2.33-1.234-2.422-1.805h6.828ZM86.982 6.57c.397-1.631 1.71-2.058 2.487-2.058 1.047 0 2.14.648 2.377 2.058h-4.864Z" fill="#FAFAFA"/><path d="M0 11.714h2.107V7.535c0-.744 0-1.662.381-2.2.38-.585 1.062-.775 1.442-.775 1.775 0 1.775 2.09 1.775 2.816v4.338h2.106V6.966c0-.682 0-2.153-.807-3.118-.728-.887-1.886-1.222-2.645-1.222-1.332 0-2.061.731-2.41 1.064v-.763H0v8.787Z" stroke="#FAFAFA" stroke-width="6.063" mask="url(#a)"/><path clip-rule="evenodd" d="M17.392 8.263c.06-.283.126-.648.126-1.06 0-2.214-1.76-4.624-4.548-4.624-2.71 0-4.626 2.282-4.626 4.766C8.344 9.91 10.372 12 12.986 12c2.06 0 3.738-1.47 4.246-3.054h-2.22c-.395.728-1.09 1.122-2.026 1.122-1.505 0-2.33-1.234-2.425-1.805h6.83ZM10.498 6.57c.396-1.631 1.712-2.058 2.488-2.058 1.046 0 2.138.648 2.377 2.058h-4.865Z" stroke="#FAFAFA" stroke-width="6.063" mask="url(#a)"/><path d="M20.221 11.714h1.297l1.665-5.698h.03l1.65 5.698h1.299l3.215-8.787h-2.249L25.51 8.295h-.03l-1.428-5.368h-1.677l-1.442 5.368H20.9l-1.6-5.368h-2.25l3.17 8.787Z" stroke="#FAFAFA" stroke-width="6.063" mask="url(#a)"/><path clip-rule="evenodd" d="M33.456 11.714h1.932v-1.06c.52.586 1.269 1.346 2.964 1.346 3.215 0 4.372-2.96 4.372-4.719 0-2.324-1.742-4.655-4.42-4.655-.983 0-2.014.366-2.742 1.095V0h-2.106v11.714Zm1.978-4.51c0-1.283.999-2.644 2.615-2.644 1.332 0 2.568 1.027 2.568 2.74 0 1.706-1.157 2.769-2.536 2.769-1.235 0-2.647-.918-2.647-2.865ZM52.56 2.928h-1.934v1.11h-.032c-.063-.127-1.126-1.412-2.914-1.412-2.44 0-4.405 1.948-4.405 4.641 0 2.927 2.012 4.733 4.279 4.733 1.107 0 2.407-.588 3.072-1.375v1.09h1.935V2.927ZM50.566 7.3c0 1.63-1.111 2.768-2.57 2.768-1.504 0-2.614-1.219-2.614-2.706 0-1.314.888-2.802 2.614-2.802 1.253 0 2.57.918 2.57 2.74Z" stroke="#FAFAFA" stroke-width="6.063" mask="url(#a)"/><path d="M55.787 0h-2.106v11.714h2.106V0Z" stroke="#FAFAFA" stroke-width="6.063" mask="url(#a)"/><path clip-rule="evenodd" d="M65.705 2.928h-1.933v1.11h-.032c-.064-.127-1.127-1.412-2.915-1.412-2.442 0-4.405 1.948-4.405 4.641 0 2.927 2.012 4.733 4.278 4.733 1.108 0 2.407-.588 3.074-1.375v1.09h1.933V2.927ZM63.708 7.3c0 1.63-1.108 2.768-2.566 2.768-1.507 0-2.615-1.219-2.615-2.706 0-1.314.887-2.802 2.614-2.802 1.252 0 2.567.918 2.567 2.74Z" stroke="#FAFAFA" stroke-width="6.063" mask="url(#a)"/><path d="M66.826 11.714h2.106V7.535c0-.744 0-1.662.382-2.2.38-.585 1.063-.775 1.442-.775 1.773 0 1.773 2.09 1.773 2.816v4.338h2.109V6.966c0-.682 0-2.153-.81-3.118-.729-.887-1.884-1.222-2.645-1.222-1.332 0-2.059.731-2.409 1.064v-.763h-1.948v8.787ZM82.124 8.85c-.555.886-1.25 1.219-1.947 1.219-1.587 0-2.647-1.251-2.647-2.755 0-1.805 1.268-2.754 2.55-2.754 1.3 0 1.792.839 2.044 1.28h2.379c-.904-2.707-3.315-3.214-4.423-3.214-2.424 0-4.657 1.966-4.657 4.655 0 2.914 2.421 4.718 4.674 4.718 2.06 0 3.69-1.187 4.406-3.15h-2.379Z" stroke="#FAFAFA" stroke-width="6.063" mask="url(#a)"/><path clip-rule="evenodd" d="M93.875 8.263c.062-.283.125-.648.125-1.06 0-2.214-1.758-4.624-4.546-4.624-2.71 0-4.627 2.282-4.627 4.766 0 2.564 2.028 4.655 4.642 4.655 2.06 0 3.74-1.47 4.246-3.054h-2.218c-.396.728-1.091 1.122-2.028 1.122-1.506 0-2.33-1.234-2.422-1.805h6.828ZM86.982 6.57c.397-1.631 1.71-2.058 2.487-2.058 1.047 0 2.14.648 2.377 2.058h-4.864Z" stroke="#FAFAFA" stroke-width="6.063" mask="url(#a)"/></svg>