<svg width="80" height="16" fill="none" xmlns="http://www.w3.org/2000/svg"><path d="M15.704 8.117c.076.14.26.207.433.154.613-.268 1.008-.932 1.098-1.596-.007-.181-.128-.344-.332-.344-.702.242-1.263 1.02-1.2 1.786Zm-.059-1.522.03-.051a.398.398 0 0 0 .03-.065.223.223 0 0 0-.063-.248.347.347 0 0 0-.361-.064.726.726 0 0 0-.137.066 3.967 3.967 0 0 0-.12.079c-.5.432-.944.93-1.358 1.434-.411.5-.803 1.015-1.22 1.503a.399.399 0 0 1-.102.088c-.016.008-.032.01-.074.003-.017-.004-.028-.016-.047-.05-.353-1.014-.69-2.474-.708-2.779-.008-.252.145-.457.414-.649l.117-.06a.802.802 0 0 1 .12-.05c.064-.023.091-.017.101-.01.01.01.014.02.021.032.018.038.036.086.055.142a5.9 5.9 0 0 1 .124.468c.088.371.179.81.275 1.126.06.138.125.333.35.126.052-.047.121-.084.17-.136a5.06 5.06 0 0 0 .328-.349c.108-.125.216-.257.325-.39.217-.264.432-.524.662-.737.453-.42.934-.637 1.558-.356.185.077.386.073.566.048.17-.023.348-.068.519-.096.32-.053.534-.033.681.258a1.2 1.2 0 0 1 .118.502c.008.192-.01.392-.027.592-.033.403-.07.864.143 1.287.054.19.203.28.341.324.067.02.139.033.212.042.063.008.127.013.186.018l.075.009a.446.446 0 0 1-.07.101c-.364.407-.81.622-1.279.457a.376.376 0 0 1-.144-.085 1.066 1.066 0 0 1-.08-.078l-.085-.09a.927.927 0 0 0-.202-.171.34.34 0 0 0-.32-.02c-.581.393-1.186.722-1.748.461-.152-.111-.247-.249-.241-.437.048-.973.433-1.615.865-2.195ZM2.458 7.828c.159-.263.19-1.892.154-2.75-.053-1.319.023-1.654 1.027-2.45.952-.754 1.797-1.404 2.756-1.935.164-.05.345 0 .43.082.074.063.142.212-.027.389-.388.388-.75.682-1.118.962-.371.282-.744.544-1.145.865-.073.06-.156.123-.24.191a3.826 3.826 0 0 0-.26.23c-.166.166-.325.372-.377.618-.036.932.147 1.96.099 2.92-.047.928-.31 1.755-1.197 2.342-.842.387-1.822.071-2.469-.575-.095-.095-.112-.23-.067-.3.053-.071.107-.145.166-.221.058-.076.117-.146.18-.21.122-.122.245-.205.38-.233a.77.77 0 0 1 .338.1c.142.07.283.157.42.222.303.145.675.222.95-.247Z" fill="#FAFAFA"/><path d="M10.399 4.426c-.013.28-.113.746-.038.973.53-.454.8-1.069 1.125-1.705.265-.581.554-1.61.126-2.034-.12-.078-.392.323-.477.468-.418.758-.584 1.44-.736 2.298ZM5.166 8.273c.025.176.214.314.391.303.556-.127.91-.67 1.1-1.15.064-.256.201-.682-.038-.947-.127-.065-.242-.04-.408.06-.644.405-1.07 1-1.045 1.734Zm5.09 1.81a.194.194 0 0 1-.032-.045 6.673 6.673 0 0 1-.238-.489c-.197-.455-.29-.934-.462-1.425a.434.434 0 0 0-.058-.105c-.088-.109-.221-.05-.268-.019-.296.269-.567.546-.853.792-.28.24-.565.442-.883.566-.184.031-.346-.106-.46-.302-.04-.074-.09-.186-.137-.274a.667.667 0 0 0-.087-.129.205.205 0 0 0-.083-.056.148.148 0 0 0-.138.02c-.157.106-.326.225-.504.34a3.156 3.156 0 0 1-.539.283c-.36.142-.72.16-1.076-.092-.32-.267-.226-.798-.08-1.17.411-1.018 1.04-1.75 2.152-2.25.216-.108.583-.098.735-.008.289.236.37.55.39.915.01.188.003.381.001.572-.002.201.001.398.033.581.17.26.425.315.666.174.173-.119.385-.263.57-.404.181-.139.356-.29.446-.425l.021-.064c-.022-2.4.455-4.65 2.282-6.218.166-.133.37-.1.43-.045.514.45.63 1.446.359 2.419-.379 1.297-1.105 2.514-2.009 3.568l-.03.07c-.011.503.09.96.233 1.408.14.441.322.88.48 1.343a.26.26 0 0 1 .017.085.064.064 0 0 1-.022.04l-.055.05c-.145.144-.331.23-.486.276a1.436 1.436 0 0 1-.193.045l-.057.006a.2.2 0 0 1-.064-.034Zm19.547-2.75c.405-.09.816-.323 1.069-.689.096-.148.075-.457-.105-.585-.16-.096-.307-.116-.468-.04-.456.26-.69.846-.495 1.314Zm-6.29.591c0 .244.088.462.325.576.2.075.401 0 .576-.062.25-.15.481-.4.576-.69.075-.362.15-.874-.188-1.137a.578.578 0 0 0-.6 0c-.501.275-.638.838-.689 1.313Zm-3.404-.693c.021.148.082.274.122.416.027.1.117.378.226.407.063.007.088-.01.173-.134.292-.503.422-.959.537-1.61.013-.127-.01-.152-.074-.19-.376-.222-.736-.297-1.166-.398-.1-.022-.128.08-.104.182l.038.219c.023.077.171.557.248 1.108Zm2.729-1.023a3.124 3.124 0 0 1-.344-.032 1.98 1.98 0 0 0-.123-.016.505.505 0 0 0-.12.003c-.196.033-.269.211-.349.467-.18.43-.333.875-.509 1.31-.175.435-.37.852-.637 1.236a.355.355 0 0 1-.4.12.892.892 0 0 1-.371-.348 2.079 2.079 0 0 1-.13-.246c-.04-.086-.074-.173-.11-.256-.305-.98-.686-1.928-.871-2.963-.025-.279.034-.624.314-.73.195-.07.566-.006 1.004.11.43.118.876.268 1.172.324.094.016.162-.04.205-.114.038-.066.08-.18.128-.355.23-1.198.506-2.388.66-3.619.042-.123.13-.2.253-.219.251.02.477.108.618.28.007.007.022.036.029.091a.708.708 0 0 1 .001.147 11.407 11.407 0 0 1-.32 1.887c-.152.63-.333 1.258-.489 1.88-.04.204.09.311.217.36.055.019.12.034.187.047.06.01.118.02.175.032.534.136.992.129 1.436.053.434-.072.853-.214 1.316-.35.122-.034.216-.07.299-.084.058-.008.09 0 .127.032.13.114.268.184.401.235.127.048.252.082.367.12.212.069.343.145.389.37.082.36.098.786.163 1.172.067.391.194.787.52 1.018.13.073.26.063.36.025a.809.809 0 0 0 .13-.064l.098-.06c.19-.139.213-.23.198-.399-.006-.06-.014-.137-.009-.252.006-.117.025-.273.074-.483.125-.582.573-1.19 1.138-1.393a1.62 1.62 0 0 1 1.017-.002c.395.226.59.652.53 1.13-.056.393-.247.597-.483.76-.127.086-.263.158-.395.235-.136.079-.395.227-.518.342l-.035.054c-.06.243.187.452.351.502.25.063.64-.01.908-.048.262-.037.537-.097.812-.141.543-.083 1.044-.082 1.464.296.012.01.019.02.013.052a.425.425 0 0 1-.073.154 1.6 1.6 0 0 1-.252.279c-.01.007-.029.012-.085-.001-.197-.076-.437-.18-.69-.236-.266-.06-.56-.075-.842.055-.175.07-.362.151-.558.225a3.68 3.68 0 0 1-.585.169c-.387.07-.753.032-1.065-.237a.46.46 0 0 1-.127-.11c-.04-.051-.078-.107-.118-.154-.086-.107-.23-.231-.447-.152-.258.12-.59.338-.898.476-.314.14-.526.16-.65.038-.334-.401-.458-.876-.563-1.395-.054-.263-.1-.528-.164-.789a3.488 3.488 0 0 0-.28-.777c-.131-.177-.415-.346-.638-.216a.22.22 0 0 0-.094.23.53.53 0 0 0 .028.1l.038.093c.054.131.115.29.108.478.052.897-.443 1.821-1.325 2.216-.401.22-1.064.2-1.414-.073-.397-.351-.455-.98-.31-1.47.13-.336.296-.654.514-.951a.384.384 0 0 0 .076-.257.299.299 0 0 0-.253-.193c-.065-.01-.138-.008-.194-.018Zm49.765 1.706c.038.163.15.3.3.389.35.086.767.048 1.005-.215.262-.338.258-.971.108-1.286-.088-.19-.383-.275-.62-.139-.438.288-.881.638-.793 1.251Zm-21.88-.599c-.05.265-.2.806.152.929.37.063.643-.323.797-.474.265-.329.392-.707.328-1.163-.024-.202-.158-.483-.44-.352-.443.253-.685.605-.836 1.06Zm4.444-.72c-.196.514-.511 1.156-.033 1.634a.555.555 0 0 0 .622.039c.686-.404.572-1.505.478-1.826-.05-.22-.172-.478-.441-.44-.258.06-.51.35-.626.593Zm4.403.603c-.093.274-.248.754.094.96.28.133.624-.08.798-.242.334-.395.53-.897.344-1.428a.362.362 0 0 0-.508-.18c-.36.223-.58.494-.728.89ZM40.518 6.46c-.177.247-.094.336.172.38.324.052.648.02.91-.165.094-.084.21-.24.143-.43-.098-.217-.28-.35-.572-.276-.28.09-.487.275-.653.491Zm15.256 4.268c-.817.957-1.531 1.9-1.965 2.973-.063.153-.204.356-.063.523.216.141.432-.102.612-.243a5.228 5.228 0 0 0 1.569-3.317c.008-.088-.073-.033-.153.064Zm14.352-2.59.037.015c.082.025.179-.013.234-.038a1.72 1.72 0 0 0 .215-.123c.145-.095.304-.214.423-.297.31-.206.594-.454.868-.706.271-.25.537-.504.819-.731.554-.448 1.154-.767 1.952-.706l4.397-.01c.214 0 .466.174.456.436-.013.298-.13.424-.419.414l-.404-.038c-1.135-.166-2.385-.155-3.588-.235-.034 0-.079 0-.117.002a.294.294 0 0 0-.156.051c-.102.094-.114.16-.07.274.01.033.028.08.046.152.017.076.037.178.053.323.073.884-.306 1.76-1.117 2.16-.49.235-1.239.212-1.683-.065-.299-.251-.419-.504-.49-.854-.04-.217-.2-.258-.342-.2a.668.668 0 0 0-.144.085c-.039.03-.075.06-.103.083-.584.48-1.545 1.079-1.824 1.128-.11.023-.203-.046-.271-.2-.04-.196-.005-.37.04-.556.024-.1.048-.196.062-.294.015-.102.02-.211 0-.325a.234.234 0 0 0-.065-.112.146.146 0 0 0-.148-.026.154.154 0 0 0-.04.023l-.055.047c-.319.29-.653.694-1 1.006-.337.302-.65.482-.956.44-.186-.138-.222-.331-.211-.584.006-.138.025-.282.036-.425a1.667 1.667 0 0 0-.023-.502.187.187 0 0 0-.04-.087.148.148 0 0 0-.151-.051.23.23 0 0 0-.104.058 8.645 8.645 0 0 0-.62.52 6.15 6.15 0 0 1-.632.51c-.083.057-.188.14-.308.226-.113.082-.24.168-.37.237-.263.142-.48.18-.637.064-.075-.058-.116-.258-.123-.572-.008-.297.01-.613-.013-.781l-.006-.039c-.004-.015-.01-.048-.031-.078a.143.143 0 0 0-.15-.062.23.23 0 0 0-.101.054 4.567 4.567 0 0 0-.382.383c-.125.135-.248.277-.377.414-.25.266-.505.495-.795.614-.215.021-.401-.167-.543-.396a.431.431 0 0 1-.028-.051l-.03-.067a.574.574 0 0 0-.093-.153c-.064-.095-.205-.074-.27-.032-.282.165-.543.4-.827.57-.266.161-.535.252-.86.174a.649.649 0 0 1-.44-.415.656.656 0 0 1-.037-.149 3.196 3.196 0 0 1-.015-.18c-.008-.12-.02-.272-.1-.399a.17.17 0 0 0-.174-.095.284.284 0 0 0-.134.058 6.903 6.903 0 0 0-.544.54c-.174.19-.344.388-.51.58l-.027.055c-.397 2.396-1.035 4.939-3.024 6.192-.21.088-.491.129-.698.053-.413-.259-.541-.76-.438-1.286.21-.685.55-1.321.954-1.942.406-.626.87-1.225 1.32-1.834l.977-1.185a.35.35 0 0 0 .06-.106.139.139 0 0 0-.123-.18.216.216 0 0 0-.054.004l-.033.008-.065.018c-.253.092-.535.218-.819.28-.27.06-.532.055-.776-.083a.295.295 0 0 1-.097-.083c-.038-.05-.073-.106-.108-.156a.53.53 0 0 0-.15-.156.248.248 0 0 0-.27.006c-.098.072-.197.155-.293.232a2.408 2.408 0 0 1-.279.196c-.182.104-.367.153-.594.083a.469.469 0 0 1-.253-.22c-.076-.12-.135-.26-.208-.378a.314.314 0 0 0-.107-.101.202.202 0 0 0-.202.008c-.094.06-.19.138-.283.216-.093.078-.19.162-.292.237-.203.15-.409.25-.632.233-.262-.01-.495-.124-.602-.338l-.025-.086a.811.811 0 0 0-.043-.122.346.346 0 0 0-.083-.122c-.047-.04-.167-.088-.482.244-.11.116-.238.276-.37.37-.26.185-.525.32-.814.174-.354-.195-.426-.488-.37-.927.059-.463.256-1.035.38-1.685.003-.022.008-.055.01-.088a.567.567 0 0 0-.002-.12.302.302 0 0 0-.202-.252c-.136-.034-.228.06-.304.18-.082.131-.197.365-.381.769-.515 1.168-1.262 2.045-2.112 2.112a.52.52 0 0 1-.483-.3c-.11-.272-.054-.698.06-1.156.115-.458.274-.904.318-1.172.058-.275-.075-.374-.205-.399-.156-.03-.296.144-.378.327-.102.25-.35.786-.468 1.013-.208.401-.948 1.535-2.02 1.633-.921.166-1.801-.266-2.326-1.076-.091-.139-.217-.631-.227-.713a.473.473 0 0 0-.14-.313.421.421 0 0 0-.174-.085c-.025-.009-.05-.019-.132-.045-.502-.161-.987-.291-1.516-.338-.131 0-.246.045-.301.173-.485 1.101-.745 2.241-1.24 3.34-.096.15-.365.153-.586.094a.99.99 0 0 1-.398-.212c-.005-.005-.03-.075.012-.21.205-.782.503-1.418.758-2.22l.006-.054a4.176 4.176 0 0 0-.146-.576 10.824 10.824 0 0 0-.192-.537c-.13-.349-.256-.686-.32-1.048a.284.284 0 0 1 .193-.262c.13-.027.25-.024.379-.006.14.018.285.052.455.078.088-.01.253-.08.209-.254-.481-1.333-.87-2.585-1.1-4.017-.015-.194.075-.381.2-.456a.388.388 0 0 1 .265-.057c4.23.165 8.554.387 12.643.585.066.006.12.01.162.022.038.01.058.023.068.039.028.037.034.121-.01.341-.087.327-.257.445-.579.489-.178.024-.39.024-.644.014-.263-.008-.565-.026-.913-.036-3.33-.085-6.64-.472-9.884-.767l-.12-.006a.585.585 0 0 0-.14.013.283.283 0 0 0-.222.262.992.992 0 0 0 .005.232c.009.073.02.142.03.199.086.313.16.602.265.887.106.29.249.58.467.866.058.07.134.077.193.062a.29.29 0 0 0 .126-.069c.09-.106.176-.235.255-.362.078-.126.155-.259.234-.389.16-.259.318-.474.502-.589.073-.03.27.021.325.169.014.074.03.218.002.303l-.688 2.369c-.058.193-.003.593.291.704.054.02.245.105.285.122.117.048.823.29.877.306.199.061.288-.014.37-.108.494-.601 1.029-.89 1.83-.86.426.01.785.292.967.664.136.294.123.52-.04.778-.316.584-.936.75-1.601.728-.136.016-.202.082-.216.17a.343.343 0 0 0 .039.206c.056.11.16.23.215.292.425.389 1.033.57 1.615.34.424-.173 1.217-.627 1.604-1.85a.49.49 0 0 0-.145-.493.577.577 0 0 1-.13-.376.72.72 0 0 1 .18-.443c.19-.171.393-.193.64-.131.024.006.057.02.102.045.047.026.097.057.15.087.112.062.252.133.414.148a.811.811 0 0 0 .43-.06c.04-.019.075-.038.112-.052a.226.226 0 0 1 .087-.02c.101-.006.152.047.16.134-.012.18-.067.379-.142.593-.077.22-.174.444-.261.66-.17.414-.347.87-.228 1.186.149.196.364.22.525.163.495-.256 1.292-1.509 1.085-1.916l-.091-.221a1.137 1.137 0 0 1-.054-.157.4.4 0 0 1 .021-.256c.04-.098.074-.14.11-.164a.803.803 0 0 1 .208-.088.346.346 0 0 1 .23.003c.04.013.079.031.118.053.044.023.086.049.13.074.188.11.425.24.771.135a.976.976 0 0 0 .266-.109c.077-.043.155-.093.233-.134.146-.077.261-.1.388-.03l.036.017a.197.197 0 0 1 .1.087c.03.055.06.182-.064.444-.113.249-.348.662-.554 1.08-.202.41-.394.86-.39 1.17a.862.862 0 0 0 .034.27c.082.303.374.356.565.145.236-.288.438-.602.626-.91.187-.306.365-.613.563-.9.39-.565.843-1.033 1.573-1.254.259-.066.477.085.657.368.179.278.285.64.317.87.03.243.066.514.125.766.061.254.15.506.296.693.073.09.18.078.24.057a.603.603 0 0 0 .182-.109c.11-.092.224-.223.292-.335.23-.385.432-.826.672-1.24.236-.407.432-.716.797-.97.452-.297 1.145-.039 1.47.44.255.35.364 1.1.332 1.698l.006.048c.062.153.182.19.294.16a.443.443 0 0 0 .11-.05l.07-.044c.499-.418.96-.92 1.451-1.361.488-.437.995-.803 1.583-.966.172-.048.398-.016.52.157.188.287.278.62.352.981.037.182.07.368.108.55.04.188.087.375.152.553.127.227.385.404.674.283.25-.202.443-.433.62-.677.175-.241.336-.5.492-.746.32-.503.585-.894.861-1.012.058-.036.257.027.283.157.073.38.038.742-.028 1.115-.066.38-.163.756-.202 1.144.009.26.224.227.304.194a.865.865 0 0 0 .127-.069l.097-.065a6.191 6.191 0 0 0 1.112-1.073c.304-.37.58-.77.918-1.222.19-.29.32-.338.458-.223.127.153.162.421.151.707-.012.29-.068.554-.077.647l-.227 1.164c.026.096.076.144.143.159a.273.273 0 0 0 .137-.008.732.732 0 0 0 .188-.096 3.76 3.76 0 0 0 .668-.647c.19-.23.36-.473.528-.707.336-.468.648-.876 1.082-1.091.134-.079.301-.022.38.136.06.122-.002.44-.128.891-.06.214-.126.44-.186.657a4.673 4.673 0 0 0-.13.626.269.269 0 0 0 .013.15.13.13 0 0 0 .05.055Z" fill="#FAFAFA"/></svg>