<svg width="82" height="14" fill="none" xmlns="http://www.w3.org/2000/svg"><mask id="a" fill="#fff"><path fill-rule="evenodd" clip-rule="evenodd" d="M77.82 11.377c-1.175-.01-4.374-.275-6.126-.292a22.703 22.703 0 0 0-2.891.157c.143.179.294.35.455.515.567.005 2.166.068 5.137.54 2.47.391 3.844.454 4.51.448a7.136 7.136 0 0 0 1.742-1.624c-.674.113-1.927.265-2.826.256Zm-3.506 1.097c-2.647-.44-4.204-.548-4.911-.572a7.335 7.335 0 0 0 2.408 1.553c.906.36 1.882.546 2.867.545 1.43 0 2.765-.383 3.893-1.046-.737-.017-2.067-.115-4.257-.48Zm-31.172.026c-.333-.188-.4-.406-.4-.624V1.252c0-.561-.266-.748-.433-.748-.401 0-2.269.748-2.703.966-.433.218-.1.499.1.592.2.093.367.187.367.686v2.376c-.174-.225-.47-.37-.936-.37-1.577 0-1.322 1.067-2.197 1.296v-.596c0-.56-.267-.748-.434-.748-.4 0-2.268.748-2.702.966-.434.218-.1.5.1.592.2.094.367.188.367.686v4.925c0 .218-.066.436-.4.624-.334.187-.034.648.334.648h2.801c.367 0 .668-.461.334-.648s-.4-.406-.4-.624v-3.2c.207-.632.72-1.896 1.496-1.896.334 0 .234.842 1.001.842.177 0 .45-.358.636-.82v5.074c0 .218-.067.436-.4.624-.334.187-.034.648.333.648h2.803c.366.001.667-.46.333-.647Z"/><path fill-rule="evenodd" clip-rule="evenodd" d="M32.8 10.66c0 .626-.306.625-.624.624h-.069c-.273.001-1.002.005-1.518-1.18-.016-.147-.006-.528.476-.628 0 0 2.301-.841 2.568-.966.267-.125.3-.56.3-.904 0-.342-.567-2.961-2.735-2.961s-3.002 2.182-3.002 4.55c0 2.37 1.201 4.178 3.369 4.178s2.501-1.279 2.501-2.09c0-.934-1.267-1.152-1.267-.623ZM10.35 12.5c-.334-.188-.4-.406-.4-.624V5.455c0-.561-.267-.748-.434-.748-.4 0-2.268.748-2.702.966-.433.218-.1.499.1.592.2.094.367.187.367.686v4.925c0 .218-.066.436-.4.623a.271.271 0 0 0-.131.148.513.513 0 0 0-.194-.21c-.445-.304-.441-.462-.435-.777l.001-.127V2.54c-.003-.399-.006-.7.234-.7.557 0 .904.826 1.218 1.57.062.148.122.292.183.425.366.81 1.567.374 1.434-.187-.066-.28-.166-.814-.266-1.35-.1-.54-.201-1.08-.268-1.362C8.524.375 8.29 0 8.058 0c-.234 0-.634.343-.634.343L4.6.389 1.778.343S1.378 0 1.145 0C.91 0 .677.374.545.935c-.068.28-.168.818-.268 1.356-.1.538-.2 1.076-.267 1.356-.133.561 1.068.998 1.435.187.06-.133.12-.277.182-.424.314-.745.661-1.57 1.219-1.57.239 0 .237.3.234.7l-.001.141v8.852c0 .045 0 .087.002.127.006.315.009.473-.436.777-.5.343-.067.71.734.71h2.443c.496 0 .85-.14.93-.328.054.17.247.329.463.329h2.802c.367 0 .668-.46.334-.648Zm46.603-.624c0 .218.066.436.4.624.333.187.033.648-.332.647H54.5c-.367 0-.667-.46-.334-.648.334-.188.4-.406.4-.624 0-.685-.236-5.33-.937-5.33-.297 0-.56.287-.56.479v4.851c0 .218.066.437.4.624s.033.648-.334.648h-2.802a.506.506 0 0 1-.362-.165c-.099.1-.31.165-.76.165h-1.467c-.105 0-.182-.075-.256-.147-.068-.065-.132-.127-.211-.127-.06 0-.128.035-.216.08-.157.08-.376.194-.718.194h-2.335c-.267 0-1.067-.648-1.067-1.927 0-1.277.68-2.312 2.068-2.96.114-.054.285-.095.469-.14.456-.11.998-.24.998-.64 0-.685-.3-1.464-.833-1.464-.535 0-.768.062-.768.062s.467.218.467.904-.434.81-1.001.81-1.3-.094-1.3-1.153c0-1.06 1.267-1.715 2.734-1.715h.126c1.422-.003 2.75-.005 3.01 2.992.267 3.086.267 3.21.267 3.492 0 .28.067.5.334.5.24 0 .48.303.524.569.3-.182.363-.392.363-.601V6.95c0-.499-.167-.592-.366-.686-.201-.093-.535-.374-.1-.592.433-.218 2.3-.966 2.701-.966.167 0 .433.187.433.748v.084a1.62 1.62 0 0 0 .35-.28c.232-.222.479-.459 1.045-.459 2.546 0 2.498 6.192 2.492 7.01v.066ZM24.72 4.801c.145-.114.278-.219.706-.219.735 0 2.702.936 2.7 4.3 0 4.27-1.367 4.457-2.634 4.457-1.12 0-1.38-.292-1.633-.575l-.101-.11c-.3-.312-.534-.405-.634-.25-.49.765-.693.754-.874.745l-.06-.003-.042.001c-.147.005-.353.011-.458-.415-.005.197-.225.414-.478.414h-2.521c-.367 0-.667-.46-.334-.648.334-.187.4-.405.4-.623 0-.685-.236-5.33-.937-5.33-.222 0-.477.152-.477.318v5.012c0 .218.068.436.401.623.334.188.033.648-.333.648H14.89c-.367 0-.667-.46-.333-.648.333-.187.4-.405.4-.623V7.168c0-.56-.238-.748-.538-.748-.291 0-.665.312-.665.796v4.66c0 .217.067.436.4.623.334.187.034.648-.333.648h-2.802c-.367 0-.667-.46-.334-.648.334-.188.4-.406.4-.624V6.95c0-.498-.166-.592-.366-.686-.2-.093-.534-.374-.1-.592.434-.218 2.301-.966 2.702-.966.167 0 .434.187.434.748v.123c.256-.062.389-.206.53-.36.224-.244.47-.51 1.269-.51.784 0 1.242.409 1.498.91.245-.058.398-.204.558-.358.232-.222.48-.46 1.046-.46 2.545 0 2.498 6.193 2.492 7.01v.067c0 .218.066.436.4.623a.274.274 0 0 1 .12.123 3.699 3.699 0 0 1-.043-.622V2.638c0-.461 0-.552-.194-.643-.2-.094-.534-.53-.1-.748.433-.218 2.128-.966 2.529-.966.166 0 .433.187.433.748v3.99c.219-.054.326-.138.428-.218Zm46.971 6.14c.963 0 2.364.07 3.626.134 1.034.052 1.974.1 2.504.1.996 0 2.42-.201 3.017-.32A6.49 6.49 0 0 0 82 7.158a6.43 6.43 0 0 0-.249-1.772l-3.923.935.422-.745c.928-.136 2.11-.413 3.221-.973a6.775 6.775 0 0 0-.283-.579 8.31 8.31 0 0 1-2.472.73l.612-1.082 1.583-.104a6.844 6.844 0 0 0-.45-.604h-1.828l.72-1.071a7.537 7.537 0 0 0-.462-.33l-1.47 1.913-.43-.793.072-.28 1.394-1.105a7.725 7.725 0 0 0-.467-.243l-1.477.741L75.754.39c-.22-.03-.44-.05-.663-.062l.807 1.937-.236.2L74.468.318c-.07.001-.14.005-.21.008l-.914 1.801-.95-1.472a7.616 7.616 0 0 0-.897.338l-.043 1.186-1.353-.362c-.28.209-.542.437-.786.682l1.634 1.874-.456.03-1.468-1.596a7.012 7.012 0 0 0-.496.634l.911 1.034-1.546.105a6.424 6.424 0 0 0-.538 2.577 6.511 6.511 0 0 0 1.365 3.98c.345-.05 1.51-.197 2.971-.197ZM68.2 7.126l.349.012h.242l.728-.843.84.376-.4.52.943.033 1.792-1.395.453.472-1.805.94 1.503.054.933-.336.347.362-.088 2.643c-1.8-.248-3.595-.482-5.374-.53a5.714 5.714 0 0 1-.464-2.297v-.011Zm9.625-.14-2.396.558s-.158 1.328.171 2.634c1.565.209 3.132.388 4.693.424A5.927 5.927 0 0 0 81.3 6.178l-.803.187c.137.425.601.96.601.96l-.5.219c-.444-.22-.868-.745-1.03-.963l-.937.218.166.62-.634.031-.34-.463Zm-.585-1.304-.593.92-.552.131.693-1.03c.114-.003.266-.008.452-.02Zm-.48-1.348-.212-.507-1.035.674.049 1.39 1.197-1.557Zm-2.05.576.013.657-.329-.018-.114-.458.43-.18Zm.054-.982-.617.42-.353-1.298.634-1.366.553 1.09-.217 1.154Zm3.338-.178.399-.026-.696 1.08a4.98 4.98 0 0 1-.397-.022l.694-1.032Zm-5.2 1.22.34-.73.186 1.215-.525-.485Zm-.042-1.666-.63-.188.063 1.093.567-.905Zm-.7-1.402.344.566-.314-.036-.03-.53Zm-.805.952-1.097-.329L71.41 3.59l-.055-.736Zm.304 2.153-1.06.033-.594.69.987.349 1.034-.78-.367-.292Zm-2.221.069-.281.354-.9-.317 1.18-.037Zm-.693.873-.374-.167a5.71 5.71 0 0 0-.143.818l.517-.651Zm-4.654 6.55c-.333-.187-.4-.405-.4-.623V1.533c0-.562-.266-.749-.433-.749-.172 0-.585.197-1.046.416-.284.135-.585.278-.86.39a1.9 1.9 0 0 1-.53.11.89.89 0 0 0-.266.051c-.434.218-.1.499.1.592.2.093.367.187.367.686v2.46a1.961 1.961 0 0 0-1.272-.47c-.867 0-2.635 1.527-2.635 4.738 0 1.34.434 2.307.7 2.898.233.515.49.507.838.496.052-.002.107-.003.163-.003h4.941c.367 0 .667-.46.333-.648Zm-3.94-6.046c.367 0 1.001.997 1.001 2.774 0 1.776-.467 2.556-.767 2.556s-.967-.718-.967-2.525c0-1.808.5-2.805.733-2.805Zm-34.19 2.244c0-.935-.266-2.805-.867-2.805-.6 0-.834 2.15-.834 2.805 0 .655.1 2.556.767 2.556.668 0 .935-1.62.935-2.556Zm4.737-2.899c.3 0 .967.873.967 1.714 0 .843-.767 1.092-1.134 1.092-.15 0-.348-.017-.367-.156-.334-2.385.234-2.65.534-2.65Zm15.91 5.642V8.946c-.7 0-1.267.5-1.267 1.747 0 1.246.4 1.371.8 1.371s.468-.343.468-.624Zm10.884-9.4c0-.365.318-.634.692-.634.37 0 .688.269.688.634 0 .368-.317.638-.688.638-.375 0-.692-.27-.692-.638Zm.692.532c.308 0 .55-.226.55-.532 0-.301-.242-.528-.55-.528-.312 0-.555.227-.555.528 0 .307.243.532.555.532Zm.312-.688c0-.145-.091-.209-.277-.209h-.299v.734h.12v-.317h.137l.206.317h.133l-.223-.323c.116-.013.203-.07.203-.202Zm-.124-.007c0 .112-.09.12-.19.12h-.143v-.228h.162c.083 0 .171.017.171.108Z"/></mask><path fill-rule="evenodd" clip-rule="evenodd" d="M77.82 11.377c-1.175-.01-4.374-.275-6.126-.292a22.703 22.703 0 0 0-2.891.157c.143.179.294.35.455.515.567.005 2.166.068 5.137.54 2.47.391 3.844.454 4.51.448a7.136 7.136 0 0 0 1.742-1.624c-.674.113-1.927.265-2.826.256Zm-3.506 1.097c-2.647-.44-4.204-.548-4.911-.572a7.335 7.335 0 0 0 2.408 1.553c.906.36 1.882.546 2.867.545 1.43 0 2.765-.383 3.893-1.046-.737-.017-2.067-.115-4.257-.48Zm-31.172.026c-.333-.188-.4-.406-.4-.624V1.252c0-.561-.266-.748-.433-.748-.401 0-2.269.748-2.703.966-.433.218-.1.499.1.592.2.093.367.187.367.686v2.376c-.174-.225-.47-.37-.936-.37-1.577 0-1.322 1.067-2.197 1.296v-.596c0-.56-.267-.748-.434-.748-.4 0-2.268.748-2.702.966-.434.218-.1.5.1.592.2.094.367.188.367.686v4.925c0 .218-.066.436-.4.624-.334.187-.034.648.334.648h2.801c.367 0 .668-.461.334-.648s-.4-.406-.4-.624v-3.2c.207-.632.72-1.896 1.496-1.896.334 0 .234.842 1.001.842.177 0 .45-.358.636-.82v5.074c0 .218-.067.436-.4.624-.334.187-.034.648.333.648h2.803c.366.001.667-.46.333-.647Z" fill="#FAFAFA"/><path fill-rule="evenodd" clip-rule="evenodd" d="M32.8 10.66c0 .626-.306.625-.624.624h-.069c-.273.001-1.002.005-1.518-1.18-.016-.147-.006-.528.476-.628 0 0 2.301-.841 2.568-.966.267-.125.3-.56.3-.904 0-.342-.567-2.961-2.735-2.961s-3.002 2.182-3.002 4.55c0 2.37 1.201 4.178 3.369 4.178s2.501-1.279 2.501-2.09c0-.934-1.267-1.152-1.267-.623ZM10.35 12.5c-.334-.188-.4-.406-.4-.624V5.455c0-.561-.267-.748-.434-.748-.4 0-2.268.748-2.702.966-.433.218-.1.499.1.592.2.094.367.187.367.686v4.925c0 .218-.066.436-.4.623a.271.271 0 0 0-.131.148.513.513 0 0 0-.194-.21c-.445-.304-.441-.462-.435-.777l.001-.127V2.54c-.003-.399-.006-.7.234-.7.557 0 .904.826 1.218 1.57.062.148.122.292.183.425.366.81 1.567.374 1.434-.187-.066-.28-.166-.814-.266-1.35-.1-.54-.201-1.08-.268-1.362C8.524.375 8.29 0 8.058 0c-.234 0-.634.343-.634.343L4.6.389 1.778.343S1.378 0 1.145 0C.91 0 .677.374.545.935c-.068.28-.168.818-.268 1.356-.1.538-.2 1.076-.267 1.356-.133.561 1.068.998 1.435.187.06-.133.12-.277.182-.424.314-.745.661-1.57 1.219-1.57.239 0 .237.3.234.7l-.001.141v8.852c0 .045 0 .087.002.127.006.315.009.473-.436.777-.5.343-.067.71.734.71h2.443c.496 0 .85-.14.93-.328.054.17.247.329.463.329h2.802c.367 0 .668-.46.334-.648Zm46.603-.624c0 .218.066.436.4.624.333.187.033.648-.332.647H54.5c-.367 0-.667-.46-.334-.648.334-.188.4-.406.4-.624 0-.685-.236-5.33-.937-5.33-.297 0-.56.287-.56.479v4.851c0 .218.066.437.4.624s.033.648-.334.648h-2.802a.506.506 0 0 1-.362-.165c-.099.1-.31.165-.76.165h-1.467c-.105 0-.182-.075-.256-.147-.068-.065-.132-.127-.211-.127-.06 0-.128.035-.216.08-.157.08-.376.194-.718.194h-2.335c-.267 0-1.067-.648-1.067-1.927 0-1.277.68-2.312 2.068-2.96.114-.054.285-.095.469-.14.456-.11.998-.24.998-.64 0-.685-.3-1.464-.833-1.464-.535 0-.768.062-.768.062s.467.218.467.904-.434.81-1.001.81-1.3-.094-1.3-1.153c0-1.06 1.267-1.715 2.734-1.715h.126c1.422-.003 2.75-.005 3.01 2.992.267 3.086.267 3.21.267 3.492 0 .28.067.5.334.5.24 0 .48.303.524.569.3-.182.363-.392.363-.601V6.95c0-.499-.167-.592-.366-.686-.201-.093-.535-.374-.1-.592.433-.218 2.3-.966 2.701-.966.167 0 .433.187.433.748v.084a1.62 1.62 0 0 0 .35-.28c.232-.222.479-.459 1.045-.459 2.546 0 2.498 6.192 2.492 7.01v.066ZM24.72 4.801c.145-.114.278-.219.706-.219.735 0 2.702.936 2.7 4.3 0 4.27-1.367 4.457-2.634 4.457-1.12 0-1.38-.292-1.633-.575l-.101-.11c-.3-.312-.534-.405-.634-.25-.49.765-.693.754-.874.745l-.06-.003-.042.001c-.147.005-.353.011-.458-.415-.005.197-.225.414-.478.414h-2.521c-.367 0-.667-.46-.334-.648.334-.187.4-.405.4-.623 0-.685-.236-5.33-.937-5.33-.222 0-.477.152-.477.318v5.012c0 .218.068.436.401.623.334.188.033.648-.333.648H14.89c-.367 0-.667-.46-.333-.648.333-.187.4-.405.4-.623V7.168c0-.56-.238-.748-.538-.748-.291 0-.665.312-.665.796v4.66c0 .217.067.436.4.623.334.187.034.648-.333.648h-2.802c-.367 0-.667-.46-.334-.648.334-.188.4-.406.4-.624V6.95c0-.498-.166-.592-.366-.686-.2-.093-.534-.374-.1-.592.434-.218 2.301-.966 2.702-.966.167 0 .434.187.434.748v.123c.256-.062.389-.206.53-.36.224-.244.47-.51 1.269-.51.784 0 1.242.409 1.498.91.245-.058.398-.204.558-.358.232-.222.48-.46 1.046-.46 2.545 0 2.498 6.193 2.492 7.01v.067c0 .218.066.436.4.623a.274.274 0 0 1 .12.123 3.699 3.699 0 0 1-.043-.622V2.638c0-.461 0-.552-.194-.643-.2-.094-.534-.53-.1-.748.433-.218 2.128-.966 2.529-.966.166 0 .433.187.433.748v3.99c.219-.054.326-.138.428-.218Zm46.971 6.14c.963 0 2.364.07 3.626.134 1.034.052 1.974.1 2.504.1.996 0 2.42-.201 3.017-.32A6.49 6.49 0 0 0 82 7.158a6.43 6.43 0 0 0-.249-1.772l-3.923.935.422-.745c.928-.136 2.11-.413 3.221-.973a6.775 6.775 0 0 0-.283-.579 8.31 8.31 0 0 1-2.472.73l.612-1.082 1.583-.104a6.844 6.844 0 0 0-.45-.604h-1.828l.72-1.071a7.537 7.537 0 0 0-.462-.33l-1.47 1.913-.43-.793.072-.28 1.394-1.105a7.725 7.725 0 0 0-.467-.243l-1.477.741L75.754.39c-.22-.03-.44-.05-.663-.062l.807 1.937-.236.2L74.468.318c-.07.001-.14.005-.21.008l-.914 1.801-.95-1.472a7.616 7.616 0 0 0-.897.338l-.043 1.186-1.353-.362c-.28.209-.542.437-.786.682l1.634 1.874-.456.03-1.468-1.596a7.012 7.012 0 0 0-.496.634l.911 1.034-1.546.105a6.424 6.424 0 0 0-.538 2.577 6.511 6.511 0 0 0 1.365 3.98c.345-.05 1.51-.197 2.971-.197ZM68.2 7.126l.349.012h.242l.728-.843.84.376-.4.52.943.033 1.792-1.395.453.472-1.805.94 1.503.054.933-.336.347.362-.088 2.643c-1.8-.248-3.595-.482-5.374-.53a5.714 5.714 0 0 1-.464-2.297v-.011Zm9.625-.14-2.396.558s-.158 1.328.171 2.634c1.565.209 3.132.388 4.693.424A5.927 5.927 0 0 0 81.3 6.178l-.803.187c.137.425.601.96.601.96l-.5.219c-.444-.22-.868-.745-1.03-.963l-.937.218.166.62-.634.031-.34-.463Zm-.585-1.304-.593.92-.552.131.693-1.03c.114-.003.266-.008.452-.02Zm-.48-1.348-.212-.507-1.035.674.049 1.39 1.197-1.557Zm-2.05.576.013.657-.329-.018-.114-.458.43-.18Zm.054-.982-.617.42-.353-1.298.634-1.366.553 1.09-.217 1.154Zm3.338-.178.399-.026-.696 1.08a4.98 4.98 0 0 1-.397-.022l.694-1.032Zm-5.2 1.22.34-.73.186 1.215-.525-.485Zm-.042-1.666-.63-.188.063 1.093.567-.905Zm-.7-1.402.344.566-.314-.036-.03-.53Zm-.805.952-1.097-.329L71.41 3.59l-.055-.736Zm.304 2.153-1.06.033-.594.69.987.349 1.034-.78-.367-.292Zm-2.221.069-.281.354-.9-.317 1.18-.037Zm-.693.873-.374-.167a5.71 5.71 0 0 0-.143.818l.517-.651Zm-4.654 6.55c-.333-.187-.4-.405-.4-.623V1.533c0-.562-.266-.749-.433-.749-.172 0-.585.197-1.046.416-.284.135-.585.278-.86.39a1.9 1.9 0 0 1-.53.11.89.89 0 0 0-.266.051c-.434.218-.1.499.1.592.2.093.367.187.367.686v2.46a1.961 1.961 0 0 0-1.272-.47c-.867 0-2.635 1.527-2.635 4.738 0 1.34.434 2.307.7 2.898.233.515.49.507.838.496.052-.002.107-.003.163-.003h4.941c.367 0 .667-.46.333-.648Zm-3.94-6.046c.367 0 1.001.997 1.001 2.774 0 1.776-.467 2.556-.767 2.556s-.967-.718-.967-2.525c0-1.808.5-2.805.733-2.805Zm-34.19 2.244c0-.935-.266-2.805-.867-2.805-.6 0-.834 2.15-.834 2.805 0 .655.1 2.556.767 2.556.668 0 .935-1.62.935-2.556Zm4.737-2.899c.3 0 .967.873.967 1.714 0 .843-.767 1.092-1.134 1.092-.15 0-.348-.017-.367-.156-.334-2.385.234-2.65.534-2.65Zm15.91 5.642V8.946c-.7 0-1.267.5-1.267 1.747 0 1.246.4 1.371.8 1.371s.468-.343.468-.624Zm10.884-9.4c0-.365.318-.634.692-.634.37 0 .688.269.688.634 0 .368-.317.638-.688.638-.375 0-.692-.27-.692-.638Zm.692.532c.308 0 .55-.226.55-.532 0-.301-.242-.528-.55-.528-.312 0-.555.227-.555.528 0 .307.243.532.555.532Zm.312-.688c0-.145-.091-.209-.277-.209h-.299v.734h.12v-.317h.137l.206.317h.133l-.223-.323c.116-.013.203-.07.203-.202Zm-.124-.007c0 .112-.09.12-.19.12h-.143v-.228h.162c.083 0 .171.017.171.108Z" fill="#FAFAFA"/><path d="M32.121 11.284 32.1 4.799l.022 6.485ZM15.14 2.635v.046h12.97v-.04l-12.97-.006ZM45.889-1.56h-.044l.02 12.97h.048l-.024-12.97ZM32.132 4.8H32.1l.045 12.97h-.012V4.799Zm-.033 0h-.024l.064 12.97h.006L32.099 4.8Zm45.722 6.578.126-12.969h-.006l-.12 12.97Zm-6.127-.292.126-12.969-.126 12.97Zm-2.891.157-1.525-12.88-23.213 2.749 14.617 18.24 10.12-8.11Zm.455.515-9.28 9.061 3.768 3.859 5.392.05.12-12.97Zm5.137.54-2.034 12.81h.003l2.03-12.81Zm4.51.448.12 12.969 3.84-.035 3.201-2.12-7.16-10.814Zm1.742-1.624 10.32 7.856 19.842-26.062L78.503-1.67l2.144 12.792Zm-6.333 1.353 2.13-12.793h-.002l-2.128 12.793Zm-4.911-.572.43-12.962-33.49-1.114 24.014 23.37 9.046-9.294ZM74.678 14V1.03h-.014L74.678 14Zm3.893-1.046 6.573 11.18L124.435 1.04 78.87-.013l-.299 12.967Zm2.268-2.098 2.521 12.722 5.168-1.024 2.99-4.338-10.679-7.36ZM82 7.157H69.03v.021L82 7.159Zm-.249-1.772 12.47-3.57-3.415-11.924L78.742-7.23l3.01 12.616Zm-3.923.935L66.541-.069 51.873 25.844l28.964-6.908L77.828 6.32Zm.422-.745L76.368-7.257l-6.279.92-3.126 5.523 11.287 6.39Zm3.221-.973 5.84 11.58 10.916-5.505-4.85-11.222L81.47 4.602Zm-.283-.579 11.365-6.249-5.838-10.616L75.727-7.74l5.461 11.763Zm-2.472.73L67.427-1.633 54.723 20.824l25.602-3.202-1.61-12.87Zm.612-1.082-.845-12.943-6.993.457-3.45 6.1L79.327 3.67Zm1.583-.104.845 12.943 22.315-1.457L91.725-3.593l-10.814 7.16Zm-.45-.604 9.961-8.307-3.888-4.663h-6.072v12.97Zm-1.828 0L67.869-4.274 54.284 15.932h24.349V2.962Zm.72-1.071 10.763 7.236L96.886-.94 87.29-8.365 79.353 1.892Zm-.462-.33 7.141-10.827L75.96-15.91l-7.353 9.567L78.891 1.56Zm-1.47 1.913L66.007 9.638l9.506 17.602 12.19-15.862L77.42 3.475Zm-.43-.793L64.419-.498 63.179 4.4l2.4 4.445 11.413-6.163Zm.072-.28L69.007-7.763l-3.441 2.727-1.077 4.257 12.574 3.18Zm1.394-1.105 8.055 10.164L101.625-.515l-16.79-9.482-6.378 11.294Zm-.467-.243 5.596-11.7-5.733-2.742-5.68 2.85L77.99 1.054Zm-1.477.741L65.1 7.957l5.98 11.076 11.25-5.645-5.817-11.593ZM75.754.39l11.413-6.161-3.126-5.79-6.519-.897L75.754.389Zm-.663-.062.678-12.953L55.202-13.7l7.916 19.013L75.091.327Zm.807 1.937 8.365 9.912 7.26-6.127-3.651-8.77-11.974 4.985Zm-.236.2L64.33 8.771l7.661 13.761 12.036-10.158-8.365-9.912ZM74.468.318 85.8-5.99l-3.815-6.852-7.84.195.323 12.966Zm-.21.008-.725-12.949-7.455.418-3.382 6.656L74.259.327Zm-.914 1.801-10.9 7.03 12.237 18.97L84.906 8.003 73.344 2.128Zm-.95-1.472 10.9-7.03-5.323-8.251-9.386 2.883L72.395.656Zm-.897.338-5.335-11.822-7.329 3.308-.297 8.035 12.961.479Zm-.043 1.186-3.361 12.527 15.72 4.218.602-16.266-12.962-.479ZM70.1 1.818l3.361-12.527-6.082-1.632-5.044 3.77L70.1 1.819Zm-.786.682-9.181-9.16-8.548 8.567 7.955 9.12L69.315 2.5Zm1.634 1.874.879 12.94 26.075-1.771-17.18-19.695-9.774 8.526Zm-.456.03-9.548 8.778 4.214 4.584 6.213-.422-.88-12.94Zm-1.468-1.596 9.549-8.777-9.756-10.612-9.526 10.818 9.733 8.571Zm-.496.634L57.88-3.96l-5.804 8.35 6.724 7.628 9.73-8.576Zm.911 1.034.88 12.94 26.243-1.784L79.17-4.101l-9.73 8.577Zm-1.546.105-.88-12.94-7.861.534-3.148 7.224 11.89 5.182Zm-.538 2.577 12.97.022v-.039l-12.97.017Zm1.365 3.98-10.29 7.895 4.622 6.024 7.516-1.082-1.848-12.837Zm9.381-7.388-.85-12.942-6.356.417-3.555 5.286L78.102 3.75Zm.399-.026 10.905 7.02 13.936-21.649L77.65-9.218l.85 12.942Zm-.696 1.08-.192 12.968 7.2.107 3.898-6.055-10.906-7.02Zm-.397-.022-10.761-7.24-12.169 18.089 21.703 2.063 1.227-12.912Zm-.168.9 10.9 7.028 13.968-21.664-25.72 1.694.853 12.941Zm-.593.92 3.012 12.615 5.066-1.21 2.823-4.378-10.901-7.028Zm-.552.131L65.332-.5 46.808 27.06l32.3-7.712-3.013-12.615Zm.693-1.03L76.49-7.263l-6.719.153-3.749 5.578 10.765 7.235Zm-.24-1.876 11.974-4.984-5.986-14.381-13.058 8.493 7.07 10.872Zm.211.507 10.283 7.905 4.578-5.955L88.733-.65 76.76 4.334Zm-1.197 1.558L62.6 6.348l1.27 36.031 21.974-28.582-10.282-7.905Zm-.05-1.391-7.07-10.873-6.15 4 .259 7.33L75.513 4.5Zm-.083 3.043L72.493-5.09l-8.87 2.06-1.074 9.044 12.88 1.529Zm2.396-.557L88.287-.678l-5.06-6.906-8.338 1.938 2.936 12.633Zm.339.463L67.7 15.115l4.121 5.625 6.965-.335-.623-12.955Zm.634-.03.623 12.954 16.053-.773-4.145-15.527-12.53 3.346Zm-.166-.621L75.69-5.833 62.647-2.795l3.454 12.94 12.531-3.346Zm.936-.218 10.38-7.776-5.076-6.776-8.246 1.92 2.942 12.632Zm1.03.963-5.755 11.622 5.407 2.678 5.531-2.41-5.182-11.89Zm.501-.218 5.182 11.89 16.171-7.049-11.55-13.333L81.1 7.326Zm-.601-.961L77.565-6.27 63.812-3.077l4.345 13.433 12.34-3.991Zm.803-.187 12.785-2.182L91.77-9.567l-13.4 3.111 2.933 12.634Zm-1.008 4.424-.304 12.966 6.924.163 3.986-5.664-10.606-7.465Zm-4.693-.424L63.025 13.35l2.15 8.521 8.71 1.163L75.6 10.178Zm-.89-5.268 12.967-.267-.393-19.074L69.69-7.049 74.71 4.91Zm.013.657-.704 12.95 13.96.76L87.69 5.3l-12.967.267Zm-.329-.018L61.814 8.7l2.324 9.28 9.552.52.704-12.951Zm-.114-.458L69.26-6.87 58.993-2.56l2.706 10.802 12.58-3.151Zm-3.68-.05-.4-12.964-5.699.176-3.723 4.316L70.6 5.04Zm1.059-.034 8.074-10.15-3.721-2.96-4.753.147.4 12.963Zm.367.293 7.803 10.36L93.211 5.58 80.101-4.85 72.026 5.3Zm-1.034.779-4.323 12.228 6.565 2.32 5.56-4.189-7.802-10.36Zm-.987-.35-9.822-8.47-12.396 14.374 17.896 6.325L70.005 5.73Zm-.567-.653 10.159 8.063L96.974-8.754l-27.938.866.402 12.964Zm-.281.354-4.321 12.23 8.726 3.082 5.753-7.249L69.157 5.43Zm-.9-.317-.402-12.964-3.919 25.192 4.321-12.228Zm.114.669L73.66-6.06l-14.12-6.31-3.752 15.006L68.37 5.782Zm.374.167 10.16 8.061L89.289.923 74.036-5.893 68.745 5.95Zm-.517.65L55.324 5.302l-4.43 44.012L78.388 14.66 68.228 6.6Zm-.028.527.47-12.962-13.44-.487V7.126H68.2Zm.349.012-.47 12.961.235.009h.235V7.138Zm.242 0v12.97h5.94l3.881-4.498-9.82-8.472Zm.728-.843 5.295-11.84-8.811-3.94-6.305 7.308 9.82 8.472Zm.84.376 10.267 7.924L90.69 1.556 75.654-5.169 70.36 6.671Zm-.4.52L59.69-.735 44.27 19.243l25.22.909.467-12.962Zm.943.033-.467 12.962 4.714.17 3.722-2.899-7.969-10.233Zm1.792-1.395 9.358-8.98-8.098-8.44-9.229 7.187 7.969 10.233Zm.453.472 5.988 11.505L94.49 9.813 82.506-2.678l-9.36 8.98Zm-1.805.94L65.355-4.265 21.773 18.42l49.1 1.78.47-12.96Zm1.503.054-.47 12.961 2.501.09 2.355-.846-4.386-12.205Zm.933-.336 9.367-8.97-5.826-6.083-7.926 2.848 4.385 12.205Zm.347.362 12.962.432.182-5.459L83.49-1.65l-9.366 8.97Zm-.088 2.643-1.769 12.849 14.251 1.96.48-14.377-12.962-.432Zm-5.374-.53-11.92 5.108 3.268 7.629 8.297.227.355-12.965ZM68.2 7.175l12.97.012v-.38l-.022-.38-12.948.748Zm-36.067 4.108v-12.97h-.024l.024 12.97Zm-1.543-1.18-12.9 1.348.209 1.996.802 1.84 11.889-5.184Zm.476-.628 2.641 12.698.925-.192.887-.325-4.454-12.18Zm2.568-.966 5.474 11.758.016-.007.016-.008L33.633 8.51Zm.433 2.774-12.97-.007v.007h12.97ZM6.816 5.673.992-5.917l-.005.003L6.815 5.673Zm.1.592 5.5-11.746-.01-.005-5.49 11.75Zm-.034 6.234 5.993 11.502.182-.095.18-.1-6.355-11.307Zm-.131.148-11.958 5.021L7.67 48.334l11.282-31.288-12.201-4.4Zm-.194-.21L-.78 23.132l.012.009.012.008 7.313-10.712Zm1.2-8.603 11.816-5.349-.001-.003L7.758 3.834Zm1.435-.187 12.618-3-12.618 3ZM8.658.935l-12.618 3 .002.01L8.658.936ZM7.424.343l.214 12.968 4.675-.078 3.55-3.043L7.424.344ZM4.6.389l-.214 12.968.214.004.214-.004L4.601.39ZM1.778.343l-8.434 9.852 3.549 3.038 4.67.078L1.779.343ZM.544.935l-12.618-3 12.618 3ZM.01 3.647l-12.618-3 12.618 3Zm1.435.187L-10.37-1.518l-.003.006L1.445 3.834Zm1.2 8.603 7.324 10.704.008-.005-7.332-10.699Zm4.107.382 12.356-3.943L8.5-24.37-5.18 7.735 6.752 12.82Zm3.265.329.015-12.97h-.015v12.97ZM39.607 1.47l-5.823-11.59-.005.003L39.606 1.47Zm.466 3.654-10.256 7.94 23.226 30.002V5.124h-12.97Zm-3.133.926H23.97v16.816l16.265-4.271L36.94 6.05Zm-3.036.214 5.5-11.745-.01-.005-5.49 11.75Zm3.036 2.41L24.62 4.62l-.65 1.975v2.08h12.97Zm3.133-1.873h12.97L28.05 1.934l12.022 4.867Zm2.736 6.346.046-12.97h-.046v12.97Zm10.258-7.608h-12.97V27.2l19.095-10.23-6.125-11.432Zm-3.034.726 5.51-11.74-.02-.01-.021-.01-5.47 11.76Zm.003 6.212-12.789 2.157 3.179 18.841 16.337-9.909-6.727-11.089Zm-1.125-4.56 12.922-1.118L48.91 7.916Zm-4.036-1.84-3.349-12.53-34.378 9.19 32.229 15.088 5.5-11.746Zm.134 2.183L50.5 20.01l.007-.004.008-.003L45.008 8.26Zm4.962 4.722 9.481-8.849-9.184-9.84-9.493 9.543 9.196 9.146Zm7.05.165.047-12.97h-.046v12.97ZM24.294 5.02h-12.97v16.639l16.136-4.062L24.293 5.02Zm-2.862-3.025-5.512 11.74.016.008.016.008 5.48-11.756Zm.194.686-12.97-.004v.004h12.97Zm.044 9.94L10.042 18.37l24.408-7.95-12.781 2.203Zm-.122-.122-6.354 11.307.17.095.173.09 6.01-11.491Zm-4.495-6.883L5.508 11.53l4.615 9.009 9.86-2.288-2.931-12.634Zm-3.297-.039H.785v16.52l16.047-3.92-3.077-12.6Zm-3.036.687 5.5-11.745-.01-.005-.01-.005-5.48 11.755Zm6.626 5.61h12.97-12.97Zm0-5.01H4.374h12.97Zm4.346 5.868 12.594-3.1-25.56 2.793 12.966.307Zm1.434-.327L12.223 5.379l-.007.01-.006.01 10.915 7.006Zm.634.25-9.346 8.993 9.346-8.994Zm4.369-3.773-12.97-.005v.005h12.97ZM61.352 1.59l-4.884-12.015-.005.002 4.89 12.013Zm-.796.161 5.822 11.59.013-.007.013-.007-5.848-11.576Zm.467 3.738-8.463 9.828 21.433 18.456V5.49h-12.97Zm-3.207 7.166-11.822 5.333 11.822-5.333Zm5.942.493.016-12.97h-.016v12.97Zm9.102-9.844 10.989 6.89 9.043-14.425L76.584-9.12 72.86 3.304Zm-.63-.188 3.724-12.424-17.738-5.316 1.066 18.486 12.948-.746Zm.063 1.093-12.948.746 2.34 40.594 21.597-34.451-10.99-6.89Zm.948.031 12.82-1.964-6.506-42.471-18.08 38.978L73.243 4.24Zm-.338.73L61.137-.487l-3.976 8.573 6.942 6.412 8.8-9.528Zm.525.485-8.8 9.528 27.234 25.156L86.248 3.49l-12.82 1.964Zm.72-1.107-12.514 3.41 4.778 17.534 15.028-10.22-7.293-10.724Zm.616-.42 7.293 10.726 4.458-3.032.996-5.298-12.747-2.396Zm.217-1.154 12.747 2.395.814-4.334-1.996-3.932-11.565 5.87Zm-.553-1.09 11.565-5.871-12.087-23.81-11.242 24.22 11.764 5.46Zm-.634 1.366L62.03-2.41l-1.995 4.297L61.28 6.46l12.514-3.41Zm-1.29-.582-1.502 12.883 26.384 3.077-13.8-22.697-11.082 6.737Zm-.344-.566 11.082-6.738-24.03 7.48 12.948-.742Zm.03.53-12.948.74.623 10.88 10.823 1.262L72.19 2.432Zm-.835.422 12.933-.975-.67-8.892-8.543-2.558-3.72 12.425Zm-1.097-.329 3.72-12.424L61.456 12.05l8.803-9.525ZM71.41 3.59l-8.803 9.525 24.215 22.38-2.479-32.88-12.933.975ZM30.164 8.448l-12.845 1.794v.01l12.845-1.804Zm16.444.498h12.97v-12.97h-12.97v12.97ZM57.92 2.41H44.95v12.97h12.97V2.409Zm0-.734v-12.97H44.95v12.97h12.97Zm.373.411-1.505-12.882L35.344-8.29 47.626 9.465l10.667-7.379Zm.223.323v12.97H83.26L69.183-4.969 58.516 2.409Zm-.133 0L47.51 9.48l3.837 5.9h7.036V2.41Zm-.206-.317L69.05-4.98l-3.837-5.9h-7.036V2.09Zm-.138 0v-12.97H45.07v12.97h12.97Zm0 .317v12.97h12.97V2.409h-12.97Zm0-.64V-11.2h-12.97V1.77h12.97Zm0 .227h-12.97v12.97h12.97V1.996Zm17.279 9.08-.652 12.953.652-12.954Zm-7.119-3.93 12.957.576L68.2 7.145Zm0-.01 12.962.453v-.002L68.2 7.137Zm0-.004 12.966.315v-.015l.001-.014L68.2 7.132Zm-9.545 6.019.404 12.963-.404-12.963ZM60.822 1.7l1.345 12.9-1.345-12.9Zm1.39-.5-5.573-11.712L62.212 1.2ZM47.488 13l9.024-9.317L47.488 13Zm-.427-.048L41.115 1.427l5.946 11.526ZM45.478 8.12l3.033 12.61-3.033-12.61Zm.377-3.197.02 12.97h.003l-.023-12.97Zm.046 0 .022 12.97h.001l-.023-12.97Zm7.516.336 8.981 9.357-8.98-9.357Zm3.537 6.55-12.97-.099v.099h12.97Zm0 0 12.97.1v-.1h-12.97ZM24.721 4.8l8.006 10.205L24.72 4.8Zm-.861 7.964L14.181 21.4l9.678-8.635Zm-1.61.385L22.957.197l-.705 12.95Zm-.1-.002.4 12.964-.4-12.964Zm-7.865-7.93-9.54-8.786 9.54 8.786Zm3.325.042L8.635-4.104 17.61 5.26Zm3.538 6.55-12.97-.098 12.97.099Zm.477-9.171-12.97-.005v.001l12.97.004Zm10.55 8.646-.053 12.97.054-12.97Zm-.068 0-.058-12.97h-.006l.064 12.97Zm.014 0-.024-12.97h-.034l.058 12.97Zm-29.04.376-12.968.255 12.968-.255ZM3.08 2.54l12.97.098-12.97-.099Zm-1.453.87-11.953-5.032L1.628 3.41ZM.277 2.29l-12.75-2.373L.276 2.29Zm8.65.007 12.75-2.375-12.75 2.375ZM7.574 3.41-4.38 8.442 7.575 3.41Zm-1.452-.87h12.97v-.05l-.001-.049-12.97.098Zm0 0h-12.97v.098l12.97-.099Zm-.001 9.12-12.968-.256 12.968.256Zm71.82-13.252c.024 0-.138-.003-.63-.03-.444-.023-.95-.054-1.566-.091-1.079-.064-2.662-.159-3.926-.17l-.252 25.938c.488.004 1.38.05 2.633.125.55.033 1.173.071 1.714.1.494.027 1.172.061 1.786.067l.24-25.939Zm-6.123-.292a35.698 35.698 0 0 0-4.541.246l3.05 25.76a9.51 9.51 0 0 1 1.241-.067l.25-25.939ZM58.682 19.352a20 20 0 0 0 1.296 1.466l18.56-18.122c.159.163.287.312.386.436l-20.242 16.22Zm10.456 5.374c-.172-.001.781-.008 3.223.38L76.429-.512c-3.5-.556-5.746-.688-7.052-.7l-.239 25.938Zm3.226.38c2.952.469 5.075.622 6.66.608L78.788-.224c.253-.003-.374.026-2.361-.289l-4.062 25.62Zm13.702-1.548a20.107 20.107 0 0 0 4.9-4.58L70.328 3.263a5.834 5.834 0 0 1 1.417-1.333l14.321 21.628ZM78.503-1.67l-.044.007a7.718 7.718 0 0 1-.436.054l-.231.02c-.053.002.006-.003.155-.002l-.252 25.939c1.992.019 4.093-.267 5.096-.435L78.503-1.671Zm-2.06 1.35c-3.107-.516-5.238-.695-6.61-.74l-.862 25.925c.044.002 1.027.04 3.215.403L76.442-.32ZM60.356 21.197a20.303 20.303 0 0 0 6.662 4.31l9.584-24.104c.639.254 1.275.65 1.845 1.205l-18.09 18.589Zm6.662 4.31a20.715 20.715 0 0 0 7.673 1.463l-.028-25.94c.644 0 1.3.12 1.939.373l-9.584 24.104Zm7.659 1.463c3.764 0 7.365-1.012 10.466-2.835L71.999 1.772a5.306 5.306 0 0 1 2.679-.742v25.94ZM78.87-.013c.021 0-.68-.016-2.427-.306l-4.258 25.587c2.634.439 4.593.617 6.087.652L78.87-.013Zm-1.048 24.158c2.137 0 4.462-.354 5.538-.567L78.318-1.867l.069-.013-.082.013a10.028 10.028 0 0 1-.621.073c-.028.002-.034.002-.019.002.014 0 .068-.003.157-.003v25.94Zm13.696-5.93A19.459 19.459 0 0 0 94.97 7.137l-25.94.043a6.481 6.481 0 0 1 1.13-3.684l21.358 14.72ZM94.97 7.158c0-1.844-.262-3.639-.75-5.342l-24.938 7.14a6.54 6.54 0 0 1-.252-1.798h25.94ZM78.742-7.23l-3.923.935 6.018 25.232L84.76 18 78.742-7.23Zm10.373 19.94.422-.745L66.963-.814l-.422.745L89.115 12.71Zm-8.983 5.699c1.746-.256 4.404-.826 7.18-2.226l-11.68-23.16c.313-.16.534-.227.616-.25a1.4 1.4 0 0 1 .096-.025l.024-.004 3.764 25.665ZM93.376-.545a19.792 19.792 0 0 0-.823-1.681l-22.73 12.499a6.174 6.174 0 0 1-.257-.525L93.376-.545ZM75.726-7.74a4.674 4.674 0 0 1 1.38-.377l3.22 25.74a21.297 21.297 0 0 0 6.324-1.836L75.727-7.74Zm14.278 18.879.613-1.082L68.039-2.716l-.612 1.082L90.004 11.14Zm-9.831 5.474 1.583-.103-1.69-25.885-1.583.103 1.69 25.885ZM91.725-3.593a19.798 19.798 0 0 0-1.303-1.75L70.501 11.268a6.133 6.133 0 0 1-.404-.541l21.628-14.32Zm-11.263-6.414h-1.83v25.94h1.83v-25.94Zm8.934 20.206.72-1.07L68.589-5.346l-.72 1.071L89.396 10.2ZM87.29-8.365a20.5 20.5 0 0 0-1.258-.9L71.75 12.388a5.487 5.487 0 0 1-.334-.239L87.29-8.365ZM68.607-6.342l-1.47 1.914 20.567 15.806 1.47-1.913L68.607-6.342Zm20.225 3.654-.428-.793L65.58 8.845l.428.793L88.832-2.688Zm.734 8.55.07-.28L64.49-.778l-.071.28 25.148 6.36Zm-4.448 6.704 1.394-1.105-16.11-20.33-1.395 1.106 16.111 20.33Zm-.284-22.563a20.677 20.677 0 0 0-1.248-.65L72.395 12.756a5.282 5.282 0 0 1-.316-.165L84.834-9.997Zm-12.66-.541-1.478.741L82.33 13.388l1.477-.742-11.633-23.184Zm15.752 6.172-.76-1.406L64.342 6.55l.76 1.406L87.925-4.366Zm-10.404-8.093a20.839 20.839 0 0 0-1.754-.167L74.415 13.28a5.087 5.087 0 0 1-.429-.041l3.537-25.697ZM63.118 5.31l.807 1.938 23.947-9.97-.807-1.938-23.947 9.97Zm4.415-12.958-.236.199 16.73 19.823.236-.2-16.73-19.822Zm19.461 3.802L85.8-5.99 63.136 6.627l1.194 2.145L86.994-3.845Zm-12.849-8.802c-.232.006-.44.015-.612.025l1.452 25.899a6.56 6.56 0 0 1-.194.008l-.646-25.932Zm-11.45 7.1-.914 1.8 23.125 11.75.915-1.8-23.125-11.75Zm21.548.645-.95-1.472-21.798 14.06.95 1.473 21.798-14.06Zm-15.658-6.84c-.805.248-1.616.55-2.423.914l10.671 23.643c-.23.104-.441.181-.63.239l-7.618-24.796ZM58.537.515 58.492 1.7l25.922.958.043-1.186L58.536.515Zm16.277-10.861-1.352-.363-6.721 25.053 1.352.363 6.721-25.053ZM62.336-8.57a20.17 20.17 0 0 0-2.203 1.91l18.363 18.32a5.772 5.772 0 0 1-.629.545L62.336-8.57ZM59.54 11.026l1.634 1.873L80.722-4.152l-1.634-1.873-19.547 17.051ZM70.07-8.566l-.456.03 1.758 25.88.456-.03-1.758-25.88Zm9.971 4.193L78.574-5.97 59.477 11.586l1.468 1.596L80.04-4.373Zm-20.75-1.39A19.994 19.994 0 0 0 57.88-3.96l21.3 14.804a6 6 0 0 1-.42.536L59.292-5.763ZM58.8 12.018l.91 1.034L79.17-4.101l-.911-1.033-19.46 17.152Zm9.76-20.482-1.545.105 1.758 25.88 1.547-.105-1.76-25.88ZM56.005-.601a19.394 19.394 0 0 0-1.618 7.776l25.94-.034a6.547 6.547 0 0 1-.542 2.622L56.004-.601Zm-1.618 7.737a19.48 19.48 0 0 0 4.045 11.897l20.58-15.79a6.46 6.46 0 0 1 1.314 3.937l-25.94-.044Zm16.183 16.84c-.06.008.057-.01.29-.03.232-.019.525-.035.833-.035v-25.94c-2.258 0-4.069.221-4.82.33l3.697 25.674Zm8.383-7.284.398-.026-1.7-25.884-.398.026 1.7 25.884ZM67.595-3.296l-.695 1.08 21.811 14.04.695-1.08-21.81-14.04Zm10.403-4.868c.213.003.425.014.637.034l-2.454 25.824c.476.045.954.071 1.432.078l.385-25.936ZM88.169 12.02l.695-1.032L67.34-3.489l-.694 1.032 21.522 14.479ZM66.34-1.345l-.593.919 21.802 14.055.592-.919L66.34-1.345Zm7.296-4.669-.552.132 6.024 25.23.552-.131-6.024-25.23ZM86.86 13.968l.693-1.03-21.53-14.47-.692 1.03 21.53 14.47Zm-9.775 4.701c.28-.006.62-.02 1.008-.045L76.386-7.259l.104-.004.594 25.932Zm-12.51-9.857.21.506L88.734-.65l-.21-.506-23.948 9.969Zm1.902-12.383L65.28-2.014l20.564 15.81 1.198-1.557L66.477-3.57Zm22.046 9.006-.048-1.39-25.924.912.049 1.391 25.923-.913Zm-5.94 9.939 1.037-.674L69.478-7.045l-1.036.673 14.142 21.745Zm-4.218 4.803 2.395-.557-5.87-25.266-2.396.557 5.872 25.266Zm-11.003-5.525.34.463L88.625-.215l-.339-.463-20.925 15.33Zm11.425 5.753.634-.03-1.247-25.91-.634.03 1.247 25.91ZM91.33 4.075l-.166-.621-25.062 6.69.166.62 25.062-6.69ZM81.574 19.43l.936-.218-5.884-25.264-.936.218 5.884 25.264Zm-12.386-5.074c.28.375.802 1.04 1.516 1.771a15.354 15.354 0 0 0 4.139 3.038L86.355-4.079c.945.468 1.62.963 2.008 1.273.41.326.706.614.89.801.35.359.578.653.696.81L69.188 14.357Zm16.593 5.076.5-.218L75.917-4.564l-.5.218 10.364 23.78ZM81.099 7.326c9.803-8.492 9.804-8.49 9.805-8.49l.002.003.004.004.008.01.016.018.031.036a9.348 9.348 0 0 1 .174.21c.07.088.166.21.277.366.004.005.847 1.111 1.422 2.89l-24.68 7.983c.712 2.205 1.856 3.791 2.126 4.17a18 18 0 0 0 .977 1.251l.018.02.008.01.005.006.002.002c0 .001.002.002 9.805-8.49Zm2.331 11.673.804-.187L78.37-6.456l-.804.187 5.865 25.268ZM68.517 8.36a7.04 7.04 0 0 1-.1-1.184h25.94c0-1.09-.095-2.154-.27-3.181L68.516 8.36Zm-.1-1.184c0-1.542.502-2.949 1.27-4.04l21.212 14.93a18.896 18.896 0 0 0 3.457-10.89h-25.94Zm12.18-9.541c-.829-.02-1.825-.12-3.28-.314l-3.432 25.712c1.673.223 3.81.48 6.104.534l.608-25.932Zm7.58 9.37c.182.726.183 1.206.184 1.32a4.362 4.362 0 0 1-.026.496 10.484 10.484 0 0 1-.025.233v.009l-.001.004c0 .002 0 .005-12.88-1.524-12.88-1.53-12.88-1.527-12.88-1.525v.005l-.002.01-.002.018-.005.04a15.54 15.54 0 0 0-.072.82c-.026.396-.049.909-.047 1.505.004 1.104.091 2.902.604 4.933l25.151-6.344ZM61.742 5.178l.013.656L87.69 5.3l-.013-.657-25.934.535ZM75.427-7.384l-.329-.018L73.691 18.5l.328.017 1.408-25.9Zm11.548 9.782-.114-.458-25.163 6.302.115.458 25.162-6.302ZM79.298 17.05l.43-.18L69.692-7.05l-.43.181 10.036 23.92ZM71 18.004l1.06-.033-.801-25.927-1.06.033L71 18.004Zm-7.416-2.847.367.292 16.15-20.3-.368-.291-16.149 20.3Zm.639-20.217-1.035.779 15.607 20.72 1.034-.78L64.223-5.06Zm11.09-1.09-.986-.348-8.644 24.456.986.35L75.314-6.15Zm4.513 20.35.595-.69L60.778-3.43l-.595.69L79.826 14.2ZM59.28-2.986l-.281.354 20.317 16.127.282-.355L59.279-2.987Zm14.199-3.811-.9-.318-8.642 24.457.9.318 8.642-24.457ZM68.66 18.077l1.181-.037-.804-25.927-1.181.037.804 25.927Zm-5.58-.453.375.167L74.036-5.893l-.374-.167L63.08 17.623ZM58.585-2.113l-.516.651 20.32 16.123.517-.65-20.32-16.124ZM81.133 7.898a7.224 7.224 0 0 1-.18 1.03L55.788 2.636a18.722 18.722 0 0 0-.464 2.665l25.809 2.597ZM67.73 20.087l.35.012.938-25.922-.349-.013-.939 25.923Zm.819.021h.242v-25.94h-.242v25.94Zm10.063-4.498.727-.843L59.698-2.177l-.727.844L78.612 15.61Zm-14.389 2.524.84.376L75.655-5.169l-.84-.376-10.59 23.68ZM60.092-1.254l-.401.52 20.534 15.849.401-.52L60.092-1.254Zm9.4 21.405.943.035.934-25.923-.944-.034-.934 25.922Zm9.379-2.694 1.791-1.395L64.725-4.404 62.933-3.01l15.938 20.466Zm-15.536-2.649.453.472L82.506-2.678l-.454-.472-18.717 17.958Zm3.823-20.011-1.804.939 11.977 23.009 1.804-.94L67.158-5.202ZM70.873 20.2l1.502.055.94-25.923-1.502-.054-.94 25.922Zm6.358-.7.933-.336-8.771-24.411-.933.335L77.23 19.5Zm-12.819-3.57.346.361L83.491-1.65l-.346-.362-18.733 17.943Zm-3.25-9.043-.088 2.643 25.925.865.088-2.643-25.925-.865Zm14.643-9.773c-1.761-.242-4.208-.576-6.786-.647l-.711 25.93c.98.027 2.122.162 3.96.415l3.537-25.698Zm4.78 7.21c.378.883.584 1.858.584 2.863l-25.94-.024a18.68 18.68 0 0 0 1.513 7.378L80.585 4.324ZM43.488 8.756a12.34 12.34 0 0 1-1.16 6.637 12.418 12.418 0 0 1-8.622 6.78L28.423-3.222c-3.944.82-7.553 3.385-9.471 7.373a13.598 13.598 0 0 0-1.263 7.301l25.8-2.695Zm-12.424.72 4.454 12.18h.003a.101.101 0 0 1 .006-.003l.021-.008.078-.028.276-.102c.228-.083.538-.197.859-.317.208-.077 1.595-.581 2.346-.93L28.16-3.248c.467-.218.824-.343.349-.162a108.687 108.687 0 0 1-1.553.578 246.665 246.665 0 0 1-.343.126h-.001l4.453 12.181Zm8.075 10.776c5.499-2.578 6.976-7.557 7.33-8.985.443-1.78.434-3.295.434-3.662h-25.94c0-.024-.026-1.15.333-2.595.272-1.092 1.6-5.79 6.831-8.244L39.14 20.253Zm7.764-12.647c0-1.971-.46-3.626-.657-4.292A17.49 17.49 0 0 0 44.54-.608c-1.73-2.922-5.978-7.717-13.343-7.717v25.94c-5.197 0-8.078-3.485-8.982-5.013A8.46 8.46 0 0 1 21.16 9.79c-.021-.114-.197-.99-.197-2.184h25.94ZM31.198-8.325c-6.446 0-11.166 3.694-13.584 7.937-2.019 3.545-2.388 7.2-2.388 9.584h25.94c0 .014.048 1.394-1.013 3.256a10.176 10.176 0 0 1-3.42 3.54 10.437 10.437 0 0 1-5.535 1.622V-8.325ZM15.226 9.195c0 3.205.794 7.262 3.533 10.849 3.024 3.96 7.678 6.298 12.806 6.298V.402c2.96 0 5.929 1.435 7.81 3.9 1.597 2.09 1.79 4.059 1.79 4.894H15.227Zm16.339 17.147c3.692 0 8.477-1.19 11.985-5.356 3.15-3.741 3.486-7.832 3.486-9.702h-25.94c0-1.06.17-4.106 2.612-7.006C26.507.954 30.04.403 31.565.403v25.94ZM47.036 11.29C47.04 3.887 41.743-.484 37.52-1.886c-1.979-.657-5.107-1.18-8.602-.022a13.271 13.271 0 0 0-6.149 4.25 13.222 13.222 0 0 0-2.939 8.318h25.94a12.717 12.717 0 0 1-8.691 12.054 12.264 12.264 0 0 1-7.731.018c-3.59-1.192-8.254-4.987-8.25-11.455l25.94.013ZM16.706 1.193a12.184 12.184 0 0 1 4.66 4.712 12.33 12.33 0 0 1 1.554 5.971H-3.02c0 1.455.228 3.956 1.706 6.618 1.481 2.67 3.567 4.332 5.31 5.312l12.71-22.613Zm6.214 10.683V5.455H-3.02v6.421h25.94Zm0-6.421c0-4-2.845-13.718-13.403-13.718v25.94c-10.225 0-12.536-9.345-12.536-12.222h25.94ZM9.517-8.263c-1.605 0-2.879.307-3.138.366-.505.117-.936.244-1.219.332-.58.179-1.128.376-1.537.53-.66.247-1.768.685-2.63 1.118l11.645 23.18a9.839 9.839 0 0 1-.35.166l.057-.024c.107-.044.252-.102.39-.154.162-.06.182-.064.079-.032a8.54 8.54 0 0 1-.585.156 12.377 12.377 0 0 1-2.711.302v-25.94ZM.987-5.914c-1.43.72-4.426 2.544-6.175 6.392-2.005 4.413-1.128 8.633.2 11.306a13.435 13.435 0 0 0 3.55 4.434c.933.76 1.91 1.352 2.863 1.797l10.98-23.5c.853.398 1.714.92 2.543 1.594.723.59 2.193 1.916 3.296 4.138 1.273 2.564 2.136 6.667.183 10.963a12.593 12.593 0 0 1-5.784 6.05L.988-5.914Zm.427 23.924c-.012-.006-.214-.099-.47-.234a12.539 12.539 0 0 1-4.467-3.986c-2.056-2.998-2.164-5.899-2.164-6.84h25.94c0-1.439-.193-4.636-2.383-7.829-2.248-3.279-5.35-4.553-5.454-4.602L1.414 18.01ZM-5.687 6.95v4.926h25.94V6.95h-25.94Zm0 4.926c0-1.237.194-3.52 1.554-5.971a12.185 12.185 0 0 1 4.66-4.712l12.71 22.613c1.743-.98 3.829-2.643 5.31-5.313a13.61 13.61 0 0 0 1.705-6.617h-25.94ZM.889.997a13.24 13.24 0 0 0-6.339 7.25l24.402 8.799A12.698 12.698 0 0 1 12.875 24L.89.997Zm17.82 6.628c-1.363-3.246-3.625-5.07-4.84-5.9L-.755 23.15a12.477 12.477 0 0 1-4.451-5.48L18.709 7.624Zm.384 3.908V2.681h-25.94v8.852h25.94Zm-23.15-2.35c3.437 7.594 11.145 8.772 15.704 7.694 2.23-.527 4.8-1.73 6.93-4.02 2.26-2.434 4.51-6.839 3.233-12.21l-25.236 6c-1.21-5.09.94-9.23 3.001-11.45a12.144 12.144 0 0 1 6.103-3.564c3.9-.922 10.824.068 13.895 6.852L-4.057 9.183ZM21.275-2.065a15.194 15.194 0 0 0-1.94-4.644c-.616-.967-4.112-6.26-11.279-6.26V12.97A12.688 12.688 0 0 1 .31 10.336a12.244 12.244 0 0 1-2.854-3.112C-3.472 5.768-3.823 4.51-3.96 3.936l25.236-6.001ZM8.057-12.97a13.45 13.45 0 0 0-5.585 1.226 14.51 14.51 0 0 0-1.988 1.107A15.628 15.628 0 0 0-.994-9.525l-.011.01-.006.005-.003.003c-.001 0-.002.002 8.438 9.85 8.44 9.848 8.438 9.849 8.437 9.85l-.003.002-.005.005-.011.01-.023.018a5.997 5.997 0 0 1-.138.116 10.155 10.155 0 0 1-.86.636c-.25.166-.8.518-1.574.871a12.487 12.487 0 0 1-5.19 1.119v-25.94Zm-.848.345-2.822.046.428 25.936 2.823-.046-.429-25.936Zm-2.394.046-2.823-.046-.428 25.936 2.823.046.428-25.936ZM1.778.343c8.435-9.853 8.433-9.854 8.432-9.855l-.003-.003-.006-.005-.011-.01-.024-.02-.052-.043a14.767 14.767 0 0 0-.423-.343 15.64 15.64 0 0 0-.976-.703 14.517 14.517 0 0 0-1.984-1.105 13.46 13.46 0 0 0-5.586-1.226v25.94c-2.72 0-4.675-.883-5.192-1.12a11.433 11.433 0 0 1-1.57-.868 10.318 10.318 0 0 1-.95-.71l-.045-.039a21.958 21.958 0 0 1-.022-.019l-.011-.01c-.002 0-.004-.002-.006-.004l-.003-.002c0-.002-.002-.003 8.432-9.855ZM1.145-12.97c-7.17 0-10.665 5.3-11.276 6.258a15.19 15.19 0 0 0-1.943 4.647l25.236 6c-.138.58-.49 1.837-1.417 3.291a12.241 12.241 0 0 1-2.85 3.109 12.688 12.688 0 0 1-7.75 2.635v-25.94ZM-12.608.647c-1.277 5.37.973 9.775 3.233 12.208a13.797 13.797 0 0 0 6.929 4.021c4.562 1.08 12.27-.1 15.707-7.695L-10.372-1.512C-7.302-8.297-.378-9.29 3.526-8.366a12.15 12.15 0 0 1 6.103 3.565c2.06 2.219 4.21 6.358 3 11.449L-12.609.647ZM-9.89 2.68v8.852h25.94V2.681H-9.89Zm5.212-.947c-1.36.93-4.581 3.502-5.583 8.317-1.191 5.727 1.564 10.16 3.986 12.397a13.753 13.753 0 0 0 5.704 3.145 14.96 14.96 0 0 0 3.951.524V.177c.745 0 1.745.081 2.905.4a12.19 12.19 0 0 1 5.04 2.816c2.276 2.103 4.967 6.38 3.81 11.941a12.544 12.544 0 0 1-5.165 7.807L-4.679 1.734ZM3.38 26.116h2.443V.177H3.38v25.94Zm2.443 0a14.79 14.79 0 0 0 5.072-.881c1.342-.49 5.638-2.282 7.79-7.333L-5.18 7.735A12.64 12.64 0 0 1-1.2 2.62 12.214 12.214 0 0 1 1.993.872a11.157 11.157 0 0 1 3.83-.694v25.94Zm-11.426-9.355c1.712 5.364 6.77 9.355 12.82 9.355V.177c3.077 0 5.635 1.114 7.45 2.465a12.497 12.497 0 0 1 4.442 6.234l-24.712 7.886Zm12.82 9.355h2.8V.177h-2.8v25.94Zm2.785 0c5.395.007 9.599-3.105 11.702-6.78 1.14-1.991 2.257-5.192 1.537-9.04-.799-4.274-3.505-7.401-6.535-9.104L3.997 23.806a12.71 12.71 0 0 1-6.255-8.742c-.693-3.71.388-6.76 1.448-8.612C1.135 3.054 5.005.172 10.032.178l-.03 25.94ZM49.496 1.193a12.185 12.185 0 0 1 4.656 4.703 12.33 12.33 0 0 1 1.56 5.98h-25.94c0 1.466.23 3.968 1.71 6.627 1.482 2.665 3.565 4.325 5.306 5.303L49.497 1.193Zm6.215 10.683V1.252h-25.94v10.624h25.94Zm0-10.624c0-3.973-2.824-13.718-13.402-13.718v25.94c-10.245 0-12.537-9.372-12.537-12.222h25.94ZM42.31-12.466c-1.605 0-2.877.306-3.137.366a17.58 17.58 0 0 0-1.22.331c-.58.18-1.129.377-1.538.53-.66.248-1.769.686-2.63 1.12L45.43 13.059a9.59 9.59 0 0 1-.35.167l.056-.024c.108-.044.253-.102.39-.154.163-.06.183-.063.079-.031-.045.013-.26.08-.586.155-.166.039-.452.1-.82.158-.317.049-1.002.143-1.89.143v-25.94Zm-8.53 2.349c-1.431.72-4.424 2.543-6.173 6.386-2.007 4.41-1.134 8.63.194 11.307a13.433 13.433 0 0 0 3.554 4.44 13.762 13.762 0 0 0 2.872 1.801l10.96-23.51c.856.399 1.72.921 2.55 1.598a12.506 12.506 0 0 1 3.301 4.144c1.274 2.568 2.132 6.671.178 10.964a12.595 12.595 0 0 1-5.781 6.044L33.779-10.117Zm.447 23.934c-.016-.008-.22-.102-.48-.238a12.541 12.541 0 0 1-4.48-3.994c-2.054-2.998-2.163-5.897-2.163-6.837h25.94c0-1.44-.192-4.635-2.38-7.827-2.25-3.285-5.354-4.557-5.477-4.614l-10.96 23.51Zm-7.123-11.07v2.377h25.94V2.748h-25.94ZM50.33-2.814c-3.283-4.24-7.914-5.401-11.192-5.401v25.939c-1.091 0-2.675-.168-4.44-.909a12.103 12.103 0 0 1-4.88-3.75L50.33-2.815ZM39.137-8.216c-1.863 0-4.197.32-6.592 1.492a14.36 14.36 0 0 0-4.793 3.808c-.291.355-.61.788-.512.658a11.101 11.101 0 0 1 .716-.848 12 12 0 0 1 5.69-3.388l6.589 25.089a13.94 13.94 0 0 0 6.67-3.987 14.854 14.854 0 0 0 1.063-1.272l.064-.085c.012-.015.005-.007-.007.01a11.296 11.296 0 0 1-1.59 1.678 11.71 11.71 0 0 1-2.478 1.632c-.957.469-1.892.764-2.746.938-.835.17-1.547.214-2.074.214v-25.94ZM49.91 6.05v-.596H23.97v.596h25.94Zm0-.596c0-4.007-2.852-13.718-13.404-13.718v25.94c-10.218 0-12.536-9.336-12.536-12.222h25.94ZM36.506-8.264c-1.606 0-2.88.308-3.139.367-.504.117-.935.244-1.218.331a27.89 27.89 0 0 0-1.536.53c-.66.247-1.769.686-2.631 1.119l11.645 23.179a9.258 9.258 0 0 1-.35.167l.056-.024c.108-.045.253-.102.39-.154.163-.061.183-.064.08-.032-.044.013-.26.08-.584.155-.166.039-.452.1-.82.158a12.36 12.36 0 0 1-1.893.144v-25.94Zm-8.524 2.347c-1.43.718-4.428 2.542-6.18 6.39-2.008 4.418-1.128 8.642.2 11.316a13.434 13.434 0 0 0 3.552 4.431c.933.76 1.909 1.35 2.86 1.795l10.98-23.5c.852.397 1.711.917 2.539 1.591A12.506 12.506 0 0 1 45.23.242c1.275 2.564 2.14 6.67.185 10.972a12.594 12.594 0 0 1-5.788 6.048L27.982-5.917Zm.421 23.927c-.012-.006-.214-.1-.47-.235a12.538 12.538 0 0 1-4.467-3.985c-2.056-2.998-2.165-5.899-2.165-6.84h25.94c0-1.44-.192-4.636-2.382-7.829-2.248-3.28-5.35-4.553-5.454-4.602L28.403 18.01ZM21.302 6.95v4.925h25.94V6.95h-25.94Zm0 4.925c0-1.237.194-3.52 1.554-5.97a12.184 12.184 0 0 1 4.66-4.713l12.71 22.613c1.743-.98 3.829-2.643 5.31-5.312a13.611 13.611 0 0 0 1.705-6.618h-25.94Zm6.215-10.683c-3.026 1.7-5.732 4.823-6.534 9.095-.722 3.848.393 7.05 1.532 9.043 2.104 3.68 6.306 6.787 11.69 6.787V.176c5.016 0 8.884 2.876 10.83 6.28a12.655 12.655 0 0 1 1.443 8.615 12.71 12.71 0 0 1-6.253 8.733L27.517 1.192Zm6.688 24.924h2.801V.177h-2.801v25.94Zm2.801 0c5.393 0 9.59-3.115 11.688-6.784 1.137-1.989 2.255-5.19 1.534-9.04-.8-4.277-3.511-7.405-6.545-9.106L30.997 23.812a12.71 12.71 0 0 1-6.265-8.746 12.655 12.655 0 0 1 1.445-8.612C28.117 3.062 31.98.177 37.007.177v25.94Zm6.677-24.93a12.197 12.197 0 0 1 4.673 4.721 12.33 12.33 0 0 1 1.553 5.968H23.97c0 1.454.228 3.954 1.704 6.615a13.75 13.75 0 0 0 5.324 5.322L43.683 1.186Zm6.226 10.69V8.673H23.97v3.201h25.94Zm-.65.853c-.016.049-.234.768-.84 1.722a10.954 10.954 0 0 1-2.412 2.662 12.128 12.128 0 0 1-7.57 2.636v-25.94c-7.68 0-11.38 5.894-11.905 6.72-1.11 1.744-1.688 3.41-1.912 4.09l24.64 8.11Zm-10.823 7.02a12.796 12.796 0 0 1-9.758-4.524 12.488 12.488 0 0 1-1.505-2.232 10.342 10.342 0 0 1-.147-.292l.007.016.055.112a14.112 14.112 0 0 0 1.454 2.37 13.577 13.577 0 0 0 6.663 4.73 13.8 13.8 0 0 0 4.232.662V-5.35c1.102 0 2.379.154 3.733.59A12.361 12.361 0 0 1 49.2-.49a11.82 11.82 0 0 1 1.18 1.903l.018.035-.009-.017-.02-.042a13.896 13.896 0 0 0-.756-1.37 13.232 13.232 0 0 0-3.286-3.579 13.15 13.15 0 0 0-7.89-2.632v25.94Zm1.001.842c4.196 0 7.03-1.969 8.025-2.73a13.896 13.896 0 0 0 2.56-2.556 15.49 15.49 0 0 0 2.073-3.637L28.051 1.934c.246-.607.673-1.49 1.43-2.47a12.044 12.044 0 0 1 2.227-2.21 12.724 12.724 0 0 1 7.73-2.603v25.94ZM27.103 6.8v5.074h25.94V6.801h-25.94Zm0 5.074c0-1.237.194-3.52 1.555-5.97a12.184 12.184 0 0 1 4.66-4.713l12.709 22.613c1.744-.98 3.83-2.643 5.311-5.312a13.611 13.611 0 0 0 1.705-6.618h-25.94ZM33.32 1.192c-3.026 1.7-5.732 4.823-6.534 9.095-.722 3.848.393 7.05 1.532 9.043 2.104 3.68 6.306 6.787 11.69 6.787V.176c5.016 0 8.884 2.876 10.83 6.28a12.655 12.655 0 0 1 1.443 8.615 12.71 12.71 0 0 1-6.253 8.733L33.319 1.192Zm6.687 24.924h2.803V.177h-2.803v25.94Zm2.756 0c5.417.02 9.629-3.106 11.73-6.776 1.14-1.99 2.258-5.19 1.54-9.039-.797-4.275-3.504-7.404-6.535-9.108L36.787 23.806a12.71 12.71 0 0 1-6.255-8.747c-.693-3.71.39-6.76 1.45-8.611C33.928 3.055 37.804.159 42.855.178l-.093 25.938ZM63.708 1.193a12.187 12.187 0 0 1 4.666 4.722 12.33 12.33 0 0 1 1.55 5.961h-25.94a13.6 13.6 0 0 0 1.7 6.608c1.48 2.674 3.569 4.34 5.316 5.322L63.707 1.193Zm2.329 4.346v-.084h-25.94v.084h25.94Zm0-.084c0-3.973-2.824-13.718-13.403-13.718v25.94c-10.244 0-12.537-9.372-12.537-12.222h25.94ZM52.634-8.263c-1.604 0-2.877.306-3.137.366-.505.117-.937.244-1.22.331-.58.18-1.129.377-1.537.53-.66.248-1.769.687-2.63 1.12l11.645 23.178a9.459 9.459 0 0 1-.35.167l.057-.024c.108-.045.252-.102.39-.154.162-.06.182-.064.079-.032a8.135 8.135 0 0 1-.587.156c-.166.039-.452.1-.82.158-.317.049-1.003.143-1.89.143v-25.94ZM44.11-5.917c-1.43.718-4.426 2.54-6.177 6.386-2.01 4.416-1.134 8.642.198 11.32a13.433 13.433 0 0 0 3.559 4.438 13.769 13.769 0 0 0 2.873 1.798l10.939-23.52c.856.398 1.72.92 2.55 1.595.727.59 2.2 1.917 3.306 4.142 1.278 2.57 2.14 6.678.182 10.977a12.595 12.595 0 0 1-5.785 6.043L44.11-5.917Zm.411 23.922a12.258 12.258 0 0 1-1.642-.94 12.539 12.539 0 0 1-3.294-3.288c-2.049-2.995-2.156-5.89-2.156-6.826h25.94c0-1.435-.19-4.626-2.373-7.816-2.244-3.283-5.345-4.56-5.452-4.61L44.52 18.004ZM37.43 6.951v4.925h25.94V6.95H37.43Zm0 4.925c0-1.19.179-3.352 1.411-5.705a12.223 12.223 0 0 1 4.47-4.783l13.453 22.178a13.72 13.72 0 0 0 5.058-5.364 13.618 13.618 0 0 0 1.548-6.326H37.43Zm25.396-1.556a13.787 13.787 0 0 0-3.213-6.764c-1.258-1.438-4.634-4.619-10.1-4.619v25.94c-5.226 0-8.363-3.028-9.429-4.248a12.154 12.154 0 0 1-2.836-5.995l25.578-4.314ZM49.511-1.063a12.702 12.702 0 0 1 11.062 6.51c1.627 2.919 1.575 5.587 1.575 5.961h-25.94c0 .654-.019 3.572 1.708 6.67a13.237 13.237 0 0 0 5.02 5.065 13.294 13.294 0 0 0 6.575 1.734v-25.94Zm12.637 12.471c0-.996-.078-1.864-.316-4.609L35.99 9.034c.135 1.559.195 2.278.221 2.635.013.176.01.156.005.052-.007-.178-.007-.335-.007-.313h25.94ZM45.775-8.046c-2.45 0-5.558.513-8.525 2.27C34.165-3.95 30.07.14 30.07 6.638h25.94c0 5.438-3.46 8.671-5.545 9.905-1.966 1.164-3.707 1.35-4.69 1.35v-25.94ZM30.071 6.64c0 3.937 1.672 8.992 6.628 12.03 3.61 2.214 7.223 2.093 7.642 2.093v-25.94c.152 0 .837 0 1.74.154.906.155 2.472.535 4.176 1.58a12.146 12.146 0 0 1 4.545 4.985A11.588 11.588 0 0 1 56.01 6.64H30.07Zm14.27 14.123c.572 0 4.203.088 7.793-2.251 4.89-3.186 6.178-8.203 6.178-11.53h-25.94c0-1.142.174-2.96 1.101-4.984a12.4 12.4 0 0 1 4.5-5.22c3.232-2.105 6.363-1.955 6.368-1.955v25.94Zm13.97-13.78c0-3.577-1.312-6.695-3.23-9.001a13.83 13.83 0 0 0-3.737-3.145 13.361 13.361 0 0 0-.914-.478l-.028-.013-.014-.007c-.007-.003-.014-.006-5.513 11.74s-5.506 11.743-5.513 11.74l-.014-.007-.027-.013-.056-.027a16.262 16.262 0 0 1-.342-.17 12.497 12.497 0 0 1-1.505-.918 12.115 12.115 0 0 1-2.282-2.118c-1.685-2.026-2.764-4.692-2.764-7.583h25.94Zm-13.436-.904c3.349 12.53 3.345 12.53 3.342 12.532l-.007.002c-.005 0-.01.002-.014.003a2.847 2.847 0 0 1-.083.022 12.58 12.58 0 0 1-.73.165c-.261.05-.502.088-.72.115a8.306 8.306 0 0 1-1.02.068v-25.94c-.772 0-1.5.046-2.188.131a15.064 15.064 0 0 0-1.816.342l-.056.015-.029.007-.014.004-.007.002c-.003 0-.007.002 3.342 12.532Zm.768 12.907c-6.988 0-10.213-5.167-10.959-6.644a10.704 10.704 0 0 1-1.177-4.86h25.94c0-1.97-.386-4.415-1.612-6.84-1.03-2.038-4.671-7.595-12.192-7.595v25.94ZM39.517-3.49c-5.27 2.463-9.546 7.687-9.546 14.71h25.94c0 1.77-.509 3.799-1.77 5.633-1.213 1.764-2.677 2.706-3.64 3.156L39.516-3.49ZM29.97 11.22c0 3.453 1.111 6.586 2.905 9.058a14.573 14.573 0 0 0 3.294 3.287c.769.551 3.632 2.551 7.838 2.551V.177c2.353 0 4.119.648 4.963 1.008.99.422 1.762.904 2.316 1.301a11.37 11.37 0 0 1 2.586 2.562C55.2 6.877 55.91 9.047 55.91 11.22H29.97Zm14.037 14.896h2.334V.177h-2.334v25.94Zm3.736 0h1.468V.177h-1.468v25.94Zm1.468 0c.734 0 2.011-.041 3.499-.393 1.474-.35 4.098-1.225 6.455-3.594L40.776 3.836A12.487 12.487 0 0 1 46.733.48 10.81 10.81 0 0 1 49.21.176v25.94Zm-8.723-4.284c2.127 2.28 5.541 4.284 9.844 4.284V.177c4.02 0 7.17 1.868 9.12 3.956L40.488 21.832Zm9.844 4.284h2.802V.177h-2.802v25.94Zm2.802 0c5.397 0 9.59-3.119 11.686-6.78 1.137-1.986 2.257-5.186 1.538-9.037-.8-4.28-3.511-7.411-6.547-9.113L47.126 23.812a12.71 12.71 0 0 1-6.266-8.753 12.655 12.655 0 0 1 1.448-8.608C44.245 3.066 48.105.177 53.135.177v25.94Zm6.677-24.93a12.185 12.185 0 0 1 4.668 4.711 12.33 12.33 0 0 1 1.558 5.978h-25.94c0 1.465.231 3.966 1.71 6.625 1.482 2.668 3.568 4.33 5.318 5.312L59.812 1.186Zm6.226 10.69V7.023h-25.94v4.851h25.94Zm0-4.852c0 2.77-.89 4.868-1.538 6.055a12.345 12.345 0 0 1-2.445 3.145 12.38 12.38 0 0 1-8.425 3.291v-25.94c-4.255 0-7.402 1.95-9.21 3.626-1.415 1.312-4.322 4.629-4.322 9.823h25.94ZM53.63 19.515a12.779 12.779 0 0 1-8.274-3.035 12.428 12.428 0 0 1-2.739-3.287c-.75-1.308-1.026-2.38-1.065-2.525-.134-.494-.126-.652-.072-.2.095.808.117 1.631.117 1.407h25.94c0-.909-.097-2.75-.295-4.436-.094-.795-.276-2.157-.65-3.544-.16-.59-.57-2.031-1.467-3.596-.34-.593-3.749-6.724-11.495-6.724v25.94Zm-12.033-7.64c0-1.236.194-3.516 1.551-5.966a12.185 12.185 0 0 1 4.657-4.713l12.723 22.606c1.744-.982 3.827-2.646 5.306-5.314a13.61 13.61 0 0 0 1.702-6.613h-25.94Zm6.209-10.679c-3.028 1.704-5.728 4.828-6.527 9.095-.72 3.843.391 7.043 1.53 9.035 2.103 3.681 6.305 6.79 11.691 6.79V.177c5.02 0 8.888 2.879 10.832 6.283a12.654 12.654 0 0 1 1.442 8.608 12.71 12.71 0 0 1-6.246 8.734L47.806 1.196Zm6.694 24.92h2.522V.177H54.5v25.94Zm2.475 0c5.427.02 9.641-3.117 11.74-6.794 1.138-1.994 2.248-5.194 1.525-9.038-.801-4.266-3.504-7.389-6.532-9.09L50.999 23.805a12.71 12.71 0 0 1-6.252-8.73 12.654 12.654 0 0 1 1.438-8.61c1.94-3.4 5.822-6.307 10.883-6.289l-.093 25.94ZM37.263 5.02V1.029h-25.94v3.99h25.94Zm0-3.991c0-4-2.846-13.718-13.403-13.718v25.94c-10.225 0-12.537-9.345-12.537-12.222h25.94ZM23.86-12.689c-1.659 0-2.962.324-3.283.403-.545.133-1.004.278-1.3.375-.602.2-1.157.417-1.547.575-.739.3-1.608.685-2.227.996l11.655 23.174c-.156.079-.18.085-.025.016.115-.05.244-.106.352-.15.139-.056.11-.04-.05.013-.073.024-.33.108-.704.2a11.51 11.51 0 0 1-.908.182c-.357.058-1.06.156-1.963.156v-25.94Zm-8.357 2.35c-2.309 1.16-5.14 3.455-6.556 7.35-1.358 3.734-.73 7.072.016 9.113a13.595 13.595 0 0 0 2.736 4.498c.85.93 2.23 2.18 4.22 3.114L26.942-9.745a12.429 12.429 0 0 1 3.9 2.862 12.345 12.345 0 0 1 2.481 4.094 12.647 12.647 0 0 1 .002 8.664 12.61 12.61 0 0 1-6.167 6.959L15.503-10.34ZM8.655 2.68V12h25.94V2.68H8.655Zm0 9.32c0 .782.047 1.751.232 2.824l25.563-4.407c.13.76.145 1.326.145 1.582H8.655Zm24.64-5.127a13.248 13.248 0 0 0-5.736-5.867L15.536 23.992a12.691 12.691 0 0 1-5.494-5.623L33.295 6.874Zm-5.393-5.681a12.186 12.186 0 0 1 4.666 4.722 12.328 12.328 0 0 1 1.55 5.96H8.177c0 1.445.223 3.944 1.699 6.608 1.481 2.675 3.57 4.341 5.316 5.323l12.71-22.612Zm.694-1.49C26.55-4.29 22.08-8.264 15.554-8.264v25.94c-1.996 0-4.25-.563-6.308-1.951a11.287 11.287 0 0 1-3.738-4.196L28.595-.297Zm-1.872 5.874v-.123H.784v.123h25.94Zm0-.123c0-4.008-2.852-13.718-13.403-13.718v25.94C3.103 17.676.785 8.34.785 5.454h25.94ZM13.321-8.264c-1.606 0-2.88.307-3.138.367a17.59 17.59 0 0 0-1.22.331 27.86 27.86 0 0 0-1.536.53c-.66.248-1.769.686-2.63 1.119L16.44 17.262a9.634 9.634 0 0 1-.35.167l.057-.024c.108-.045.253-.103.39-.154.163-.061.183-.064.08-.032a10.948 10.948 0 0 1-1.406.313 12.37 12.37 0 0 1-1.891.144v-25.94ZM4.796-5.917C3.366-5.199.371-3.377-1.38.468c-2.01 4.414-1.135 8.638.195 11.316a13.435 13.435 0 0 0 3.555 4.438 13.767 13.767 0 0 0 2.869 1.798l10.96-23.51a12.11 12.11 0 0 1 2.546 1.595c.725.59 2.197 1.916 3.302 4.142 1.276 2.568 2.136 6.676.18 10.973a12.593 12.593 0 0 1-5.786 6.042L4.796-5.917Zm.422 23.927a12.269 12.269 0 0 1-1.64-.936A12.54 12.54 0 0 1 .281 13.79c-2.056-2.998-2.165-5.899-2.165-6.84h25.94c0-1.44-.193-4.636-2.382-7.829-2.248-3.28-5.35-4.553-5.455-4.602L5.218 18.01ZM-1.884 6.95v4.925h25.94V6.95h-25.94Zm0 4.925c0-1.237.194-3.52 1.555-5.97a12.185 12.185 0 0 1 4.66-4.713L17.04 23.805c1.744-.98 3.83-2.643 5.311-5.312a13.611 13.611 0 0 0 1.705-6.618h-25.94ZM4.331 1.192C1.304 2.894-1.403 6.02-2.203 10.293c-.72 3.85.397 7.05 1.535 9.04 2.101 3.674 6.3 6.784 11.687 6.784V.176c5.021 0 8.885 2.88 10.828 6.276a12.654 12.654 0 0 1 1.447 8.612 12.71 12.71 0 0 1-6.254 8.74L4.33 1.192Zm6.688 24.924h2.802V.177h-2.802v25.94Zm2.802 0c5.393 0 9.59-3.115 11.688-6.784 1.137-1.989 2.255-5.19 1.534-9.04-.8-4.277-3.512-7.405-6.546-9.106L7.812 23.812a12.71 12.71 0 0 1-6.266-8.746 12.655 12.655 0 0 1 1.446-8.612C4.932 3.062 8.795.177 13.82.177v25.94Zm6.676-24.93a12.186 12.186 0 0 1 4.674 4.721 12.33 12.33 0 0 1 1.553 5.968H.784c0 1.454.227 3.954 1.704 6.615a13.736 13.736 0 0 0 5.324 5.322L20.497 1.186Zm6.227 10.69v-4.66H.784v4.66h25.94Zm0-4.66a12.13 12.13 0 0 1-3.285 8.29 12.34 12.34 0 0 1-9.02 3.884V-6.55C6.189-6.55.784.37.784 7.216h25.94ZM14.419 19.39c-2.663 0-6.635-.951-9.6-4.525-2.607-3.142-2.832-6.437-2.832-7.697h25.94c0-1.82-.344-5.49-3.145-8.866-3.159-3.807-7.4-4.852-10.363-4.852v25.94ZM1.987 7.168v4.707h25.94V7.168H1.987Zm0 4.707c0-1.237.194-3.52 1.555-5.971a12.185 12.185 0 0 1 4.66-4.712l12.709 22.613c1.744-.98 3.83-2.643 5.311-5.313a13.61 13.61 0 0 0 1.705-6.617H1.987ZM8.202 1.192c-3.025 1.7-5.731 4.823-6.533 9.094-.722 3.849.393 7.05 1.532 9.044 2.104 3.68 6.305 6.786 11.69 6.786V.176c5.016 0 8.884 2.877 10.83 6.28a12.655 12.655 0 0 1 1.443 8.615 12.71 12.71 0 0 1-6.253 8.734L8.202 1.192Zm6.688 24.924h2.522V.176H14.89v25.94Zm2.522 0c5.393 0 9.59-3.115 11.688-6.785 1.137-1.988 2.255-5.189 1.534-9.04-.801-4.277-3.512-7.404-6.546-9.105L11.402 23.81a12.71 12.71 0 0 1-6.265-8.746 12.655 12.655 0 0 1 1.445-8.611C8.522 3.06 12.385.177 17.412.177v25.94Zm6.676-24.93a12.18 12.18 0 0 1 4.674 4.72 12.33 12.33 0 0 1 1.553 5.969H4.375c0 1.454.227 3.953 1.703 6.615a13.76 13.76 0 0 0 5.324 5.321L24.088 1.186Zm6.227 10.688V6.862l-25.94.002v5.012l25.94-.002Zm0-5.01c0 6.562-4.563 9.891-5.8 10.687a12.352 12.352 0 0 1-6.694 1.964v-25.94a13.58 13.58 0 0 0-7.336 2.158c-1.42.913-6.11 4.4-6.11 11.13h25.94ZM17.82 19.513a12.778 12.778 0 0 1-8.275-3.036 12.427 12.427 0 0 1-2.738-3.287c-.749-1.307-1.026-2.379-1.064-2.523-.134-.493-.125-.65-.072-.199.095.81.117 1.632.117 1.406h25.94c0-.911-.097-2.754-.296-4.439-.093-.794-.275-2.156-.65-3.542-.16-.59-.57-2.03-1.466-3.594-.337-.59-3.746-6.725-11.496-6.725v25.94ZM5.79 11.875c0-1.247.197-3.528 1.557-5.975a12.183 12.183 0 0 1 4.651-4.703L24.72 23.8c1.742-.98 3.822-2.64 5.302-5.304a13.61 13.61 0 0 0 1.707-6.622H5.788Zm6.208-10.678c-3.029 1.704-5.73 4.831-6.528 9.1-.718 3.846.396 7.044 1.534 9.034 2.1 3.673 6.299 6.786 11.689 6.786V.176c5.023 0 8.889 2.883 10.83 6.28a12.655 12.655 0 0 1 1.446 8.605 12.71 12.71 0 0 1-6.249 8.74L11.997 1.196Zm6.695 24.92h2.521V.176h-2.521v25.94Zm2.521 0c3.827 0 6.947-1.598 9.032-3.484 1.923-1.739 4.303-4.982 4.412-9.594l-25.932-.613c.104-4.415 2.372-7.45 4.12-9.03a12.469 12.469 0 0 1 8.367-3.22v25.94Zm12.814-6.685a12.819 12.819 0 0 1-8.218 5.613 12.721 12.721 0 0 1-7.21-.628c-2.494-.986-3.917-2.489-4.186-2.768L33.103 3.66c-.569-.592-2.257-2.297-4.968-3.368a13.219 13.219 0 0 0-7.496-.668 13.12 13.12 0 0 0-8.416 5.754L34.027 19.43Zm-8.534 6.878c.808 0 7.008.218 11.617-5.129 3.743-4.343 3.988-9.635 3.988-12.298h-25.94c0 .459-.045.18.123-.522.171-.713.687-2.382 2.18-4.115A11.308 11.308 0 0 1 23.003.737 10.398 10.398 0 0 1 24.875.4a8.596 8.596 0 0 1 .615-.03h.003v25.94ZM41.098 8.888C41.102-.21 34.68-8.387 25.428-8.387v25.94c-2.233 0-3.92-.61-4.952-1.114a10.047 10.047 0 0 1-3.103-2.337c-1.87-2.097-2.215-4.261-2.215-5.225l25.94.01Zm29.348-7.695a12.186 12.186 0 0 1 4.666 4.722 12.328 12.328 0 0 1 1.55 5.961h-25.94c0 1.444.223 3.944 1.699 6.608 1.481 2.674 3.57 4.34 5.316 5.322L70.446 1.193Zm6.215 10.683V1.533h-25.94v10.343h25.94Zm0-10.343c0-4.008-2.852-13.718-13.403-13.718v25.94c-10.218 0-12.536-9.337-12.536-12.222h25.94ZM54.733-9.838c-1.429.718-4.425 2.54-6.176 6.386-2.011 4.415-1.134 8.641.197 11.32a13.434 13.434 0 0 0 3.56 4.438 13.768 13.768 0 0 0 2.873 1.797l10.938-23.52c.857.398 1.72.92 2.551 1.595.726.59 2.2 1.917 3.306 4.142 1.277 2.57 2.14 6.678.182 10.977a12.593 12.593 0 0 1-5.786 6.043L54.733-9.838Zm.454 23.941a12.273 12.273 0 0 1-1.665-.947 12.542 12.542 0 0 1-3.309-3.295c-2.053-2.999-2.16-5.899-2.16-6.832h25.94c0-1.432-.19-4.629-2.376-7.822-2.254-3.292-5.363-4.564-5.492-4.624l-10.938 23.52ZM48.054 3.03v2.46h25.939V3.03h-25.94Zm21.433-7.37c-1.432-1.233-4.782-3.612-9.736-3.612v25.94c-3.661 0-6.128-1.757-7.19-2.672L69.486-4.34ZM59.75-7.951c-3.694 0-6.48 1.464-8.012 2.494a16.37 16.37 0 0 0-4.242 4.183c-2.223 3.163-3.351 7.006-3.351 11.03h25.94c0 .815-.245 2.289-1.367 3.885a9.582 9.582 0 0 1-2.511 2.431c-.957.643-3.197 1.917-6.457 1.917v-25.94ZM44.146 9.757c0 4.258 1.452 7.354 1.848 8.231L69.639 7.322c-.12-.265.038.058.172.511.147.503.274 1.164.274 1.924H44.146Zm14.671 16.36h4.941V.177h-4.94v25.94Zm4.926 0c5.402.007 9.607-3.114 11.707-6.791 1.138-1.993 2.25-5.193 1.529-9.039-.801-4.268-3.505-7.392-6.533-9.094L57.737 23.806a12.71 12.71 0 0 1-6.252-8.733 12.654 12.654 0 0 1 1.44-8.61C54.867 3.062 58.739.172 63.774.178l-.031 25.94Zm12.84-35.236-.63-.19-7.447 24.848.63.19L76.584-9.12ZM59.282 3.86l.063 1.094L85.24 3.462l-.063-1.093-25.896 1.493Zm24 7.237.567-.905L61.87-3.584l-.567.904 21.978 13.778ZM61.476-1.217l-.339.73 23.531 10.915.34-.73L61.475-1.218Zm2.627 15.715.524.485 17.6-19.055-.524-.485-17.6 19.055ZM86.248 3.49l-.186-1.215-25.64 3.928.185 1.215 25.64-3.928ZM81.44 15.073l.617-.42-14.586-21.45-.616.42 14.585 21.45Zm6.071-8.75.217-1.154L62.235.38l-.217 1.154 25.493 4.79Zm-.965-9.42-.553-1.09-23.13 11.742.553 1.09 23.13-11.742Zm-23.882-.68L62.03-2.41 85.558 8.511l.634-1.366L62.664-3.777ZM61.28 6.46l.354 1.298L86.66.938 86.308-.36 61.28 6.46ZM83.587-4.269l-.345-.567L61.078 8.64l.344.567L83.587-4.27ZM59.21 2.643l.03.53 25.9-1.483-.03-.53-25.9 1.484Zm11.477 12.671.314.037 3.005-25.765-.314-.037-3.005 25.765Zm4.387-24.885L73.978-9.9l-7.44 24.85 1.096.327 7.441-24.85Zm-13.62 21.62 1.152 1.066 17.606-19.05-1.152-1.064L61.455 12.05Zm22.888-9.434-.055-.736-25.866 1.95.055.736 25.866-1.95ZM25.094 18.861a12.644 12.644 0 0 1-8-2.847 12.177 12.177 0 0 1-2.848-3.34c-.792-1.374-1.053-2.49-1.097-2.673a4.928 4.928 0 0 1-.157-1.304h25.94c0-1.366-.16-3.105-.575-4.811-.186-.767-.626-2.41-1.637-4.164-.597-1.036-4.077-6.8-11.626-6.8v25.94ZM12.992 8.697c0-.457.032-1.065.288-1.955.107-.371.51-1.737 1.617-3.29 1.08-1.513 4.355-5.169 10.13-5.169v25.94c6.11 0 9.669-3.859 10.986-5.705 1.345-1.885 1.94-3.715 2.197-4.609a19.31 19.31 0 0 0 .721-5.212h-25.94ZM25.027-1.717c7.043 0 10.307 5.214 10.976 6.435.853 1.559 1.086 2.843 1.122 3.027.117.603.105.895.105.952H11.29c0 .712.038 2.281.373 4 .144.74.527 2.541 1.587 4.477.874 1.598 4.401 7.049 11.777 7.049v-25.94ZM37.23 8.697c0 .59-.039.804-.098 1.082-.015.069-.205 1.031-.829 2.275a12.093 12.093 0 0 1-2.527 3.375c-1.584 1.491-4.54 3.432-8.682 3.432v-25.94c-4.29 0-7.386 2.01-9.098 3.62a13.85 13.85 0 0 0-2.878 3.88c-.837 1.669-1.197 3.21-1.345 3.898a21.935 21.935 0 0 0-.482 4.378h25.94Zm-6.532 10.071c-2.936 0-5.08-1-6.06-1.532a12.191 12.191 0 0 1-2.373-1.68 11.072 11.072 0 0 1-1.936-2.29c-.669-1.058-1.634-3.017-1.634-5.754h25.94c0-3.578-1.298-6.393-2.375-8.098a14.872 14.872 0 0 0-2.573-3.075 13.754 13.754 0 0 0-2.673-1.9 13.239 13.239 0 0 0-6.316-1.61v25.94ZM18.695 7.512c0-4.226 2.226-7.734 5.065-9.736a11.678 11.678 0 0 1 6.77-2.142v25.94c2.495 0 5.475-.692 8.181-2.602 3.315-2.337 5.924-6.391 5.924-11.46h-25.94ZM30.531-4.366c.079 0 1.664-.042 3.58.548a12.736 12.736 0 0 1 4.774 2.709 12.836 12.836 0 0 1 4.122 7.753L17.32 10.25c1.046 7.447 7.13 10.098 9.165 10.724 2.057.632 3.816.599 4.046.599v-25.94ZM43.009 6.653c-.097-.69.376 1.36-.684 4.162a12.273 12.273 0 0 1-4.53 5.746 12.525 12.525 0 0 1-7.097 2.207v-25.94c-2.033 0-4.865.476-7.61 2.366-2.731 1.879-4.244 4.38-5.027 6.448-1.334 3.531-.98 6.905-.742 8.6l25.69-3.589Zm-9.37 2.293v2.494h25.94V8.946h-25.94Zm0 2.494c0-.417-.04-3 1.528-5.844A12.59 12.59 0 0 1 39.833.812a12.505 12.505 0 0 1 6.309-1.718v25.94c1.994 0 4.417-.444 6.792-1.834a13.35 13.35 0 0 0 4.95-5.082c1.7-3.086 1.694-5.98 1.694-6.678h-25.94ZM46.142-.906c.997 0 5.939.118 9.563 4.633 2.747 3.421 2.605 6.92 2.605 6.966H32.371c0 1.291.06 5.476 3.106 9.271 3.925 4.89 9.267 5.07 10.665 5.07V-.906ZM58.31 10.693c0 1.145-.24 4.034-2.555 6.867-2.592 3.17-6.207 4.356-9.147 4.356v-25.94c-3.639 0-7.888 1.436-10.938 5.168-2.774 3.394-3.299 7.157-3.299 9.549h25.94Zm1.841 8.73c-2.88 0-5.088-.96-6.407-1.733a12.257 12.257 0 0 1-2.846-2.294 11.07 11.07 0 0 1-2.009-3.065c-.616-1.42-.707-2.531-.707-3.104h25.94c0-2.35-.408-4.847-1.432-7.21a14.886 14.886 0 0 0-2.662-4.14c-.908-.991-4.26-4.394-9.877-4.394v25.94ZM48.182 9.227c0-.112-.002-1.104.536-2.558.253-.683.83-2.028 2.05-3.458.927-1.085 4.121-4.398 9.617-4.398v25.94c5.646 0 9.011-3.411 10.11-4.698a14.47 14.47 0 0 0 2.55-4.383c.846-2.286 1.077-4.556 1.077-6.445h-25.94ZM60.385-1.187c4.607 0 7.524 2.39 8.462 3.246a11.467 11.467 0 0 1 2.524 3.303c.914 1.813 1.017 3.285 1.017 3.896h-25.94c0 2.418.436 5.152 1.758 7.776a14.478 14.478 0 0 0 3.161 4.191c1.148 1.047 4.26 3.527 9.018 3.527v-25.94ZM72.388 9.258c0 .227-.024.904-.354 1.922a10.735 10.735 0 0 1-1.245 2.561 12.336 12.336 0 0 1-2.306 2.614 12.817 12.817 0 0 1-8.332 3.068v-25.94c-4.513 0-7.48 2.262-8.529 3.16a13.605 13.605 0 0 0-2.535 2.89 15.233 15.233 0 0 0-1.727 3.641c-.638 1.97-.912 4.049-.912 6.084h25.94ZM70.462 2.04c0 8.106-6.872 12.335-12.278 12.335v-25.94c-6.155 0-13.661 4.769-13.661 13.605h25.939ZM58.184 14.375c-5.451 0-12.282-4.266-12.282-12.335h25.94c0-8.8-7.465-13.604-13.658-13.604v25.94ZM45.902 2.04c0-8.016 6.775-12.332 12.282-12.332v25.94c6.248 0 13.658-4.855 13.658-13.608h-25.94Zm12.282-12.332c5.461 0 12.278 4.28 12.278 12.332h-25.94c0 8.79 7.451 13.608 13.662 13.608v-25.94Zm0 25.834c6.906 0 13.52-5.481 13.52-13.502h-25.94c0-7.409 6.13-12.438 12.42-12.438v25.94ZM71.704 2.04c0-8.05-6.65-13.498-13.52-13.498v25.94c-6.255 0-12.42-4.994-12.42-12.442h25.94Zm-13.52-13.498c-6.801 0-13.525 5.378-13.525 13.498H70.6c0 7.518-6.238 12.441-12.415 12.441v-25.94ZM44.659 2.04c0 8.098 6.695 13.502 13.525 13.502v-25.94c6.206 0 12.415 4.953 12.415 12.438h-25.94Zm26.23.369v-.734H44.95v.734h25.94ZM57.92 14.645h.3v-25.94h-.3v25.94Zm.3 0c-.95 0-4.245-.078-7.51-2.496-4.083-3.024-5.184-7.376-5.184-10.265h25.94c0-3.034-1.146-7.49-5.32-10.582-3.358-2.486-6.792-2.597-7.927-2.597v25.94ZM45.525 1.884c0-3.11 1.19-6.782 4.284-9.538a12.715 12.715 0 0 1 6.978-3.142l3.01 25.764a13.225 13.225 0 0 0 7.268-3.255c3.166-2.821 4.4-6.587 4.4-9.829h-25.94Zm2.1 7.58.224.324L69.183-4.97l-.224-.323L47.626 9.465Zm10.89-20.024h-.133v25.94h.133v-25.94Zm10.74 5.899-.206-.318L47.304 9.162l.206.318L69.256-4.661Zm-11.08-6.217h-.137v25.94h.138v-25.94ZM45.07 2.092v.317h25.94v-.317H45.07Zm13.113 12.874c.092 0 .699.004 1.451-.076a13.167 13.167 0 0 0 4.013-1.088 13.061 13.061 0 0 0 7.696-11.925h-25.94a12.88 12.88 0 0 1 7.58-11.721 12.775 12.775 0 0 1 3.892-1.059c.708-.075 1.266-.07 1.308-.07v25.94Zm13.16-13.089A13.066 13.066 0 0 0 63.937-9.9c-2.778-1.335-5.278-1.3-5.736-1.3v25.94c-.375 0-2.79.043-5.502-1.261a12.874 12.874 0 0 1-7.297-11.602h25.94ZM58.201-11.201h-.162v25.94h.162V-11.2ZM45.069 1.77v.227h25.94V1.77h-25.94Zm12.97 13.197h.143v-25.94h-.143v25.94Zm0-25.527h-.119v25.94h.12v-25.94Zm17.93 8.683c-1.127-.057-2.911-.15-4.277-.15v25.94c.56 0 1.579.047 2.974.117L75.97-1.878Zm1.853.083c.032 0-.099 0-.511-.018-.37-.016-.81-.038-1.341-.065L74.666 24.03c.846.042 2.212.116 3.156.116v-25.94ZM55.242 6.57v.007l-.001.017a10.343 10.343 0 0 0-.01.313c-.004.21-.006.57.02 1.017l25.896-1.496a12.86 12.86 0 0 1 .009 1.294L55.242 6.57Zm25.914 1.151.002-.036.003-.096-25.923-.905c0-.038.002-.068.003-.086l.001-.027 25.914 1.15Zm.005-.134.004-.14-25.931-.63.003-.13 25.924.9Zm.005-.169c.002-.072.003-.173.003-.292H55.23c0-.116.002-.212.004-.28l25.933.572ZM58.817.178c-.29 0-.54.009-.567.01l.808 25.926c.034 0 .009 0-.025.001l-.216.002V.177Zm-.567.01c-.243.007.392-.026 1.13.03.88.065 2.381.274 4.089 1.034a12.214 12.214 0 0 1 6.17 6.07L45.994 17.988c.83 1.842 2.783 5.117 6.92 6.96a13.609 13.609 0 0 0 4.524 1.136 14.467 14.467 0 0 0 1.62.03L58.25.187Zm8.154 13.14a12.71 12.71 0 0 1-3.606 1.185c-.427.071-.805.106-.631.088l-2.69-25.8a14.412 14.412 0 0 0-.942.126c-.368.06-1.992.32-3.828 1.248l11.697 23.152ZM62.167 14.6c.028-.003.58-.056 1.218-.171.674-.122 1.69-.353 2.856-.827l-9.778-24.026a11.58 11.58 0 0 1 2.306-.672c.458-.083.836-.117.708-.104l2.69 25.8Zm4.07-.996c.69-.28 1.346-.597 1.548-.694L56.639-10.51l-.176.083a8.292 8.292 0 0 1-.099.046l-.008.004.112-.047 9.769 24.03Zm1.548-.694c.32-.152.234-.108.077-.042-.087.037-.43.18-.918.332a12.515 12.515 0 0 1-3.686.554v-25.94c-2.066 0-3.651.503-4.029.62a15.74 15.74 0 0 0-1.405.516c-.522.219-1.044.47-1.185.538L67.785 12.91ZM47.745.178c3.255 0 5.681 1.22 7.035 2.12 1.127.748 1.942 1.591 1.732 1.387L38.464 22.316a15.99 15.99 0 0 0 .477.443 13.5 13.5 0 0 0 1.488 1.145 13.217 13.217 0 0 0 7.315 2.212V.177Zm8.767 3.507-.113-.108c-.064-.06-.17-.16-.302-.279a13.47 13.47 0 0 0-1.349-1.063 13.16 13.16 0 0 0-7.471-2.331v25.94a12.78 12.78 0 0 1-7.252-2.253c-1.022-.705-1.783-1.49-1.561-1.274L56.512 3.684ZM47.277-.097a13.223 13.223 0 0 0-5.874 1.378 15.425 15.425 0 0 0-.288.146l11.892 23.052c.197-.101-.322.178-.934.428-.607.247-2.385.935-4.796.935V-.098Zm-6.162 1.524c-.086.044.646-.354 1.623-.673a11.61 11.61 0 0 1 3.605-.577v25.94c3.576 0 6.102-1.348 6.664-1.638L41.115 1.427Zm9.4 18.576a11.968 11.968 0 0 1-1.782.668c-.206.058-.374.096-.222.06L42.445-4.49a17.25 17.25 0 0 0-.743.191c-.317.09-1.185.339-2.2.815l11.012 23.486Zm-2.004.728c.058-.014.5-.118.983-.26.472-.14 1.394-.431 2.455-.961 1.83-.915 7.497-4.45 7.497-12.03h-25.94c0-3.14 1.166-5.933 2.88-8.007a12.266 12.266 0 0 1 3.962-3.164c1.4-.7 2.73-.95 2.097-.799l6.066 25.22Zm-2.736-2.837h.1l-.04-25.94h-.06v25.94Zm.103 0h.045l-.045-25.94h-.045l.045 25.94Zm.046 0c.55-.001-.05.023-.797-.082a10.93 10.93 0 0 1-4.644-1.837c-2.012-1.386-3.21-3.158-3.845-4.617-.561-1.29-.64-2.225-.648-2.324L61.832 6.8c-.249-2.87-1.298-8.508-6.632-12.184-2.455-1.69-4.884-2.267-6.459-2.49-1.404-.197-2.704-.171-2.865-.17l.047 25.939Zm13.268-.923a14.05 14.05 0 0 0 2.962-2.123c.123-.114.23-.218.244-.23L44.436-4.099c-.111.108.158-.158.505-.448a11.883 11.883 0 0 1 2.001-1.348l12.25 22.865Zm3.206-2.354c.231-.222-.825.881-2.43 1.747a11.661 11.661 0 0 1-5.506 1.406V-8.17c-2.243 0-4.59.508-6.801 1.7a14.65 14.65 0 0 0-3.225 2.373l17.962 18.714Zm-7.936 3.153c-2.51 0-4.82-.822-6.637-2.103a10.715 10.715 0 0 1-3.041-3.248 8.056 8.056 0 0 1-.759-1.642 4.607 4.607 0 0 1-.113-.417l.008.054a8.445 8.445 0 0 1 .051.598c.017.323.015.573.014.7l25.939.197c.003-.438.047-3.289-.506-6.273-.255-1.377-.832-3.946-2.35-6.493C65.454-3.57 61.44-8.17 54.463-8.17v25.94Zm-10.478-5.96h25.94-25.94Zm0-.1v.166h25.94v.056-.021l-25.94-.201Zm-11.257 3.295c.075-.059-1.206 1.02-3.103 1.75a11.752 11.752 0 0 1-4.197.797v-25.94c-1.232 0-3.07.145-5.116.932-2.107.81-3.526 1.998-3.596 2.053l16.012 20.408ZM25.493.37c.419 0 2.147.03 4.257.995 2.418 1.107 3.82 2.801 3.787 2.764L14.182 21.4c.22.247 1.878 2.228 4.77 3.552 2.583 1.183 5.001 1.358 6.54 1.358V.37Zm8.044 3.76a16.52 16.52 0 0 0-.433-.47l-18.69 17.988a10.422 10.422 0 0 1-.2-.213l-.032-.036L33.537 4.13ZM12.21 5.399c.082-.128.326-.499.732-.974a11.777 11.777 0 0 1 2.328-2.077A12.518 12.518 0 0 1 20.06.386c1.653-.302 3.048-.18 2.896-.188l-1.41 25.901a8.347 8.347 0 0 0 .25.012 13.398 13.398 0 0 0 8.078-2.325c2.374-1.617 3.698-3.647 4.166-4.376L12.21 5.4ZM22.956.198l-.06-.003a14.378 14.378 0 0 0-.705-.018v25.94c-.22 0-.396-.007-.499-.011l-.146-.007L22.956.198ZM22.19.177a13.808 13.808 0 0 0-.443.007l.802 25.927-.073.002c-.054.001-.156.003-.286.003V.176Zm-.442.007c-.409.012 3.309-.372 6.954 1.872a12.445 12.445 0 0 1 5.582 7.576l-25.188 6.2c.477 1.935 1.883 5.774 6.009 8.314a13.283 13.283 0 0 0 6.84 1.971 14.023 14.023 0 0 0 .554-.005l.05-.001-.8-25.927Zm-4.916 17.993c4.392-1.073 6.828-3.995 6.993-4.174L4.744-3.57c-.191.209.49-.58 1.468-1.323a12.157 12.157 0 0 1 4.465-2.13l6.155 25.199Zm6.993-4.174c.131-.143-1.118 1.337-3.195 2.404-2.122 1.09-4.029 1.269-5.077 1.269v-25.94c-1.847 0-4.276.313-6.776 1.598C6.322-5.405 4.838-3.67 4.744-3.57l19.082 17.572Zm-3.843 4.247a13.836 13.836 0 0 0 4.873-2.19 14.42 14.42 0 0 0 1.257-1c.25-.223.463-.429.473-.438L8.636-4.104c-.362.347 1.826-2.065 5.485-2.914l5.862 25.268Zm6.602-3.628c.232-.221-.824.88-2.428 1.743a11.66 11.66 0 0 1-5.501 1.405V-8.17c-2.243 0-4.588.507-6.798 1.697-1.927 1.038-3.222 2.368-3.223 2.37l17.95 18.725Zm-7.929 3.148c-2.512 0-4.821-.822-6.639-2.104a10.713 10.713 0 0 1-3.04-3.249 8.056 8.056 0 0 1-.758-1.64 4.613 4.613 0 0 1-.091-.319 1.07 1.07 0 0 1-.022-.098l.008.054c.005.039.012.09.018.154.014.131.025.283.033.444.016.324.014.573.014.7l25.938.196c.004-.438.047-3.288-.505-6.272-.256-1.377-.832-3.946-2.35-6.493-1.614-2.712-5.627-7.313-12.606-7.313v25.94ZM8.179 11.71l-.001.165h25.94v.053-.021l-25.94-.197Zm26.416-9.027V2.64l-25.94-.007v.043l25.94.007Zm0-.041c0-.017.002-.411-.014-.809-.013-.33-.06-1.528-.442-2.973a13.205 13.205 0 0 0-7.229-8.62L15.951 13.75a12.735 12.735 0 0 1-6.889-8.256c-.358-1.353-.392-2.436-.4-2.617-.01-.248-.007-.458-.007-.244l25.94.01Zm-7.136 14.954a13.952 13.952 0 0 0 5.268-2.592L16.715-5.403c-.09.07.557-.46 1.442-.962.98-.555 1.99-.946 2.97-1.193l6.332 25.155Zm4.663 6.656c.003 0 .249.003.527-.005.295-.008.802-.03 1.421-.11a13.42 13.42 0 0 0 5.759-2.158c5.505-3.69 5.94-9.421 5.94-11.32h-25.94c0-1.272.283-6.691 5.556-10.226a12.52 12.52 0 0 1 5.36-2.022c.937-.12 1.752-.097 1.484-.098l-.107 25.94ZM18.7 15.288c1.197 2.745 3.332 5.567 6.727 7.343 3.248 1.7 6.222 1.625 6.744 1.622l-.128-25.939c-.015 0 .793-.017 1.79.139a11.7 11.7 0 0 1 3.618 1.194c2.834 1.482 4.346 3.713 5.027 5.274L18.7 15.288Zm13.466 8.965h.014l-.117-25.939h-.014l.117 25.94Zm-.02 0h.01l-.048-25.939h-.011l.049 25.94Zm-.014 0h-.018c-.001 0 0 0 0 0h.008l.108-25.939h-.098v25.94ZM9.978 23.136c.778-.534 3.273-2.282 4.825-5.638a13.5 13.5 0 0 0 1.191-4.456 14.142 14.142 0 0 0 .054-1.638l-25.935.511c.016.774-.27-2.242 1.148-5.308 1.444-3.122 3.718-4.639 4.052-4.868L9.978 23.135Zm6.07-11.732v.129H-9.89c0 .191.004.355.004.382l25.935-.51Zm0-8.723v.001-.016l.001-.028L-9.89 2.44v.24h25.939Zm.001-.043c0-.026.006-.425-.01-.853a14.24 14.24 0 0 0-.35-2.673A13.266 13.266 0 0 0 12.29-7.14c-2.793-2.877-6.36-3.99-9.445-3.99v25.94a12.789 12.789 0 0 1-9.17-3.884 12.673 12.673 0 0 1-3.258-5.96c-.262-1.131-.293-2.017-.301-2.228-.01-.26-.005-.472-.007-.297l25.94.197ZM2.846-11.13c-7.318 0-10.926 5.414-11.558 6.38-.967 1.48-1.588 3.065-1.614 3.128L13.58 8.442c.287-.681-.003.117-.579.998a11.536 11.536 0 0 1-2.633 2.823 12.356 12.356 0 0 1-7.523 2.546v-25.94Zm-13.172 9.508-.039.09a14.225 14.225 0 0 1-.004.014L13.258 9.186c.146-.322.276-.633.323-.744L-10.326-1.622Zm22.954 8.27c.161-.678.335-1.634.4-1.984L-12.474-.082a97.334 97.334 0 0 1-.16.847c-.009.038.002-.014.026-.118l25.236 6Zm.4-1.984a104.67 104.67 0 0 1 .161-.847c.008-.038-.002.014-.027.119l-25.236-6.001c-.161.678-.335 1.633-.4 1.983l25.502 4.746Zm-16.986-.718-.028-.123.033.167.129.682 25.5-4.749c-.064-.35-.24-1.314-.403-1.998l-25.23 6.02Zm.134.726c.065.349.237 1.3.398 1.976L21.81.647c.025.104.035.156.027.118A16.255 16.255 0 0 1 21.804.6l-.127-.677-25.501 4.75Zm23.396-6.19a3.302 3.302 0 0 1-.005-.013l-.038-.091L-4.38 8.442c.047.112.177.422.323.744L19.572-1.518Zm-.043-.104c-.027-.063-.647-1.647-1.615-3.127-.631-.967-4.24-6.381-11.557-6.381v25.94a12.355 12.355 0 0 1-7.524-2.547A11.535 11.535 0 0 1-3.8 9.44c-.576-.88-.866-1.68-.58-.998L19.53-1.622ZM6.357-11.13c-3.09 0-6.659 1.116-9.45 3.994a13.267 13.267 0 0 0-3.394 6.25 14.133 14.133 0 0 0-.35 2.671c-.015.428-.01.828-.01.853l25.939-.197c-.001-.174.003.038-.007.297-.008.211-.039 1.096-.3 2.228a12.673 12.673 0 0 1-3.255 5.956 12.79 12.79 0 0 1-9.173 3.887v-25.94ZM-6.847 2.54h25.94-25.94Zm0 .098v.045-.002h25.94l-.001-.24-25.939.197Zm0 8.895.001-.122v-.007l25.935.512c0-.027.004-.192.004-.383h-25.94Zm.002-.129c0 .004-.005.21-.004.437.001.246.01.674.057 1.2a13.5 13.5 0 0 0 1.19 4.453c1.55 3.355 4.042 5.104 4.822 5.638l14.674-21.39c.335.23 2.607 1.748 4.05 4.87 1.416 3.064 1.13 6.077 1.145 5.304l-25.934-.512Z" fill="#FAFAFA" mask="url(#a)"/></svg>