<svg width="88" height="16" fill="none" xmlns="http://www.w3.org/2000/svg"><mask id="a" fill="#fff"><path d="m25.75 11.833-1.668-.732-.002-5.26 1.65.914.865-1.258-2.173-1.224c-.661.632-1.331 1.1-2.009 1.406l.003 4.753c0 .463-.045.803-.134 1.02-.063.156-.192.3-.388.435v.163a9.386 9.386 0 0 1 1.376.369c.374.137.825.352 1.352.642l2.042-1.503-.061-.353-.853.628Zm4.073-5.537V6.11c0-.42-.07-.75-.212-.992-.141-.24-.45-.523-.924-.848l-1.74 1.438.23.262c.049-.046.085-.08.107-.104.148-.149.268-.223.362-.223.115 0 .222.077.321.231.127.2.19.574.19 1.126l.003 3.957c0 .326-.023.578-.069.757-.046.18-.132.375-.258.584-.046.078-.164.21-.353.398-.396.386-.593.783-.593 1.192 0 .413.172.771.516 1.072.343.3.833.45 1.47.45.609 0 1.113-.132 1.512-.396.26-.163.39-.329.39-.498a.29.29 0 0 0-.1-.228.387.387 0 0 0-.265-.088c-.1 0-.185.027-.256.08-.073.052-.158.164-.257.335-.1.17-.202.282-.306.336-.216.11-.49.165-.82.166-.459 0-.827-.12-1.106-.358-.28-.239-.419-.499-.419-.778 0-.165.039-.313.116-.445.105-.182.282-.368.53-.56.117-.093.468-.316 1.054-.668 1.343-.793 2.316-1.435 2.918-1.925.603-.49 1.046-1.01 1.327-1.562.282-.55.422-1.103.422-1.656 0-1.03-.431-1.995-1.292-2.897l-2.498 2.027Zm1.665 3.302c-.33.609-.883 1.193-1.662 1.75l-.003-4.642 1.267-1.028c.593.71.89 1.437.89 2.18 0 .552-.164 1.131-.492 1.74ZM21.183 1.465h-1.046l-.423 1.765h.36l1.109-1.765Zm-.314 10.248a.318.318 0 0 1-.164.043c-.085 0-.167-.071-.247-.215-.08-.143-.12-.453-.12-.928l-.002-4.508.62-.638-1.454-1.191-1.453 1.193.62.637.003 4.611c0 .694.065 1.18.194 1.46.13.277.42.573.87.887l1.779-1.438-.213-.262a3.96 3.96 0 0 1-.433.349ZM4.948 8.279c.132 1.18.408 3.087.408 3.698 0 .446-.132.805-.399 1.078-.265.273-.613.409-1.04.409-.22 0-.557-.077-1.013-.23a2.724 2.724 0 0 0-.864-.16c-.615 0-1.108.203-1.481.61-.23.258-.417.66-.559 1.203l.31.147c.094-.235.193-.389.298-.461.154-.106.352-.16.595-.16.286 0 .658.093 1.117.281.336.13.58.214.731.251.151.036.327.055.525.055.717 0 1.546-.312 2.488-.934 1.11-.748 1.909-1.617 2.396-2.607.37-.753.554-1.89.553-3.414 0-.495-.004-.973-.011-1.435-.015-.874-.023-1.482-.023-1.823 0-.681.13-1.312.393-1.892.264-.58.752-1.259 1.467-2.034l-.31-.272a4.347 4.347 0 0 1-1.134.606c-.358.12-.79.179-1.298.18-.54 0-1.285-.103-2.235-.308C4.677.816 3.836.69 3.34.69c-.792 0-1.46.25-2.006.749-.546.5-.818 1.047-.818 1.645 0 .41.111.74.332.99.22.25.475.374.764.374a.737.737 0 0 0 .55-.222.76.76 0 0 0 .217-.55.685.685 0 0 0-.197-.498.645.645 0 0 0-.477-.2.71.71 0 0 0-.3.081.655.655 0 0 1-.25.082.198.198 0 0 1-.153-.067.251.251 0 0 1-.061-.176c0-.235.134-.465.402-.692.268-.226.634-.34 1.1-.34.354 0 .864.114 1.526.343.662.228 1.264.342 1.806.341.525 0 1.179-.124 1.962-.373-.853.56-1.47 1.04-1.849 1.442-.38.402-.64.79-.78 1.164-.142.374-.224.875-.245 1.503l.085 1.992Zm2.958-4.62c-.374.859-.56 1.85-.56 2.972l.035 3.749c0 .715-.105 1.306-.315 1.771a3 3 0 0 1-.866 1.135c-.265.21-.697.441-1.296.695.512-.413.846-.801 1.003-1.165.22-.5.331-1.2.33-2.097L6.204 7.06c0-1.089.121-1.95.365-2.58A4.718 4.718 0 0 1 7.66 2.817c.363-.353.93-.719 1.702-1.099-.716.7-1.201 1.347-1.456 1.941Zm9.353 8.034c-.107 0-.207-.074-.297-.222-.14-.214-.211-.57-.212-1.071l-.002-4.326.653-.605-1.487-1.191-1.453 1.193.621.604.003 4.5-1.493 1.124c-.32-.229-.522-.418-.604-.568-.084-.15-.125-.386-.125-.708l-.002-4.347.62-.605-1.52-1.191-1.943 1.601.213.262c.23-.196.405-.294.52-.295.154 0 .277.078.366.231.052.088.078.276.078.562l.002 4.076c0 .517.083.934.247 1.25.165.316.513.683 1.044 1.1a27.676 27.676 0 0 1 2.597-2.026c.011.54.082.936.215 1.184.133.248.415.528.848.841l1.78-1.34-.213-.262c-.226.153-.378.229-.456.229Zm31.524-6.028.002 4.546c0 .448-.038.765-.114.952-.054.144-.185.304-.392.481l.082.163c.5 0 .946.073 1.342.217.521.19 1.18.53 1.975 1.023.258-.234.527-.43.808-.589.368-.212.964-.484 1.789-.817l-.003-6.142c-1.153-.294-2.117-.708-2.892-1.24-.72.605-1.585 1.074-2.597 1.406Zm3.826 6.042-2.157-.881-.003-5.162c.28.05.52.112.719.185.28.101.76.312 1.438.63l.003 5.228Zm21.983-.044c-.108 0-.206-.074-.296-.222-.14-.215-.212-.571-.212-1.072l-.002-4.325.653-.605-1.487-1.192-1.454 1.194.622.604.002 4.5-1.492 1.124c-.321-.229-.522-.419-.605-.569-.083-.15-.124-.385-.124-.707l-.002-4.347.62-.605-1.52-1.192-1.943 1.602.212.262c.231-.197.404-.295.52-.295.155 0 .276.077.367.231.05.088.077.275.077.561l.002 4.077c0 .517.083.933.247 1.249.165.317.512.684 1.045 1.101a27.652 27.652 0 0 1 2.596-2.026c.011.54.083.935.215 1.184.133.248.416.528.848.84l1.78-1.34-.213-.261c-.225.152-.378.228-.456.229Zm4.338-6.106 1.029 1.268 1.256-1.095-1.258-1.486-1.845 1.602c0-.289-.056-.515-.166-.678-.171-.262-.492-.569-.962-.923L75.27 5.75l.212.261c.216-.261.386-.392.51-.392.114 0 .217.071.312.213.095.142.142.428.142.857l.002 3.411c0 .496-.036.832-.11 1.007-.075.176-.234.35-.477.523v.164c.364.096.697.23 1.004.4.306.17.685.45 1.137.84l2.139-1.7-.196-.261-.85.686-.98-.685-.003-4.806.818-.71Zm8.384 1.374-2.321-2.69a75 75 0 0 1-1.765.887c-.346.157-.781.33-1.305.52l.002 4.74c0 .541-.03.894-.091 1.056a.83.83 0 0 1-.365.411v.164c.644.13 1.14.258 1.49.385.35.126.795.335 1.337.626l2.694-1.897-.197-.26-1.291.915-1.91-.718V9.534l3.722-2.603ZM83.59 5.24l.116-.037 2.08 2.247-2.194 1.534-.002-3.744ZM65.395 2.324h-.237l-2.277 2.84v.363h.785l.002 4.756c0 .387-.047.684-.142.888-.073.16-.222.316-.445.465v.164c.796.216 1.51.63 2.14 1.24l1.747-1.438-.196-.262-.522.425-.915-.718-.003-5.521 1.666-.001V4.61H65.33l.064-2.286Zm-3.465 9.345c-.108 0-.207-.074-.296-.222-.142-.214-.212-.57-.213-1.071l-.002-4.325.653-.605-1.487-1.192-1.453 1.193.62.604.003 4.5-1.491 1.124c-.321-.228-.523-.418-.606-.568-.083-.15-.124-.386-.124-.708l-.003-4.346.62-.605-1.519-1.192-1.943 1.602.213.261c.23-.196.404-.294.52-.294.154 0 .276.077.366.23.051.089.077.276.077.562l.002 4.076c.001.518.083.934.248 1.25.164.317.512.684 1.045 1.101a27.755 27.755 0 0 1 2.596-2.027c.01.541.083.936.215 1.184.133.249.415.529.847.841l1.78-1.34-.213-.262c-.225.153-.377.23-.455.23Zm-16.132-.464c-.65.272-1.37.409-2.159.409l-.312-.008-.104-9.374c1.141.56 2.165.888 3.072.984l1.371-1.258-.146-.31h-.188c-.63 0-1.18-.05-1.646-.152-.468-.1-1.109-.322-1.924-.663l-3.543 2.91.002 3.701c0 .826-.033 1.332-.098 1.517-.066.184-.263.412-.59.682-.761-.981-1.142-2.05-1.142-3.207a4.816 4.816 0 0 1 .776-2.649c.402-.63 1.013-1.223 1.835-1.777l-.213-.228c-1.246.752-2.148 1.525-2.705 2.321-.711 1.015-1.066 2.118-1.065 3.308 0 .965.253 1.903.759 2.813a5.218 5.218 0 0 0 2.096 2.097 5.856 5.856 0 0 0 2.854.73c.681 0 1.367-.117 2.058-.35.692-.234 1.284-.546 1.775-.937.491-.39.992-.936 1.502-1.64l-.245-.244c-.697.611-1.37 1.053-2.02 1.325Zm-4.632-.176a5.011 5.011 0 0 1-1.413-1.117c.72-.596 1.28-1.127 1.681-1.593.198-.23.324-.447.379-.65.049-.152.074-.462.073-.927l-.001-3.744.947-.778.102 9.329c-.675-.087-1.265-.26-1.767-.52Z"/></mask><path d="m25.75 11.833-1.668-.732-.002-5.26 1.65.914.865-1.258-2.173-1.224c-.661.632-1.331 1.1-2.009 1.406l.003 4.753c0 .463-.045.803-.134 1.02-.063.156-.192.3-.388.435v.163a9.386 9.386 0 0 1 1.376.369c.374.137.825.352 1.352.642l2.042-1.503-.061-.353-.853.628Zm4.073-5.537V6.11c0-.42-.07-.75-.212-.992-.141-.24-.45-.523-.924-.848l-1.74 1.438.23.262c.049-.046.085-.08.107-.104.148-.149.268-.223.362-.223.115 0 .222.077.321.231.127.2.19.574.19 1.126l.003 3.957c0 .326-.023.578-.069.757-.046.18-.132.375-.258.584-.046.078-.164.21-.353.398-.396.386-.593.783-.593 1.192 0 .413.172.771.516 1.072.343.3.833.45 1.47.45.609 0 1.113-.132 1.512-.396.26-.163.39-.329.39-.498a.29.29 0 0 0-.1-.228.387.387 0 0 0-.265-.088c-.1 0-.185.027-.256.08-.073.052-.158.164-.257.335-.1.17-.202.282-.306.336-.216.11-.49.165-.82.166-.459 0-.827-.12-1.106-.358-.28-.239-.419-.499-.419-.778 0-.165.039-.313.116-.445.105-.182.282-.368.53-.56.117-.093.468-.316 1.054-.668 1.343-.793 2.316-1.435 2.918-1.925.603-.49 1.046-1.01 1.327-1.562.282-.55.422-1.103.422-1.656 0-1.03-.431-1.995-1.292-2.897l-2.498 2.027Zm1.665 3.302c-.33.609-.883 1.193-1.662 1.75l-.003-4.642 1.267-1.028c.593.71.89 1.437.89 2.18 0 .552-.164 1.131-.492 1.74ZM21.183 1.465h-1.046l-.423 1.765h.36l1.109-1.765Zm-.314 10.248a.318.318 0 0 1-.164.043c-.085 0-.167-.071-.247-.215-.08-.143-.12-.453-.12-.928l-.002-4.508.62-.638-1.454-1.191-1.453 1.193.62.637.003 4.611c0 .694.065 1.18.194 1.46.13.277.42.573.87.887l1.779-1.438-.213-.262a3.96 3.96 0 0 1-.433.349ZM4.948 8.279c.132 1.18.408 3.087.408 3.698 0 .446-.132.805-.399 1.078-.265.273-.613.409-1.04.409-.22 0-.557-.077-1.013-.23a2.724 2.724 0 0 0-.864-.16c-.615 0-1.108.203-1.481.61-.23.258-.417.66-.559 1.203l.31.147c.094-.235.193-.389.298-.461.154-.106.352-.16.595-.16.286 0 .658.093 1.117.281.336.13.58.214.731.251.151.036.327.055.525.055.717 0 1.546-.312 2.488-.934 1.11-.748 1.909-1.617 2.396-2.607.37-.753.554-1.89.553-3.414 0-.495-.004-.973-.011-1.435-.015-.874-.023-1.482-.023-1.823 0-.681.13-1.312.393-1.892.264-.58.752-1.259 1.467-2.034l-.31-.272a4.347 4.347 0 0 1-1.134.606c-.358.12-.79.179-1.298.18-.54 0-1.285-.103-2.235-.308C4.677.816 3.836.69 3.34.69c-.792 0-1.46.25-2.006.749-.546.5-.818 1.047-.818 1.645 0 .41.111.74.332.99.22.25.475.374.764.374a.737.737 0 0 0 .55-.222.76.76 0 0 0 .217-.55.685.685 0 0 0-.197-.498.645.645 0 0 0-.477-.2.71.71 0 0 0-.3.081.655.655 0 0 1-.25.082.198.198 0 0 1-.153-.067.251.251 0 0 1-.061-.176c0-.235.134-.465.402-.692.268-.226.634-.34 1.1-.34.354 0 .864.114 1.526.343.662.228 1.264.342 1.806.341.525 0 1.179-.124 1.962-.373-.853.56-1.47 1.04-1.849 1.442-.38.402-.64.79-.78 1.164-.142.374-.224.875-.245 1.503l.085 1.992Zm2.958-4.62c-.374.859-.56 1.85-.56 2.972l.035 3.749c0 .715-.105 1.306-.315 1.771a3 3 0 0 1-.866 1.135c-.265.21-.697.441-1.296.695.512-.413.846-.801 1.003-1.165.22-.5.331-1.2.33-2.097L6.204 7.06c0-1.089.121-1.95.365-2.58A4.718 4.718 0 0 1 7.66 2.817c.363-.353.93-.719 1.702-1.099-.716.7-1.201 1.347-1.456 1.941Zm9.353 8.034c-.107 0-.207-.074-.297-.222-.14-.214-.211-.57-.212-1.071l-.002-4.326.653-.605-1.487-1.191-1.453 1.193.621.604.003 4.5-1.493 1.124c-.32-.229-.522-.418-.604-.568-.084-.15-.125-.386-.125-.708l-.002-4.347.62-.605-1.52-1.191-1.943 1.601.213.262c.23-.196.405-.294.52-.295.154 0 .277.078.366.231.052.088.078.276.078.562l.002 4.076c0 .517.083.934.247 1.25.165.316.513.683 1.044 1.1a27.676 27.676 0 0 1 2.597-2.026c.011.54.082.936.215 1.184.133.248.415.528.848.841l1.78-1.34-.213-.262c-.226.153-.378.229-.456.229Zm31.524-6.028.002 4.546c0 .448-.038.765-.114.952-.054.144-.185.304-.392.481l.082.163c.5 0 .946.073 1.342.217.521.19 1.18.53 1.975 1.023.258-.234.527-.43.808-.589.368-.212.964-.484 1.789-.817l-.003-6.142c-1.153-.294-2.117-.708-2.892-1.24-.72.605-1.585 1.074-2.597 1.406Zm3.826 6.042-2.157-.881-.003-5.162c.28.05.52.112.719.185.28.101.76.312 1.438.63l.003 5.228Zm21.983-.044c-.108 0-.206-.074-.296-.222-.14-.215-.212-.571-.212-1.072l-.002-4.325.653-.605-1.487-1.192-1.454 1.194.622.604.002 4.5-1.492 1.124c-.321-.229-.522-.419-.605-.569-.083-.15-.124-.385-.124-.707l-.002-4.347.62-.605-1.52-1.192-1.943 1.602.212.262c.231-.197.404-.295.52-.295.155 0 .276.077.367.231.05.088.077.275.077.561l.002 4.077c0 .517.083.933.247 1.249.165.317.512.684 1.045 1.101a27.652 27.652 0 0 1 2.596-2.026c.011.54.083.935.215 1.184.133.248.416.528.848.84l1.78-1.34-.213-.261c-.225.152-.378.228-.456.229Zm4.338-6.106 1.029 1.268 1.256-1.095-1.258-1.486-1.845 1.602c0-.289-.056-.515-.166-.678-.171-.262-.492-.569-.962-.923L75.27 5.75l.212.261c.216-.261.386-.392.51-.392.114 0 .217.071.312.213.095.142.142.428.142.857l.002 3.411c0 .496-.036.832-.11 1.007-.075.176-.234.35-.477.523v.164c.364.096.697.23 1.004.4.306.17.685.45 1.137.84l2.139-1.7-.196-.261-.85.686-.98-.685-.003-4.806.818-.71Zm8.384 1.374-2.321-2.69a75 75 0 0 1-1.765.887c-.346.157-.781.33-1.305.52l.002 4.74c0 .541-.03.894-.091 1.056a.83.83 0 0 1-.365.411v.164c.644.13 1.14.258 1.49.385.35.126.795.335 1.337.626l2.694-1.897-.197-.26-1.291.915-1.91-.718V9.534l3.722-2.603ZM83.59 5.24l.116-.037 2.08 2.247-2.194 1.534-.002-3.744ZM65.395 2.324h-.237l-2.277 2.84v.363h.785l.002 4.756c0 .387-.047.684-.142.888-.073.16-.222.316-.445.465v.164c.796.216 1.51.63 2.14 1.24l1.747-1.438-.196-.262-.522.425-.915-.718-.003-5.521 1.666-.001V4.61H65.33l.064-2.286Zm-3.465 9.345c-.108 0-.207-.074-.296-.222-.142-.214-.212-.57-.213-1.071l-.002-4.325.653-.605-1.487-1.192-1.453 1.193.62.604.003 4.5-1.491 1.124c-.321-.228-.523-.418-.606-.568-.083-.15-.124-.386-.124-.708l-.003-4.346.62-.605-1.519-1.192-1.943 1.602.213.261c.23-.196.404-.294.52-.294.154 0 .276.077.366.23.051.089.077.276.077.562l.002 4.076c.001.518.083.934.248 1.25.164.317.512.684 1.045 1.101a27.755 27.755 0 0 1 2.596-2.027c.01.541.083.936.215 1.184.133.249.415.529.847.841l1.78-1.34-.213-.262c-.225.153-.377.23-.455.23Zm-16.132-.464c-.65.272-1.37.409-2.159.409l-.312-.008-.104-9.374c1.141.56 2.165.888 3.072.984l1.371-1.258-.146-.31h-.188c-.63 0-1.18-.05-1.646-.152-.468-.1-1.109-.322-1.924-.663l-3.543 2.91.002 3.701c0 .826-.033 1.332-.098 1.517-.066.184-.263.412-.59.682-.761-.981-1.142-2.05-1.142-3.207a4.816 4.816 0 0 1 .776-2.649c.402-.63 1.013-1.223 1.835-1.777l-.213-.228c-1.246.752-2.148 1.525-2.705 2.321-.711 1.015-1.066 2.118-1.065 3.308 0 .965.253 1.903.759 2.813a5.218 5.218 0 0 0 2.096 2.097 5.856 5.856 0 0 0 2.854.73c.681 0 1.367-.117 2.058-.35.692-.234 1.284-.546 1.775-.937.491-.39.992-.936 1.502-1.64l-.245-.244c-.697.611-1.37 1.053-2.02 1.325Zm-4.632-.176a5.011 5.011 0 0 1-1.413-1.117c.72-.596 1.28-1.127 1.681-1.593.198-.23.324-.447.379-.65.049-.152.074-.462.073-.927l-.001-3.744.947-.778.102 9.329c-.675-.087-1.265-.26-1.767-.52Z" fill="#FAFAFA" stroke="#FAFAFA" stroke-width="25.939" mask="url(#a)"/></svg>