<svg width="216" height="80" viewBox="0 0 216 80" fill="none" xmlns="http://www.w3.org/2000/svg">
<path fill-rule="evenodd" clip-rule="evenodd" d="M197.578 61.2717C193.822 62.5739 189.615 62.1732 186.159 60.1198C179.948 56.3635 179.147 45.5955 178.997 43.492C178.847 41.3885 178.346 41.3885 178.196 41.689C177.044 48.5505 175.09 59.1181 169.731 61.2216C166.426 62.8744 162.419 61.472 160.766 58.1665C160.616 57.866 160.516 57.6156 160.416 57.3151C159.564 54.4603 159.164 51.5054 159.264 48.5004C159.264 47.3485 158.913 47.1982 158.913 47.1982C158.412 51.7558 156.509 56.063 153.354 59.4186C152.034 60.8405 150.187 61.4615 148.974 61.8693C148.393 62.0648 147.957 62.2113 147.795 62.3736C147.294 66.4303 147.194 70.5372 147.444 74.594C147.594 77.8494 147.094 79.6524 144.84 79.9529C142.536 80.3035 141.885 78.6507 141.735 76.5472C141.584 74.4437 141.584 60.0697 141.735 55.5121C141.885 50.9545 143.037 37.4319 143.037 37.4319L142.035 37.7825C141.985 41.9394 141.534 46.0964 140.733 50.1531C139.982 54.6106 138.179 58.8677 135.524 62.5238C133.922 64.8277 130.716 65.4287 128.412 63.7759L127.861 63.3251C125.758 61.8727 124.255 58.9178 124.456 52.2567C124.806 47.1481 125.758 42.1398 127.411 37.2817C127.102 37.2817 126.501 37.2029 125.868 37.12C125.167 37.028 124.426 36.9311 124.005 36.9311C124.756 41.088 124.656 45.3451 123.654 49.5021C122.352 60.27 117.795 64.0263 114.539 64.1766C111.284 64.3268 109.18 60.7709 108.529 59.619C105.725 61.1215 102.82 62.4737 99.9148 63.6757C94.656 65.8794 88.646 65.4287 83.7879 62.5238C78.1284 58.9679 75.1234 52.5071 75.9748 45.896C76.3755 38.6339 77.7278 31.472 80.0316 24.5604C82.1351 17.3985 85.1401 10.537 88.9966 4.17638C89.6978 3.02446 90.7996 2.22312 92.1018 1.87253C93.0534 1.87253 93.9549 1.9727 94.8564 2.22312C96.3088 2.37337 100.416 2.72396 102.519 2.72396C104.573 2.77404 106.576 3.27487 108.379 4.17638C108.457 4.23647 108.559 4.29367 108.68 4.36165C109.568 4.86033 111.49 5.93909 112.636 12.9911C113.487 19.2516 112.736 25.6623 110.533 31.5721C109.08 36.6306 106.626 38.5838 104.673 37.9327C102.896 37.3405 103.15 35.2563 103.7 30.7376L103.7 30.7365C103.701 30.735 103.701 30.7335 103.701 30.7319C103.755 30.2849 103.813 29.814 103.871 29.3184C104.472 25.512 104.472 21.5554 103.871 17.749C103.521 15.4452 102.87 14.143 101.568 14.143C100.766 14.4936 98.3121 17.3985 96.6594 24.5604C94.8063 32.0229 93.9048 39.6857 93.9048 47.3985C94.055 55.0613 96.8597 58.467 101.217 58.6674C103.771 58.5672 106.225 57.3652 107.878 55.4119C108.106 55.0862 108.038 54.8452 107.962 54.5787C107.921 54.4355 107.878 54.2849 107.878 54.1098C107.778 49.0012 108.83 43.9428 110.983 39.285C112.285 35.4286 114.94 32.1731 118.496 30.1698C120.571 29.4923 121.464 30.7836 122.296 31.9858C122.448 32.2057 122.598 32.4225 122.753 32.6239C123.696 33.8494 124.461 33.7884 126.176 33.6518C126.283 33.6432 126.394 33.6344 126.509 33.6255C127.962 33.325 129.264 32.6239 130.265 31.522C131.317 29.5688 132.67 27.7658 134.172 26.1631C135.925 25.2616 138.079 25.3618 139.731 26.5137C140.966 27.6532 141.3 29.3129 141.581 30.7087C141.745 31.5215 141.891 32.2449 142.185 32.724C142.987 32.5738 143.187 32.3735 143.838 31.5721C144.439 29.669 144.84 27.7157 144.99 25.7123C145.391 22.9077 145.992 20.103 146.793 17.3985C148.596 15.7457 149.748 15.946 152.002 16.5971C154.201 17.2324 153.205 20.4906 152.83 21.7183C152.821 21.7487 152.812 21.7779 152.803 21.8058C152.453 22.9577 152.453 23.9093 152.953 23.9093C155.057 23.6589 157.06 24.8108 158.012 26.6639C159.815 31.522 160.466 36.6807 159.965 41.8393C159.815 42.9912 160.316 43.1414 160.316 43.1414C161.067 38.5838 162.269 34.1264 163.922 29.7691C165.074 26.8643 167.377 24.6606 170.282 23.5587C172.439 22.9865 172.816 23.807 173.318 24.8982C173.387 25.0485 173.459 25.204 173.538 25.3618C174.64 30.871 174.139 36.5805 172.085 41.8393C169.982 48.1999 167.177 50.0029 164.773 50.8042C164.272 56.664 166.576 58.3168 167.528 58.467C171.021 58.6126 171.741 56.5025 173.558 51.1811C173.617 51.0087 173.677 50.8331 173.738 50.654C175.19 45.0446 175.992 39.3351 176.042 33.5254C176.192 28.9678 177.044 28.1664 177.995 27.5154C179.297 26.8142 180.75 26.3634 182.252 26.2132C185.357 26.5638 183.905 28.8175 182.753 29.1681C181.601 29.5187 181.751 30.4703 182.252 30.6205C183.304 30.9711 184.055 31.9227 184.055 33.0746C183.755 38.9344 184.256 44.7942 185.508 50.5037C186.309 53.4587 188.413 55.8126 191.217 57.0146C194.523 57.9662 198.079 57.5154 200.984 55.7124C203.738 54.4103 204.389 54.9111 204.59 55.5622C204.94 57.7158 202.486 59.3685 197.578 61.2717ZM148.696 43.3418C148.997 38.8843 149.848 34.5271 151.301 30.32C151.952 29.0179 152.953 29.1681 153.404 30.1197C154.155 33.8259 154.256 37.6322 153.755 41.3885C153.454 45.6957 152.553 49.9027 151.15 53.9595C150.299 56.063 149.197 55.6123 148.846 54.6106C148.396 50.8543 148.346 47.0981 148.696 43.3418ZM131.267 48.9512C132.069 43.8927 133.521 39.0346 135.675 34.4269C137.277 32.2733 137.928 33.1248 138.129 35.5789C138.129 40.5872 137.377 45.4954 135.825 50.2534C133.872 56.5639 132.569 57.2651 131.768 56.9145C130.917 56.614 130.766 54.0096 131.267 48.9512ZM169.531 33.5755C169.431 36.7308 168.479 39.7858 166.776 42.3902C165.324 43.8426 164.673 42.5405 164.473 41.2383C165.024 38.2833 165.975 35.4286 167.428 32.7741C168.73 30.9711 169.531 31.472 169.531 33.5755ZM114.94 53.3084C115.04 47.8493 116.493 42.5404 119.197 37.8326C119.548 37.3818 120.099 37.0813 120.599 37.1314C121.751 38.1331 121.25 42.6907 119.798 48.4002C118.346 54.1097 117.494 55.4119 116.392 55.4119C115.291 55.4119 114.94 54.6106 114.94 53.3084Z" fill="white"/>
<path fill-rule="evenodd" clip-rule="evenodd" d="M190.266 29.669C190.5 29.669 190.734 29.6362 190.983 29.6013C191.267 29.5614 191.572 29.5188 191.918 29.5188C192.569 29.4687 193.17 29.6189 193.721 30.0196C194.072 30.3201 194.222 30.7208 194.222 31.1715C194.272 31.8226 193.771 32.4236 193.07 32.4737C193.571 32.6239 193.872 32.9745 194.072 33.9261C194.195 34.3373 194.285 34.7484 194.368 35.1318C194.387 35.2155 194.405 35.2978 194.423 35.3785H193.421C193.17 34.9278 193.07 34.427 193.07 33.9261C192.92 33.1248 192.569 32.9244 191.918 32.9244H191.267V35.3785H190.266V29.669ZM191.718 30.32C192.82 30.32 193.171 30.8209 193.171 31.3217C193.171 31.9728 192.519 32.123 191.718 32.2733H191.067V30.32H191.718Z" fill="white"/>
<path fill-rule="evenodd" clip-rule="evenodd" d="M192.069 27.2148C194.873 27.2148 197.127 29.4686 197.127 32.2733C197.227 34.9778 195.124 37.2316 192.419 37.3317H192.069C189.264 37.3317 187.01 35.078 187.01 32.2733C187.01 29.5187 189.264 27.2148 192.069 27.2148ZM196.125 32.4236C196.175 34.7275 194.372 36.6306 192.069 36.6807H191.818C189.564 36.4804 187.862 34.5271 188.012 32.2734C187.962 29.9695 189.765 28.0663 192.069 28.0163C194.423 28.1164 196.226 30.0697 196.125 32.4236Z" fill="white"/>
<path fill-rule="evenodd" clip-rule="evenodd" d="M68.863 54.9612C68.2119 56.7642 66.7595 58.8677 61.8513 60.1699C60.5992 60.4704 59.3471 60.871 58.095 61.3218C57.951 61.3835 57.8662 61.7493 57.7607 62.204C57.6093 62.8567 57.4153 63.6927 56.9431 64.0764C56.8492 64.1527 56.7663 64.2337 56.6811 64.3171C56.0387 64.9456 55.2618 65.7057 48.6292 65.5288C41.1166 65.3285 28.0949 64.7275 28.0949 64.7275C27.4438 65.7291 25.3403 68.7842 16.6758 66.6807C16.6355 66.67 16.5953 66.6594 16.5551 66.6488C14.1482 66.0117 11.9598 65.4326 11.4671 59.669C11.4171 57.4153 11.4671 55.2116 11.6174 53.0079C11.0665 44.5438 11.4671 36.1297 12.7693 27.7658C13.7209 21.3551 15.0732 15.0946 16.8261 8.88424C15.6742 7.23148 14.2217 4.32663 19.1299 2.37337C24.0882 -0.0807312 29.7477 -0.631645 35.1066 0.720613C37.711 1.22145 38.8629 4.32663 38.0616 5.27822C37.9965 5.35958 37.9324 5.43731 37.8693 5.51373C37.1564 6.37823 36.5806 7.07643 36.2585 10.9878C35.908 15.2449 33.9547 30.2199 32.6525 37.3818C32.2874 39.3899 31.8829 41.5909 31.4899 43.7298L31.4897 43.7309C30.4809 49.2202 29.5473 54.3003 29.5473 54.6607C29.5473 55.1615 29.8979 55.462 31.3503 55.6623C32.0243 55.7553 32.9894 55.8698 33.9255 55.9809C35.0066 56.1092 36.049 56.2329 36.559 56.3134C37.5106 56.4637 38.0115 56.3134 37.2101 54.2099C35.8579 48.4503 35.8579 42.4904 37.2101 36.7808C38.4121 31.1214 40.5156 25.6623 43.4205 20.6539C44.8729 18.5504 46.5257 16.3968 49.7811 17.8993C53.0365 19.4018 54.6893 20.8542 54.0382 24.5604C53.1367 29.0179 51.5841 33.275 49.4806 37.2817C48.4289 39.6857 46.8763 41.8893 44.923 43.6423C44.5749 43.839 44.1993 43.9901 43.8447 44.1327C43.0259 44.4619 42.3187 44.7463 42.3187 45.4453C42.1684 47.649 42.3187 49.8526 42.8195 51.9562C43.4706 52.9578 45.4238 51.9562 47.3771 49.6523C49.9314 46.3969 51.6342 42.4903 52.2853 38.3835C53.2369 34.3768 54.7895 30.5204 56.8429 26.9644C57.9447 24.9611 60.499 24.1597 62.5524 25.1614C65.2069 25.7123 67.0099 28.1664 66.8095 30.8709C66.7094 34.1765 65.9581 37.4319 64.706 40.487C62.7528 45.1949 60.7995 49.452 59.1468 50.1031C58.6742 50.2892 58.2467 50.4099 57.8771 50.5142C56.954 50.7747 56.3922 50.9332 56.3922 51.7558C56.1918 53.8093 57.494 55.6623 59.4973 56.1632C62.0015 56.8643 64.656 56.063 66.3588 54.0597C66.7595 53.659 69.5141 53.1582 68.863 54.9612ZM46.8764 33.0747C46.5808 33.5623 46.3899 33.989 46.2251 34.3571C45.8316 35.2367 45.5873 35.7825 44.4223 36.0296C44.0717 36.0296 44.0717 34.7274 44.9732 32.3735C45.7745 30.1197 46.4256 28.3167 46.4256 28.3167C47.0767 27.0145 48.6794 26.063 48.5291 27.5154C48.2787 29.4686 47.7278 31.3217 46.8764 33.0747ZM62.0516 33.5755C61.8011 36.7308 60.7995 39.7358 59.0966 42.3902C58.746 42.891 57.7944 43.6924 57.4939 42.3401C57.6943 40.1865 58.1951 38.0329 58.9464 35.9795C59.2469 35.0279 60.3988 32.5738 60.3988 32.5738C60.8996 32.1231 62.0516 31.7725 62.0516 33.5755Z" fill="white"/>
<path fill-rule="evenodd" clip-rule="evenodd" d="M192.069 27.2148C194.873 27.2148 197.127 29.4686 197.127 32.2733C197.227 34.9778 195.124 37.2316 192.419 37.3317H192.069C189.264 37.3317 187.01 35.078 187.01 32.2733C187.01 29.5187 189.264 27.2148 192.069 27.2148ZM68.863 54.9612C68.2119 56.7642 66.7595 58.8677 61.8513 60.1699C60.5992 60.4704 59.3471 60.871 58.095 61.3218C57.951 61.3835 57.8662 61.7493 57.7607 62.204C57.6093 62.8567 57.4153 63.6927 56.9431 64.0764C56.8492 64.1527 56.7663 64.2337 56.6811 64.3171C56.0387 64.9456 55.2618 65.7057 48.6292 65.5288C41.1166 65.3285 28.0949 64.7275 28.0949 64.7275C27.4438 65.7291 25.3403 68.7842 16.6758 66.6807L16.5551 66.6488C14.1482 66.0117 11.9598 65.4326 11.4671 59.669C11.4171 57.4153 11.4671 55.2116 11.6174 53.0079C11.0665 44.5438 11.4671 36.1297 12.7693 27.7658C13.7209 21.3551 15.0732 15.0946 16.8261 8.88424C15.6742 7.23148 14.2217 4.32663 19.1299 2.37337C24.0882 -0.0807312 29.7477 -0.631645 35.1066 0.720613C37.711 1.22145 38.8629 4.32663 38.0616 5.27822C37.9965 5.35958 37.9324 5.43731 37.8693 5.51373C37.1564 6.37823 36.5806 7.07643 36.2585 10.9878C35.908 15.2449 33.9547 30.2199 32.6525 37.3818C32.2874 39.3899 31.8829 41.5909 31.4899 43.7298L31.4897 43.7309C30.4809 49.2202 29.5473 54.3003 29.5473 54.6607C29.5473 55.1615 29.8979 55.462 31.3503 55.6623C32.0243 55.7553 32.9894 55.8698 33.9255 55.9809C35.0066 56.1092 36.049 56.2329 36.559 56.3134C37.5106 56.4637 38.0115 56.3134 37.2101 54.2099C35.8579 48.4503 35.8579 42.4904 37.2101 36.7808C38.4121 31.1214 40.5156 25.6623 43.4205 20.6539C44.8729 18.5504 46.5257 16.3968 49.7811 17.8993C53.0365 19.4018 54.6893 20.8542 54.0382 24.5604C53.1367 29.0179 51.5841 33.275 49.4806 37.2817C48.4289 39.6857 46.8763 41.8893 44.923 43.6423C44.5749 43.839 44.1993 43.9901 43.8447 44.1327C43.0259 44.4619 42.3187 44.7463 42.3187 45.4453C42.1684 47.649 42.3187 49.8526 42.8195 51.9562C43.4706 52.9578 45.4238 51.9562 47.3771 49.6523C49.9314 46.3969 51.6342 42.4903 52.2853 38.3835C53.2369 34.3768 54.7895 30.5204 56.8429 26.9644C57.9447 24.9611 60.499 24.1597 62.5524 25.1614C65.2069 25.7123 67.0099 28.1664 66.8095 30.8709C66.7094 34.1765 65.9581 37.4319 64.706 40.487C62.7528 45.1949 60.7995 49.452 59.1468 50.1031C58.6742 50.2892 58.2467 50.4099 57.8771 50.5142C56.954 50.7747 56.3922 50.9332 56.3922 51.7558C56.1918 53.8093 57.494 55.6623 59.4973 56.1632C62.0015 56.8643 64.656 56.063 66.3588 54.0597C66.7595 53.659 69.5141 53.1582 68.863 54.9612ZM197.578 61.2717C193.822 62.5739 189.615 62.1732 186.159 60.1198C179.948 56.3635 179.147 45.5955 178.997 43.492C178.847 41.3885 178.346 41.3885 178.196 41.689C177.044 48.5505 175.09 59.1181 169.731 61.2216C166.426 62.8744 162.419 61.472 160.766 58.1665C160.616 57.866 160.516 57.6156 160.416 57.3151C159.564 54.4603 159.164 51.5054 159.264 48.5004C159.264 47.3485 158.913 47.1982 158.913 47.1982C158.412 51.7558 156.509 56.063 153.354 59.4186C152.034 60.8405 150.187 61.4615 148.974 61.8693C148.393 62.0648 147.957 62.2113 147.795 62.3736C147.294 66.4303 147.194 70.5372 147.444 74.594C147.594 77.8494 147.094 79.6524 144.84 79.9529C142.536 80.3035 141.885 78.6507 141.735 76.5472C141.584 74.4437 141.584 60.0697 141.735 55.5121C141.885 50.9545 143.037 37.4319 143.037 37.4319L142.035 37.7825C141.985 41.9394 141.534 46.0964 140.733 50.1531C139.982 54.6106 138.179 58.8677 135.524 62.5238C133.922 64.8277 130.716 65.4287 128.412 63.7759L127.861 63.3251C125.758 61.8727 124.255 58.9178 124.456 52.2567C124.806 47.1481 125.758 42.1398 127.411 37.2817C127.102 37.2817 126.501 37.2029 125.868 37.12C125.167 37.028 124.426 36.9311 124.005 36.9311C124.756 41.088 124.656 45.3451 123.654 49.5021C122.352 60.27 117.795 64.0263 114.539 64.1766C111.284 64.3268 109.18 60.7709 108.529 59.619C105.725 61.1215 102.82 62.4737 99.9148 63.6757C94.656 65.8794 88.646 65.4287 83.7879 62.5238C78.1284 58.9679 75.1234 52.5071 75.9748 45.896C76.3755 38.6339 77.7278 31.472 80.0316 24.5604C82.1351 17.3985 85.1401 10.537 88.9966 4.17638C89.6978 3.02446 90.7996 2.22312 92.1018 1.87253C93.0534 1.87253 93.9549 1.9727 94.8564 2.22312C96.3088 2.37337 100.416 2.72396 102.519 2.72396C104.573 2.77404 106.576 3.27487 108.379 4.17638C108.457 4.23647 108.559 4.29367 108.68 4.36165C109.568 4.86033 111.49 5.93909 112.636 12.9911C113.487 19.2516 112.736 25.6623 110.533 31.5721C109.08 36.6306 106.626 38.5838 104.673 37.9327C102.896 37.3405 103.15 35.2563 103.7 30.7376L103.7 30.7365L103.701 30.7319C103.755 30.2849 103.813 29.814 103.871 29.3184C104.472 25.512 104.472 21.5554 103.871 17.749C103.521 15.4452 102.87 14.143 101.568 14.143C100.766 14.4936 98.3121 17.3985 96.6594 24.5604C94.8063 32.0229 93.9048 39.6857 93.9048 47.3985C94.055 55.0613 96.8597 58.467 101.217 58.6674C103.771 58.5672 106.225 57.3652 107.878 55.4119C108.106 55.0862 108.038 54.8452 107.962 54.5787C107.921 54.4355 107.878 54.2849 107.878 54.1098C107.778 49.0012 108.83 43.9428 110.983 39.285C112.285 35.4286 114.94 32.1731 118.496 30.1698C120.571 29.4923 121.464 30.7836 122.296 31.9858C122.448 32.2057 122.598 32.4225 122.753 32.6239C123.696 33.8494 124.461 33.7884 126.176 33.6518C126.283 33.6432 126.394 33.6344 126.509 33.6255C127.962 33.325 129.264 32.6239 130.265 31.522C131.317 29.5688 132.67 27.7658 134.172 26.1631C135.925 25.2616 138.079 25.3618 139.731 26.5137C140.966 27.6532 141.3 29.3129 141.581 30.7087C141.745 31.5215 141.891 32.2449 142.185 32.724C142.987 32.5738 143.187 32.3735 143.838 31.5721C144.439 29.669 144.84 27.7157 144.99 25.7123C145.391 22.9077 145.992 20.103 146.793 17.3985C148.596 15.7457 149.748 15.946 152.002 16.5971C154.201 17.2324 153.205 20.4906 152.83 21.7183L152.803 21.8058C152.453 22.9577 152.453 23.9093 152.953 23.9093C155.057 23.6589 157.06 24.8108 158.012 26.6639C159.815 31.522 160.466 36.6807 159.965 41.8393C159.815 42.9912 160.316 43.1414 160.316 43.1414C161.067 38.5838 162.269 34.1264 163.922 29.7691C165.074 26.8643 167.377 24.6606 170.282 23.5587C172.439 22.9865 172.816 23.807 173.318 24.8982C173.387 25.0485 173.459 25.204 173.538 25.3618C174.64 30.871 174.139 36.5805 172.085 41.8393C169.982 48.1999 167.177 50.0029 164.773 50.8042C164.272 56.664 166.576 58.3168 167.528 58.467C171.021 58.6126 171.741 56.5025 173.558 51.1811C173.617 51.0087 173.677 50.8331 173.738 50.654C175.19 45.0446 175.992 39.3351 176.042 33.5254C176.192 28.9678 177.044 28.1664 177.995 27.5154C179.297 26.8142 180.75 26.3634 182.252 26.2132C185.357 26.5638 183.905 28.8175 182.753 29.1681C181.601 29.5187 181.751 30.4703 182.252 30.6205C183.304 30.9711 184.055 31.9227 184.055 33.0746C183.755 38.9344 184.256 44.7942 185.508 50.5037C186.309 53.4587 188.413 55.8126 191.217 57.0146C194.523 57.9662 198.079 57.5154 200.984 55.7124C203.738 54.4103 204.389 54.9111 204.59 55.5622C204.94 57.7158 202.486 59.3685 197.578 61.2717ZM59.0966 42.3902C60.7995 39.7358 61.8011 36.7308 62.0516 33.5755C62.0516 31.7725 60.8996 32.1231 60.3988 32.5738C60.3988 32.5738 59.2469 35.0279 58.9464 35.9795C58.1951 38.0329 57.6943 40.1865 57.4939 42.3401C57.7944 43.6924 58.746 42.891 59.0966 42.3902ZM46.2251 34.3571C45.8316 35.2367 45.5873 35.7825 44.4223 36.0296C44.0717 36.0296 44.0717 34.7274 44.9732 32.3735C45.7745 30.1197 46.4256 28.3167 46.4256 28.3167C47.0767 27.0145 48.6794 26.063 48.5291 27.5154C48.2787 29.4686 47.7278 31.3217 46.8764 33.0747C46.5808 33.5623 46.3899 33.989 46.2251 34.3571ZM119.197 37.8326C116.493 42.5404 115.04 47.8493 114.94 53.3084C114.94 54.6106 115.291 55.4119 116.392 55.4119C117.494 55.4119 118.346 54.1097 119.798 48.4002C121.25 42.6907 121.751 38.1331 120.599 37.1314C120.099 37.0813 119.548 37.3818 119.197 37.8326ZM131.267 48.9512C132.069 43.8927 133.521 39.0346 135.675 34.4269C137.277 32.2733 137.928 33.1248 138.129 35.5789C138.129 40.5872 137.377 45.4954 135.825 50.2534C133.872 56.5639 132.569 57.2651 131.768 56.9145C130.917 56.614 130.766 54.0096 131.267 48.9512ZM151.301 30.32C149.848 34.5271 148.997 38.8843 148.696 43.3418C148.346 47.0981 148.396 50.8543 148.846 54.6106C149.197 55.6123 150.299 56.063 151.15 53.9595C152.553 49.9027 153.454 45.6957 153.755 41.3885C154.256 37.6322 154.155 33.8259 153.404 30.1197C152.953 29.1681 151.952 29.0179 151.301 30.32ZM169.531 33.5755C169.431 36.7308 168.479 39.7858 166.776 42.3902C165.324 43.8426 164.673 42.5405 164.473 41.2383C165.024 38.2833 165.975 35.4286 167.428 32.7741C168.73 30.9711 169.531 31.472 169.531 33.5755ZM192.069 36.6807C194.372 36.6306 196.175 34.7275 196.125 32.4236C196.226 30.0697 194.423 28.1164 192.069 28.0163C189.765 28.0663 187.962 29.9695 188.012 32.2734C187.862 34.5271 189.564 36.4804 191.818 36.6807H192.069ZM191.918 29.5188C191.572 29.5188 191.267 29.5614 190.983 29.6013C190.734 29.6362 190.5 29.669 190.266 29.669V35.3785H191.267V32.9244H191.918C192.569 32.9244 192.92 33.1248 193.07 33.9261C193.07 34.427 193.17 34.9278 193.421 35.3785H194.423C194.405 35.2978 194.387 35.2155 194.368 35.1318C194.285 34.7484 194.195 34.3373 194.072 33.9261C193.872 32.9745 193.571 32.6239 193.07 32.4737C193.771 32.4236 194.272 31.8226 194.222 31.1715C194.222 30.7208 194.072 30.3201 193.721 30.0196C193.17 29.6189 192.569 29.4687 191.918 29.5188ZM191.718 30.32C192.82 30.32 193.171 30.8209 193.171 31.3217C193.171 31.9728 192.519 32.123 191.718 32.2733H191.067V30.32H191.718Z" fill="white"/>
</svg>
