<svg width="164" height="80" viewBox="0 0 164 80" fill="none" xmlns="http://www.w3.org/2000/svg">
<path d="M9.00781 79.5553H12.2794V73.0596C12.2794 71.9028 12.2794 70.4756 12.872 69.6395C13.4615 68.7307 14.5204 68.4351 15.1114 68.4351C17.8677 68.4351 17.8677 71.6845 17.8677 72.8131V79.5553H21.1378V72.1745C21.1378 71.1142 21.1378 68.8287 19.8845 67.3288C18.7543 65.9491 16.9559 65.4294 15.7768 65.4294C13.7081 65.4294 12.5764 66.5654 12.0359 67.0822V65.8972H9.00781V79.5553Z" fill="white"/>
<path fill-rule="evenodd" clip-rule="evenodd" d="M36.0173 74.1918C36.1109 73.7507 36.2134 73.1834 36.2134 72.5448C36.2134 69.1025 33.4808 65.3556 29.1504 65.3556C24.9417 65.3556 21.9656 68.9035 21.9656 72.7646C21.9656 76.7491 25.1155 79.9999 29.1756 79.9999C32.3745 79.9999 34.9808 77.7144 35.7693 75.2521H32.3225C31.7092 76.3837 30.628 76.9971 29.1756 76.9971C26.8381 76.9971 25.558 75.0784 25.4095 74.1918H36.0173ZM25.3115 71.5588C25.9263 69.0237 27.9698 68.3599 29.1756 68.3599C30.8003 68.3599 32.4962 69.3683 32.866 71.5588H25.3115Z" fill="white"/>
<path d="M40.4119 79.5553H42.4257L45.0112 70.6984H45.0587L47.6205 79.5553H49.6372L54.6315 65.8972H51.1386L48.6259 74.2403H48.5783L46.3611 65.8972H43.7563L41.5168 74.2403H41.4678L38.9833 65.8972H35.4889L40.4119 79.5553Z" fill="white"/>
<path fill-rule="evenodd" clip-rule="evenodd" d="M60.9656 79.5554H63.9654V77.9069C64.7748 78.8188 65.9361 79.9994 68.5692 79.9994C73.562 79.9994 75.3589 75.3987 75.3589 72.6646C75.3589 69.0515 72.6531 65.4294 68.4949 65.4294C66.9682 65.4294 65.3673 65.9982 64.2357 67.1313V61.347H60.9656V79.5554ZM64.0382 72.5444C64.0382 70.5514 65.5886 68.4352 68.0984 68.4352C70.1671 68.4352 72.0873 70.0316 72.0873 72.6929C72.0873 75.3467 70.2903 76.9981 68.1489 76.9981C66.2302 76.9981 64.0382 75.5709 64.0382 72.5444Z" fill="white"/>
<path fill-rule="evenodd" clip-rule="evenodd" d="M90.6355 65.8978H87.6312V67.6249H87.5822C87.4827 67.4259 85.8328 65.4285 83.0557 65.4285C79.2673 65.4285 76.214 68.4566 76.214 72.643C76.214 77.1932 79.34 80 82.8597 80C84.5794 80 86.5991 79.0867 87.6312 77.863V79.556H90.6355V65.8978ZM87.5361 72.6935C87.5361 75.227 85.8105 76.9972 83.5458 76.9972C81.2097 76.9972 79.4856 75.1022 79.4856 72.79C79.4856 70.748 80.8637 68.4358 83.5458 68.4358C85.4912 68.4358 87.5361 69.8614 87.5361 72.6935Z" fill="white"/>
<path d="M95.6467 61.3475H92.3751V79.5559H95.6467V61.3475Z" fill="white"/>
<path fill-rule="evenodd" clip-rule="evenodd" d="M111.049 65.8978H108.047V67.6249H107.997C107.897 67.4259 106.247 65.4285 103.47 65.4285C99.6775 65.4285 96.6286 68.4566 96.6286 72.643C96.6286 77.1932 99.7547 80 103.273 80C104.994 80 107.011 79.0867 108.047 77.863V79.556H111.049V65.8978ZM107.948 72.6935C107.948 75.227 106.227 76.9972 103.962 76.9972C101.623 76.9972 99.9017 75.1022 99.9017 72.79C99.9017 70.748 101.28 68.4358 103.962 68.4358C105.906 68.4358 107.948 69.8614 107.948 72.6935Z" fill="white"/>
<path d="M112.79 79.5553H116.061V73.0596C116.061 71.9028 116.061 70.4756 116.653 69.6395C117.243 68.7307 118.305 68.4351 118.893 68.4351C121.647 68.4351 121.647 71.6845 121.647 72.8131V79.5553H124.922V72.1745C124.922 71.1142 124.922 68.8287 123.664 67.3288C122.533 65.9491 120.739 65.4294 119.556 65.4294C117.488 65.4294 116.359 66.5654 115.816 67.0822V65.8972H112.79V79.5553Z" fill="white"/>
<path d="M136.549 75.1027C135.686 76.4808 134.606 76.9976 133.524 76.9976C131.06 76.9976 129.413 75.0536 129.413 72.7162C129.413 69.9109 131.382 68.4347 133.374 68.4347C135.392 68.4347 136.157 69.7386 136.549 70.4262H140.242C138.839 66.2175 135.095 65.4289 133.374 65.4289C129.609 65.4289 126.141 68.4852 126.141 72.6642C126.141 77.1936 129.902 79.9989 133.4 79.9989C136.599 79.9989 139.131 78.153 140.242 75.1027H136.549Z" fill="white"/>
<path fill-rule="evenodd" clip-rule="evenodd" d="M154.797 74.1918C154.894 73.7507 154.992 73.1834 154.992 72.5448C154.992 69.1025 152.262 65.3556 147.932 65.3556C143.723 65.3556 140.746 68.9035 140.746 72.7646C140.746 76.7491 143.895 79.9999 147.956 79.9999C151.153 79.9999 153.764 77.7144 154.549 75.2521H151.105C150.489 76.3837 149.409 76.9971 147.956 76.9971C145.617 76.9971 144.338 75.0784 144.194 74.1918H154.797ZM144.093 71.5588C144.709 69.0237 146.75 68.3599 147.956 68.3599C149.582 68.3599 151.278 69.3683 151.646 71.5588H144.093Z" fill="white"/>
<path fill-rule="evenodd" clip-rule="evenodd" d="M64.7025 34.2858L60.3289 41.8388L36.1208 40.477L38.5445 36.2698L64.7025 34.2858ZM82.2025 10.2188L84.396 18.5544L50.0463 16.2971L52.4685 12.0914L82.2025 10.2188ZM59.4305 0.00148425L79.5368 0.0163324L81.0546 5.71602L57.0113 4.2072L59.4305 0.00148425ZM57.6632 46.5361L54.1718 52.5387L29.1588 52.5655L31.581 48.3612L57.6632 46.5361ZM101.578 30.3414L95.5236 40.8364H101.29C103.962 40.8364 108.75 39.5028 110.223 35.6981C111.588 32.1621 109.079 30.337 107.328 30.337L101.578 30.3414ZM107.352 20.3024L112.382 20.2712C115.729 20.2534 119.221 18.7222 120.498 15.6155C121.676 12.733 120.093 10.2782 117.994 10.2871L113.129 10.2811L107.352 20.3024ZM84.5846 18.5544L89.6635 9.74353L106.853 8.64013L107.453 7.57088L91.5525 6.45856L95.2711 0.00148425L124.759 0C133.826 0 140.535 3.2419 137.927 12.776C137.143 15.6645 133.457 22.9354 122.647 25.9813C124.941 26.2545 130.656 28.7866 129.671 35.3506C127.922 46.9905 112.851 52.5313 104.468 52.5343L69.6552 52.5506L67.9399 45.8158L86.1736 44.5298L86.7929 43.4635L67.0162 42.2591L64.8851 34.2754L93.0257 32.6329L93.6375 31.5755L43.0814 28.3856L45.5035 24.1814L99.9223 20.6484L100.539 19.5895L84.5846 18.5544Z" fill="white"/>
</svg>
