<svg width="200" height="80" viewBox="0 0 200 80" fill="none" xmlns="http://www.w3.org/2000/svg">
<path d="M199.476 33.0984C199.274 33.4624 198.99 33.7467 198.626 33.9492C198.26 34.1528 197.878 34.2546 197.482 34.2546C197.084 34.2546 196.703 34.1528 196.339 33.9492C195.975 33.7467 195.691 33.4624 195.49 33.0984C195.287 32.7333 195.187 32.3517 195.187 31.9538C195.187 31.5548 195.288 31.1709 195.494 30.8023C195.7 30.4348 195.986 30.1516 196.353 29.9527C196.719 29.7537 197.097 29.6542 197.482 29.6542C197.87 29.6542 198.247 29.7537 198.612 29.9527C198.98 30.1516 199.266 30.4348 199.471 30.8023C199.677 31.1709 199.78 31.5548 199.78 31.9538C199.78 32.3517 199.678 32.7333 199.476 33.0984ZM199.661 30.6923C199.435 30.2897 199.121 29.9784 198.72 29.7631C198.317 29.5454 197.904 29.4377 197.482 29.4377C197.06 29.4377 196.648 29.5454 196.247 29.7631C195.844 29.9784 195.531 30.2897 195.305 30.6923C195.079 31.096 194.967 31.5162 194.967 31.9538C194.967 32.3904 195.077 32.8082 195.3 33.2072C195.522 33.6075 195.833 33.9188 196.23 34.1399C196.63 34.3611 197.046 34.4711 197.482 34.4711C197.917 34.4711 198.334 34.3611 198.734 34.1399C199.133 33.9188 199.444 33.6075 199.666 33.2072C199.889 32.8082 200 32.3904 200 31.9538C200 31.5162 199.886 31.096 199.661 30.6923ZM197.038 31.886H196.932V30.6221C197.04 30.5846 197.14 30.5659 197.23 30.5659C197.437 30.5659 197.609 30.6314 197.741 30.7602C197.876 30.8901 197.943 31.0504 197.943 31.2411C197.943 31.4249 197.87 31.5794 197.726 31.7011C197.581 31.8239 197.353 31.886 197.038 31.886ZM198.467 33.0492L197.726 31.9913C198.008 31.9176 198.208 31.8122 198.331 31.6765C198.453 31.5407 198.513 31.3816 198.513 31.2025C198.513 30.9813 198.424 30.7941 198.245 30.6384C198.064 30.484 197.803 30.4056 197.46 30.4056H196.09V30.5343C196.198 30.5343 196.271 30.5483 196.315 30.5776C196.36 30.608 196.39 30.6501 196.406 30.704C196.414 30.7344 196.417 30.8374 196.417 31.0129V32.8714C196.417 33.0446 196.412 33.1452 196.403 33.1768C196.381 33.2388 196.348 33.2845 196.298 33.3149C196.249 33.3453 196.166 33.3605 196.049 33.3605V33.4787H197.35V33.3605C197.191 33.3605 197.086 33.343 197.033 33.3079C196.979 33.2728 196.946 33.2154 196.932 33.1382V32.0416H197.201L198.245 33.4787H198.896V33.3605C198.816 33.3547 198.754 33.336 198.709 33.3079C198.638 33.2611 198.557 33.1745 198.467 33.0492ZM18.3934 30.0159C17.5169 31.9995 17.0792 34.2874 17.0792 36.8819L17.2126 45.5409C17.2126 47.1933 16.9645 48.5567 16.4695 49.6322C15.9744 50.7054 15.2945 51.5796 14.4308 52.2537C13.8094 52.737 12.7924 53.2707 11.3822 53.8558C12.5876 52.902 13.3741 52.0056 13.7415 51.1665C14.2623 50.0102 14.5221 48.3952 14.5221 46.3227L14.4074 37.8732C14.4074 35.3559 14.693 33.3699 15.2652 31.9129C15.8363 30.457 16.6883 29.1768 17.8188 28.0697C18.6696 27.2563 19.9979 26.4114 21.8013 25.5336C20.1255 27.1486 18.9891 28.6419 18.3934 30.0159ZM25.208 23.4646L24.5316 22.835C23.6024 23.5348 22.7223 24.031 21.8891 24.3236C21.0558 24.6161 20.0482 24.7624 18.8651 24.7624C17.6058 24.7624 15.8703 24.5085 13.6584 23.9994C10.8989 23.3756 8.93984 23.0643 7.78359 23.0643C5.93922 23.0643 4.38156 23.6425 3.10946 24.801C1.83735 25.9585 1.20189 27.2306 1.20189 28.6174C1.20189 29.5711 1.45935 30.3377 1.97545 30.917C2.49037 31.4951 3.08488 31.7853 3.75897 31.7853C4.28092 31.7853 4.71041 31.6133 5.04746 31.2692C5.3845 30.9263 5.55302 30.5004 5.55302 29.9913C5.55302 29.5337 5.39971 29.1487 5.09544 28.8362C4.78999 28.5249 4.42135 28.3693 3.98834 28.3693C3.78471 28.3693 3.55183 28.4266 3.29202 28.5413C3.03105 28.656 2.83678 28.7121 2.70922 28.7121C2.56995 28.7121 2.45175 28.6618 2.35696 28.56C2.261 28.4582 2.21302 28.3248 2.21302 28.1598C2.21302 27.625 2.52431 27.0995 3.14808 26.5846C3.77184 26.0696 4.62381 25.8122 5.70516 25.8122C6.53255 25.8122 7.71571 26.0884 9.25581 26.6419C10.7947 27.1955 12.1932 27.4716 13.4536 27.4716C14.6743 27.4716 16.1945 27.1861 18.0143 26.6138C16.0166 27.8988 14.5724 29.0024 13.6818 29.9246C12.7913 30.8468 12.1804 31.7373 11.8503 32.5963C11.7696 32.8058 11.697 33.0352 11.6327 33.281C11.6303 33.2938 11.6256 33.3114 11.6198 33.336C11.6139 33.3594 11.6104 33.3863 11.6046 33.4097C11.4618 34.1318 10.9925 37.6344 12.3278 48.1202C12.3302 48.1401 12.3313 48.16 12.3348 48.1811C12.3571 48.359 12.3793 48.5322 12.4027 48.7136L12.3817 48.71C12.3934 48.8692 12.4226 49.0284 12.4226 49.1887C12.4226 50.2185 12.1148 51.0494 11.4969 51.6791C10.8802 52.3087 10.0762 52.6235 9.08378 52.6235C8.57471 52.6235 7.79178 52.4515 6.73618 52.1086C5.99773 51.8663 5.33067 51.7458 4.73265 51.7458C3.30724 51.7458 2.16269 52.2151 1.29785 53.1548C0.763028 53.7505 0.331192 54.6773 0 55.9342L0.772391 56.2678C0.988894 55.7341 1.21827 55.3842 1.45935 55.2192C1.81629 54.9769 2.2727 54.8564 2.83327 54.8564C3.49448 54.8564 4.35347 55.0659 5.40907 55.486C6.18498 55.7786 6.74789 55.9658 7.0978 56.0489C7.44772 56.1308 7.85147 56.173 8.30905 56.173C9.96267 56.173 11.8773 55.4544 14.0528 54.0161C16.6825 52.2864 18.576 50.2759 19.7322 47.9856C20.61 46.2431 21.0488 43.6099 21.0488 40.0862C21.0488 38.9416 21.0359 37.8345 21.0102 36.7661C20.9599 34.7426 20.933 33.3371 20.933 32.5484C20.933 30.9708 21.2361 29.5115 21.8399 28.1691C22.4438 26.8268 23.5673 25.2586 25.208 23.4646ZM188.232 33.7315L188.498 33.5981L193.258 38.8726L188.232 42.3963V33.7315ZM196.781 37.6812L191.4 31.4038C189.287 32.4852 187.946 33.1592 187.373 33.4261C186.584 33.7818 185.591 34.1774 184.397 34.6092V45.5245C184.397 46.7709 184.323 47.5819 184.178 47.9575C184.03 48.3332 183.741 48.648 183.308 48.902V49.3794C184.812 49.6978 185.971 50.0032 186.787 50.2946C187.602 50.5884 188.64 51.0717 189.902 51.7458L196.075 47.4333L195.655 46.8598L192.659 48.902L188.232 47.1465V43.6731L196.781 37.6812ZM178.413 48.7686L176.237 47.2039V36.0978L178.128 34.3775L180.54 37.4331L183.431 34.8667L180.54 31.4038L176.237 35.1441C176.237 34.47 176.11 33.941 175.853 33.5595C175.459 32.9486 174.718 32.23 173.632 31.4038L169.653 34.8573L170.121 35.4109C170.62 34.9018 171.012 34.6479 171.298 34.6479C171.56 34.6479 171.8 34.8094 172.017 35.1347C172.235 35.4589 172.345 36.1107 172.345 37.0902V44.8762C172.345 46.0078 172.258 46.7744 172.086 47.1746C171.914 47.576 171.549 47.9739 170.99 48.3683V48.7884C171.828 49.0167 172.599 49.335 173.305 49.7422C174.009 50.1495 174.881 50.8166 175.922 51.7458L180.817 47.8335L180.378 47.2226L178.413 48.7686ZM168.543 48.6539C168.296 48.6539 168.069 48.483 167.86 48.1389C167.536 47.6427 167.372 46.8165 167.372 45.6579V35.6391L168.918 34.2371L165.513 31.4038L162.163 34.2371L163.519 35.6391V46.0582L160.025 48.6328C159.287 48.098 158.823 47.6556 158.633 47.3057C158.442 46.9546 158.346 46.4034 158.346 45.6521V35.5057L159.778 34.2371L156.314 31.4038L151.802 35.1054L152.269 35.6976C152.802 35.2646 153.202 35.0481 153.469 35.0481C153.825 35.0481 154.107 35.226 154.314 35.5829C154.432 35.7865 154.492 36.2196 154.492 36.8796V46.3074C154.492 47.5023 154.682 48.4666 155.063 49.198C155.442 49.9295 156.248 50.7791 157.479 51.7458C159.53 49.9365 161.544 48.3964 163.519 47.1278C163.543 48.3613 163.711 49.2612 164.022 49.8277C164.332 50.3941 164.995 51.0331 166.008 51.7458L170.063 48.6351L169.596 48.0441C169.075 48.4502 168.725 48.6539 168.543 48.6539ZM147.314 26.9193H146.759L141.435 33.4858V34.3237H143.229V45.2729C143.229 46.1635 143.122 46.8458 142.905 47.3174C142.739 47.686 142.402 48.043 141.893 48.387V48.7686C143.701 49.2905 145.321 50.2829 146.75 51.7458L150.958 48.387L150.48 47.8148L149.259 48.7686L147.122 47.1852V34.3237H150.958V32.1856H147.122L147.314 26.9193ZM139.783 48.6539C139.537 48.6539 139.309 48.483 139.102 48.1389C138.776 47.6427 138.614 46.8165 138.614 45.6579V35.6391L140.158 34.2371L136.753 31.4038L133.404 34.2371L134.759 35.6391V46.0582L131.265 48.6328C130.527 48.098 130.064 47.6556 129.873 47.3057C129.682 46.9546 129.587 46.4034 129.587 45.6521V35.5057L131.018 34.2371L127.554 31.4038L123.042 35.1054L123.51 35.6976C124.042 35.2646 124.443 35.0481 124.709 35.0481C125.065 35.0481 125.347 35.226 125.556 35.5829C125.673 35.7865 125.732 36.2196 125.732 36.8796V46.3074C125.732 47.5023 125.922 48.4666 126.303 49.198C126.684 49.9295 127.489 50.7791 128.719 51.7458C130.77 49.9365 132.784 48.3964 134.759 47.1278C134.785 48.3613 134.952 49.2612 135.262 49.8277C135.573 50.3941 136.236 51.0331 137.249 51.7458L141.304 48.6351L140.837 48.0441C140.316 48.4502 139.965 48.6539 139.783 48.6539ZM119.03 48.6539L114.049 46.6117V34.6654C114.699 34.7824 115.252 34.924 115.71 35.0902C116.359 35.3219 117.465 35.8041 119.03 36.5367V48.6539ZM110.196 34.6853V45.1617C110.196 46.1927 110.105 46.9242 109.929 47.356C109.801 47.6872 109.496 48.0558 109.012 48.4631L109.203 48.8446C110.362 48.8961 111.4 49.0869 112.317 49.4181C113.527 49.8499 115.056 50.6258 116.902 51.7458C117.502 51.1992 118.127 50.7405 118.776 50.3718C119.629 49.8756 121.013 49.239 122.924 48.4631V34.1891C120.235 33.5279 117.987 32.5998 116.178 31.4038C114.521 32.8152 112.527 33.9094 110.196 34.6853ZM92.6424 47.0611C91.4768 46.4584 90.3826 45.5912 89.3633 44.4596C91.0344 43.0716 92.3358 41.8369 93.2673 40.7544C93.7272 40.2196 94.021 39.7164 94.1486 39.2447C94.2632 38.8878 94.3206 38.1693 94.3206 37.0856V28.3751L96.5535 26.4406L96.7443 48.2724C95.1761 48.0687 93.8092 47.6661 92.6424 47.0611ZM103.341 47.4473C101.837 48.0734 100.172 48.387 98.3452 48.387L97.622 48.3683L97.4312 26.5752C100.089 27.8988 102.474 28.6747 104.588 28.9041L107.736 25.8976L107.421 25.2013H106.983C105.511 25.2013 104.228 25.0901 103.136 24.8678C102.044 24.6454 100.547 24.1586 98.6436 23.4072L90.4657 30.2207V38.7696C90.4657 40.6772 90.3896 41.8451 90.2374 42.2711C90.0841 42.6971 89.6266 43.2226 88.8635 43.8451C87.0941 41.5678 86.2105 39.0879 86.2105 36.4033C86.2105 34.1891 86.8085 32.1411 88.0045 30.2581C88.9326 28.7952 90.3451 27.4213 92.241 26.1363L91.7729 25.6015C88.8752 27.3453 86.7793 29.1393 85.4826 30.9837C83.8313 33.3371 83.0051 35.8942 83.0051 38.6549C83.0051 40.8937 83.5902 43.0693 84.7605 45.1816C85.9308 47.2928 87.5493 48.9148 89.6172 50.0465C91.6839 51.1793 93.8888 51.7458 96.2293 51.7458C97.8069 51.7458 99.3973 51.4754 100.999 50.9336C102.603 50.3917 103.973 49.6697 105.112 48.765C106.251 47.8604 107.411 46.593 108.595 44.9616L108.013 44.3987C106.401 45.8054 104.844 46.8212 103.341 47.4473ZM71.3034 43.6638C70.5497 45.0693 69.2788 46.4221 67.4917 47.7188V36.8819L70.3379 34.6069C71.7364 36.2476 72.435 37.9282 72.435 39.645C72.435 40.9183 72.0582 42.2582 71.3034 43.6638ZM67.4917 36.0019V35.5829C67.4917 34.628 67.3302 33.8778 67.0061 33.3301C66.6807 32.7836 65.9715 32.1411 64.8785 31.4038L60.8702 34.7426L61.3477 35.3723C61.4612 35.2716 61.5431 35.1944 61.5935 35.1441C61.934 34.8129 62.2114 34.6479 62.4255 34.6479C62.6912 34.6479 62.937 34.8257 63.164 35.1815C63.4542 35.6391 63.5993 36.5051 63.5993 37.7772V46.8984C63.5993 47.6498 63.5478 48.2314 63.446 48.6445C63.343 49.0576 63.1511 49.507 62.8691 49.9903C62.7673 50.1682 62.5039 50.4737 62.0815 50.9055C61.1979 51.7961 60.7567 52.7124 60.7567 53.6533C60.7567 54.6083 61.1499 55.431 61.9387 56.125C62.7286 56.8178 63.8533 57.1654 65.3173 57.1654C66.7158 57.1654 67.8744 56.8471 68.7896 56.2104C69.3876 55.816 69.6872 55.4158 69.6872 55.0085C69.6872 54.7803 69.6099 54.5954 69.4578 54.455C69.3045 54.3146 69.102 54.2455 68.8469 54.2455C68.6187 54.2455 68.4209 54.3087 68.2559 54.4363C68.0897 54.5627 67.8931 54.8342 67.6638 55.2473C67.4356 55.6604 67.1991 55.9307 66.9581 56.0583C66.4619 56.3251 65.8323 56.4585 65.0692 56.4585C64.0125 56.4585 63.1628 56.1823 62.5215 55.6288C61.879 55.0752 61.5572 54.4749 61.5572 53.8254C61.5572 53.4439 61.6461 53.101 61.8252 52.7955C62.0663 52.3754 62.4735 51.9424 63.0458 51.4977C63.3138 51.2812 64.1213 50.7662 65.4695 49.9517C68.5614 48.1073 70.8001 46.6152 72.1869 45.4765C73.5725 44.339 74.5919 43.136 75.2402 41.8709C75.8885 40.6046 76.2139 39.3349 76.2139 38.0639C76.2139 35.6976 75.2238 33.4764 73.246 31.4038L67.4917 36.0019ZM57.9433 48.9008L54.1879 47.2226V35.0481L57.9188 37.2049L59.9504 34.2371L54.9989 31.4038C53.4494 32.9041 51.8812 34.0171 50.2943 34.7426V45.6006C50.2943 46.6574 50.1925 47.4333 49.9889 47.9295C49.8496 48.2852 49.557 48.6164 49.1112 48.9207V49.3794C50.3692 49.6205 51.4295 49.9037 52.2932 50.2279C53.1569 50.5532 54.1984 51.0588 55.419 51.7458L60.1411 48.2724L59.9398 47.4555L57.9433 48.9008ZM48.4207 24.8771H45.997L45.0233 28.9989H45.7875L48.4207 24.8771ZM48.6594 47.8335C48.1539 48.2536 47.8203 48.5087 47.66 48.5965C47.5441 48.6609 47.4178 48.6925 47.2808 48.6925C47.0854 48.6925 46.8958 48.5275 46.7121 48.1963C46.5283 47.8663 46.4359 47.1536 46.4359 46.0593V35.6777L47.9432 34.2184L44.5564 31.4038L41.1883 34.2184L42.6196 35.6777V46.3262C42.6196 47.9295 42.7659 49.0518 43.0608 49.6943C43.3545 50.3367 44.0122 51.0202 45.0339 51.7458L49.1264 48.4245L48.6594 47.8335ZM39.5628 48.6539C39.3159 48.6539 39.0876 48.483 38.8793 48.1389C38.5552 47.6427 38.3925 46.8165 38.3925 45.6579V35.6391L39.9373 34.2371L36.5317 31.4038L33.1824 34.2371L34.5376 35.6391V46.0582L31.0443 48.6328C30.3058 48.098 29.8424 47.6556 29.6516 47.3057C29.4608 46.9546 29.3661 46.4034 29.3661 45.6521V35.5057L30.7973 34.2371L27.3333 31.4038L22.8206 35.1054L23.2876 35.6976C23.8212 35.2646 24.2215 35.0481 24.4883 35.0481C24.8441 35.0481 25.1261 35.226 25.3332 35.5829C25.4514 35.7865 25.5111 36.2196 25.5111 36.8796V46.3074C25.5111 47.5023 25.7007 48.4666 26.0822 49.198C26.4626 49.9295 27.2677 50.7791 28.4977 51.7458C30.5492 49.9365 32.5633 48.3964 34.5376 47.1278C34.5633 48.3613 34.7307 49.2612 35.042 49.8277C35.3521 50.3941 36.0145 51.0331 37.0279 51.7458L41.083 48.6351L40.616 48.0441C40.0953 48.4502 39.7442 48.6539 39.5628 48.6539Z" fill="white"/>
</svg>
