<svg width="200" height="80" viewBox="0 0 200 80" fill="none" xmlns="http://www.w3.org/2000/svg">
<path d="M51.6774 23.1987L50.4668 28.5628H50.5891C50.597 28.5554 51.842 24.8046 54.9242 23.9464C55.5229 23.7701 56.0527 23.7278 56.4197 23.7267L56.422 23.7273H56.946L56.9437 23.8487V37.7647C56.9437 38.2502 56.7677 38.5941 56.4165 38.7955C56.0653 38.9975 55.5092 39.1283 54.7467 39.1879V39.3H62.7489V39.1879C61.9864 39.1283 61.4303 38.9993 61.0791 38.8011C60.7279 38.6034 60.5518 38.2575 60.5518 37.7647V23.7571H60.8782H61.2773C61.2773 23.7571 61.7163 23.7662 62.184 23.8209C66.3912 24.3033 65.5394 28.555 65.5478 28.563L65.6593 28.5628L66.8837 23.1987H51.6774Z" fill="white"/>
<path d="M70.0952 55.3988L67.5172 49.8975H65.752V56.9232H67.1056V51.8895L69.4819 56.9232H70.6382L73.0144 51.8475V56.9232H74.3882V49.8975H72.6632L70.0952 55.3988Z" fill="white"/>
<path d="M192.019 35.0084L192.025 35.0101H185.126L189.472 25.0033L193.098 34.0534C193.396 35.0912 192.019 35.0084 192.019 35.0084ZM198.787 38.5984C198.487 38.2276 198.24 37.5071 197.828 36.4364L192.976 24.1723C192.812 23.7699 192.608 23.334 192.433 22.958C191.767 23.4274 190.979 23.8379 190.102 24.1486C189.702 24.2902 189.304 24.4037 188.912 24.4909L188.944 25.0482L183.958 36.5488C183.561 37.4847 183.198 38.1304 182.868 38.486C182.539 38.8418 182.112 39.0943 181.588 39.2441V39.334H185.822V39.2441C185.455 39.1694 185.159 39.0812 184.935 38.9802C184.71 38.8792 184.514 38.737 184.345 38.5534C184.177 38.3698 184.104 38.1117 184.126 37.7783C184.149 37.4453 184.261 37.043 184.463 36.5709L184.969 35.4257H193.639L194.099 36.5709C194.406 37.2301 194.494 37.7524 194.363 38.138C194.232 38.5236 194.013 38.7931 193.706 38.9466C193.399 39.0999 192.954 39.1991 192.37 39.2441V39.334H200V39.2441C199.49 39.1843 199.086 38.9691 198.787 38.5984Z" fill="white"/>
<path d="M82.571 36.6575L82.4137 36.534C81.4626 37.702 80.0138 38.4131 78.0672 38.4131C75.9484 38.4131 74.2451 37.5671 72.9571 35.8749C71.6691 34.1829 71.0257 32.1238 71.0257 29.698C71.0257 27.6242 71.4488 26.0556 72.2947 24.9922C73.1407 23.9293 74.2527 23.3975 75.6302 23.3975C76.7606 23.3975 77.6836 23.727 78.3986 24.3859C79.1135 25.0447 79.5289 25.8683 79.6454 26.8566C79.7612 27.8449 79.6433 28.9081 79.2912 30.0461L79.2918 30.0463L79.3187 30.057L79.3199 30.0557L79.3587 30.0686L79.4921 29.8909L83.4441 26.1112L82.9193 25.3293V25.3292C81.6009 23.7195 79.6319 22.9146 77.0116 22.9146C75.7987 22.9146 74.6138 23.0943 73.4572 23.4537C72.3003 23.813 71.2464 24.3297 70.2957 25.0035C69.3449 25.6774 68.5771 26.5666 67.9932 27.6709C67.4094 28.7754 67.1172 30.0012 67.1172 31.349C67.1172 33.7451 67.9725 35.7289 69.6835 37.3012C71.3941 38.8738 73.5824 39.6596 76.248 39.6596C77.8127 39.6596 79.1231 39.3958 80.1787 38.868C81.2343 38.3402 82.0318 37.5187 82.571 36.6575Z" fill="white"/>
<path d="M57.4374 54.149L58.7872 51.0847L60.1371 54.149H57.4374ZM57.9444 49.8975L54.7266 56.9232H56.2478L56.9481 55.3027H60.626L61.3363 56.9232H62.8978L59.6799 49.8975H57.9444Z" fill="white"/>
<path d="M11.9338 31.777C11.5557 31.2868 10.9795 30.8378 10.2052 30.4298C9.43033 30.022 8.50041 29.6946 7.41524 29.4474C5.95589 29.1107 4.85963 28.7009 4.12627 28.2185C3.4516 27.7744 3.08828 27.0944 3.03398 26.179L3.03724 26.1796C2.98993 24.9108 3.82935 23.8447 4.98507 23.468C5.22267 23.4068 5.44619 23.3658 5.67395 23.3446C6.7517 23.2442 8.20121 23.7073 9.21139 24.6877C10.2217 25.6682 10.4798 26.9105 10.2779 28.4147L12.8697 25.1689C11.4176 23.7769 9.26014 22.9028 6.77567 22.9028C4.87431 22.9028 3.35725 23.318 2.22334 24.1489C1.08957 24.9796 0.522535 26.1171 0.522535 27.5616C0.522535 28.7441 0.969559 29.8387 1.86386 30.845C2.75814 31.8518 4.24969 32.5907 6.33749 33.0624C7.85684 33.4142 8.93073 33.7959 9.55962 34.2073C10.1881 34.6191 10.5024 35.2626 10.5024 36.1381C10.5024 36.4601 10.4593 36.778 10.3735 37.0924L10.3717 37.0989C10.2571 37.5146 10.0815 37.7726 9.77812 38.0788C9.65712 38.2012 9.52625 38.3153 9.38715 38.4201C8.47717 39.0229 7.52399 39.0854 6.79604 39.0279C6.07593 38.9712 5.36892 38.7549 4.78552 38.329C2.82002 36.8942 3.06717 34.3065 3.07304 34.1344C3.07345 34.1296 3.10993 33.9976 3.11037 33.9929L0 37.328H0.0226459C1.61383 38.7284 4.09374 39.6398 6.89124 39.6777C10.4977 39.6529 12.0342 37.9451 12.6227 36.3778C12.6247 36.3731 12.6262 36.3682 12.6283 36.3632C12.6356 36.3448 12.642 36.3261 12.6493 36.3078C12.856 35.7788 12.961 35.2028 12.961 34.5777C12.961 34.0914 12.8843 33.6256 12.731 33.1803C12.5775 32.735 12.3115 32.2673 11.9338 31.777Z" fill="white"/>
<path d="M140.605 55.3988L138.027 49.8975H136.262V56.9232H137.615V51.8895L139.992 56.9232H141.148L143.524 51.8475V56.9232H144.898V49.8975H143.173L140.605 55.3988Z" fill="white"/>
<path d="M134.909 33.9929L131.799 37.328H131.821C133.413 38.7284 135.892 39.6398 138.69 39.6777C142.296 39.6529 143.833 37.9451 144.421 36.3778C144.423 36.3731 144.425 36.3682 144.427 36.3632C144.434 36.3448 144.441 36.3261 144.448 36.3078C144.655 35.7788 144.76 35.2028 144.76 34.5777C144.76 34.0914 144.683 33.6256 144.53 33.1803C144.376 32.735 144.11 32.2673 143.733 31.777C143.354 31.2868 142.778 30.8378 142.004 30.4298C141.229 30.022 140.299 29.6946 139.214 29.4474C137.755 29.1107 136.658 28.7009 135.925 28.2185C135.25 27.7744 134.887 27.0944 134.833 26.179L134.836 26.1796C134.789 24.9108 135.628 23.8447 136.784 23.468C137.021 23.4068 137.245 23.3658 137.473 23.3446C138.55 23.2442 140 23.7073 141.01 24.6877C142.02 25.6682 142.279 26.9105 142.077 28.4147L144.669 25.1689C143.217 23.7769 141.059 22.9028 138.574 22.9028C136.673 22.9028 135.156 23.318 134.022 24.1489C132.888 24.9796 132.321 26.1171 132.321 27.5616C132.321 28.7441 132.768 29.8387 133.662 30.845C134.557 31.8518 136.048 32.5907 138.136 33.0624C139.656 33.4142 140.729 33.7959 141.358 34.2073C141.987 34.6191 142.301 35.2626 142.301 36.1381C142.301 36.4601 142.258 36.778 142.172 37.0924L142.171 37.0989C142.056 37.5146 141.88 37.7726 141.577 38.0788C141.456 38.2012 141.325 38.3153 141.186 38.4201C140.276 39.0229 139.323 39.0854 138.595 39.0279C137.875 38.9712 137.168 38.7549 136.584 38.329C134.619 36.8942 134.866 34.3065 134.872 34.1344C134.872 34.1296 134.909 33.9976 134.909 33.9929Z" fill="white"/>
<path d="M26.3462 30.0463L26.3734 30.057L26.3748 30.0557L26.4134 30.0686L26.5471 29.8909L30.4991 26.1112L29.9739 25.3293V25.3292C28.6559 23.7195 26.6869 22.9146 24.0663 22.9146C22.8534 22.9146 21.6687 23.0943 20.5119 23.4537C19.355 23.813 18.3008 24.3297 17.3503 25.0035C16.3995 25.6774 15.6318 26.5666 15.0479 27.6709C14.4638 28.7754 14.1719 30.0012 14.1719 31.349C14.1719 33.7451 15.0272 35.7289 16.7379 37.3012C18.4488 38.8738 20.6371 39.6596 23.3026 39.6596C24.8673 39.6596 26.1775 39.3958 27.2334 38.868C28.289 38.3402 29.0865 37.5187 29.6257 36.6575L29.4683 36.534C28.5172 37.702 27.0687 38.4131 25.1219 38.4131C23.0028 38.4131 21.2998 37.5671 20.0118 35.8749C18.7241 34.1829 18.0804 32.1238 18.0804 29.698C18.0804 27.6242 18.5031 26.0556 19.3494 24.9922C20.1954 23.9293 21.3073 23.3975 22.6849 23.3975C23.8153 23.3975 24.7383 23.727 25.4532 24.3859C26.1684 25.0447 26.5835 25.8683 26.7 26.8566C26.8159 27.8449 26.698 28.9081 26.3462 30.0461V30.0463Z" fill="white"/>
<path d="M44.1399 37.56C43.38 38.7242 42.3711 39.3063 41.1133 39.3063C39.945 39.3063 38.8818 38.8234 37.9237 37.8575C36.965 36.8915 36.2297 35.6806 35.7168 34.2243C35.2039 32.7681 34.9476 31.265 34.9476 29.715C34.9476 27.8134 35.3273 26.2841 36.0875 25.1272C36.8471 23.9705 37.8563 23.3921 39.1139 23.3921C40.2746 23.3921 41.3339 23.875 42.2926 24.8408C43.2507 25.8067 43.9884 27.0179 44.5048 28.4741C45.0215 29.9304 45.2799 31.4261 45.2799 32.9608C45.2799 34.8627 44.8998 36.3958 44.1399 37.56ZM46.5658 25.2508C44.8776 23.7346 42.7305 22.9766 40.1248 22.9766C37.5042 22.9766 35.3498 23.7346 33.6616 25.2508C31.9732 26.767 31.1289 28.7981 31.1289 31.3435C31.1289 33.8892 31.9732 35.922 33.6616 37.4418C35.3498 38.9618 37.5042 39.7217 40.1248 39.7217C42.7305 39.7217 44.8776 38.9618 46.5658 37.4418C48.254 35.922 49.0985 33.8892 49.0985 31.3435C49.0985 28.7981 48.254 26.767 46.5658 25.2508Z" fill="white"/>
<path d="M178.116 37.3616C177.343 38.3821 176.232 38.8921 174.784 38.8921C173.422 38.8921 171.875 38.4758 171.054 38.0537C170.682 37.8625 170.45 37.4786 170.45 37.0603L170.477 23.561H172.791C174.945 23.561 176.564 24.3265 177.648 25.8572C178.733 27.3881 179.275 29.497 179.275 32.1833C179.275 34.6149 178.888 36.341 178.116 37.3616ZM180.705 25.1874C179.121 23.8555 176.791 23.1895 173.714 23.1895H165.107V23.3133C166.271 23.4484 166.853 23.8463 166.853 24.5065V37.5528C166.86 38.2356 166.278 38.7911 165.107 39.2188V39.3315H173.253C176.194 39.3315 178.568 38.5847 180.373 37.0915C182.177 35.5981 183.08 33.5155 183.08 30.8439C183.08 28.4052 182.288 26.5196 180.705 25.1874Z" fill="white"/>
<path d="M159.376 37.56C158.616 38.7242 157.607 39.3063 156.35 39.3063C155.182 39.3063 154.118 38.8234 153.16 37.8575C152.202 36.8915 151.466 35.6806 150.953 34.2243C150.44 32.7681 150.184 31.265 150.184 29.715C150.184 27.8134 150.564 26.2841 151.324 25.1272C152.084 23.9705 153.093 23.3921 154.35 23.3921C155.511 23.3921 156.57 23.875 157.529 24.8408C158.487 25.8067 159.225 27.0179 159.741 28.4741C160.258 29.9304 160.516 31.4261 160.516 32.9608C160.516 34.8627 160.136 36.3958 159.376 37.56ZM161.802 25.2508C160.114 23.7346 157.967 22.9766 155.361 22.9766C152.741 22.9766 150.586 23.7346 148.898 25.2508C147.209 26.767 146.365 28.7981 146.365 31.3435C146.365 33.8892 147.209 35.922 148.898 37.4418C150.586 38.9618 152.741 39.7217 155.361 39.7217C157.967 39.7217 160.114 38.9618 161.802 37.4418C163.49 35.922 164.335 33.8892 164.335 31.3435C164.335 28.7981 163.49 26.767 161.802 25.2508Z" fill="white"/>
<path d="M120.912 55.1252C120.46 55.5132 119.782 55.7096 118.898 55.7096H117.319V51.111H119.038C120.737 51.111 121.598 51.8814 121.598 53.4002C121.598 54.1549 121.367 54.7352 120.912 55.1252ZM122.077 50.7989C121.374 50.2008 120.335 49.8975 118.988 49.8975H115.846V56.9232H118.828C120.201 56.9232 121.275 56.6146 122.017 56.0062C122.757 55.4005 123.132 54.5271 123.132 53.4102C123.132 52.2731 122.777 51.3947 122.077 50.7989Z" fill="white"/>
<path d="M83.9069 53.57C83.5104 53.2287 82.8737 52.9859 82.0149 52.8481L80.5448 52.6183C80.0453 52.543 79.709 52.4452 79.5163 52.3194C79.3164 52.1883 79.2148 51.9834 79.2148 51.7101C79.2148 51.42 79.3777 51.1967 79.6988 51.0472C80.0053 50.9042 80.4511 50.8315 81.0238 50.8315C81.5315 50.8315 81.9346 50.9097 82.2219 51.0635C82.5015 51.2133 82.7164 51.4568 82.8612 51.7872L84.3024 51.6199C84.1343 50.9774 83.7953 50.4981 83.2947 50.1945C82.7727 49.878 82.0222 49.7178 81.0638 49.7178C80.3667 49.7178 79.7586 49.8027 79.2568 49.97C78.7591 50.1358 78.3758 50.3737 78.1174 50.6776C77.8611 50.9786 77.7312 51.3397 77.7312 51.7501C77.7312 52.362 77.9508 52.8428 78.3837 53.1797C78.8239 53.5218 79.533 53.7621 80.4916 53.8932L81.6923 54.0631C82.1264 54.1244 82.4499 54.2286 82.6533 54.3737C82.8653 54.5246 82.973 54.7356 82.973 55.0013C82.973 55.3303 82.8127 55.5813 82.4966 55.7483C82.193 55.9089 81.7379 55.99 81.1438 55.99C80.4817 55.99 79.9761 55.8774 79.6413 55.6552C79.3132 55.4377 79.1088 55.0962 79.0332 54.6396H77.5371C77.5952 55.1849 77.7558 55.6415 78.015 55.9973C78.2836 56.3663 78.6782 56.6454 79.1879 56.827C79.7026 57.0106 80.3606 57.1037 81.1438 57.1037C82.2213 57.1037 83.0603 56.9134 83.638 56.538C84.2078 56.1678 84.4968 55.6409 84.4968 54.9715C84.4968 54.3786 84.2983 53.9072 83.9069 53.57Z" fill="white"/>
<path d="M127.945 54.149L129.295 51.0847L130.645 54.149H127.945ZM128.452 49.8975L125.234 56.9232H126.756L127.456 55.3027H131.134L131.844 56.9232H133.406L130.188 49.8975H128.452Z" fill="white"/>
<path d="M94.9472 39.2217V39.3341H102.056V39.2217C100.888 39.0796 100.304 38.6791 100.304 38.0199V24.5431C100.304 23.8843 100.888 23.4873 102.056 23.3526V23.229H94.9472V23.3526C96.1076 23.4873 96.6879 23.8843 96.6879 24.5431V31.1917H89.2418V24.5431C89.2418 23.8843 89.8257 23.4873 90.994 23.3526V23.229H83.8848V23.3526C85.0452 23.4873 85.6255 23.8843 85.6255 24.5431V38.0199C85.6328 38.6867 85.0527 39.0872 83.8848 39.2217V39.3341H90.994V39.2217C89.8257 39.0796 89.2418 38.6791 89.2418 38.0199V31.5849H96.6879V38.0199C96.6955 38.6867 96.1152 39.0872 94.9472 39.2217Z" fill="white"/>
<path d="M86.957 51.111H89.758V56.9232H91.2416V51.111H94.0426V49.8975H86.957V51.111Z" fill="white"/>
<path d="M110.692 52.8841C110.434 53.0528 110.031 53.1387 109.495 53.1387H107.586V51.0112H109.515C110.072 51.0112 110.463 51.0894 110.712 51.2505C110.965 51.4149 111.094 51.6872 111.094 52.0597C111.094 52.4328 110.959 52.7098 110.692 52.8841ZM111.224 53.9663C111.671 53.7914 112.007 53.5459 112.223 53.2371C112.438 52.9282 112.548 52.5356 112.548 52.0699C112.548 50.608 111.588 49.8975 109.615 49.8975H106.162V56.9232H107.586V54.2524H109.769L111.329 56.9232H112.942L111.16 53.9914L111.224 53.9663Z" fill="white"/>
<path d="M98.3491 53.9021H102.521V52.7087H98.3491V51.0911H102.731V49.8975H96.8652V56.9232H102.759L102.941 55.7295H98.3491V53.9021Z" fill="white"/>
<path d="M124.728 37.7323C124.456 38.3355 123.91 38.7929 123.229 38.966C122.483 39.1558 121.756 38.9173 121.154 38.4257C120.416 37.8234 119.738 36.8694 119.213 35.7788L121.685 32.9561C123.856 34.5213 125.24 36.3708 124.728 37.7323ZM116.62 37.1625C115.473 38.3906 114.224 38.9596 113.463 39.1674C113.262 39.2255 113.069 39.2644 112.886 39.2892C112.857 39.2933 112.83 39.2968 112.807 39.2997C112.806 39.2997 112.806 39.2997 112.806 39.2997C112.763 39.3046 112.73 39.3076 112.708 39.3093C111.911 39.3794 111.327 39.1826 111.122 39.1047C109.279 38.3466 107.866 36.4444 107.836 34.268C107.829 33.7798 107.888 33.3235 108.007 32.8944C108.395 31.3263 109.44 30.5231 109.534 30.4535C109.963 30.0893 110.525 29.9147 111.216 29.9147C112.952 29.9147 113.95 31.9326 115.085 34.2781C115.58 35.229 115.914 35.9259 116.26 36.5255C116.275 36.5512 116.29 36.5766 116.305 36.6017L116.621 37.1564C116.619 37.1578 116.618 37.1593 116.616 37.1608L116.62 37.1625ZM126.333 34.0589C126.131 32.6344 125.589 31.4255 124.049 30.2163L125.718 28.2987L126.056 27.8966L125.88 27.8268L123.715 29.9703C123.285 29.6709 122.903 29.4631 122.366 29.2328C122.372 29.2299 121.987 29.0841 121.852 29.022C121.852 29.022 116.89 27.2258 116.038 26.6394C115.936 26.5685 115.845 26.4934 115.764 26.4146L115.764 26.4145C115.367 26.0011 115.237 25.491 115.307 24.9523C115.342 24.5416 115.538 24.1492 115.869 23.8358C116.294 23.4199 116.982 23.15 117.763 23.15C119.07 23.15 120.129 23.9441 120.143 24.8774C120.147 25.1935 120.031 25.4848 119.825 25.732L119.825 25.7321C119.824 25.7338 119.822 25.7354 119.821 25.737C119.775 25.7911 119.725 25.8433 119.671 25.893C119.089 26.4568 118.209 26.7187 117.877 26.8716C118.334 27.0555 119.822 27.6462 120.332 27.8556C121.711 26.8408 121.398 24.7574 120.035 23.7071C119.428 23.2039 118.617 22.896 117.732 22.896C117.397 22.896 117.07 22.9396 116.761 23.024C116.76 23.0243 116.759 23.0246 116.757 23.025C116.739 23.03 116.721 23.0351 116.703 23.0404C116.694 23.0431 116.684 23.0457 116.675 23.0485C116.66 23.0531 116.645 23.0579 116.629 23.0628C116.622 23.065 116.614 23.0675 116.607 23.0699C115.34 23.4798 114.291 24.6714 114.326 26.3093C114.326 26.3325 114.327 26.3557 114.328 26.379C114.328 26.3791 114.328 26.3794 114.328 26.3795C114.329 26.4068 114.33 26.434 114.332 26.4611C114.332 26.4679 114.332 26.4746 114.333 26.4815H114.333C114.366 26.9674 114.498 27.4232 114.706 27.8125C115.155 28.6505 116.103 29.9959 119.24 31.5781C119.88 31.9008 120.475 32.2046 121.048 32.5749L118.707 34.9126L118.575 34.6318L118.066 33.5868C116.788 31.0768 115.134 28.9191 112.506 28.9191C111.364 28.9191 110.338 29.2812 109.533 29.9456L109.42 30.0384C108.204 31.0765 107.54 32.6222 107.563 34.268C107.605 37.265 110.072 39.7399 112.953 39.7399C113.269 39.7399 113.58 39.7104 113.882 39.6541L113.881 39.6547C113.893 39.6526 113.903 39.6503 113.914 39.6482C113.935 39.6445 113.956 39.6404 113.977 39.636C115.587 39.3242 116.714 38.4773 117.202 38.0506C117.324 38.2015 117.453 38.341 117.573 38.4426C118.163 38.9473 119.366 39.6372 121.001 39.6666C121.085 39.6719 121.169 39.6751 121.255 39.6754C121.962 39.7002 122.757 39.5659 123.618 39.159C123.771 39.0918 123.924 39.0127 124.075 38.9208C124.076 38.9199 124.078 38.9187 124.08 38.9179L124.08 38.9176C124.219 38.832 124.355 38.7357 124.486 38.6259C125.901 37.453 126.616 35.8416 126.333 34.0589Z" fill="white"/>
</svg>
