<svg width="200" height="80" viewBox="0 0 200 80" fill="none" xmlns="http://www.w3.org/2000/svg">
<path d="M0 51.5815V6.32238H8.36527V28.7853L39.6267 6.32238H50.9582L24.4959 24.6526L52.0913 51.5815H41.0932L18.6636 28.6853L8.36527 35.9174V51.5815H0Z" fill="white"/>
<path d="M68.8219 6.32238H60.4899V51.6148H68.8219V6.32238Z" fill="white"/>
<path d="M83.1862 51.5815V6.32238H91.5181V28.7853L122.813 6.32238H134.111L107.682 24.6526L135.277 51.5815H124.279L101.85 28.6853L91.5181 35.9174V51.5815H83.1862Z" fill="white"/>
<path d="M148.309 29.6518C148.309 35.1175 150.342 39.4168 154.408 42.5496C158.507 45.6824 163.639 47.2488 169.805 47.2488C176.071 47.2488 181.236 45.6491 185.269 42.483C189.335 39.3168 191.368 34.8176 191.368 28.9852C191.368 25.3192 190.502 22.0864 188.735 19.3535C187.002 16.5873 184.469 14.4543 181.136 12.9546C177.804 11.4215 174.071 10.6549 169.905 10.6549C164.006 10.6549 158.907 12.1214 154.641 15.0542C150.408 17.9537 148.309 22.8196 148.309 29.6518ZM139.71 29.5518C139.71 22.0197 142.51 16.154 148.142 11.9214C153.774 7.65544 161.007 5.52246 169.905 5.52246C175.737 5.52246 180.97 6.52229 185.636 8.52196C190.302 10.5216 193.868 13.2878 196.301 16.8872C198.767 20.4533 200 24.486 200 29.0185C200 33.6178 198.7 37.7171 196.134 41.3498C193.568 44.9825 189.902 47.7154 185.169 49.5818C180.437 51.4481 175.337 52.3813 169.872 52.3813C163.939 52.3813 158.64 51.3481 153.974 49.2818C149.308 47.2155 145.776 44.416 143.376 40.8499C140.91 37.2838 139.71 33.5178 139.71 29.5518Z" fill="white"/>
<path d="M66.189 64.0793L63.2228 70.7449L60.3899 64.0793H58.157L55.9907 74.311H58.3236L59.7567 67.7787L62.6895 74.311H63.756L66.7555 67.6788L68.1886 74.311H70.5216L68.4219 64.0793H66.189Z" fill="white"/>
<path d="M90.4849 64.0793H88.2186V74.311H95.5507V72.278H90.4849V64.0793Z" fill="white"/>
<path d="M79.8534 64.0793H77.6204V74.311H79.8534V64.0793Z" fill="white"/>
<path d="M126.046 70.3783L121.246 64.0793H119.18V74.311H121.413V67.8121L126.379 74.311H128.279V64.0793H126.046V70.3783Z" fill="white"/>
<path d="M106.049 64.0127L101.65 74.311H103.916L104.883 72.0114H109.215L110.148 74.311H112.481L108.115 64.0127H106.049ZM105.716 70.045L107.082 66.7122L108.449 70.045H105.716Z" fill="white"/>
<path d="M140.41 63.9127C137.277 63.9127 134.978 66.279 134.978 69.1785V69.2118C134.978 72.1113 137.21 74.4776 140.377 74.4776C143.543 74.4776 145.842 72.1113 145.842 69.1785V69.1452C145.842 66.279 143.609 63.9127 140.41 63.9127ZM143.509 69.2452C143.509 71.0115 142.243 72.4113 140.41 72.4113C138.61 72.4113 137.344 70.9782 137.344 69.2118V69.1785C137.344 67.4121 138.61 66.0124 140.41 66.0124C142.21 66.0124 143.509 67.4454 143.509 69.2452Z" fill="white"/>
</svg>
