<svg width="200" height="80" viewBox="0 0 200 80" fill="none" xmlns="http://www.w3.org/2000/svg">
<path d="M62.8279 36.6552H53.9227V28.166H49.4966V51.8299H53.9227V40.6789H62.8279V51.8299H67.2535V28.166H62.8279V36.6552Z" fill="white"/>
<path d="M110.133 51.8401V28.1565H114.346L114.35 47.5877L114.196 47.8048H122.283C124.469 47.8048 125.336 47.6473 126.196 47.0556V51.8401H110.133Z" fill="white"/>
<path d="M0.00712353 42.846C-0.0893155 46.0017 0.798326 48.5501 2.37316 50.2385C3.71422 51.6725 5.81215 52.398 8.04943 52.398C12.4341 52.398 14.6638 49.4059 15.4939 48.1123V28.1009H11.2764V43.0313C11.2764 47.11 9.7616 48.2678 7.70659 48.2678C6.72352 48.2678 5.80255 47.7785 5.28754 47.1969C4.14744 45.9033 3.74906 44.2482 4.06463 41.3767L4.15653 40.485L0.00712353 42.846Z" fill="white"/>
<path d="M24.747 48.9898C22.8031 46.6586 21.815 43.6488 21.815 39.9998C21.815 36.3785 22.8031 33.3409 24.7753 30.9764C26.6334 28.7396 29.1973 27.6016 32.3803 27.6016C35.5638 27.6016 38.098 28.7396 39.9571 30.9764C41.9303 33.3415 42.9452 36.3785 42.9452 40.0276C42.9452 43.6488 41.9303 46.6586 39.9869 48.9898C38.0697 51.2897 35.5638 52.394 32.3803 52.394C29.1973 52.3945 26.6622 51.2897 24.747 48.9898ZM38.5206 40.1361C38.5206 34.7476 35.9122 31.6 32.3808 31.6C28.8792 31.6 26.2421 34.7476 26.2421 40.0316C26.2421 45.2858 28.8484 48.396 32.3808 48.396C35.8814 48.3965 38.5206 45.2171 38.5206 40.1361Z" fill="white"/>
<path d="M132.996 48.9898C131.051 46.6586 130.065 43.6488 130.065 39.9998C130.065 36.3785 131.051 33.3409 133.023 30.9764C134.885 28.7396 137.449 27.6016 140.628 27.6016C143.815 27.6016 146.348 28.7396 148.206 30.9764C150.182 33.3415 151.196 36.3785 151.196 40.0276C151.196 43.6488 150.182 46.6586 148.238 48.9898C146.321 51.2897 143.816 52.394 140.629 52.394C137.45 52.3945 134.913 51.2897 132.996 48.9898ZM146.771 40.1361C146.771 34.7476 144.164 31.6 140.629 31.6C137.13 31.6 134.492 34.7476 134.492 40.0316C134.492 45.2858 137.099 48.396 140.629 48.396C144.132 48.3965 146.771 45.2171 146.771 40.1361Z" fill="white"/>
<path d="M171.768 38.6593L171.492 38.5628L171.784 38.4664C173.669 37.8923 174.553 35.4526 174.213 33.293C173.677 29.8692 171.168 28.157 165.527 28.157H157.682V51.8406H166.948C172.735 51.8406 175.678 49.5529 175.678 44.8369C175.678 41.2308 173.776 39.3318 171.768 38.6593ZM161.895 31.8606H166.191C168.345 31.8606 169.982 32.3438 169.982 34.2963V34.3003C169.982 36.2529 168.345 36.7361 166.191 36.7361L161.895 36.7381V31.8606ZM166.522 48.1361H161.895V40.4775H165.836C169.039 40.4775 171 41.7085 171 44.225C170.999 47.5069 168.632 48.1361 166.522 48.1361Z" fill="white"/>
<path d="M88.4482 43.8245V28.1544H92.7703L92.7678 51.834H88.4482L79.692 36.9885L79.332 36.1503L79.335 51.8421H75.0119V28.1544H79.334L88.0892 42.9864L88.4482 43.8245Z" fill="white"/>
<path d="M196.091 38.6593L195.815 38.5628L196.107 38.4664C197.992 37.8923 198.876 35.4526 198.536 33.293C198 29.8692 195.491 28.157 189.846 28.157H182.004V51.8406H191.266C197.057 51.8406 200 49.5529 200 44.8369C200 41.2308 198.099 39.3318 196.091 38.6593ZM186.218 31.8606H190.514C192.664 31.8606 194.305 32.3438 194.305 34.2963V34.3003C194.305 36.2529 192.664 36.7361 190.514 36.7361L186.218 36.7381V31.8606ZM190.841 48.1361H186.218V40.4775H190.159C193.362 40.4775 195.318 41.7085 195.318 44.225C195.318 47.5069 192.951 48.1361 190.841 48.1361Z" fill="white"/>
</svg>
