<svg width="164" height="80" viewBox="0 0 164 80" fill="none" xmlns="http://www.w3.org/2000/svg">
<path d="M24.4335 41.0945H19.451V27.0216H24.4335C30.02 27.0216 32.3742 29.1571 32.3742 33.9759C32.3742 38.849 29.9649 41.0945 24.4335 41.0945ZM24.8174 20.8325H12.6055V59.1667H19.451V47.2837H24.8174C33.6333 47.2837 39.4936 41.861 39.4936 33.5933C39.4936 25.5975 33.9622 20.8325 24.8174 20.8325Z" fill="white"/>
<path d="M0 59.1667H6.84549V20.8325H0V59.1667Z" fill="white"/>
<path d="M42.7793 59.1667H68.1883V52.9789H49.6236V42.5187H66.8192V36.3315H49.6236V27.0216H68.1883V20.8325H42.7793V59.1667Z" fill="white"/>
<path d="M128.371 20.8325L117.118 36.6668L105.865 20.8325H102.195H93.7077L79.9612 36.6744V20.8325H73.1172V59.1667H79.9612V46.6017L84.442 41.408L97.4857 59.1667H106.085L88.839 36.3136L99.5738 23.8701L113.75 42.9793V59.1667H120.596V42.8935L136.915 20.8325H128.371Z" fill="white"/>
<path d="M152.785 53.6904C145.283 53.6904 139.862 47.8314 139.862 39.9995C139.862 32.1694 145.283 26.3091 152.785 26.3091C160.233 26.3091 165.655 32.1694 165.655 39.9995C165.655 47.8314 160.233 53.6904 152.785 53.6904ZM152.785 20.0112C141.449 20.0112 132.742 28.7184 132.742 39.9995C132.742 51.2811 141.449 59.9883 152.785 59.9883C164.067 59.9883 172.774 51.2811 172.774 39.9995C172.774 28.7184 164.067 20.0112 152.785 20.0112Z" fill="white"/>
</svg>
