<svg width="200" height="80" viewBox="0 0 200 80" fill="none" xmlns="http://www.w3.org/2000/svg">
<path d="M2.25054 39.009C3.65041 38.9423 5.15028 41.1754 6.21685 39.3756C6.55015 38.8423 6.65014 34.976 6.55015 32.7762C6.41683 29.4098 6.65014 28.4433 9.28323 26.3435C11.683 24.477 13.8161 22.8104 16.2826 21.4772C16.8492 21.2772 17.4491 21.4439 17.7824 21.7439C18.1491 22.0438 18.3157 22.6771 17.7491 23.3104C15.7826 25.2769 14.0495 26.3101 12.0496 27.8766C11.3164 28.4432 10.2165 29.2432 9.98317 30.2098C9.81651 34.7093 11.8163 40.4421 7.01677 43.5752C4.71698 44.6418 2.05056 43.7752 0.350718 42.0753C0.0174151 41.742 -0.115906 41.2087 0.117406 40.8088C0.68402 40.1088 1.3173 39.1756 2.25054 39.009Z" fill="white"/>
<path d="M27.9149 44.9751C27.1149 45.775 25.8484 45.9416 25.7151 45.875C25.4817 45.775 25.4484 45.7083 25.3484 45.5417C25.2484 45.4083 24.9485 44.7417 24.7151 44.2751C24.2152 43.1419 23.9819 41.942 23.5486 40.7088C23.5486 40.7088 23.5153 40.6088 23.4486 40.5421C23.4153 40.4755 23.3153 40.4755 23.2153 40.5755C21.8154 41.842 20.4822 43.3419 18.7824 44.0085C18.0824 44.1418 17.5825 43.6418 17.2825 43.1086C17.0825 42.7419 16.7825 41.9753 16.6159 42.142C15.016 43.1752 12.9496 44.8751 10.9497 43.4419C9.94984 42.6419 10.2831 41.0754 10.6498 40.1755C11.7163 37.5757 13.3495 35.6759 16.1826 34.4094C16.8159 34.1094 17.8491 34.1094 18.3157 34.4094C20.0156 35.7426 19.2157 38.009 19.5156 39.7755C19.7823 40.1422 20.2489 40.2755 20.7155 40.0089C21.5821 39.4089 22.782 38.609 23.182 38.0424C23.1153 32.0762 24.3152 26.3434 29.0147 22.3771C29.5147 21.9772 30.2146 22.0105 30.5146 22.2771C31.9478 23.5104 32.1811 26.1435 31.5145 28.6099C30.5479 31.8763 28.7148 34.9426 26.415 37.6091C26.3483 39.9422 27.3816 42.0087 28.1815 44.3085C28.3148 44.7417 28.0815 44.8084 27.9149 44.9751ZM13.6162 40.4755C13.6828 40.8421 14.0828 41.1421 14.4828 41.1421C15.6826 40.8754 16.4826 39.7089 16.8825 38.6423C17.0159 38.0757 17.3158 37.1758 16.8159 36.6092C16.5492 36.4758 16.2826 36.5092 15.916 36.7425C14.5161 37.6091 13.5828 38.8756 13.6162 40.4755ZM26.4816 31.2763C26.4483 31.8763 26.2483 32.8762 26.415 33.3761C27.5815 32.4095 28.1482 31.0763 28.8814 29.6765C29.448 28.4099 30.0813 26.2101 29.1481 25.2769C28.8814 25.1102 28.3815 25.6102 28.2148 25.9435C27.2482 27.61 26.7816 29.4432 26.4816 31.2763Z" fill="white"/>
<path d="M30.9146 43.6085C30.0147 41.0754 29.1481 37.3758 29.1147 36.5425C29.0814 35.6759 29.8147 35.0426 30.4813 34.576C30.8812 34.376 31.4479 34.0094 31.8145 34.3094C32.2478 34.6093 32.6478 37.3424 33.1477 38.9089C33.2144 39.0756 33.381 38.9756 33.6143 38.709C35.7808 36.6758 37.7139 32.4762 41.2803 34.0761C42.7468 34.676 44.9133 32.8428 45.9132 34.776C46.8131 36.5425 45.5132 38.8423 46.5131 40.7421C46.8131 42.0087 49.6129 40.8088 48.313 42.3753C47.3464 43.4419 46.0799 44.1085 44.68 43.6418C43.9467 43.4419 43.4801 42.242 42.8801 42.5086C41.5136 43.4419 39.7804 44.4084 38.1139 43.6418C37.6473 43.3085 37.2807 42.8419 37.314 42.2086C37.4473 39.6755 38.4472 38.009 39.5471 36.5425C39.6138 36.4425 39.7138 36.2759 39.6138 36.1759C39.3138 35.9092 38.9138 36.1759 38.5805 36.4092C36.1141 38.509 34.2809 41.2087 32.1811 43.6418C31.8812 43.9418 31.7478 44.0418 31.3812 44.0085C31.1479 43.9418 31.0479 43.8085 30.9146 43.6085ZM40.447 40.2755C40.6137 40.5755 41.0136 40.7088 41.3803 40.6088C42.7135 40.0422 43.5468 38.609 43.7467 37.2091C43.7467 36.8091 43.4801 36.4758 43.0468 36.4758C41.5469 36.9758 40.3137 38.6423 40.447 40.2755Z" fill="white"/>
<path d="M58.4454 36.1425C58.3121 35.8759 57.8788 35.9426 57.5788 35.8759C56.1456 35.8426 56.0123 35.3426 55.579 36.7092C54.6791 38.8756 54.0458 41.1754 52.6459 43.1419C52.3126 43.5752 51.7793 43.7085 51.2794 43.5419C50.3128 43.1086 49.9462 42.1087 49.5795 41.2421C48.8129 38.7756 47.8464 36.4092 47.3797 33.8094C47.3131 33.1095 47.4464 32.0096 48.3796 31.643C49.5795 31.2097 52.5126 32.4429 54.0125 32.7095C54.1124 32.7429 54.2458 32.6429 54.4791 31.7763C55.0457 28.8099 55.7456 25.8435 56.1456 22.7771C56.2789 22.3438 56.6122 22.0438 57.0788 21.9772C57.7788 22.0105 58.4454 22.2438 58.8787 22.7771C59.0453 22.9771 59.0453 23.3771 59.0453 23.6104C58.812 26.8101 57.7788 29.9098 57.0122 33.0095C56.8789 33.5761 57.6455 33.6094 58.2121 33.7094C60.7785 34.376 62.645 33.6428 64.9448 32.9762C65.5781 32.8095 65.9447 32.6095 66.3113 32.9095C67.4446 33.9094 69.0111 33.4428 69.3111 34.876C69.711 36.6758 69.4777 39.1423 70.8776 40.1088C71.3109 40.3422 71.7108 40.0422 72.0108 39.8755C72.7774 39.3422 72.0108 39.4422 72.5441 37.2424C72.8774 35.7092 74.0439 34.1094 75.6105 33.5428C76.4771 33.2428 77.477 33.2428 78.3769 33.5428C79.5101 34.1761 80.0434 35.3759 79.8767 36.6758C79.5434 38.8423 77.7103 39.0089 76.577 40.0422C76.5104 40.3755 76.877 40.7754 77.2437 40.8754C79.5101 41.442 82.7098 39.2756 85.0429 41.3754C85.5762 41.842 84.5097 42.8086 84.243 43.0752C84.0764 43.2086 83.8764 43.1752 83.743 43.1419C82.7765 42.7753 81.3766 42.1087 80.1101 42.6753C78.3436 43.3752 76.0104 44.5084 74.2439 43.0086C73.6773 42.7086 73.544 41.7754 72.8441 42.042C71.5442 42.6419 69.5777 44.1751 68.6111 43.2419C66.8113 41.1087 67.2779 38.1757 66.0447 35.8092C65.778 35.4426 65.2448 35.2093 64.9115 35.4093C64.5448 35.6426 65.3114 36.3092 65.2781 37.3758C65.4114 39.7089 64.1115 42.142 61.7784 43.1752C60.6785 43.7752 58.8787 43.7085 57.8788 42.9419C56.7455 41.942 56.6122 40.2422 57.0122 38.9423C57.3455 38.0757 57.7788 37.2758 58.3454 36.4758C58.4121 36.4092 58.4787 36.2759 58.4454 36.1425ZM50.9127 38.0424C50.9461 38.3757 51.0794 38.6423 51.1794 38.9756C51.246 39.2089 51.446 39.8089 51.6793 39.8755C51.8127 39.9089 51.8793 39.8422 52.046 39.5756C52.6792 38.4757 52.9792 37.4758 53.2459 36.0092C53.2792 35.7426 53.2125 35.6759 53.0792 35.5759C52.246 35.076 51.446 34.9093 50.4794 34.7093C50.2461 34.6427 50.2128 34.876 50.2461 35.1093C50.2795 35.276 50.3128 35.4426 50.3461 35.5759C50.4128 35.7426 50.7461 36.8091 50.9127 38.0424ZM59.5786 39.7422C59.5786 40.2755 59.7786 40.7421 60.2785 41.0088C60.7118 41.1754 61.1451 41.0088 61.5451 40.8754C62.1117 40.5421 62.6117 40.0088 62.8116 39.3756C62.9783 38.5756 63.145 37.4757 62.4117 36.8758C62.0117 36.6425 61.4784 36.6425 61.0785 36.8758C59.9786 37.4757 59.6786 38.6756 59.5786 39.7422ZM75.4438 38.0424C76.3104 37.8424 77.177 37.3758 77.7103 36.6092C77.9103 36.3092 77.8769 35.6426 77.477 35.3759C77.1437 35.176 76.8104 35.1426 76.4771 35.3093C75.5105 35.8092 75.0105 37.0425 75.4438 38.0424Z" fill="white"/>
<path d="M198.533 33.6094C199.199 33.6094 200.032 34.1427 199.999 35.0093C199.966 35.9092 199.566 36.3759 198.633 36.3425L197.599 36.2425C194.766 35.8426 191.633 35.8426 188.633 35.6759C188.467 35.6759 188.267 35.6759 188.167 35.7426C187.867 36.0092 188.2 35.8092 188.333 37.3424C188.533 39.6422 187.534 41.9753 185.367 43.0086C184.034 43.6419 182.034 43.5752 180.834 42.8086C180.001 42.142 179.668 41.4087 179.468 40.5088C179.334 39.8755 178.768 40.4088 178.501 40.6088C177.034 41.8087 174.568 43.3419 173.801 43.4752C173.268 43.5752 172.935 43.2086 172.768 42.7753C172.535 41.642 173.168 40.7755 173.002 39.8089C172.935 39.6422 172.868 39.7422 172.768 39.8089C171.168 41.2421 169.435 43.8085 167.535 43.4752C166.235 42.5753 167.135 40.9421 166.869 39.6089C166.869 39.4422 166.835 39.2756 166.635 39.4756C165.502 40.3088 164.669 41.2421 163.469 42.0753C162.636 42.6419 160.903 44.2085 159.803 43.3752C159.136 42.8752 159.436 40.6421 159.336 39.8089C159.303 39.7089 159.303 39.5422 159.136 39.6756C157.87 40.7755 156.736 42.6086 155.103 43.2419C154.337 43.3419 153.737 42.7086 153.403 42.1087C153.27 41.9087 153.237 41.642 153.037 41.4421C153.037 41.4087 152.903 41.3754 152.77 41.4421C151.337 42.2753 150.17 43.7752 148.304 43.3085C147.704 43.1419 147.171 42.6753 146.971 42.0753C146.737 41.542 146.937 40.8088 146.604 40.3422C146.537 40.2088 146.404 40.2422 146.304 40.3422C145.404 41.1421 144.537 42.142 143.704 43.0752C142.704 49.008 141.104 55.4741 135.972 58.6738C135.405 58.9071 134.572 59.0404 133.938 58.8071C132.739 58.0739 132.405 56.6407 132.672 55.2408C133.738 51.7411 136.172 48.7747 138.438 45.7417L140.904 42.7753C141.138 42.4753 140.904 42.5753 140.704 42.6419C139.405 43.1086 137.871 43.9085 136.472 43.1086C135.938 42.8753 135.738 41.8087 135.238 42.1087C134.272 42.8086 133.405 43.8418 132.039 43.4085C131.272 43.1752 131.072 42.3753 130.705 41.8087C130.605 41.6754 130.505 41.5754 130.372 41.6754C129.506 42.2087 128.506 43.5419 127.172 43.4085C126.439 43.3752 125.706 43.0419 125.373 42.3753C125.306 42.1087 125.173 41.542 124.906 41.642C123.473 42.3086 123.006 45.175 121.206 44.2751C119.106 42.4086 119.673 39.2756 119.673 36.6425C119.706 36.4425 119.606 36.1425 119.373 36.0759C118.773 35.9426 119.106 36.5425 118.507 38.2757C117.807 40.3755 116.24 43.2086 113.674 43.7085C113.04 43.7418 112.44 43.3419 112.174 42.7753C111.307 41.0421 111.907 38.809 111.907 36.8758C111.907 36.7425 111.84 36.6425 111.774 36.6092C111.707 36.5758 111.607 36.6758 111.574 36.7758C111.274 37.6424 110.907 38.409 110.574 39.3089C109.707 41.2087 107.508 43.2086 105.741 43.5752C103.275 44.0085 100.975 42.8753 99.6083 40.7754C99.3416 40.3755 99.0083 39.0756 99.0083 38.8756C98.9417 38.2757 98.6084 38.1757 98.4417 38.1424C98.3084 38.109 98.5084 38.1424 98.1084 38.0424C96.8752 37.6424 95.6753 37.3424 94.4087 37.2091C94.1754 37.2091 94.0421 37.2758 93.9754 37.4424C92.7422 40.1755 92.109 43.0086 90.8757 45.7417C90.5091 46.3749 89.5759 46.2749 89.0426 46.1416C88.5759 46.0083 88.3093 45.875 87.9427 45.5417C87.7427 45.375 87.776 45.0084 87.876 44.6751C88.376 42.7419 89.1426 41.1421 89.7758 39.1423C89.4425 37.2424 88.4426 35.6426 88.1093 33.7761C88.1093 33.3095 88.4093 32.9428 88.8092 32.8095C89.5759 32.6429 90.1758 32.8428 91.0424 32.9762C91.1424 32.9428 91.2424 32.8762 91.209 32.7429C90.0091 29.4098 89.0092 26.3101 88.4426 22.7104C88.376 22.1438 88.6426 21.5439 89.0759 21.2772C89.2425 21.1439 89.5092 21.0439 89.9425 21.0773C100.542 21.4772 111.374 22.0438 121.606 22.5438C122.406 22.6105 122.673 22.7438 122.439 23.9103C121.94 25.8435 120.24 25.4102 116.773 25.3102C108.407 25.1102 100.142 24.1436 91.9756 23.4104C91.609 23.377 91.1424 23.3104 91.109 23.8103C91.0757 24.1103 91.1424 24.5103 91.209 24.7769C91.609 26.2435 91.9423 27.61 92.9755 28.9765C93.0755 29.0765 93.2088 29.0099 93.2755 28.9432C94.1088 27.9433 94.7754 26.2101 95.8419 25.5435C96.1752 25.3435 96.9418 25.5769 97.1418 26.1435C97.1751 26.3101 97.2418 26.7767 97.1418 27.0767L95.4086 32.9428C95.2753 33.3428 95.442 34.1094 95.9419 34.3094C96.0752 34.376 96.5752 34.576 96.6752 34.6094C96.9752 34.7427 98.7083 35.3093 98.8417 35.3759C99.175 35.4759 99.275 35.3759 99.4416 35.2093C100.741 33.6428 102.175 32.4429 104.274 32.5095C105.474 32.5429 106.474 33.3428 106.974 34.3427C107.374 35.176 107.341 36.2759 106.874 37.0091C106.008 38.609 104.274 39.0423 102.575 38.9756C102.008 39.0423 102.641 39.8089 102.908 40.1088C103.908 41.0088 105.341 41.4754 106.641 40.9421C108.341 40.1088 109.607 38.2757 109.707 36.4758C109.707 36.3092 109.674 36.1759 109.574 36.1092C109.107 35.8092 108.441 35.1426 108.441 34.4094C108.441 33.9094 108.707 33.5095 108.974 33.1095C109.574 32.5762 110.207 32.5095 110.907 32.6762C111.307 32.7762 111.674 33.2428 112.34 33.3095C113.24 33.4095 113.374 33.0095 113.874 32.9762C114.307 32.9428 114.574 33.2428 114.607 33.6094C114.474 35.5759 113.44 37.909 114.507 39.6089C114.74 39.8755 115.107 39.9422 115.407 39.8422C116.573 39.2423 116.94 36.9425 116.54 36.2425C116.073 35.4759 115.373 34.7427 115.74 33.7428C115.973 33.1761 116.307 32.9428 116.807 32.7762C117.973 32.4096 119.106 34.0094 120.54 33.5761C121.373 33.4095 121.94 32.4096 122.873 32.9095C123.039 32.9762 123.373 33.3428 123.173 33.8761C122.506 36.0759 122.14 38.1424 122.406 40.4421C122.473 40.7088 122.739 41.1421 123.106 40.9754C125.406 38.1757 126.506 34.276 130.372 33.1428C132.072 32.7095 132.872 35.3759 133.039 36.6092C133.205 37.8091 133.372 39.2423 134.038 40.0755C134.272 40.3422 135.005 39.6422 135.305 39.1423C136.472 37.2424 137.305 34.7427 139.271 33.4095C139.805 33.1095 142.304 33.3761 143.204 34.7093C143.904 35.6759 144.171 37.6091 144.104 39.1423C144.271 39.5422 144.637 39.2423 144.804 39.1423C147.237 37.1091 149.404 34.1761 152.503 33.3095C153.037 33.1428 153.903 33.4761 154.17 33.8428C155.203 35.376 155.103 37.3758 155.736 39.0756C155.97 39.5089 156.47 39.8089 157.003 39.6089C159.069 37.8757 160.336 34.2427 161.936 33.5761C162.269 33.3761 162.969 33.7094 163.069 34.2094C163.469 36.2092 162.702 38.009 162.502 39.9089C162.502 40.3422 163.069 39.9422 163.336 39.7755C165.636 38.0757 166.669 36.3759 168.335 34.1427C168.802 33.4428 169.335 33.0095 169.968 33.5428C170.802 34.5094 170.302 36.7092 170.235 37.1758L169.668 40.0422C169.735 40.2755 170.135 40.0755 170.335 39.9422C172.802 38.1424 173.735 35.0093 176.068 33.8428C176.601 33.5428 177.201 33.8094 177.468 34.3094C177.901 35.176 176.601 38.0757 176.368 39.8755C176.335 40.0089 176.435 40.0755 176.401 40.0755C176.701 40.1755 177.701 39.4089 178.301 38.9756C181.334 36.9758 183.367 33.2761 187.6 33.6094H198.533ZM102.475 35.7426C102.108 36.2092 102.175 36.8425 102.808 36.8758C103.508 37.0425 104.241 36.9091 104.808 36.4758C105.008 36.3092 105.374 35.7759 105.141 35.3093C104.908 34.9093 104.541 34.576 103.908 34.7093C103.275 34.876 102.841 35.276 102.475 35.7426ZM127.706 38.309C127.606 38.8756 127.406 39.4422 128.039 39.8755C128.739 40.2088 129.439 39.6422 129.772 39.3089C130.339 38.609 130.639 37.7757 130.472 36.8091C130.405 36.3759 130.139 35.7759 129.506 36.0425C128.572 36.5758 128.039 37.3091 127.706 38.309ZM139.838 47.4082C138.071 49.4413 136.538 51.4745 135.605 53.7743C135.472 54.1076 135.172 54.5408 135.472 54.9075C135.938 55.2075 136.405 54.6742 136.805 54.3742C138.771 52.4744 139.971 49.9079 140.205 47.2748C140.171 47.0749 140.005 47.2082 139.838 47.4082ZM138.938 37.4091C138.505 38.5423 137.938 40.0755 139.005 41.1421C139.338 41.3421 139.905 41.3421 140.238 41.1421C141.771 40.2422 141.438 38.4757 141.304 37.0758C141.204 36.5758 140.904 36.0092 140.305 36.1092C139.771 36.2092 139.205 36.8425 138.938 37.4091ZM149.837 38.0424C149.637 38.6423 149.77 39.6422 150.404 40.0755C150.87 40.3088 151.437 40.0089 151.837 39.6422C152.57 38.7756 153.003 37.6757 152.603 36.4758C152.437 36.0426 151.903 35.6426 151.503 35.8759C150.704 36.3759 150.17 37.1758 149.837 38.0424ZM182.334 39.6756C182.401 40.0422 182.667 40.3422 183.001 40.5088C183.767 40.7088 184.5 40.5088 185.034 39.9422C185.6 39.2089 185.6 38.0424 185.434 37.2424C185.234 36.8425 184.734 36.3759 184.234 36.6758C183.267 37.3091 182.134 38.3423 182.334 39.6756Z" fill="white"/>
</svg>
