<svg width="164" height="34" viewBox="0 0 164 34" fill="none" xmlns="http://www.w3.org/2000/svg">
<path d="M21.8093 13.0907C21.5587 12.4987 21.2427 11.9067 20.8614 11.3146C20.4801 10.7226 20.0388 10.2018 19.5377 9.75232C19.0365 9.30282 18.4754 8.94102 17.8544 8.66693C17.2443 8.38188 16.5851 8.23936 15.8769 8.23936C14.8201 8.23936 13.954 8.4367 13.2785 8.83139C12.603 9.21511 12.2652 9.91129 12.2652 10.9199C12.2652 11.7203 12.5322 12.3781 13.066 12.8934C13.6108 13.4087 14.2808 13.8691 15.0761 14.2748C15.8715 14.6695 16.7376 15.0477 17.6746 15.4095C18.6116 15.7713 19.4723 16.2044 20.2567 16.7087C21.0521 17.213 21.7221 17.8324 22.2669 18.567C22.8116 19.3016 23.084 20.2389 23.084 21.3791C23.084 22.2891 22.9151 23.0785 22.5774 23.7473C22.2396 24.416 21.7875 24.9642 21.221 25.3918C20.6544 25.8194 19.9953 26.1373 19.2435 26.3456C18.4917 26.5539 17.691 26.6581 16.8411 26.6581C16.3836 26.6581 15.8987 26.6142 15.3867 26.5265C14.8855 26.4388 14.4061 26.3401 13.9485 26.2305C13.4909 26.1318 13.0715 26.0441 12.6901 25.9674C12.3088 25.8797 12.0037 25.8358 11.775 25.8358C11.5788 25.8358 11.3882 25.8687 11.203 25.9345C11.0286 26.0003 10.8325 26.0661 10.6146 26.1318C10.4512 25.0684 10.2551 24.0268 10.0263 23.0072C9.8084 21.9767 9.5796 20.9406 9.33991 19.8991L9.69945 19.7017C10.0372 20.3595 10.4403 21.0393 10.9088 21.7409C11.3882 22.4426 11.922 23.0895 12.5104 23.6815C13.1096 24.2735 13.7633 24.7669 14.4715 25.1616C15.1905 25.5453 15.9641 25.7372 16.7921 25.7372C17.326 25.7372 17.8435 25.6823 18.3447 25.5727C18.8567 25.4521 19.298 25.2602 19.6684 24.9971C20.0497 24.723 20.3494 24.3777 20.5673 23.9611C20.796 23.5444 20.9104 23.0346 20.9104 22.4316C20.9104 21.5217 20.6381 20.7816 20.0933 20.2115C19.5595 19.6305 18.8949 19.1207 18.0995 18.6821C17.3042 18.2436 16.438 17.8379 15.5011 17.4652C14.5641 17.0924 13.6925 16.6758 12.8862 16.2153C12.0909 15.7439 11.4263 15.1957 10.8925 14.5708C10.3586 13.9349 10.0917 13.1291 10.0917 12.1533C10.0917 11.4188 10.2333 10.7555 10.5166 10.1635C10.7998 9.56046 11.1757 9.05614 11.6442 8.65049C12.1127 8.23387 12.6629 7.91593 13.2948 7.69666C13.9267 7.46643 14.5804 7.35131 15.2559 7.35131C15.9423 7.35131 16.5579 7.39516 17.1026 7.48287C17.6474 7.57058 18.1812 7.67473 18.7042 7.79533C19.249 7.894 19.7774 7.99816 20.2894 8.10779C20.8124 8.20647 21.3735 8.2558 21.9727 8.2558C21.9727 9.07807 21.9836 9.89485 22.0054 10.7062C22.0272 11.5065 22.0871 12.3013 22.1852 13.0907H21.8093Z" fill="white"/>
<path d="M62.2296 7.79533C62.9051 7.82822 63.5697 7.85563 64.2234 7.87756C64.8771 7.88852 65.5526 7.894 66.2499 7.894C67.0234 7.894 67.7806 7.88852 68.5215 7.87756C69.2623 7.85563 70.025 7.82822 70.8094 7.79533V8.12424C70.3409 8.16809 69.9378 8.24484 69.6001 8.35447C69.2732 8.46411 69.0063 8.60663 68.7993 8.78205C68.6032 8.95747 68.4561 9.19318 68.358 9.4892C68.2709 9.78521 68.2273 10.1689 68.2273 10.6404V21.264C68.2273 22.163 68.0257 22.9469 67.6226 23.6157C67.2195 24.2845 66.6802 24.8491 66.0047 25.3096C65.3292 25.7591 64.5666 26.0935 63.7168 26.3127C62.8778 26.543 62.0062 26.6581 61.102 26.6581C60.6444 26.6581 60.0833 26.5759 59.4187 26.4114C58.7541 26.2579 58.1113 26.0167 57.4902 25.6878C56.8801 25.3479 56.3572 24.8984 55.9214 24.3393C55.4965 23.7802 55.284 23.0895 55.284 22.2672C55.284 21.7629 55.4311 21.2914 55.7253 20.8529C56.0303 20.4034 56.5097 20.1786 57.1634 20.1786C57.6101 20.1786 58.0023 20.3321 58.3401 20.6391C58.6887 20.9351 58.863 21.2586 58.863 21.6094C58.863 21.8725 58.8303 22.1795 58.765 22.5303C58.6996 22.8812 58.5743 23.1607 58.3891 23.369C58.4654 23.8514 58.6015 24.2461 58.7976 24.5531C59.0047 24.8601 59.2498 25.1067 59.5331 25.2931C59.8272 25.4685 60.1432 25.5891 60.4809 25.6549C60.8187 25.7097 61.1673 25.7372 61.5269 25.7372C62.4529 25.7372 63.1884 25.5727 63.7331 25.2438C64.2888 24.9149 64.7137 24.4928 65.0078 23.9775C65.302 23.4622 65.4927 22.8921 65.5798 22.2672C65.6779 21.6423 65.7269 21.0338 65.7269 20.4418V11.1502C65.7269 10.5253 65.6561 10.0374 65.5144 9.68654C65.3837 9.32475 65.1712 9.03421 64.8771 8.81494C64.5938 8.59567 64.2288 8.4367 63.7821 8.33803C63.3354 8.23936 62.8179 8.16809 62.2296 8.12424V7.79533Z" fill="white"/>
<path d="M79.8801 10.0483L77.1509 17.1692H82.3642L79.8801 10.0483ZM76.8568 18.0079L75.0264 23.0566C74.9828 23.1991 74.9338 23.3307 74.8793 23.4513C74.8357 23.5719 74.8139 23.6925 74.8139 23.8131C74.8139 24.1529 74.912 24.4435 75.1081 24.6847C75.3042 24.9259 75.5385 25.1232 75.8108 25.2767C76.0941 25.4302 76.3828 25.5617 76.677 25.6714C76.9821 25.77 77.2326 25.8358 77.4288 25.8687V26.1812C76.8731 26.1483 76.3175 26.1209 75.7618 26.0989C75.2062 26.088 74.6451 26.0825 74.0785 26.0825C73.512 26.0825 72.9618 26.088 72.4279 26.0989C71.905 26.1209 71.3493 26.1483 70.761 26.1812V25.8687C71.3275 25.7262 71.8015 25.5234 72.1828 25.2602C72.5641 24.9862 72.8855 24.6627 73.147 24.29C73.4085 23.9172 73.6318 23.5061 73.817 23.0566C74.0023 22.6071 74.1929 22.1411 74.389 21.6587L79.1937 9.76877C79.27 9.64817 79.3245 9.53305 79.3572 9.42342C79.4007 9.30282 79.4225 9.19318 79.4225 9.09451C79.4225 9.0068 79.3899 8.86976 79.3245 8.68338C79.27 8.497 79.1937 8.32706 79.0957 8.17357C79.586 8.08587 80.0054 7.97075 80.3541 7.82822C80.7027 7.67473 81.0895 7.51576 81.5144 7.35131L87.2997 23.3361C87.5611 24.0707 87.9207 24.6463 88.3783 25.0629C88.8468 25.4795 89.5331 25.7481 90.4374 25.8687V26.1812C89.6966 26.1483 88.9612 26.1209 88.2312 26.0989C87.5121 26.088 86.7712 26.0825 86.0086 26.0825C85.5183 26.0825 85.088 26.088 84.7175 26.0989C84.3471 26.1099 84.0148 26.1154 83.7206 26.1154C83.4265 26.1264 83.1432 26.1373 82.8708 26.1483C82.5984 26.1592 82.3043 26.1702 81.9883 26.1812V25.8687C82.7619 25.7591 83.4101 25.5563 83.9331 25.2602C84.4669 24.9533 84.7339 24.5366 84.7339 24.0104C84.7339 23.8679 84.7012 23.7199 84.6358 23.5664C84.5704 23.4129 84.5214 23.2758 84.4887 23.1552L82.6747 18.0079H76.8568Z" fill="white"/>
<path d="M108.541 7.79533C109.206 7.82822 109.87 7.85563 110.535 7.87756C111.199 7.88852 111.869 7.894 112.545 7.894C113.144 7.894 113.732 7.88852 114.31 7.87756C114.898 7.85563 115.487 7.82822 116.075 7.79533V8.12424C115.683 8.16809 115.323 8.24484 114.996 8.35447C114.68 8.46411 114.403 8.61212 114.163 8.7985C113.923 8.98488 113.738 9.22059 113.607 9.50564C113.476 9.7907 113.411 10.158 113.411 10.6075C113.411 10.9254 113.444 11.3804 113.509 11.9724C113.574 12.5535 113.662 13.2113 113.771 13.9459C113.88 14.6804 113.999 15.4753 114.13 16.3304C114.272 17.1746 114.419 18.0188 114.571 18.863C114.724 19.7072 114.876 20.513 115.029 21.2805C115.182 22.0479 115.323 22.7112 115.454 23.2704C115.53 23.6541 115.623 23.9885 115.732 24.2735C115.852 24.5586 116.015 24.8107 116.222 25.03C116.44 25.2383 116.734 25.4082 117.104 25.5398C117.475 25.6714 117.965 25.781 118.575 25.8687V26.1812C117.834 26.1483 117.094 26.1209 116.353 26.0989C115.623 26.088 114.887 26.0825 114.146 26.0825C113.438 26.0825 112.746 26.088 112.071 26.0989C111.406 26.1209 110.725 26.1483 110.028 26.1812V25.8687C110.409 25.8029 110.774 25.7262 111.123 25.6385C111.483 25.5508 111.793 25.4247 112.055 25.2602C112.327 25.0958 112.539 24.871 112.692 24.586C112.845 24.3009 112.921 23.9117 112.921 23.4184C112.921 23.2101 112.91 22.9195 112.888 22.5468C112.866 22.174 112.806 21.7409 112.708 21.2476L110.796 9.96611H110.747C110.224 11.3037 109.674 12.6357 109.097 13.9623C108.519 15.2779 107.953 16.599 107.397 17.9256C106.841 19.2522 106.302 20.5953 105.779 21.9547C105.256 23.3142 104.777 24.6901 104.341 26.0825H104.276C103.415 23.221 102.413 20.4418 101.269 17.7447C100.135 15.0367 98.9316 12.3507 97.6568 9.68654H97.6078C97.4662 10.7171 97.3191 11.8573 97.1666 13.1072C97.014 14.357 96.8778 15.574 96.758 16.758C96.6491 17.9421 96.5564 19.022 96.4802 19.9977C96.4039 20.9735 96.3658 21.7026 96.3658 22.185C96.3658 22.8099 96.4094 23.3471 96.4965 23.7966C96.5837 24.2351 96.7471 24.6079 96.9868 24.9149C97.2265 25.2109 97.5533 25.4411 97.9673 25.6056C98.3814 25.7591 98.9207 25.8468 99.5853 25.8687V26.1812C98.8117 26.1483 98.0545 26.1209 97.3136 26.0989C96.5728 26.088 95.8156 26.0825 95.042 26.0825C94.4646 26.0825 93.8872 26.088 93.3097 26.0989C92.7432 26.1209 92.1766 26.1483 91.6101 26.1812V25.8687C92.0023 25.8468 92.3891 25.7755 92.7704 25.6549C93.1517 25.5234 93.4949 25.3644 93.8 25.178C94.1051 24.9807 94.3665 24.745 94.5844 24.4709C94.8132 24.1858 94.9494 23.8624 94.993 23.5006C95.102 22.8537 95.2055 22.174 95.3035 21.4614C95.4016 20.7378 95.4942 20.0197 95.5813 19.307L96.9214 9.35764C96.5292 9.02873 96.0607 8.7656 95.516 8.56826C94.9821 8.35995 94.4482 8.21195 93.9144 8.12424V7.79533C94.7097 7.82822 95.4996 7.85563 96.2841 7.87756C97.0794 7.88852 97.8747 7.894 98.6701 7.894C99.2475 7.894 99.8195 7.88852 100.386 7.87756C100.953 7.85563 101.525 7.82822 102.102 7.79533V8.12424C101.742 8.21195 101.416 8.36544 101.121 8.58471C100.827 8.80398 100.68 9.14933 100.68 9.62076C100.68 9.92774 100.729 10.2292 100.827 10.5253C100.936 10.8213 101.051 11.1282 101.17 11.4462L105.093 21.1489C106.041 19.1536 106.939 17.1637 107.789 15.1793C108.639 13.1949 109.418 11.1611 110.126 9.07807C109.919 8.83687 109.674 8.63952 109.391 8.48604C109.118 8.33255 108.835 8.21195 108.541 8.12424V7.79533Z" fill="white"/>
<path d="M126.345 24.9807C126.661 25.0684 127.124 25.1561 127.734 25.2438C128.344 25.3205 128.911 25.3589 129.434 25.3589C130.545 25.3589 131.542 25.2657 132.424 25.0793C133.307 24.893 134.113 24.5969 134.843 24.1913C135.584 23.7747 136.276 23.2484 136.919 22.6125C137.561 21.9767 138.221 21.2092 138.896 20.3102L139.19 20.5733L136.674 26.1812C136.358 26.1483 136.031 26.1209 135.693 26.0989C135.355 26.088 135.028 26.0825 134.712 26.0825H124.27C123.725 26.0825 123.185 26.088 122.652 26.0989C122.118 26.1209 121.584 26.1483 121.05 26.1812V25.8687C121.704 25.8029 122.216 25.6988 122.586 25.5563C122.957 25.4137 123.235 25.1835 123.42 24.8656C123.605 24.5366 123.725 24.1145 123.779 23.5993C123.834 23.084 123.861 22.4371 123.861 21.6587V12.3178C123.861 11.5394 123.834 10.898 123.779 10.3937C123.725 9.8784 123.605 9.46179 123.42 9.14385C123.235 8.81494 122.946 8.57374 122.554 8.42025C122.172 8.26676 121.649 8.16809 120.985 8.12424V7.79533C121.617 7.81726 122.216 7.83371 122.782 7.84467C123.349 7.84467 123.932 7.85015 124.531 7.86111C125.13 7.87208 125.768 7.88304 126.443 7.894C127.119 7.894 127.887 7.894 128.747 7.894C130.044 7.894 131.335 7.88852 132.621 7.87756C133.917 7.85563 135.235 7.82822 136.575 7.79533C136.543 8.21195 136.526 8.61212 136.526 8.99584C136.526 9.35764 136.526 9.7304 136.526 10.1141C136.526 10.5307 136.543 10.9473 136.575 11.364C136.619 11.7696 136.657 12.2301 136.69 12.7454L136.314 12.844C136.085 11.945 135.769 11.216 135.366 10.6568C134.974 10.0867 134.511 9.64269 133.977 9.32475C133.454 8.99584 132.877 8.78205 132.245 8.68338C131.613 8.57374 130.948 8.51893 130.251 8.51893C128.944 8.51893 127.642 8.57374 126.345 8.68338V15.6726C126.726 15.6726 127.086 15.6671 127.424 15.6562C127.761 15.6343 128.121 15.6233 128.502 15.6233C129.766 15.6233 130.774 15.3657 131.526 14.8504C132.288 14.3351 132.751 13.3977 132.915 12.0382H133.242C133.242 12.707 133.231 13.3758 133.209 14.0445C133.198 14.7133 133.193 15.3821 133.193 16.0509C133.193 16.7087 133.198 17.3775 133.209 18.0572C133.231 18.726 133.242 19.4002 133.242 20.08H132.915C132.751 19.2906 132.555 18.6492 132.326 18.1559C132.098 17.6625 131.787 17.2843 131.395 17.0211C131.014 16.758 130.556 16.5826 130.022 16.4949C129.499 16.3962 128.867 16.3469 128.126 16.3469H126.345V24.9807Z" fill="white"/>
<path d="M154.249 13.0907C153.998 12.4987 153.682 11.9067 153.301 11.3146C152.92 10.7226 152.478 10.2018 151.977 9.75232C151.476 9.30282 150.915 8.94102 150.294 8.66693C149.684 8.38188 149.025 8.23936 148.316 8.23936C147.26 8.23936 146.393 8.4367 145.718 8.83139C145.042 9.21511 144.705 9.91129 144.705 10.9199C144.705 11.7203 144.972 12.3781 145.506 12.8934C146.05 13.4087 146.72 13.8691 147.516 14.2748C148.311 14.6695 149.177 15.0477 150.114 15.4095C151.051 15.7713 151.912 16.2044 152.696 16.7087C153.492 17.213 154.162 17.8324 154.706 18.567C155.251 19.3016 155.524 20.2389 155.524 21.3791C155.524 22.2891 155.355 23.0785 155.017 23.7473C154.679 24.416 154.227 24.9642 153.66 25.3918C153.094 25.8194 152.435 26.1373 151.683 26.3456C150.931 26.5539 150.13 26.6581 149.281 26.6581C148.823 26.6581 148.338 26.6142 147.826 26.5265C147.325 26.4388 146.846 26.3401 146.388 26.2305C145.93 26.1318 145.511 26.0441 145.13 25.9674C144.748 25.8797 144.443 25.8358 144.214 25.8358C144.018 25.8358 143.828 25.8687 143.642 25.9345C143.468 26.0003 143.272 26.0661 143.054 26.1318C142.891 25.0684 142.695 24.0268 142.466 23.0072C142.248 21.9767 142.019 20.9406 141.779 19.8991L142.139 19.7017C142.477 20.3595 142.88 21.0393 143.348 21.7409C143.828 22.4426 144.362 23.0895 144.95 23.6815C145.549 24.2735 146.203 24.7669 146.911 25.1616C147.63 25.5453 148.404 25.7372 149.232 25.7372C149.766 25.7372 150.283 25.6823 150.784 25.5727C151.296 25.4521 151.738 25.2602 152.108 24.9971C152.489 24.723 152.789 24.3777 153.007 23.9611C153.236 23.5444 153.35 23.0346 153.35 22.4316C153.35 21.5217 153.078 20.7816 152.533 20.2115C151.999 19.6305 151.334 19.1207 150.539 18.6821C149.744 18.2436 148.878 17.8379 147.941 17.4652C147.004 17.0924 146.132 16.6758 145.326 16.2153C144.53 15.7439 143.866 15.1957 143.332 14.5708C142.798 13.9349 142.531 13.1291 142.531 12.1533C142.531 11.4188 142.673 10.7555 142.956 10.1635C143.239 9.56046 143.615 9.05614 144.084 8.65049C144.552 8.23387 145.102 7.91593 145.734 7.69666C146.366 7.46643 147.02 7.35131 147.695 7.35131C148.382 7.35131 148.997 7.39516 149.542 7.48287C150.087 7.57058 150.621 7.67473 151.144 7.79533C151.688 7.894 152.217 7.99816 152.729 8.10779C153.252 8.20647 153.813 8.2558 154.412 8.2558C154.412 9.07807 154.423 9.89485 154.445 10.7062C154.467 11.5065 154.527 12.3013 154.625 13.0907H154.249Z" fill="white"/>
<path d="M45.181 14.9561C45.7257 14.8026 46.2759 14.7258 46.8316 14.7258C47.3437 14.7258 47.8503 14.7642 48.3514 14.8409C48.8635 14.9177 49.3756 14.9561 49.8876 14.9561C50.1927 14.9561 50.4869 14.9341 50.7701 14.8903C51.0643 14.8464 51.3585 14.7752 51.6526 14.6765L51.3585 16.7486C50.8682 16.8582 50.3834 16.913 49.904 16.913C49.4573 16.913 49.016 16.8747 48.5802 16.7979C48.1553 16.7212 47.7849 16.6828 47.469 16.6828C47.044 16.6828 46.6246 16.7047 46.2106 16.7486C45.8075 16.7924 45.3989 16.8747 44.9849 16.9953L45.181 14.9561Z" fill="white"/>
<path d="M29.8073 20.8743C30.2904 20.8284 30.6645 20.7557 30.9294 20.6562C31.1944 20.5568 31.3931 20.3961 31.5255 20.1742C31.6658 19.9446 31.7515 19.65 31.7827 19.2904C31.8217 18.9308 31.8411 18.4793 31.8411 17.9361V8.88037C31.1554 8.88037 30.5709 8.90716 30.0878 8.96072C29.6047 9.01428 29.1877 9.14818 28.8371 9.36243C28.4942 9.57667 28.1942 9.90569 27.937 10.3495C27.6877 10.7856 27.4383 11.3901 27.1889 12.1629L26.9201 12.0826L27.2123 8.26059C27.7656 8.28355 28.3111 8.30268 28.8488 8.31798C29.3943 8.32563 29.9475 8.32946 30.5086 8.32946H35.1725C35.7024 8.32946 36.2245 8.32563 36.7388 8.31798C37.2609 8.30268 37.7869 8.28355 38.3168 8.26059L38.6091 12.0826L38.3402 12.1629C38.0909 11.3901 37.8337 10.7856 37.5687 10.3495C37.3116 9.90569 37.0116 9.57667 36.6687 9.36243C36.3258 9.14818 35.9089 9.01428 35.418 8.96072C34.927 8.90716 34.3309 8.88037 33.6296 8.88037V17.9361C33.6296 18.4793 33.6451 18.9308 33.6763 19.2904C33.7153 19.65 33.8049 19.9446 33.9452 20.1742C34.0854 20.3961 34.2919 20.5568 34.5647 20.6562C34.8452 20.7557 35.231 20.8284 35.7219 20.8743V21.0924C35.2154 21.0694 34.7088 21.0503 34.2023 21.035C33.6958 21.0273 33.1893 21.0235 32.6828 21.0235C32.2074 21.0235 31.7282 21.0273 31.245 21.035C30.7697 21.0503 30.2904 21.0694 29.8073 21.0924V20.8743Z" fill="white"/>
<path fill-rule="evenodd" clip-rule="evenodd" d="M164 1.66648H0V0.597168H164V1.66648Z" fill="white"/>
<path fill-rule="evenodd" clip-rule="evenodd" d="M164 33.0331H0V31.9637H164V33.0331Z" fill="white"/>
</svg>
