<svg width="106" height="46" viewBox="0 0 106 46" fill="none" xmlns="http://www.w3.org/2000/svg">
<path d="M77.8396 1.46975V45.1605C77.8396 45.5221 77.5563 45.8152 77.2068 45.8152H71.6086C71.354 45.8152 71.1241 45.6572 71.0254 45.4143L62.1172 23.5074V45.1605C62.1172 45.5221 61.8339 45.8152 61.4844 45.8152H54.5996C54.2501 45.8152 53.9668 45.5221 53.9668 45.1605V1.46975C53.9668 1.10829 54.2501 0.815186 54.5996 0.815186H60.6183C60.8727 0.815186 61.1023 0.972875 61.2012 1.2154L69.6892 22.0299V1.46975C69.6892 1.10829 69.9725 0.815186 70.3219 0.815186H77.2068C77.5563 0.815186 77.8396 1.10829 77.8396 1.46975Z" fill="white"/>
<path d="M105.973 1.65659L97.6307 30.6482V45.1605C97.6307 45.5221 97.3476 45.8152 96.9981 45.8152H89.7452C89.3957 45.8152 89.1124 45.5221 89.1124 45.1605V30.6482L79.9214 1.67391C79.787 1.25057 80.0919 0.815186 80.5225 0.815186H88.0674C88.3514 0.815186 88.6006 1.01087 88.6768 1.29375L93.4243 18.8828L97.4143 1.32007C97.4814 1.0243 97.7366 0.815186 98.0302 0.815186H105.367C105.79 0.815186 106.094 1.23684 105.973 1.65659Z" fill="white"/>
<path d="M43.0382 45.4171L35.2346 26.4646V45.1605C35.2346 45.5221 34.9512 45.8152 34.6016 45.8152H27.3489C26.9994 45.8152 26.7161 45.5221 26.7161 45.1605V1.46975C26.7161 1.10829 26.9994 0.815186 27.3489 0.815186H34.6016C34.9512 0.815186 35.2346 1.10829 35.2346 1.46975V18.7508L42.8408 1.20198C42.9429 0.966621 43.1689 0.815186 43.4182 0.815186H51.3143C51.7727 0.815186 52.0789 1.30367 51.8921 1.73669L42.9116 22.5431L52.1875 44.9024C52.3667 45.3344 52.0604 45.8152 51.6059 45.8152H43.6203C43.3669 45.8152 43.1376 45.6585 43.0382 45.4171Z" fill="white"/>
<path d="M23.8727 31.6723V15.0222C23.8727 6.02229 19.3506 0.815186 11.8838 0.815186H0.632722C0.283315 0.815186 0 1.10828 0 1.46975V45.1605C0 45.5221 0.283315 45.8152 0.632722 45.8152H11.8838C19.3506 45.8152 23.8727 40.6081 23.8727 31.6723ZM15.3543 31.4793C15.3543 34.1152 13.9346 35.9151 11.8838 35.9151H8.51836V10.7152H11.8838C13.9346 10.7152 15.3543 12.5152 15.3543 15.1509V31.4793Z" fill="white"/>
</svg>
