<svg width="120" height="37" viewBox="0 0 120 37" fill="none" xmlns="http://www.w3.org/2000/svg">
<path d="M119.435 0.881836H114.187C113.874 0.881836 113.619 1.13566 113.619 1.44513V36.164C113.619 36.4741 113.874 36.7293 114.187 36.7293H119.435C119.749 36.7293 120.001 36.4741 120.001 36.164V1.44513C120.001 1.13566 119.749 0.881836 119.435 0.881836Z" fill="white"/>
<path d="M107.767 0.881592H99.2653C98.9518 0.881592 98.6974 1.13541 98.6974 1.44489V5.37838C98.6974 5.69075 98.9518 5.94514 99.2653 5.94514H102.888C103.199 5.94514 103.456 6.19808 103.456 6.51045L103.453 31.1671C103.453 31.4801 103.196 31.7324 102.886 31.7324L99.2653 31.735C98.9518 31.7379 98.6974 31.9903 98.6974 32.3003V36.1641C98.6974 36.4741 98.9518 36.7294 99.2653 36.7294H107.767C108.077 36.7294 108.335 36.4741 108.335 36.1641V1.44489C108.335 1.13541 108.077 0.881592 107.767 0.881592Z" fill="white"/>
<path d="M29.4208 5.8889H37.9261C38.2396 5.8889 38.4934 5.63652 38.4934 5.32416V1.44487C38.4934 1.1354 38.2396 0.881592 37.9261 0.881592H29.4208C29.1093 0.881592 28.8555 1.1354 28.8555 1.44487V5.32416C28.8555 5.63652 29.1093 5.8889 29.4208 5.8889Z" fill="white"/>
<path d="M46.8773 5.8889H55.3812C55.6927 5.8889 55.9459 5.63652 55.9459 5.32416V1.44487C55.9459 1.1354 55.6929 0.881592 55.3812 0.881592H46.8773C46.567 0.881592 46.3105 1.1354 46.3105 1.44487V5.32416C46.3105 5.63652 46.567 5.8889 46.8773 5.8889Z" fill="white"/>
<path d="M64.4554 5.8889H72.9604C73.2739 5.8889 73.5286 5.63652 73.5286 5.32416V1.44487C73.5286 1.1354 73.2739 0.881592 72.9604 0.881592H64.4554C64.145 0.881592 63.8906 1.1354 63.8906 1.44487V5.32416C63.8906 5.63652 64.145 5.8889 64.4554 5.8889Z" fill="white"/>
<path d="M81.9716 5.8889H90.4766C90.7869 5.8889 91.0413 5.63652 91.0413 5.32416V1.44487C91.0413 1.1354 90.7869 0.881592 90.4766 0.881592H81.9716C81.6606 0.881592 81.4062 1.1354 81.4062 1.44487V5.32416C81.4062 5.63652 81.6606 5.8889 81.9716 5.8889Z" fill="white"/>
<path d="M37.9261 31.7412H29.4208C29.1093 31.7412 28.8555 31.9959 28.8555 32.3094V36.1841C28.8555 36.4941 29.1093 36.7488 29.4208 36.7488H37.9261C38.2396 36.7488 38.4934 36.4941 38.4934 36.1841V32.3094C38.4934 31.9959 38.2396 31.7412 37.9261 31.7412Z" fill="white"/>
<path d="M55.3812 31.7412H46.8773C46.567 31.7412 46.3105 31.9959 46.3105 32.3094V36.1841C46.3105 36.4941 46.567 36.7488 46.8773 36.7488H55.3812C55.6927 36.7488 55.9459 36.4941 55.9459 36.1841V32.3094C55.9459 31.9959 55.6929 31.7412 55.3812 31.7412Z" fill="white"/>
<path d="M72.9604 31.7412H64.4554C64.145 31.7412 63.8906 31.9959 63.8906 32.3094V36.1841C63.8906 36.4941 64.145 36.7488 64.4554 36.7488H72.9604C73.2739 36.7488 73.5286 36.4941 73.5286 36.1841V32.3094C73.5286 31.9959 73.2739 31.7412 72.9604 31.7412Z" fill="white"/>
<path d="M90.4766 31.7412H81.9716C81.6606 31.7412 81.4062 31.9959 81.4062 32.3094V36.1841C81.4062 36.4941 81.6606 36.7488 81.9716 36.7488H90.4766C90.7869 36.7488 91.0413 36.4941 91.0413 36.1841V32.3094C91.0413 31.9959 90.7869 31.7412 90.4766 31.7412Z" fill="white"/>
<path d="M5.82155 0.881836H0.575733C0.261626 0.881836 0.0078125 1.13566 0.0078125 1.44513V36.164C0.0078125 36.4741 0.261626 36.7293 0.575733 36.7293H5.82155C6.13362 36.7293 6.38743 36.4741 6.38743 36.164V1.44513C6.38743 1.13566 6.13394 0.881836 5.82155 0.881836Z" fill="white"/>
<path d="M20.6526 31.735L17.0303 31.7324C16.7203 31.7324 16.4644 31.4801 16.4644 31.1671L16.4633 6.51045C16.4633 6.19808 16.7191 5.94514 17.0292 5.94514H20.6526C20.9673 5.94514 21.2205 5.69075 21.2205 5.37838V1.44489C21.2205 1.13541 20.9673 0.881592 20.6526 0.881592H12.1499C11.8384 0.881592 11.582 1.13541 11.582 1.44489V36.1641C11.582 36.4741 11.8384 36.7294 12.1499 36.7294H20.6526C20.9673 36.7294 21.2205 36.4741 21.2205 36.1641V32.3003C21.2205 31.9903 20.9673 31.7379 20.6526 31.735Z" fill="white"/>
<path d="M44.2723 10.2625L41.8536 10.261C41.5395 10.2599 41.2162 10.5033 41.1323 10.8041L38.0571 21.5851C37.9726 21.8848 37.8264 21.888 37.7372 21.5883L34.4674 10.8165C34.3763 10.5201 34.0495 10.276 33.7368 10.276H31.4309C31.1208 10.276 30.7914 10.52 30.6997 10.8165L27.4625 21.5548C27.3734 21.8536 27.2292 21.8536 27.1426 21.5519L24.051 10.805C23.9671 10.5068 23.6414 10.2622 23.3291 10.2622L20.6499 10.2607C20.3399 10.2593 20.1596 10.5007 20.2533 10.7998L25.237 26.8875C25.3296 27.1871 25.6593 27.4297 25.9716 27.4297H28.4362C28.7488 27.4297 29.0756 27.1871 29.1673 26.8875L32.4355 16.1503C32.5246 15.8513 32.6725 15.8513 32.7625 16.1503L36.0107 26.8762C36.1013 27.173 36.4292 27.4188 36.7428 27.4219L39.0703 27.4274C39.3807 27.4274 39.7112 27.1874 39.8003 26.8878L44.6755 10.803C44.7649 10.5065 44.5832 10.2625 44.2723 10.2625Z" fill="white"/>
<path d="M58.4998 10.2427H56.2308C55.9179 10.2427 55.6641 10.4965 55.6641 10.8106V26.8645C55.6641 27.1745 55.9179 27.4289 56.2308 27.4289H58.4998C58.8145 27.4289 59.0677 27.1745 59.0677 26.8645V10.8106C59.0677 10.4965 58.8145 10.2427 58.4998 10.2427Z" fill="white"/>
<path d="M83.5978 26.8539L83.6033 22.5339V21.9547C83.6033 18.8126 86.018 18.564 86.9773 18.5836C87.349 18.5836 87.3637 18.2531 87.3637 18.2531V15.6968C87.3637 15.6968 87.3972 15.3845 86.9605 15.3845C84.4735 15.5835 83.6033 17.5854 83.6033 17.5854H83.603V15.9172C83.603 15.6063 83.3509 15.353 83.0377 15.353H80.8641C80.5506 15.353 80.2988 15.6063 80.2988 15.9172V26.8654C80.2988 27.1755 80.5506 27.4273 80.8641 27.4273L83.0299 27.4218C83.3426 27.4218 83.5944 27.1639 83.5978 26.8539Z" fill="white"/>
<path d="M92.8321 25.1939C91.0753 25.1939 90.1939 23.5041 90.1939 21.4225C90.1939 19.3407 91.0751 17.6508 92.8321 17.6508C94.5892 17.6508 95.4729 19.3407 95.4729 21.4225C95.4729 23.5041 94.5889 25.1939 92.8321 25.1939ZM98.9897 26.8645V10.8106C98.9897 10.4965 98.7353 10.2427 98.4249 10.2427H96.1507C95.8398 10.2427 95.582 10.4965 95.582 10.8106V16.5813C95.2024 15.8029 94.4666 15.3025 93.0559 15.1568C88.9517 14.736 87.1133 18.0431 87.1133 21.4257C87.1133 24.8187 88.9491 28.0586 93.0559 27.6954C94.4675 27.5708 95.203 27.0561 95.582 26.2182V26.8645C95.582 27.1745 95.8398 27.4289 96.1507 27.4289H98.4249C98.7353 27.4289 98.9897 27.1745 98.9897 26.8645Z" fill="white"/>
<path d="M45.7897 21.4372C45.7897 19.356 46.7011 17.6696 48.7172 17.6696C50.6421 17.6696 51.641 19.356 51.641 21.4372C51.641 23.5211 50.6421 25.2055 48.7172 25.2055C46.7011 25.2055 45.7897 23.5214 45.7897 21.4372ZM54.6498 21.4202C54.6498 17.9568 52.4456 15.1467 48.7048 15.1467C44.964 15.1467 42.7578 17.9568 42.7578 21.4202C42.7578 24.8784 44.964 27.6874 48.7048 27.6874C52.4456 27.6874 54.6498 24.8784 54.6498 21.4202Z" fill="white"/>
<path d="M73.5396 25.3091C71.5256 25.3091 70.6133 23.6223 70.6133 21.5373C70.6133 19.4535 71.5259 17.7671 73.5396 17.7671C75.4672 17.7671 76.4634 19.4535 76.4634 21.5373C76.4634 23.6221 75.4672 25.3091 73.5396 25.3091ZM73.5287 15.2468C73.0969 15.2468 72.6865 15.2858 72.2965 15.3573H65.2276C65.0349 12.66 66.4502 12.9178 66.4502 12.9178C66.4502 12.9178 66.9143 12.9066 67.0213 12.9066H67.1078C67.4207 12.9066 67.6725 12.6883 67.6725 12.3762V10.8112C67.6725 10.4971 67.4207 10.2433 67.1078 10.2433L66.5956 10.2202H65.2002C61.2794 10.2202 61.8559 15.357 61.8559 15.357L61.8594 15.3709L61.2941 15.3836H60.6284C60.3149 15.3836 60.0625 15.6385 60.0625 15.9474V17.5167C60.0625 17.8262 60.3149 18.0826 60.6284 18.0826H61.3584L61.9098 18.0965L61.9237 18.6474V26.8648C61.9237 27.1749 62.1784 27.4292 62.4916 27.4292H64.6712C64.9787 27.4292 65.2365 27.1749 65.2365 26.8648L65.2305 18.6309L65.2166 18.0656L65.7958 18.0688L68.4369 18.0821C67.8782 19.0682 67.5811 20.2471 67.5811 21.5151C67.5811 24.9791 69.7884 27.7857 73.5287 27.7854C77.2692 27.7854 79.4742 24.9791 79.4742 21.5151C79.4742 18.0521 77.2695 15.2468 73.5287 15.2468Z" fill="white"/>
</svg>
