<svg width="108" height="57" viewBox="0 0 108 57" fill="none" xmlns="http://www.w3.org/2000/svg">
<path d="M0 56.5039H2.42036V51.9569C2.42036 51.1471 2.42036 50.1481 2.85872 49.5629C3.29489 48.9267 4.07824 48.7198 4.51551 48.7198C6.55463 48.7198 6.55463 50.9943 6.55463 51.7844V56.5039H8.97389V51.3374C8.97389 50.5951 8.97389 48.9953 8.04662 47.9453C7.21053 46.9796 5.88005 46.6157 5.00771 46.6157C3.47727 46.6157 2.64009 47.411 2.24018 47.7728V46.9432H0V56.5039Z" fill="white"/>
<path fill-rule="evenodd" clip-rule="evenodd" d="M19.9818 52.7494C20.0511 52.4407 20.1269 52.0436 20.1269 51.5966C20.1269 49.1869 18.1053 46.5641 14.9016 46.5641C11.788 46.5641 9.58629 49.0476 9.58629 51.7504C9.58629 54.5395 11.9166 56.8151 14.9203 56.8151C17.2868 56.8151 19.215 55.2152 19.7984 53.4917H17.2484C16.7946 54.2838 15.9948 54.7131 14.9203 54.7131C13.191 54.7131 12.244 53.37 12.1341 52.7494H19.9818ZM12.0616 50.9063C12.5164 49.1318 14.0282 48.6671 14.9203 48.6671C16.1222 48.6671 17.3769 49.373 17.6505 50.9063H12.0616Z" fill="white"/>
<path d="M23.233 56.5039H24.7228L26.6356 50.3041H26.6707L28.5659 56.5039H30.0579L33.7527 46.9432H31.1687L29.3097 52.7834H29.2746L27.6342 46.9432H25.7072L24.0504 52.7834H24.0142L22.1761 46.9432H19.5909L23.233 56.5039Z" fill="white"/>
<path fill-rule="evenodd" clip-rule="evenodd" d="M38.4387 56.5039H40.658V55.35C41.2568 55.9883 42.116 56.8148 44.0639 56.8148C47.7576 56.8148 49.087 53.5942 49.087 51.6804C49.087 49.1512 47.0852 46.6158 44.009 46.6158C42.8795 46.6158 41.6952 47.0139 40.858 47.8071V43.758H38.4387V56.5039ZM40.7119 51.5962C40.7119 50.2012 41.8589 48.7198 43.7156 48.7198C45.2461 48.7198 46.6666 49.8373 46.6666 51.7002C46.6666 53.5579 45.3373 54.7138 43.753 54.7138C42.3335 54.7138 40.7119 53.7148 40.7119 51.5962Z" fill="white"/>
<path fill-rule="evenodd" clip-rule="evenodd" d="M60.3887 46.9436H58.1661V48.1526H58.1299C58.0563 48.0133 56.8356 46.6151 54.7811 46.6151C51.9785 46.6151 49.7196 48.7348 49.7196 51.6653C49.7196 54.8504 52.0323 56.8152 54.6361 56.8152C55.9084 56.8152 57.4026 56.1759 58.1661 55.3193V56.5044H60.3887V46.9436ZM58.0958 51.7006C58.0958 53.4741 56.8192 54.7132 55.1437 54.7132C53.4155 54.7132 52.14 53.3868 52.14 51.7682C52.14 50.3388 53.1595 48.7202 55.1437 48.7202C56.583 48.7202 58.0958 49.7182 58.0958 51.7006Z" fill="white"/>
<path d="M64.0961 43.7585H61.6757V56.5043H64.0961V43.7585Z" fill="white"/>
<path fill-rule="evenodd" clip-rule="evenodd" d="M75.4905 46.9436H73.2701V48.1526H73.2328C73.1592 48.0133 71.9385 46.6151 69.884 46.6151C67.0781 46.6151 64.8225 48.7348 64.8225 51.6653C64.8225 54.8504 67.1352 56.8152 69.7379 56.8152C71.0113 56.8152 72.5033 56.1759 73.2701 55.3193V56.5044H75.4905V46.9436ZM73.1965 51.7006C73.1965 53.4741 71.9232 54.7132 70.2477 54.7132C68.5173 54.7132 67.244 53.3868 67.244 51.7682C67.244 50.3388 68.2635 48.7202 70.2477 48.7202C71.6859 48.7202 73.1965 49.7182 73.1965 51.7006Z" fill="white"/>
<path d="M76.7792 56.5039H79.1984V51.9569C79.1984 51.1471 79.1984 50.1481 79.6368 49.5629C80.073 48.9267 80.8585 48.7198 81.2936 48.7198C83.3316 48.7198 83.3316 50.9943 83.3316 51.7844V56.5039H85.7541V51.3374C85.7541 50.5951 85.7541 48.9953 84.8236 47.9453C83.9864 46.9796 82.6592 46.6157 81.7847 46.6157C80.2542 46.6157 79.4193 47.411 79.0171 47.7728V46.9432H76.7792V56.5039Z" fill="white"/>
<path d="M94.3557 53.387C93.7174 54.3517 92.9187 54.7135 92.1177 54.7135C90.295 54.7135 89.0766 53.3527 89.0766 51.7165C89.0766 49.7528 90.5335 48.7195 92.0068 48.7195C93.4998 48.7195 94.0657 49.6322 94.3557 50.1135H97.0881C96.0498 47.1674 93.2801 46.6154 92.0068 46.6154C89.2216 46.6154 86.6563 48.7548 86.6563 51.6801C86.6563 54.8507 89.4381 56.8144 92.0265 56.8144C94.3931 56.8144 96.2663 55.5223 97.0881 53.387H94.3557Z" fill="white"/>
<path fill-rule="evenodd" clip-rule="evenodd" d="M107.856 52.7494C107.927 52.4407 108 52.0436 108 51.5966C108 49.1869 105.981 46.5641 102.777 46.5641C99.6633 46.5641 97.4605 49.0476 97.4605 51.7504C97.4605 54.5395 99.7908 56.8151 102.795 56.8151C105.16 56.8151 107.091 55.2152 107.673 53.4917H105.125C104.669 54.2838 103.87 54.7131 102.795 54.7131C101.064 54.7131 100.118 53.37 100.012 52.7494H107.856ZM99.9369 50.9063C100.393 49.1318 101.902 48.6671 102.795 48.6671C103.998 48.6671 105.252 49.373 105.525 50.9063H99.9369Z" fill="white"/>
<path fill-rule="evenodd" clip-rule="evenodd" d="M41.2033 24.8152L37.9677 30.1024L20.0584 29.1491L21.8514 26.2041L41.2033 24.8152ZM54.15 7.96831L55.7727 13.8033L30.3606 12.2232L32.1525 9.27918L54.15 7.96831ZM37.3031 0.816225L52.1779 0.826618L53.3007 4.8164L35.5133 3.76022L37.3031 0.816225ZM35.9956 33.3904L33.4127 37.5923L14.9079 37.611L16.6998 34.668L35.9956 33.3904ZM68.4842 22.0542L64.005 29.4007H68.2711C70.2476 29.4007 73.7897 28.4671 74.8796 25.8038C75.8892 23.3287 74.0336 22.0511 72.7383 22.0511L68.4842 22.0542ZM72.7558 15.0268L76.477 15.005C78.9534 14.9925 81.5364 13.9208 82.4812 11.746C83.3524 9.72826 82.1813 8.00989 80.6289 8.01613L77.0296 8.01197L72.7558 15.0268ZM55.9122 13.8033L59.6697 7.63566L72.3867 6.86327L72.8306 6.1148L61.0672 5.33618L63.8182 0.816225L85.6333 0.815186C92.3417 0.815186 97.3044 3.08452 95.3751 9.75841C94.795 11.7803 92.0682 16.87 84.071 19.0021C85.7684 19.1933 89.9961 20.9658 89.2677 25.5606C87.9734 33.7085 76.8242 37.5871 70.6222 37.5892L44.8674 37.6006L43.5984 32.8863L57.0878 31.986L57.5459 31.2396L42.915 30.3965L41.3384 24.8079L62.157 23.6582L62.6097 22.918L25.2079 20.6851L26.9998 17.7421L67.2592 15.2691L67.7152 14.5279L55.9122 13.8033Z" fill="white"/>
</svg>
