<svg width="156" height="29" viewBox="0 0 156 29" fill="none" xmlns="http://www.w3.org/2000/svg">
<path d="M155.591 9.18607C155.434 9.48292 155.212 9.71486 154.928 9.87999C154.643 10.0461 154.345 10.1291 154.036 10.1291C153.725 10.1291 153.429 10.0461 153.145 9.87999C152.861 9.71486 152.639 9.48292 152.482 9.18607C152.324 8.88827 152.246 8.57711 152.246 8.25258C152.246 7.9271 152.325 7.61403 152.486 7.31336C152.646 7.01365 152.869 6.78266 153.156 6.6204C153.44 6.45814 153.735 6.37701 154.036 6.37701C154.339 6.37701 154.633 6.45814 154.917 6.6204C155.204 6.78266 155.428 7.01365 155.587 7.31336C155.748 7.61403 155.828 7.9271 155.828 8.25258C155.828 8.57711 155.749 8.88827 155.591 9.18607ZM155.735 7.22364C155.559 6.89529 155.314 6.6414 155.001 6.46577C154.687 6.28824 154.365 6.20043 154.036 6.20043C153.707 6.20043 153.386 6.28824 153.073 6.46577C152.759 6.6414 152.514 6.89529 152.338 7.22364C152.162 7.55294 152.074 7.8956 152.074 8.25258C152.074 8.60861 152.16 8.94936 152.334 9.27484C152.508 9.60128 152.749 9.85517 153.06 10.0356C153.371 10.216 153.696 10.3057 154.036 10.3057C154.375 10.3057 154.7 10.216 155.012 10.0356C155.324 9.85517 155.566 9.60128 155.74 9.27484C155.913 8.94936 156 8.60861 156 8.25258C156 7.8956 155.911 7.55294 155.735 7.22364ZM153.69 8.19722H153.607V7.16637C153.691 7.13583 153.769 7.12055 153.839 7.12055C154.001 7.12055 154.135 7.17401 154.238 7.279C154.343 7.38495 154.395 7.51571 154.395 7.6713C154.395 7.82115 154.339 7.94714 154.226 8.04641C154.113 8.14663 153.935 8.19722 153.69 8.19722ZM154.804 9.14598L154.226 8.28312C154.446 8.22299 154.602 8.13709 154.698 8.02637C154.793 7.91565 154.84 7.78583 154.84 7.6398C154.84 7.4594 154.77 7.30668 154.631 7.17973C154.49 7.05374 154.287 6.98979 154.019 6.98979H152.95V7.09478C153.034 7.09478 153.092 7.10624 153.126 7.1301C153.161 7.15492 153.184 7.18928 153.197 7.23318C153.203 7.258 153.205 7.342 153.205 7.48517V9.0009C153.205 9.14217 153.201 9.22425 153.194 9.25002C153.178 9.30061 153.151 9.33784 153.113 9.36265C153.074 9.38747 153.01 9.39988 152.918 9.39988V9.49628H153.933V9.39988C153.809 9.39988 153.727 9.38556 153.686 9.35693C153.644 9.32829 153.618 9.28152 153.607 9.21853V8.32417H153.817L154.631 9.49628H155.139V9.39988C155.076 9.39511 155.028 9.37984 154.993 9.35693C154.937 9.31875 154.874 9.24811 154.804 9.14598ZM14.3469 6.67194C13.6632 8.28981 13.3218 10.1558 13.3218 12.2719L13.4258 19.3342C13.4258 20.682 13.2323 21.7939 12.8462 22.6711C12.4601 23.5464 11.9297 24.2594 11.256 24.8092C10.7713 25.2034 9.97809 25.6386 8.87814 26.1159C9.81835 25.338 10.4318 24.6068 10.7184 23.9225C11.1246 22.9794 11.3272 21.6622 11.3272 19.9718L11.2378 13.0804C11.2378 11.0273 11.4605 9.40752 11.9069 8.21917C12.3524 7.03179 13.0169 5.98757 13.8987 5.08462C14.5623 4.42125 15.5984 3.73211 17.005 3.01624C15.6979 4.33344 14.8115 5.55137 14.3469 6.67194ZM19.6623 1.3287L19.1346 0.815186C18.4099 1.38597 17.7234 1.79068 17.0735 2.0293C16.4236 2.26792 15.6376 2.38723 14.7147 2.38723C13.7325 2.38723 12.3788 2.18011 10.6536 1.7649C8.50114 1.25616 6.97307 1.00227 6.0712 1.00227C4.63259 1.00227 3.41762 1.47378 2.42538 2.41873C1.43314 3.36272 0.937472 4.40025 0.937472 5.53133C0.937472 6.30924 1.13829 6.93443 1.54085 7.4069C1.94249 7.87842 2.40621 8.11513 2.93199 8.11513C3.33911 8.11513 3.67412 7.97482 3.93702 7.6942C4.19991 7.41454 4.33136 7.0671 4.33136 6.6519C4.33136 6.27869 4.21178 5.96467 3.97444 5.70982C3.73619 5.45592 3.44865 5.32897 3.11091 5.32897C2.95208 5.32897 2.77042 5.37574 2.56778 5.46928C2.36422 5.56282 2.21269 5.60864 2.11319 5.60864C2.00456 5.60864 1.91237 5.5676 1.83843 5.48456C1.76358 5.40152 1.72615 5.2927 1.72615 5.15812C1.72615 4.72192 1.96896 4.29335 2.4555 3.87338C2.94204 3.4534 3.60657 3.24341 4.45002 3.24341C5.09539 3.24341 6.01826 3.46867 7.21953 3.92015C8.4199 4.37162 9.51073 4.59688 10.4938 4.59688C11.4459 4.59688 12.6317 4.36398 14.0511 3.89724C12.4929 4.94527 11.3665 5.84535 10.6718 6.59749C9.97718 7.34963 9.50068 8.076 9.24327 8.7766C9.18028 8.94745 9.12369 9.13453 9.07348 9.33497C9.07166 9.34547 9.06801 9.35979 9.06344 9.37984C9.05888 9.39892 9.05614 9.42088 9.05157 9.43997C8.94021 10.0289 8.57417 12.8857 9.6157 21.4379C9.61753 21.4541 9.61844 21.4704 9.62118 21.4876C9.63852 21.6326 9.65586 21.7739 9.67412 21.9218L9.65769 21.919C9.66682 22.0488 9.68964 22.1786 9.68964 22.3094C9.68964 23.1493 9.44957 23.827 8.9676 24.3405C8.48654 24.854 7.85943 25.1108 7.08535 25.1108C6.68827 25.1108 6.07759 24.9705 5.25422 24.6908C4.67823 24.4932 4.15792 24.3949 3.69147 24.3949C2.57964 24.3949 1.6869 24.7777 1.01232 25.5441C0.595162 26.03 0.25833 26.7859 0 27.8111L0.602465 28.0831C0.771337 27.6478 0.950251 27.3624 1.13829 27.2279C1.4167 27.0303 1.77271 26.932 2.20995 26.932C2.7257 26.932 3.39571 27.1028 4.21908 27.4455C4.82428 27.6841 5.26335 27.8368 5.53628 27.9046C5.80922 27.9714 6.12414 28.0058 6.48106 28.0058C7.77088 28.0058 9.26426 27.4197 10.9612 26.2467C13.0123 24.8359 14.4893 23.1961 15.3911 21.3282C16.0758 19.9069 16.4181 17.7593 16.4181 14.8853C16.4181 13.9518 16.408 13.0489 16.388 12.1774C16.3487 10.5271 16.3277 9.38079 16.3277 8.73746C16.3277 7.45081 16.5641 6.26056 17.0351 5.16576C17.5062 4.07095 18.3825 2.79194 19.6623 1.3287ZM146.821 9.70245L147.029 9.59364L150.741 13.8955L146.821 16.7695V9.70245ZM153.489 12.9239L149.292 7.80397C147.644 8.68592 146.598 9.23571 146.151 9.45333C145.535 9.7435 144.761 10.0661 143.829 10.4183V19.3209C143.829 20.3374 143.772 20.9989 143.659 21.3052C143.544 21.6116 143.318 21.8684 142.98 22.0755V22.465C144.153 22.7246 145.057 22.9737 145.694 23.2114C146.33 23.4509 147.139 23.8451 148.123 24.3949L152.938 20.8776L152.611 20.4099L150.274 22.0755L146.821 20.6438V17.8109L153.489 12.9239ZM139.162 21.9667L137.465 20.6906V11.6324L138.94 10.2293L140.822 12.7215L143.076 10.6283L140.822 7.80397L137.465 10.8545C137.465 10.3047 137.366 9.87331 137.166 9.56214C136.858 9.0639 136.28 8.47784 135.433 7.80397L132.33 10.6207L132.695 11.0721C133.084 10.6569 133.389 10.4498 133.612 10.4498C133.817 10.4498 134.004 10.5815 134.173 10.8469C134.343 11.1113 134.429 11.6429 134.429 12.4418V18.7921C134.429 19.7151 134.361 20.3403 134.227 20.6667C134.093 20.9941 133.808 21.3186 133.372 21.6403V21.9829C134.026 22.1691 134.627 22.4287 135.178 22.7608C135.727 23.093 136.407 23.6371 137.22 24.3949L141.037 21.2041L140.695 20.7058L139.162 21.9667ZM131.463 21.8732C131.271 21.8732 131.094 21.7338 130.931 21.4532C130.678 21.0485 130.55 20.3746 130.55 19.4297V11.2583L131.756 10.1148L129.1 7.80397L126.487 10.1148L127.545 11.2583V19.7561L124.82 21.856C124.244 21.4198 123.882 21.059 123.733 20.7736C123.585 20.4872 123.51 20.0377 123.51 19.4249V11.1495L124.627 10.1148L121.925 7.80397L118.405 10.823L118.77 11.306C119.186 10.9528 119.498 10.7763 119.706 10.7763C119.984 10.7763 120.204 10.9213 120.365 11.2125C120.457 11.3785 120.504 11.7317 120.504 12.27V19.9594C120.504 20.934 120.652 21.7205 120.949 22.317C121.245 22.9136 121.873 23.6065 122.833 24.3949C124.434 22.9193 126.005 21.6632 127.545 20.6285C127.564 21.6345 127.694 22.3686 127.937 22.8305C128.179 23.2925 128.696 23.8137 129.486 24.3949L132.649 21.8579L132.285 21.3759C131.879 21.7071 131.606 21.8732 131.463 21.8732ZM114.905 4.14636H114.472L110.319 9.50201V10.1854H111.719V19.1156C111.719 19.842 111.635 20.3985 111.466 20.7831C111.336 21.0838 111.073 21.3749 110.676 21.6555V21.9667C112.087 22.3924 113.35 23.2018 114.465 24.3949L117.747 21.6555L117.375 21.1888L116.422 21.9667L114.755 20.6753V10.1854H117.747V8.44157H114.755L114.905 4.14636ZM109.031 21.8732C108.839 21.8732 108.661 21.7338 108.499 21.4532C108.246 21.0485 108.119 20.3746 108.119 19.4297V11.2583L109.324 10.1148L106.667 7.80397L104.055 10.1148L105.112 11.2583V19.7561L102.387 21.856C101.811 21.4198 101.45 21.059 101.301 20.7736C101.152 20.4872 101.078 20.0377 101.078 19.4249V11.1495L102.194 10.1148L99.4925 7.80397L95.9726 10.823L96.3378 11.306C96.7531 10.9528 97.0653 10.7763 97.2734 10.7763C97.5509 10.7763 97.7709 10.9213 97.9334 11.2125C98.0247 11.3785 98.0712 11.7317 98.0712 12.27V19.9594C98.0712 20.934 98.2191 21.7205 98.5167 22.317C98.8133 22.9136 99.4414 23.6065 100.401 24.3949C102.001 22.9193 103.572 21.6632 105.112 20.6285C105.132 21.6345 105.262 22.3686 105.504 22.8305C105.747 23.2925 106.264 23.8137 107.054 24.3949L110.217 21.8579L109.853 21.3759C109.447 21.7071 109.173 21.8732 109.031 21.8732ZM92.8435 21.8732L88.9585 20.2076V10.4641C89.4651 10.5596 89.8969 10.6751 90.2538 10.8106C90.7604 10.9996 91.623 11.3929 92.8435 11.9904V21.8732ZM85.9525 10.4804V19.025C85.9525 19.8659 85.8822 20.4624 85.7444 20.8146C85.6449 21.0848 85.4067 21.3854 85.0297 21.7176L85.1785 22.0288C86.0822 22.0707 86.8918 22.2263 87.6075 22.4965C88.5513 22.8487 89.7435 23.4815 91.1839 24.3949C91.6513 23.9492 92.1387 23.575 92.6454 23.2744C93.3108 22.8697 94.3898 22.3504 95.8804 21.7176V10.0757C93.7837 9.53637 92.0301 8.77946 90.6189 7.80397C89.3263 8.95509 87.7709 9.84754 85.9525 10.4804ZM72.2611 20.5741C71.3519 20.0825 70.4984 19.3753 69.7033 18.4523C71.0069 17.3202 72.0219 16.3133 72.7485 15.4304C73.1073 14.9942 73.3364 14.5837 73.4359 14.1991C73.5253 13.9079 73.5701 13.3219 73.5701 12.438V5.33375L75.3117 3.75597L75.4605 21.562C74.2373 21.3959 73.1712 21.0676 72.2611 20.5741ZM80.6061 20.8891C79.4331 21.3997 78.1342 21.6555 76.7093 21.6555L76.1451 21.6403L75.9964 3.86574C78.0694 4.94527 79.9297 5.5781 81.5783 5.76518L84.0338 3.31309L83.7882 2.74517H83.4468C82.2985 2.74517 81.298 2.65449 80.4464 2.47314C79.5947 2.29178 78.4263 1.89472 76.942 1.28193L70.5632 6.83898V13.8115C70.5632 15.3674 70.5039 16.3199 70.3852 16.6674C70.2656 17.0148 69.9087 17.4434 69.3136 17.9512C67.9334 16.0937 67.2442 14.0712 67.2442 11.8816C67.2442 10.0757 67.7106 8.4053 68.6435 6.86952C69.3674 5.67641 70.4692 4.55584 71.948 3.50781L71.5828 3.0716C69.3227 4.49379 67.6878 5.95703 66.6764 7.46131C65.3884 9.38079 64.744 11.4664 64.744 13.718C64.744 15.5439 65.2004 17.3183 66.1132 19.0412C67.026 20.7631 68.2885 22.086 69.9014 23.009C71.5135 23.933 73.2332 24.3949 75.0589 24.3949C76.2894 24.3949 77.5299 24.1744 78.7796 23.7325C80.0301 23.2906 81.099 22.7017 81.9872 21.9638C82.8754 21.226 83.7809 20.1923 84.7038 18.8617L84.2501 18.4026C82.9932 19.5499 81.7782 20.3784 80.6061 20.8891ZM55.6166 17.8032C55.0288 18.9496 54.0374 20.053 52.6435 21.1105V12.2719L54.8635 10.4164C55.9544 11.7546 56.4993 13.1253 56.4993 14.5255C56.4993 15.564 56.2054 16.6569 55.6166 17.8032ZM52.6435 11.5542V11.2125C52.6435 10.4336 52.5176 9.82176 52.2647 9.37506C52.011 8.92932 51.4578 8.4053 50.6052 7.80397L47.4788 10.5271L47.8512 11.0406C47.9398 10.9586 48.0037 10.8956 48.0429 10.8545C48.3085 10.5844 48.5249 10.4498 48.6919 10.4498C48.8991 10.4498 49.0908 10.5949 49.2679 10.8851C49.4943 11.2583 49.6075 11.9646 49.6075 13.0021V20.4414C49.6075 21.0542 49.5673 21.5286 49.4879 21.8655C49.4076 22.2025 49.2579 22.569 49.0379 22.9632C48.9585 23.1083 48.7531 23.3574 48.4236 23.7096C47.7344 24.436 47.3902 25.1833 47.3902 25.9508C47.3902 26.7296 47.6969 27.4006 48.3122 27.9666C48.9283 28.5317 49.8056 28.8152 50.9475 28.8152C52.0383 28.8152 52.942 28.5556 53.6559 28.0363C54.1223 27.7147 54.356 27.3882 54.356 27.0561C54.356 26.8699 54.2958 26.7191 54.1771 26.6046C54.0575 26.49 53.8996 26.4337 53.7006 26.4337C53.5226 26.4337 53.3683 26.4853 53.2396 26.5893C53.11 26.6924 52.9566 26.9138 52.7777 27.2508C52.5997 27.5877 52.4153 27.8082 52.2273 27.9122C51.8403 28.1299 51.3492 28.2387 50.754 28.2387C49.9297 28.2387 49.267 28.0134 48.7668 27.5619C48.2656 27.1105 48.0146 26.6208 48.0146 26.0911C48.0146 25.7799 48.084 25.5002 48.2236 25.2511C48.4117 24.9085 48.7293 24.5553 49.1757 24.1926C49.3848 24.016 50.0146 23.596 51.0662 22.9317C53.4779 21.4274 55.2241 20.2104 56.3058 19.2817C57.3866 18.354 58.1817 17.3727 58.6874 16.3409C59.1931 15.3082 59.4468 14.2726 59.4468 13.236C59.4468 11.306 58.6746 9.49437 57.1319 7.80397L52.6435 11.5542ZM45.1958 22.0746L42.2665 20.7058V10.7763L45.1766 12.5354L46.7613 10.1148L42.8991 7.80397C41.6906 9.02763 40.4674 9.93535 39.2296 10.5271V19.3829C39.2296 20.2448 39.1502 20.8776 38.9913 21.2823C38.8827 21.5725 38.6545 21.8426 38.3067 22.0908V22.465C39.288 22.6616 40.115 22.8926 40.7887 23.157C41.4623 23.4223 42.2748 23.8346 43.2268 24.3949L46.9101 21.562L46.7531 20.8958L45.1958 22.0746ZM37.7681 2.48077H35.8777L35.1182 5.84249H35.7143L37.7681 2.48077ZM37.9544 21.2041C37.56 21.5467 37.2999 21.7548 37.1748 21.8264C37.0844 21.8789 36.9859 21.9047 36.8791 21.9047C36.7266 21.9047 36.5787 21.7701 36.4354 21.5C36.2921 21.2308 36.22 20.6495 36.22 19.7571V11.2898L37.3957 10.0995L34.754 7.80397L32.1269 10.0995L33.2433 11.2898V19.9747C33.2433 21.2823 33.3574 22.1977 33.5874 22.7217C33.8165 23.2457 34.3295 23.8032 35.1264 24.3949L38.3186 21.6861L37.9544 21.2041ZM30.859 21.8732C30.6664 21.8732 30.4884 21.7338 30.3259 21.4532C30.073 21.0485 29.9461 20.3746 29.9461 19.4297V11.2583L31.1511 10.1148L28.4948 7.80397L25.8822 10.1148L26.9393 11.2583V19.7561L24.2145 21.856C23.6385 21.4198 23.277 21.059 23.1283 20.7736C22.9795 20.4872 22.9055 20.0377 22.9055 19.4249V11.1495L24.0219 10.1148L21.3199 7.80397L17.8001 10.823L18.1643 11.306C18.5806 10.9528 18.8927 10.7763 19.1009 10.7763C19.3784 10.7763 19.5984 10.9213 19.7599 11.2125C19.8521 11.3785 19.8987 11.7317 19.8987 12.27V19.9594C19.8987 20.934 20.0466 21.7205 20.3441 22.317C20.6408 22.9136 21.2688 23.6065 22.2282 24.3949C23.8284 22.9193 25.3994 21.6632 26.9393 20.6285C26.9594 21.6345 27.0899 22.3686 27.3327 22.8305C27.5746 23.2925 28.0913 23.8137 28.8818 24.3949L32.0447 21.8579L31.6805 21.3759C31.2743 21.7071 31.0005 21.8732 30.859 21.8732Z" fill="white"/>
</svg>
