<svg width="60" height="67" viewBox="0 0 60 67" fill="none" xmlns="http://www.w3.org/2000/svg">
<path d="M55.573 7.7727C55.8788 7.7727 56.1531 7.75179 56.1531 7.37511C56.1531 7.07327 55.8848 7.01674 55.6327 7.01674H55.1395V7.7727H55.573ZM55.1395 9.14404H54.7773V6.70394H55.688C56.2521 6.70394 56.5323 6.91494 56.5323 7.39808C56.5323 7.83386 56.2617 8.02522 55.9117 8.06922L56.5908 9.14404H56.1872L55.5567 8.0877H55.1395V9.14404ZM55.5782 9.68706C56.5135 9.68706 57.2533 8.93694 57.2533 7.918C57.2533 6.91494 56.5135 6.16028 55.5782 6.16028C54.6323 6.16028 53.8922 6.91494 53.8922 7.918C53.8922 8.93694 54.6323 9.68706 55.5782 9.68706ZM53.4747 7.918C53.4747 6.70394 54.4394 5.80786 55.5782 5.80786C56.7058 5.80786 57.6698 6.70394 57.6698 7.918C57.6698 9.14404 56.7058 10.0407 55.5782 10.0407C54.4394 10.0407 53.4747 9.14404 53.4747 7.918Z" fill="white"/>
<path d="M50.9162 22.3487L48.8204 22.9569C49.3749 24.0881 50.6398 26.3514 50.6398 26.3514L48.1082 26.4336L45.8532 23.6839C44.7447 23.9244 42.233 24.501 42.233 24.501L43.2425 26.4336L41.4185 26.6526L39.9987 24.7751C39.9987 24.7751 34.8184 26.3107 32.2858 27.1219L32.1281 27.363C32.1682 30.274 32.3667 33.1439 32.6826 35.935L32.9204 36.5407C37.7442 37.4729 42.6097 37.7147 47.714 37.9985L48.1853 37.7979C49.5724 35.7735 50.3632 33.5089 51.1132 31.2035C51.9053 28.5345 52.102 24.8552 50.9162 22.3487ZM9.14825 21.1359C8.79144 21.9437 8.83132 23.1165 8.9111 23.9671C9.38494 23.1993 10.5186 21.6671 10.5186 21.6671L9.14825 21.1359ZM23.3472 21.0136L17.4136 25.9878L14.5669 26.1102C14.5669 26.1102 15.7186 24.7915 16.1147 24.0625C15.0846 23.5767 13.9336 23.0771 12.8661 22.753L10.7688 25.6243C10.0973 25.7052 9.34506 25.6243 8.83132 25.8689C8.67313 28.2518 9.18753 30.4778 9.6235 32.701C9.81966 33.2671 9.97846 34.2367 10.8091 34.1569C16.6632 34.1569 22.1616 35.0853 27.9345 35.6913V26.6348C27.66 26.028 26.8891 24.9381 26.4949 24.4543L23.8224 26.0688L18.9182 26.1102C18.8783 26.028 22.9525 23.7239 24.8108 22.4691C24.2963 21.9437 23.9806 21.3377 23.3472 21.0136ZM36.6376 20.4082L34.897 23.3204L36.8749 23.1309L38.6449 20.1505L36.6376 20.4082ZM8.52785 18.235L11.7923 19.783L12.8147 18.0463L8.52785 18.235ZM16.2587 17.6558L14.4081 20.5693L18.1711 22.0576L21.2915 19.2756L20.1046 17.9811L16.2587 17.6558ZM29.9923 17.4152L28.6733 18.0725L28.7524 19.9441L29.8338 20.3267L29.9923 17.4152ZM25.1669 15.4325L24.0989 17.6183L26.1565 20.0027C25.8781 18.4256 25.5624 16.9307 25.1669 15.4325ZM32.6032 16.0414L32.8015 20.7316L36.2433 16.2424C36.5515 15.9105 36.6523 15.305 36.6523 15.305L35.9977 13.1904L32.6032 16.0414ZM42.4709 13.0582L40.8694 13.2501L38.3582 17.3146L39.9824 17.2626L42.4709 13.0582ZM21.8054 11.1518L21.9641 15.7179L23.6649 11.7546L21.8054 11.1518ZM34.7566 10.0783L33.6515 10.8298L33.8849 11.6718L34.8962 10.7101L34.7566 10.0783ZM15.4761 8.92402V9.08637C16.7423 10.38 19.277 13.2692 19.277 13.2692V10.0133L15.4761 8.92402ZM21.687 5.97317V8.43817L22.8734 8.72222C22.5955 7.75127 22.1217 6.86254 21.687 5.97317ZM29.0815 5.68977L26.5429 10.6135L28.0534 15.6778L30.2722 14.0857L30.8622 9.85354C30.2699 8.43817 29.7149 6.98281 29.0815 5.68977ZM32.643 8.034L33.9478 7.75127C33.9478 7.75127 31.9701 3.22335 31.1406 0.918618C31.851 0.877194 32.5241 0.918618 33.1564 1.07902C34.1465 2.78822 35.9251 6.17421 35.9251 6.17421C35.9251 6.17421 39.0102 4.39611 40.5933 3.5448C41.0659 3.62493 41.5418 3.9491 41.8985 4.31522L37.161 8.60915L38.5493 12.6184C38.5493 12.6184 41.8985 7.79141 43.5595 5.48602C44.153 5.56744 44.6271 6.09408 44.9833 6.53903C44.3112 7.79141 43.2831 8.9634 42.7687 10.1763C44.7858 10.34 46.8035 10.2578 48.7801 10.4202C49.2945 11.0282 49.8873 11.7139 50.1251 12.4823L45.1015 12.8879L42.7108 17.1175L45.9626 16.3838C45.9626 16.3838 48.4991 15.3097 51.1543 14.2618C51.6273 14.908 51.9053 15.595 52.102 16.3647L46.6846 18.5879L41.8582 19.6398C41.1457 20.449 40.7502 21.3792 40.1965 22.2265C44.5092 21.4192 48.7018 20.0027 53.0523 19.1152C54.9898 25.7868 53.8842 33.3078 50.3632 38.9269C38.6154 41.9604 26.1565 38.1196 14.0126 39.7756L10.4922 40.2225C8.00124 37.1079 6.73507 33.3078 6.06253 29.3464C5.47028 25.0177 5.94488 20.3267 7.48611 16.4863C7.83853 16.4351 13.1967 15.944 13.1967 15.944L9.8993 11.8755C10.0184 11.1873 10.6105 10.6634 11.0465 10.0961C12.7665 11.9341 15.9906 15.6778 15.9906 15.6778L17.8109 15.5147L12.1537 8.92402C12.7073 8.034 13.6583 7.10308 14.4879 6.49774L19.2738 7.38711C19.2738 7.38711 19.2333 4.759 19.313 3.30285C20.302 2.73815 21.4092 2.25242 22.4779 2.04995C23.4264 3.79064 24.1381 5.65029 25.1669 7.38711C26.3946 5.3664 27.4617 3.10167 28.5686 0.918618C28.6868 0.83642 28.9249 0.755634 29.0815 0.877194L32.643 8.034Z" fill="white"/>
<path d="M49.4533 40.4236C47.9904 42.4456 46.0903 44.5086 43.9542 45.964C32.8791 45.802 22.7149 42.7279 11.9175 42.2043C11.5601 41.8816 11.2051 41.5164 11.0855 41.0304C19.5089 39.5329 28.0534 40.3837 36.3995 40.9096C40.7502 41.1107 45.3393 40.8279 49.4918 40.0205L49.4533 40.4236Z" fill="white"/>
<path d="M32.8791 45.802C36.0823 46.1651 39.3276 46.4506 42.5308 46.8533C35.847 51.6252 25.2065 51.7053 18.2833 47.5415C16.3863 46.3274 14.3692 45.0337 12.8665 43.2141C12.9443 42.9729 13.341 43.174 13.5777 43.0516L18.1655 43.4573L32.8791 45.802Z" fill="white"/>
<path d="M54.1228 54.8093C54.251 54.8093 54.3676 54.8001 54.3676 54.6431C54.3676 54.5186 54.2528 54.4932 54.1484 54.4932H53.9405V54.8093H54.1228ZM53.9405 55.3849H53.7916V54.3595H54.1708C54.4082 54.3595 54.5237 54.4517 54.5237 54.6536C54.5237 54.8352 54.4128 54.9169 54.2639 54.9338L54.5483 55.3849H54.3792L54.1166 54.9412H53.9405V55.3849ZM54.1253 55.6106C54.5165 55.6106 54.8262 55.2977 54.8262 54.8712C54.8262 54.4517 54.5165 54.1359 54.1253 54.1359C53.7296 54.1359 53.4196 54.4517 53.4196 54.8712C53.4196 55.2977 53.7296 55.6106 54.1253 55.6106ZM53.2436 54.8712C53.2436 54.3595 53.6489 53.9874 54.1253 53.9874C54.5984 53.9874 54.9999 54.3595 54.9999 54.8712C54.9999 55.3849 54.5984 55.7594 54.1253 55.7594C53.6489 55.7594 53.2436 55.3849 53.2436 54.8712Z" fill="white"/>
<path d="M8.08947 53.4625C8.36793 54.5561 8.61292 55.6587 8.8135 56.7909C8.84695 57.0148 8.76857 57.176 8.63477 57.3224C8.52421 57.4601 8.3904 57.5158 8.23413 57.5402C8.01109 57.5402 7.81103 57.4712 7.65616 57.2891C7.18735 56.5819 7.04206 55.7417 6.47365 55.1027C6.32963 54.9882 6.12956 54.9082 5.95082 54.9993L5.81653 55.1362L5.91737 65.3299C5.96181 65.6473 6.25239 65.9111 6.55267 65.9663C6.79704 65.8984 6.98676 65.6362 7.03182 65.3976L7.06452 64.8286L7.00922 59.8621C6.9205 59.498 6.45245 59.4866 6.38492 59.1462C6.4402 58.9514 6.65237 58.8148 6.8195 58.7352C7.45417 58.4506 8.1223 58.2698 8.73448 57.9384C8.92407 57.9265 9.15885 57.893 9.32663 57.995L9.43859 58.1544L9.50471 65.2818C9.56075 65.5234 9.62691 65.8535 9.92657 65.9111C10.0494 66.0128 10.0166 66.1962 9.95106 66.3191C9.80439 66.5469 9.53692 66.5591 9.32663 66.5821H7.00922C6.8195 66.5932 6.67487 66.4687 6.54041 66.3424C6.03955 66.7414 5.18312 66.5821 4.60249 66.617C3.9235 66.5369 3.07664 66.8091 2.47607 66.387C2.37382 66.308 2.39629 66.1497 2.40853 66.0583C2.51974 65.831 2.85412 65.9111 2.92037 65.6251L3.02137 65.3061L2.98792 57.5624L2.94222 55.1362C2.86635 55.0244 2.74291 54.9645 2.59687 54.9771C2.34163 54.9993 2.186 55.2734 2.05169 55.4655C1.75077 56.0118 1.55083 56.6178 1.28323 57.176C1.19323 57.3678 1.03696 57.4936 0.84863 57.5735C0.581788 57.6644 0.324538 57.5513 0.145802 57.3581C-0.164841 56.9582 0.112352 56.4339 0.145802 56.0012L0.669136 53.5429C0.737298 53.4157 0.803567 53.2474 0.949611 53.2115C1.37133 53.0516 1.46209 53.6557 1.86261 53.5429L7.05291 53.4961C7.36543 53.4752 7.55515 52.9741 7.92425 53.2115L8.08947 53.4625Z" fill="white"/>
<path d="M39.8927 53.6005L40.006 53.7591L40.0375 55.4425L40.1166 65.2255C40.1608 65.5012 40.2606 65.7744 40.5499 65.8986C40.638 66.0017 40.638 66.1722 40.6065 66.308C40.4837 66.6381 40.1277 66.6836 39.8157 66.6836L37.6429 66.6738C37.4656 66.6381 37.2642 66.5694 37.1647 66.387C37.0869 66.2515 37.0869 66.0807 37.1517 65.9319C37.3761 65.7855 37.6217 65.6362 37.6429 65.3294L37.6339 60.7739C37.5972 60.3984 37.6429 59.8621 37.5972 59.5104C37.4315 59.9187 37.6217 60.4999 37.1755 60.7409C36.9863 60.8178 36.7865 60.7409 36.6288 60.6481C36.4284 60.4544 36.3403 60.1922 36.2738 59.9298C36.1513 59.8069 35.9833 59.8962 35.8613 59.9541C34.1675 61.1849 34.9032 63.5642 34.7597 65.42C34.7365 65.7969 35.2137 65.6587 35.2594 66.0017C35.2594 66.1611 35.192 66.2964 35.1038 66.4114C34.9464 66.5694 34.691 66.5591 34.4896 66.5816L32.095 66.5591C31.9401 66.5239 31.8062 66.3995 31.7504 66.2515C31.7059 66.1386 31.7059 65.9787 31.7941 65.8762C31.9401 65.7263 32.1961 65.7633 32.2623 65.5234L32.2747 64.9657L32.2281 59.8307C32.2082 59.3946 31.5718 59.429 31.6271 58.9628L31.9285 58.6893C32.6198 58.383 33.3431 58.1544 34.0235 57.8369C34.2789 57.8013 34.5348 57.8013 34.6799 58.0399C34.7476 58.4165 34.6465 58.861 34.7597 59.2691C34.7802 59.3156 34.8471 59.2934 34.8799 59.2815C35.3049 58.6208 35.8509 57.8467 36.6952 57.9057C37.0191 57.9268 37.387 57.949 37.5646 58.2566L37.6088 58.1544L37.5767 56.2288L37.5548 56.2177C37.5876 56.0369 37.5416 55.797 37.5088 55.5911C37.5318 55.1706 36.8746 55.1476 37.0765 54.6933C37.677 53.976 38.6795 54.0424 39.3817 53.485C39.5714 53.4395 39.7604 53.4969 39.8927 53.6005Z" fill="white"/>
<path d="M23.7843 59.1097C23.6288 59.1565 23.5175 59.3056 23.4397 59.4411C22.9169 60.5802 22.872 61.811 23.0056 63.1184C23.1278 63.666 23.1619 64.2588 23.574 64.6692C23.6969 64.7495 23.8512 64.6343 23.9624 64.5542C24.8897 63.1073 24.6112 60.9444 24.0969 59.3846C24.0088 59.2932 23.9624 59.077 23.7843 59.1097ZM28.4531 59.3846C28.2861 60.1925 28.3318 60.9098 28.4872 61.6952C28.542 61.7986 28.5749 61.982 28.7312 61.9706C29.0322 61.7888 29.3998 61.7182 29.6448 61.4106C30.1463 60.6019 29.5559 59.7266 29.1785 59.0196C28.8871 58.8259 28.5542 59.1 28.4531 59.3846ZM22.8938 53.5431L22.9716 53.7477L23.0056 58.1205C23.1729 58.4408 23.3619 57.9376 23.574 57.9152C24.1985 57.6998 24.9211 57.9376 25.3662 58.4506C26.2356 59.3952 26.3705 60.6019 26.5822 61.8326L26.6143 61.7986C26.75 60.387 27.0277 58.8936 28.2861 58.1205C28.944 57.7096 29.9129 57.755 30.5468 58.1316C31.3262 58.8357 31.9507 59.7165 31.9171 60.798C31.9171 61.1043 31.9055 61.3651 31.8189 61.6276C30.8916 62.085 29.902 62.4138 28.9541 62.8248C28.7312 62.9942 28.92 63.2788 28.9541 63.4749C29.1097 63.8719 29.3103 64.4292 29.801 64.5088C30.069 64.6 30.4581 64.7699 30.7146 64.5326C31.0036 64.2588 30.781 63.4511 31.427 63.6549C31.6824 63.712 31.9171 63.8483 32.0508 64.0994C32.218 64.8619 31.8838 65.5672 31.5276 66.1497C30.8709 66.7288 29.9566 66.8339 29.1097 66.7174C27.4604 66.3757 26.8702 64.5878 26.6476 63.1073C26.5153 64.4649 26.4375 66.1035 24.9759 66.6484C24.0865 66.9021 23.0835 66.7174 22.4605 66.068C22.3819 65.9549 22.3595 65.7742 22.2026 65.7163C21.8367 65.7269 21.8367 66.1497 21.6457 66.3757C21.4123 66.5237 21.1673 66.7523 20.8663 66.6608C20.7552 66.6056 20.6876 66.4803 20.6201 66.3876C20.3096 66.7412 19.853 66.6307 19.4305 66.6484L17.7478 66.6307C17.5587 66.5932 17.3569 66.4692 17.3118 66.2639C17.2796 66.0583 17.4905 65.966 17.6256 65.8984C17.7813 65.6248 17.8808 65.3299 17.848 64.9755C17.7935 63.4749 17.6699 61.9476 17.4365 60.5139C17.3472 60.215 17.2688 59.8746 17.0128 59.6824C16.8238 59.6119 16.6894 59.7593 16.5678 59.8521L16.4219 60.0908L16.4335 65.3627C16.5003 65.6143 16.6 65.8984 16.8798 65.9903C16.946 66.0813 16.9569 66.2174 16.9118 66.3191C16.6 66.7866 15.9531 66.5591 15.5192 66.617C14.9745 66.5369 14.1052 66.8432 13.7373 66.308C13.6924 66.1727 13.727 66.0128 13.8704 65.9452C14.138 65.8762 14.2049 65.5672 14.2827 65.3521L14.2388 59.841C14.1482 59.6462 13.9373 59.5321 13.7373 59.5207C13.5046 59.5321 13.3252 59.7474 13.203 59.9301C12.958 60.387 13.1033 60.8992 13.0686 61.4357L13.1149 65.3976C13.1033 65.7393 13.4358 65.8421 13.5823 66.0469C13.6255 66.2515 13.4923 66.4211 13.3367 66.5237C12.4108 66.6965 11.6212 66.5691 10.6856 66.6056C10.4734 66.5591 10.229 66.5467 10.1063 66.3191C10.0613 66.2279 10.0284 66.068 10.1282 65.9903C10.3275 65.8873 10.5287 65.7269 10.5737 65.4882L10.6297 65.1943L10.5737 59.8962C10.5184 59.4755 9.88377 59.5207 9.99372 59.0659C10.2953 58.689 10.7847 58.6213 11.1987 58.4281C11.5756 58.3026 11.9441 58.1417 12.2996 57.9495C12.5677 57.9376 12.9015 57.893 13.0249 58.1771C13.0249 58.3827 12.9471 58.6668 13.1573 58.7707C13.4699 58.7456 13.5252 58.3592 13.7811 58.1982C14.2827 57.7661 15.1416 57.8589 15.6869 58.1205C15.9531 58.2823 16.0541 58.5537 16.2547 58.7707C16.611 58.7707 16.6566 58.3137 16.9118 58.1417C17.4018 57.824 18.1928 57.9152 18.6609 58.2244C19.5064 58.9303 19.5064 60.0675 19.7527 61.0575C19.9526 62.3913 20.1308 63.7365 20.109 65.1589C20.1539 65.4317 20.143 65.8762 20.4889 65.966L20.5654 66.0469L20.6201 65.9325L20.5204 55.7843C20.5101 55.3989 20.2652 55.0913 20.0208 54.8416C19.9758 54.716 20.0208 54.5892 20.0974 54.4972C20.6426 53.9633 21.3911 53.9298 22.0251 53.578C22.2263 53.3256 22.6939 53.2802 22.8938 53.5431Z" fill="white"/>
<path d="M56.1348 59.1338C55.9349 59.1917 55.8912 59.4078 55.8119 59.5667C55.5446 60.5916 55.3202 61.7407 55.4771 62.857C55.6216 63.4947 55.6578 64.1908 56.1797 64.6695C56.3015 64.726 56.4685 64.7384 56.5592 64.6002C57.2159 63.3256 57.1373 61.6725 56.8255 60.2604C56.6699 59.8524 56.605 59.3058 56.1348 59.1338ZM59.3333 53.6118L59.3659 54.1232L59.4644 64.7694C59.4644 64.8967 59.5556 65.0104 59.6663 65.0545C59.7774 65.1013 59.9672 65.1137 59.9892 65.2818C60.022 65.4668 59.9788 65.6476 59.8785 65.7855C59.2767 66.1275 58.6304 66.3318 57.9945 66.5591C57.6944 66.6053 57.3823 66.8342 57.0923 66.631C56.9258 66.4917 57.2159 66.2274 56.9496 66.1497C56.6807 66.3194 56.4923 66.6735 56.1797 66.7525C55.4885 66.8905 54.7983 66.5927 54.2861 66.1164C53.1833 64.8286 53.2611 62.8118 53.5057 61.1505C53.6298 60.0231 54.053 58.9739 54.7983 58.1417C55.1555 57.7915 55.6578 57.6868 56.1567 57.7664C56.4243 57.8132 56.5797 58.0286 56.8035 58.1765C56.8601 58.1654 56.9137 58.1319 56.9258 58.0753L56.9137 55.5813C56.8369 55.1154 55.8344 54.9996 56.3581 54.3857C56.5592 54.2599 56.8493 54.3632 57.0602 54.2488C57.6944 53.8835 58.3967 53.6557 59.0534 53.3259C59.1769 53.3706 59.2984 53.4625 59.3333 53.6118Z" fill="white"/>
<path d="M43.1019 62.1627C42.2995 62.63 42.5231 63.666 42.4993 64.4403C42.5779 64.7495 42.6679 65.1465 43.0249 65.2607C43.3025 65.3521 43.592 65.2607 43.7595 65.0334C43.7919 64.0991 43.704 63.0967 43.6249 62.1173C43.5243 61.89 43.235 62.0258 43.1019 62.1627ZM52.2134 58.8357C52.4815 59.2694 52.6262 59.7364 52.7258 60.238C52.9946 61.8453 53.2281 63.4953 53.3159 65.1465C53.3284 65.3521 53.3715 65.5585 53.484 65.7269C53.6176 65.8421 53.8164 65.8651 53.8164 66.068C53.8164 66.2639 53.7084 66.4 53.5494 66.4803C52.7477 66.6307 51.8256 66.5467 50.9787 66.5467C50.7993 66.515 50.5992 66.4111 50.5344 66.2174C50.4971 66.0813 50.5212 65.8984 50.6765 65.8421C51.0095 65.7052 50.9883 65.3185 51.056 65.0223C51.0785 63.3808 50.7223 61.7293 50.2753 60.1925C50.2091 60.0104 50.0869 59.8066 49.8953 59.7041C49.7513 59.6586 49.5849 59.7266 49.5417 59.8521L49.4962 60.0577L49.5624 65.3619C49.5499 65.7269 49.9204 65.7974 50.0398 66.068C50.076 66.2639 49.8953 66.4111 49.763 66.4914C48.9724 66.6386 47.9803 66.5691 47.1683 66.5467C46.9884 66.515 46.7883 66.3876 46.7335 66.1962C46.6564 66.2512 46.5331 66.4 46.4326 66.4914C46.1332 66.7412 45.7537 66.7642 45.3967 66.7412C44.9833 66.6484 44.6948 66.3545 44.3603 66.068H44.1615C43.5359 66.6833 42.6125 67.0364 41.7868 66.6608C41.0951 66.4447 40.4612 65.7742 40.3705 65.0223C40.1934 64.0196 40.2603 62.8811 41.0855 62.2315C41.7326 61.5145 42.567 61.2399 43.3917 60.9555C43.568 60.5913 43.5359 60.0908 43.424 59.7041C43.3149 59.4636 43.235 59.2038 42.9675 59.077L42.21 59.008C42.1327 59.0196 42.0423 59.0545 42.0218 59.1459C42.0976 59.351 42.3677 59.3735 42.4223 59.6119C42.4897 59.9539 42.4897 60.4108 42.2217 60.669C41.8326 60.9209 41.207 61.0345 40.8058 60.7282C40.4612 60.4423 40.3705 60.0453 40.3705 59.6119C40.3609 58.9192 40.9627 58.4171 41.5206 58.1882C42.322 57.9152 43.1797 57.9495 44.0486 58.0529C44.6155 58.1205 45.1294 58.4958 45.3737 59.0434C45.6759 59.8619 45.7633 60.7848 45.8649 61.6841C45.9429 62.709 45.9866 63.8029 46.0435 64.8412C46.0642 64.953 46.1208 65.0543 46.2314 65.101C46.4101 65.0815 46.6448 65.101 46.6673 65.3185C46.7451 65.5009 46.7883 65.7163 46.7883 65.8984C46.9563 65.8762 47.1458 65.7393 47.2006 65.5585L47.3014 65.2141L47.2461 59.8521C47.2127 59.4076 46.1208 59.2139 46.8886 58.7707C47.5124 58.4617 48.1721 58.2241 48.7822 57.8806C48.9828 57.8589 49.2286 57.8589 49.3969 57.995C49.5187 58.1541 49.4279 58.3827 49.574 58.5294C49.7738 58.4506 49.7738 58.2241 49.9313 58.0864C50.2091 57.8367 50.5649 57.6741 50.9666 57.7912C51.4689 57.9733 51.9246 58.3592 52.2134 58.8357Z" fill="white"/>
</svg>
