<svg width="88" height="16" viewBox="0 0 88 16" fill="none" xmlns="http://www.w3.org/2000/svg">
<mask id="path-1-inside-1_0_49" fill="white">
<path d="M25.7501 11.833L24.0824 11.1013L24.0796 5.84155L25.73 6.75526L26.5951 5.4971L24.4218 4.27312C23.7607 4.90527 23.091 5.37392 22.4131 5.67898L22.4156 10.4324C22.4159 10.8951 22.3713 11.2348 22.2815 11.452C22.2193 11.6079 22.0904 11.7527 21.894 11.8868L21.8942 12.0501C22.4378 12.1589 22.8967 12.2815 23.2704 12.419C23.6437 12.5564 24.0947 12.7708 24.6224 13.0614L26.6637 11.5576L26.6027 11.2048L25.7501 11.833ZM29.8229 6.29579V6.1112C29.8227 5.69088 29.7524 5.36006 29.6109 5.11911C29.47 4.87864 29.1617 4.59574 28.6867 4.27088L26.9479 5.70931L27.177 5.9705C27.2258 5.92461 27.2616 5.89042 27.2836 5.86734C27.4319 5.71806 27.5523 5.64367 27.6461 5.64364C27.7611 5.64354 27.8683 5.72125 27.9674 5.87506C28.0936 6.07413 28.1572 6.44941 28.1574 7.00111L28.1596 10.9578C28.1597 11.2837 28.1365 11.5362 28.091 11.7154C28.0451 11.8952 27.959 12.0897 27.833 12.299C27.7868 12.3766 27.6691 12.5088 27.4803 12.697C27.0843 13.0827 26.8866 13.4804 26.8867 13.8891C26.887 14.3023 27.0588 14.66 27.4027 14.961C27.7455 15.2613 28.2358 15.4116 28.8726 15.4113C29.4817 15.4109 29.9857 15.2791 30.3847 15.0153C30.645 14.8517 30.7749 14.6861 30.7749 14.5174C30.7748 14.4223 30.7414 14.3461 30.6753 14.2885C30.6088 14.2303 30.5206 14.2011 30.4102 14.2012C30.3106 14.2012 30.2249 14.2276 30.1537 14.2809C30.0815 14.3332 29.9957 14.4447 29.897 14.6158C29.7972 14.7865 29.6953 14.8982 29.5908 14.9518C29.3751 15.0614 29.1019 15.1173 28.7707 15.1176C28.3123 15.1177 27.9436 14.9983 27.6648 14.7602C27.3859 14.521 27.2463 14.2614 27.2462 13.9818C27.2461 13.8167 27.2848 13.6689 27.3624 13.5372C27.467 13.3555 27.6438 13.1689 27.8929 12.9768C28.0087 12.8836 28.3598 12.6609 28.946 12.3094C30.289 11.5156 31.2619 10.8741 31.8645 10.3837C32.4674 9.89392 32.9095 9.37332 33.1911 8.82226C33.4727 8.27143 33.6134 7.71911 33.6132 7.16565C33.6126 6.13665 33.1818 5.1711 32.3213 4.26905L29.8229 6.29579ZM31.4875 9.5982C31.1588 10.207 30.605 10.7908 29.8256 11.3489L29.8231 6.70618L31.0905 5.67837C31.6828 6.38892 31.9796 7.11546 31.98 7.85873C31.9803 8.41007 31.8158 8.9895 31.4875 9.5982ZM21.1828 1.4652L20.1375 1.46582L19.7139 3.2303L20.0731 3.23002L21.1828 1.4652ZM20.8692 11.7129C20.8191 11.7422 20.7646 11.7564 20.7048 11.7563C20.6201 11.7565 20.5379 11.685 20.4582 11.5414C20.3786 11.398 20.3384 11.0885 20.338 10.6134L20.3356 6.10469L20.9561 5.46732L19.5016 4.27586L18.0487 5.46888L18.6698 6.10561L18.6722 10.7173C18.6726 11.4114 18.7372 11.8979 18.8665 12.1763C18.9959 12.454 19.2853 12.75 19.7352 13.064L21.5149 11.6255L21.3024 11.3644C21.0831 11.5563 20.9386 11.6723 20.8692 11.7129ZM4.94804 8.27865C5.07977 9.45848 5.35606 11.3664 5.3564 11.9773C5.35667 12.4231 5.22353 12.7824 4.9575 13.0553C4.69158 13.3275 4.34432 13.4638 3.91681 13.464C3.69718 13.4641 3.35969 13.3875 2.90423 13.2344C2.5856 13.1266 2.29764 13.0731 2.03994 13.0731C1.42534 13.0736 0.93171 13.2767 0.558567 13.684C0.328362 13.9424 0.141876 14.3431 0 14.8871L0.310144 15.0342C0.403685 14.7994 0.502542 14.645 0.607513 14.5727C0.762134 14.4666 0.960481 14.4132 1.20293 14.413C1.48939 14.413 1.8614 14.506 2.31965 14.694C2.65552 14.824 2.8998 14.9076 3.05125 14.9452C3.20247 14.981 3.37786 14.9999 3.57634 14.9997C4.29267 14.9993 5.12203 14.6883 6.0644 14.0665C7.17368 13.3182 7.9727 12.4495 8.46016 11.4593C8.82928 10.7058 9.01403 9.56818 9.01319 8.04495C9.01295 7.55035 9.00925 7.07208 9.00166 6.61011C8.98658 5.73622 8.979 5.12809 8.97886 4.78724C8.97842 4.10567 9.10926 3.47474 9.37241 2.89454C9.63572 2.31447 10.1244 1.63637 10.839 0.860549L10.5285 0.588745C10.1301 0.873654 9.75179 1.07573 9.39467 1.19472C9.03718 1.31446 8.60435 1.37386 8.09704 1.37417C7.55672 1.37446 6.81192 1.27214 5.86209 1.06686C4.67707 0.815823 3.83647 0.690576 3.34041 0.690708C2.54825 0.691188 1.87976 0.940903 1.33443 1.43983C0.788407 1.93919 0.51609 2.48737 0.516425 3.08472C0.516603 3.49561 0.627039 3.82572 0.847848 4.07467C1.06843 4.32432 1.32265 4.44859 1.61186 4.44856C1.83485 4.44842 2.01846 4.37482 2.16291 4.22676C2.30664 4.0787 2.37899 3.89522 2.37886 3.67633C2.37874 3.47942 2.3129 3.31342 2.18168 3.17909C2.0499 3.04557 1.89134 2.97807 1.70522 2.97822C1.61745 2.97837 1.51751 3.00596 1.40522 3.05998C1.29284 3.11489 1.20947 3.14184 1.1546 3.14191C1.094 3.14192 1.0432 3.11988 1.00223 3.07508C0.961428 3.0302 0.940955 2.97146 0.941005 2.89901C0.940823 2.66418 1.07451 2.43404 1.34313 2.20716C1.611 1.98078 1.97732 1.86733 2.44235 1.86707C2.79747 1.86687 3.30666 1.98116 3.96877 2.20959C4.63095 2.43791 5.23312 2.55169 5.77516 2.55136C6.3002 2.55108 6.95388 2.42664 7.7366 2.17766C6.8843 2.73771 6.26783 3.2189 5.88842 3.62012C5.50822 4.02231 5.24779 4.41033 5.10705 4.78405C4.96563 5.15805 4.8844 5.65902 4.86339 6.28746L4.94804 8.27865ZM7.90628 3.65912C7.53222 4.51783 7.34566 5.50863 7.34614 6.63133L7.38111 10.3798C7.38148 11.0953 7.27619 11.6857 7.06595 12.1511C6.85513 12.6162 6.56687 12.995 6.19976 13.2862C5.93495 13.496 5.50324 13.7275 4.90412 13.9809C5.41638 13.5677 5.75049 13.1795 5.90702 12.8165C6.12784 12.3157 6.23832 11.6163 6.23774 10.7186L6.20311 7.06134C6.20253 5.97202 6.32412 5.11149 6.56819 4.48106C6.81253 3.85116 7.17605 3.29608 7.65998 2.81696C8.02306 2.46441 8.59053 2.09813 9.36241 1.71821C8.64611 2.41769 8.16075 3.06459 7.90628 3.65912ZM17.2588 11.6927C17.1517 11.6929 17.0524 11.6189 16.9624 11.4708C16.8214 11.2566 16.7508 10.9001 16.7505 10.3997L16.7482 6.0742L17.4015 5.46918L15.9143 4.27766L14.4609 5.47084L15.0824 6.07494L15.0847 10.5757L13.5923 11.6991C13.272 11.4704 13.0698 11.2809 12.9875 11.1306C12.9043 10.9809 12.8631 10.745 12.8629 10.4227L12.8606 6.07616L13.4809 5.47142L11.9612 4.27969L10.018 5.88137L10.2306 6.14279C10.4619 5.94664 10.6355 5.84853 10.7511 5.8485C10.9052 5.84846 11.0275 5.92556 11.1172 6.07945C11.1686 6.16739 11.1949 6.35496 11.195 6.64061L11.197 10.7168C11.1974 11.2344 11.2797 11.6506 11.4438 11.9663C11.6087 12.2832 11.9567 12.65 12.4884 13.0679C13.3742 12.2938 14.2398 11.6176 15.0849 11.041C15.096 11.5819 15.1675 11.9767 15.3003 12.2249C15.4326 12.4735 15.7151 12.7533 16.1477 13.066L17.9276 11.7252L17.7147 11.4638C17.4893 11.6168 17.3373 11.6927 17.2588 11.6927ZM48.7827 5.66509L48.785 10.2114C48.7854 10.6586 48.7474 10.976 48.6712 11.1634C48.6166 11.3074 48.4858 11.467 48.2787 11.6441L48.3614 11.8074C48.8606 11.8071 49.3073 11.88 49.7027 12.0245C50.2243 12.2145 50.8827 12.5548 51.6781 13.047C51.9363 12.8128 52.2051 12.6167 52.4857 12.4583C52.8537 12.2459 53.4498 11.9736 54.2747 11.6409L54.2716 5.49883C53.1187 5.20502 52.1546 4.79138 51.3796 4.25888C50.6608 4.86366 49.7953 5.33261 48.7827 5.66509ZM52.6087 11.7068L50.4517 10.8259L50.449 5.66431C50.7296 5.71467 50.9695 5.77618 51.1677 5.84911C51.4487 5.95013 51.9279 6.16057 52.606 6.47977L52.6087 11.7068ZM74.5922 11.6626C74.4845 11.6626 74.3859 11.5887 74.2957 11.4406C74.1551 11.2263 74.0839 10.8698 74.0836 10.3692L74.0815 6.04383L74.7346 5.43895L73.2479 4.24736L71.7944 5.44051L72.4156 6.04461L72.4179 10.5453L70.9258 11.6687C70.6049 11.4402 70.4036 11.2504 70.3206 11.1004C70.2379 10.9507 70.1969 10.7146 70.1965 10.3925L70.1945 6.04583L70.8143 5.44115L69.2948 4.24939L67.3516 5.85127L67.5637 6.11259C67.7952 5.91634 67.9684 5.81834 68.0843 5.81827C68.2388 5.8181 68.3605 5.89533 68.4506 6.04922C68.5018 6.13709 68.5279 6.3245 68.5282 6.61031L68.5302 10.6865C68.5302 11.2039 68.6126 11.6202 68.7773 11.936C68.9417 12.253 69.2894 12.6198 69.8221 13.0375C70.7076 12.2635 71.5731 11.5875 72.4183 11.0108C72.4291 11.5515 72.5006 11.9464 72.6335 12.1946C72.766 12.4433 73.0486 12.723 73.481 13.0355L75.2609 11.6949L75.048 11.4336C74.823 11.5864 74.6702 11.6624 74.5922 11.6626ZM78.9296 5.5575L79.9588 6.82486L81.2154 5.72965L79.9575 4.24363L78.1119 5.84555C78.1119 5.55743 78.0563 5.33105 77.9455 5.16781C77.7747 4.90639 77.4541 4.5994 76.9844 4.24546L75.2697 5.74903L75.4822 6.01021C75.6984 5.74873 75.8681 5.61812 75.9925 5.61809C76.106 5.61802 76.2094 5.68946 76.304 5.83135C76.3988 5.97317 76.4463 6.25889 76.4463 6.68764L76.4483 10.0992C76.4486 10.5953 76.4117 10.931 76.3372 11.1064C76.2629 11.2821 76.104 11.4566 75.8614 11.6294V11.7928C76.2246 11.8886 76.5585 12.0221 76.8651 12.1928C77.1712 12.3637 77.5497 12.6437 78.0018 13.0331L80.1408 11.3335L79.9446 11.0718L79.0957 11.7581L78.1146 11.0726L78.1122 6.26665L78.9296 5.5575ZM87.3144 6.93147L84.993 4.24112C84.0671 4.71539 83.4792 5.01104 83.2277 5.12823C82.8817 5.28476 82.4466 5.45803 81.9227 5.6475L81.925 10.3879C81.9254 10.9294 81.8946 11.2818 81.8339 11.4445C81.7719 11.6079 81.6506 11.7445 81.4686 11.8553L81.4689 12.0187C82.1128 12.149 82.6096 12.2768 82.9597 12.4037C83.3087 12.5298 83.754 12.7385 84.2956 13.0298L86.9897 11.1332L86.7931 10.8723L85.5017 11.7877L83.592 11.0697L83.5914 9.53436L87.3144 6.93147ZM83.5887 5.23986L83.7049 5.20349L85.7853 7.45011L83.591 8.98411L83.5887 5.23986ZM65.3955 2.32385L65.1583 2.32403L62.8813 5.16493V5.52689L63.6655 5.52649L63.6679 10.2825C63.6682 10.6704 63.6205 10.9666 63.5256 11.1709C63.4527 11.3317 63.3039 11.4869 63.0806 11.6361L63.081 11.7996C63.8773 12.0163 64.5914 12.4299 65.2214 13.04L66.9683 11.6016L66.7721 11.3404L66.2499 11.765L65.3345 11.0468L65.3315 5.5256L66.9978 5.52469L66.9975 4.60993L65.3308 4.61078L65.3955 2.32385ZM61.9298 11.6692C61.8223 11.6692 61.7234 11.5954 61.6336 11.4472C61.4923 11.233 61.4218 10.8766 61.4214 10.376L61.4191 6.05051L62.0724 5.44563L60.5851 4.25404L59.1319 5.44729L59.7527 6.05139L59.7551 10.5519L58.2637 11.6754C57.9428 11.4468 57.7408 11.2571 57.6584 11.107C57.5754 10.9573 57.5341 10.7213 57.5337 10.399L57.5314 6.05254L58.1519 5.44776L56.6323 4.256L54.6891 5.85795L54.9016 6.1193C55.1327 5.92298 55.3062 5.82494 55.4221 5.82484C55.5763 5.82484 55.698 5.90207 55.7881 6.0559C55.839 6.14377 55.8654 6.33134 55.8654 6.61692L55.8674 10.6932C55.8681 11.2107 55.9504 11.6269 56.1148 11.9426C56.2795 12.2596 56.6275 12.6266 57.1596 13.0441C58.0451 12.2704 58.9106 11.5942 59.7555 11.0174C59.7667 11.5583 59.8385 11.9532 59.971 12.2014C60.1035 12.4499 60.3861 12.7297 60.8182 13.0422L62.598 11.7015L62.3852 11.4404C62.1599 11.5932 62.0084 11.6692 61.9298 11.6692ZM45.7984 11.2047C45.1481 11.4769 44.4287 11.6135 43.639 11.614L43.3266 11.6057L43.2232 2.23153C44.3643 2.79147 45.388 3.1197 46.2952 3.21622L47.6664 1.95776L47.5196 1.64737L47.3322 1.64748C46.7016 1.64785 46.1529 1.59755 45.6856 1.49637C45.2183 1.3954 44.5771 1.17425 43.7617 0.832799L40.2187 3.74221L40.2207 7.44407C40.221 8.27045 40.1882 8.77579 40.1228 8.96083C40.057 9.14545 39.8601 9.37291 39.5324 9.6426C38.7716 8.662 38.3914 7.5925 38.3907 6.43558C38.39 5.48233 38.6483 4.5996 39.1668 3.78741C39.5687 3.15685 40.1804 2.56441 41.0018 2.01003L40.7894 1.78152C39.5426 2.53357 38.6405 3.30736 38.0837 4.10303C37.373 5.11833 37.0182 6.2211 37.0186 7.411C37.0192 8.37615 37.2721 9.31374 37.778 10.2243C38.283 11.1349 38.9817 11.8336 39.8744 12.321C40.7673 12.8087 41.7183 13.0524 42.7281 13.0518C43.4093 13.0514 44.0952 12.9343 44.7865 12.7009C45.4778 12.4672 46.0699 12.1551 46.5609 11.7645C47.052 11.3745 47.5525 10.828 48.0629 10.1249L47.8175 9.87992C47.1211 10.491 46.4477 10.9329 45.7984 11.2047ZM41.1665 11.0294C40.6633 10.7705 40.1922 10.3981 39.7527 9.91245C40.4722 9.31578 41.0334 8.78451 41.4343 8.31884C41.6318 8.08901 41.7579 7.87236 41.8128 7.66991C41.8619 7.5167 41.8867 7.20729 41.8863 6.74194L41.8846 2.99788L42.8318 2.21972L42.9342 11.5489C42.2588 11.4618 41.6688 11.2886 41.1665 11.0294Z"/>
</mask>
<path d="M25.7501 11.833L24.0824 11.1013L24.0796 5.84155L25.73 6.75526L26.5951 5.4971L24.4218 4.27312C23.7607 4.90527 23.091 5.37392 22.4131 5.67898L22.4156 10.4324C22.4159 10.8951 22.3713 11.2348 22.2815 11.452C22.2193 11.6079 22.0904 11.7527 21.894 11.8868L21.8942 12.0501C22.4378 12.1589 22.8967 12.2815 23.2704 12.419C23.6437 12.5564 24.0947 12.7708 24.6224 13.0614L26.6637 11.5576L26.6027 11.2048L25.7501 11.833ZM29.8229 6.29579V6.1112C29.8227 5.69088 29.7524 5.36006 29.6109 5.11911C29.47 4.87864 29.1617 4.59574 28.6867 4.27088L26.9479 5.70931L27.177 5.9705C27.2258 5.92461 27.2616 5.89042 27.2836 5.86734C27.4319 5.71806 27.5523 5.64367 27.6461 5.64364C27.7611 5.64354 27.8683 5.72125 27.9674 5.87506C28.0936 6.07413 28.1572 6.44941 28.1574 7.00111L28.1596 10.9578C28.1597 11.2837 28.1365 11.5362 28.091 11.7154C28.0451 11.8952 27.959 12.0897 27.833 12.299C27.7868 12.3766 27.6691 12.5088 27.4803 12.697C27.0843 13.0827 26.8866 13.4804 26.8867 13.8891C26.887 14.3023 27.0588 14.66 27.4027 14.961C27.7455 15.2613 28.2358 15.4116 28.8726 15.4113C29.4817 15.4109 29.9857 15.2791 30.3847 15.0153C30.645 14.8517 30.7749 14.6861 30.7749 14.5174C30.7748 14.4223 30.7414 14.3461 30.6753 14.2885C30.6088 14.2303 30.5206 14.2011 30.4102 14.2012C30.3106 14.2012 30.2249 14.2276 30.1537 14.2809C30.0815 14.3332 29.9957 14.4447 29.897 14.6158C29.7972 14.7865 29.6953 14.8982 29.5908 14.9518C29.3751 15.0614 29.1019 15.1173 28.7707 15.1176C28.3123 15.1177 27.9436 14.9983 27.6648 14.7602C27.3859 14.521 27.2463 14.2614 27.2462 13.9818C27.2461 13.8167 27.2848 13.6689 27.3624 13.5372C27.467 13.3555 27.6438 13.1689 27.8929 12.9768C28.0087 12.8836 28.3598 12.6609 28.946 12.3094C30.289 11.5156 31.2619 10.8741 31.8645 10.3837C32.4674 9.89392 32.9095 9.37332 33.1911 8.82226C33.4727 8.27143 33.6134 7.71911 33.6132 7.16565C33.6126 6.13665 33.1818 5.1711 32.3213 4.26905L29.8229 6.29579ZM31.4875 9.5982C31.1588 10.207 30.605 10.7908 29.8256 11.3489L29.8231 6.70618L31.0905 5.67837C31.6828 6.38892 31.9796 7.11546 31.98 7.85873C31.9803 8.41007 31.8158 8.9895 31.4875 9.5982ZM21.1828 1.4652L20.1375 1.46582L19.7139 3.2303L20.0731 3.23002L21.1828 1.4652ZM20.8692 11.7129C20.8191 11.7422 20.7646 11.7564 20.7048 11.7563C20.6201 11.7565 20.5379 11.685 20.4582 11.5414C20.3786 11.398 20.3384 11.0885 20.338 10.6134L20.3356 6.10469L20.9561 5.46732L19.5016 4.27586L18.0487 5.46888L18.6698 6.10561L18.6722 10.7173C18.6726 11.4114 18.7372 11.8979 18.8665 12.1763C18.9959 12.454 19.2853 12.75 19.7352 13.064L21.5149 11.6255L21.3024 11.3644C21.0831 11.5563 20.9386 11.6723 20.8692 11.7129ZM4.94804 8.27865C5.07977 9.45848 5.35606 11.3664 5.3564 11.9773C5.35667 12.4231 5.22353 12.7824 4.9575 13.0553C4.69158 13.3275 4.34432 13.4638 3.91681 13.464C3.69718 13.4641 3.35969 13.3875 2.90423 13.2344C2.5856 13.1266 2.29764 13.0731 2.03994 13.0731C1.42534 13.0736 0.93171 13.2767 0.558567 13.684C0.328362 13.9424 0.141876 14.3431 0 14.8871L0.310144 15.0342C0.403685 14.7994 0.502542 14.645 0.607513 14.5727C0.762134 14.4666 0.960481 14.4132 1.20293 14.413C1.48939 14.413 1.8614 14.506 2.31965 14.694C2.65552 14.824 2.8998 14.9076 3.05125 14.9452C3.20247 14.981 3.37786 14.9999 3.57634 14.9997C4.29267 14.9993 5.12203 14.6883 6.0644 14.0665C7.17368 13.3182 7.9727 12.4495 8.46016 11.4593C8.82928 10.7058 9.01403 9.56818 9.01319 8.04495C9.01295 7.55035 9.00925 7.07208 9.00166 6.61011C8.98658 5.73622 8.979 5.12809 8.97886 4.78724C8.97842 4.10567 9.10926 3.47474 9.37241 2.89454C9.63572 2.31447 10.1244 1.63637 10.839 0.860549L10.5285 0.588745C10.1301 0.873654 9.75179 1.07573 9.39467 1.19472C9.03718 1.31446 8.60435 1.37386 8.09704 1.37417C7.55672 1.37446 6.81192 1.27214 5.86209 1.06686C4.67707 0.815823 3.83647 0.690576 3.34041 0.690708C2.54825 0.691188 1.87976 0.940903 1.33443 1.43983C0.788407 1.93919 0.51609 2.48737 0.516425 3.08472C0.516603 3.49561 0.627039 3.82572 0.847848 4.07467C1.06843 4.32432 1.32265 4.44859 1.61186 4.44856C1.83485 4.44842 2.01846 4.37482 2.16291 4.22676C2.30664 4.0787 2.37899 3.89522 2.37886 3.67633C2.37874 3.47942 2.3129 3.31342 2.18168 3.17909C2.0499 3.04557 1.89134 2.97807 1.70522 2.97822C1.61745 2.97837 1.51751 3.00596 1.40522 3.05998C1.29284 3.11489 1.20947 3.14184 1.1546 3.14191C1.094 3.14192 1.0432 3.11988 1.00223 3.07508C0.961428 3.0302 0.940955 2.97146 0.941005 2.89901C0.940823 2.66418 1.07451 2.43404 1.34313 2.20716C1.611 1.98078 1.97732 1.86733 2.44235 1.86707C2.79747 1.86687 3.30666 1.98116 3.96877 2.20959C4.63095 2.43791 5.23312 2.55169 5.77516 2.55136C6.3002 2.55108 6.95388 2.42664 7.7366 2.17766C6.8843 2.73771 6.26783 3.2189 5.88842 3.62012C5.50822 4.02231 5.24779 4.41033 5.10705 4.78405C4.96563 5.15805 4.8844 5.65902 4.86339 6.28746L4.94804 8.27865ZM7.90628 3.65912C7.53222 4.51783 7.34566 5.50863 7.34614 6.63133L7.38111 10.3798C7.38148 11.0953 7.27619 11.6857 7.06595 12.1511C6.85513 12.6162 6.56687 12.995 6.19976 13.2862C5.93495 13.496 5.50324 13.7275 4.90412 13.9809C5.41638 13.5677 5.75049 13.1795 5.90702 12.8165C6.12784 12.3157 6.23832 11.6163 6.23774 10.7186L6.20311 7.06134C6.20253 5.97202 6.32412 5.11149 6.56819 4.48106C6.81253 3.85116 7.17605 3.29608 7.65998 2.81696C8.02306 2.46441 8.59053 2.09813 9.36241 1.71821C8.64611 2.41769 8.16075 3.06459 7.90628 3.65912ZM17.2588 11.6927C17.1517 11.6929 17.0524 11.6189 16.9624 11.4708C16.8214 11.2566 16.7508 10.9001 16.7505 10.3997L16.7482 6.0742L17.4015 5.46918L15.9143 4.27766L14.4609 5.47084L15.0824 6.07494L15.0847 10.5757L13.5923 11.6991C13.272 11.4704 13.0698 11.2809 12.9875 11.1306C12.9043 10.9809 12.8631 10.745 12.8629 10.4227L12.8606 6.07616L13.4809 5.47142L11.9612 4.27969L10.018 5.88137L10.2306 6.14279C10.4619 5.94664 10.6355 5.84853 10.7511 5.8485C10.9052 5.84846 11.0275 5.92556 11.1172 6.07945C11.1686 6.16739 11.1949 6.35496 11.195 6.64061L11.197 10.7168C11.1974 11.2344 11.2797 11.6506 11.4438 11.9663C11.6087 12.2832 11.9567 12.65 12.4884 13.0679C13.3742 12.2938 14.2398 11.6176 15.0849 11.041C15.096 11.5819 15.1675 11.9767 15.3003 12.2249C15.4326 12.4735 15.7151 12.7533 16.1477 13.066L17.9276 11.7252L17.7147 11.4638C17.4893 11.6168 17.3373 11.6927 17.2588 11.6927ZM48.7827 5.66509L48.785 10.2114C48.7854 10.6586 48.7474 10.976 48.6712 11.1634C48.6166 11.3074 48.4858 11.467 48.2787 11.6441L48.3614 11.8074C48.8606 11.8071 49.3073 11.88 49.7027 12.0245C50.2243 12.2145 50.8827 12.5548 51.6781 13.047C51.9363 12.8128 52.2051 12.6167 52.4857 12.4583C52.8537 12.2459 53.4498 11.9736 54.2747 11.6409L54.2716 5.49883C53.1187 5.20502 52.1546 4.79138 51.3796 4.25888C50.6608 4.86366 49.7953 5.33261 48.7827 5.66509ZM52.6087 11.7068L50.4517 10.8259L50.449 5.66431C50.7296 5.71467 50.9695 5.77618 51.1677 5.84911C51.4487 5.95013 51.9279 6.16057 52.606 6.47977L52.6087 11.7068ZM74.5922 11.6626C74.4845 11.6626 74.3859 11.5887 74.2957 11.4406C74.1551 11.2263 74.0839 10.8698 74.0836 10.3692L74.0815 6.04383L74.7346 5.43895L73.2479 4.24736L71.7944 5.44051L72.4156 6.04461L72.4179 10.5453L70.9258 11.6687C70.6049 11.4402 70.4036 11.2504 70.3206 11.1004C70.2379 10.9507 70.1969 10.7146 70.1965 10.3925L70.1945 6.04583L70.8143 5.44115L69.2948 4.24939L67.3516 5.85127L67.5637 6.11259C67.7952 5.91634 67.9684 5.81834 68.0843 5.81827C68.2388 5.8181 68.3605 5.89533 68.4506 6.04922C68.5018 6.13709 68.5279 6.3245 68.5282 6.61031L68.5302 10.6865C68.5302 11.2039 68.6126 11.6202 68.7773 11.936C68.9417 12.253 69.2894 12.6198 69.8221 13.0375C70.7076 12.2635 71.5731 11.5875 72.4183 11.0108C72.4291 11.5515 72.5006 11.9464 72.6335 12.1946C72.766 12.4433 73.0486 12.723 73.481 13.0355L75.2609 11.6949L75.048 11.4336C74.823 11.5864 74.6702 11.6624 74.5922 11.6626ZM78.9296 5.5575L79.9588 6.82486L81.2154 5.72965L79.9575 4.24363L78.1119 5.84555C78.1119 5.55743 78.0563 5.33105 77.9455 5.16781C77.7747 4.90639 77.4541 4.5994 76.9844 4.24546L75.2697 5.74903L75.4822 6.01021C75.6984 5.74873 75.8681 5.61812 75.9925 5.61809C76.106 5.61802 76.2094 5.68946 76.304 5.83135C76.3988 5.97317 76.4463 6.25889 76.4463 6.68764L76.4483 10.0992C76.4486 10.5953 76.4117 10.931 76.3372 11.1064C76.2629 11.2821 76.104 11.4566 75.8614 11.6294V11.7928C76.2246 11.8886 76.5585 12.0221 76.8651 12.1928C77.1712 12.3637 77.5497 12.6437 78.0018 13.0331L80.1408 11.3335L79.9446 11.0718L79.0957 11.7581L78.1146 11.0726L78.1122 6.26665L78.9296 5.5575ZM87.3144 6.93147L84.993 4.24112C84.0671 4.71539 83.4792 5.01104 83.2277 5.12823C82.8817 5.28476 82.4466 5.45803 81.9227 5.6475L81.925 10.3879C81.9254 10.9294 81.8946 11.2818 81.8339 11.4445C81.7719 11.6079 81.6506 11.7445 81.4686 11.8553L81.4689 12.0187C82.1128 12.149 82.6096 12.2768 82.9597 12.4037C83.3087 12.5298 83.754 12.7385 84.2956 13.0298L86.9897 11.1332L86.7931 10.8723L85.5017 11.7877L83.592 11.0697L83.5914 9.53436L87.3144 6.93147ZM83.5887 5.23986L83.7049 5.20349L85.7853 7.45011L83.591 8.98411L83.5887 5.23986ZM65.3955 2.32385L65.1583 2.32403L62.8813 5.16493V5.52689L63.6655 5.52649L63.6679 10.2825C63.6682 10.6704 63.6205 10.9666 63.5256 11.1709C63.4527 11.3317 63.3039 11.4869 63.0806 11.6361L63.081 11.7996C63.8773 12.0163 64.5914 12.4299 65.2214 13.04L66.9683 11.6016L66.7721 11.3404L66.2499 11.765L65.3345 11.0468L65.3315 5.5256L66.9978 5.52469L66.9975 4.60993L65.3308 4.61078L65.3955 2.32385ZM61.9298 11.6692C61.8223 11.6692 61.7234 11.5954 61.6336 11.4472C61.4923 11.233 61.4218 10.8766 61.4214 10.376L61.4191 6.05051L62.0724 5.44563L60.5851 4.25404L59.1319 5.44729L59.7527 6.05139L59.7551 10.5519L58.2637 11.6754C57.9428 11.4468 57.7408 11.2571 57.6584 11.107C57.5754 10.9573 57.5341 10.7213 57.5337 10.399L57.5314 6.05254L58.1519 5.44776L56.6323 4.256L54.6891 5.85795L54.9016 6.1193C55.1327 5.92298 55.3062 5.82494 55.4221 5.82484C55.5763 5.82484 55.698 5.90207 55.7881 6.0559C55.839 6.14377 55.8654 6.33134 55.8654 6.61692L55.8674 10.6932C55.8681 11.2107 55.9504 11.6269 56.1148 11.9426C56.2795 12.2596 56.6275 12.6266 57.1596 13.0441C58.0451 12.2704 58.9106 11.5942 59.7555 11.0174C59.7667 11.5583 59.8385 11.9532 59.971 12.2014C60.1035 12.4499 60.3861 12.7297 60.8182 13.0422L62.598 11.7015L62.3852 11.4404C62.1599 11.5932 62.0084 11.6692 61.9298 11.6692ZM45.7984 11.2047C45.1481 11.4769 44.4287 11.6135 43.639 11.614L43.3266 11.6057L43.2232 2.23153C44.3643 2.79147 45.388 3.1197 46.2952 3.21622L47.6664 1.95776L47.5196 1.64737L47.3322 1.64748C46.7016 1.64785 46.1529 1.59755 45.6856 1.49637C45.2183 1.3954 44.5771 1.17425 43.7617 0.832799L40.2187 3.74221L40.2207 7.44407C40.221 8.27045 40.1882 8.77579 40.1228 8.96083C40.057 9.14545 39.8601 9.37291 39.5324 9.6426C38.7716 8.662 38.3914 7.5925 38.3907 6.43558C38.39 5.48233 38.6483 4.5996 39.1668 3.78741C39.5687 3.15685 40.1804 2.56441 41.0018 2.01003L40.7894 1.78152C39.5426 2.53357 38.6405 3.30736 38.0837 4.10303C37.373 5.11833 37.0182 6.2211 37.0186 7.411C37.0192 8.37615 37.2721 9.31374 37.778 10.2243C38.283 11.1349 38.9817 11.8336 39.8744 12.321C40.7673 12.8087 41.7183 13.0524 42.7281 13.0518C43.4093 13.0514 44.0952 12.9343 44.7865 12.7009C45.4778 12.4672 46.0699 12.1551 46.5609 11.7645C47.052 11.3745 47.5525 10.828 48.0629 10.1249L47.8175 9.87992C47.1211 10.491 46.4477 10.9329 45.7984 11.2047ZM41.1665 11.0294C40.6633 10.7705 40.1922 10.3981 39.7527 9.91245C40.4722 9.31578 41.0334 8.78451 41.4343 8.31884C41.6318 8.08901 41.7579 7.87236 41.8128 7.66991C41.8619 7.5167 41.8867 7.20729 41.8863 6.74194L41.8846 2.99788L42.8318 2.21972L42.9342 11.5489C42.2588 11.4618 41.6688 11.2886 41.1665 11.0294Z" fill="#FAFAFA" stroke="#FAFAFA" stroke-width="25.9395" mask="url(#path-1-inside-1_0_49)"/>
</svg>
