<svg width="80" height="16" viewBox="0 0 80 16" fill="none" xmlns="http://www.w3.org/2000/svg">
<path d="M15.7035 8.11742C15.7803 8.25747 15.9635 8.32358 16.1374 8.27083C16.7498 8.00256 17.1455 7.33878 17.2348 6.67545C17.2282 6.49365 17.107 6.33124 16.9034 6.33124C16.2013 6.57304 15.6396 7.35157 15.7035 8.11742ZM15.6451 6.59501L15.6751 6.54391C15.6862 6.52326 15.6973 6.50129 15.7044 6.47922C15.7227 6.42477 15.7395 6.31547 15.642 6.23093C15.5223 6.12449 15.3874 6.13031 15.2808 6.16747C15.2304 6.1845 15.183 6.20943 15.144 6.23272C15.106 6.25632 15.0602 6.2872 15.0238 6.31183C14.5242 6.74385 14.0799 7.24228 13.6657 7.74634C13.2549 8.2458 12.8633 8.76057 12.4457 9.24914C12.3917 9.3057 12.3657 9.32691 12.3443 9.33704C12.3283 9.34526 12.3118 9.34697 12.2702 9.3403C12.2529 9.33646 12.2421 9.32443 12.223 9.29062C11.8699 8.27639 11.5338 6.81609 11.5154 6.51123C11.5073 6.25939 11.66 6.05351 11.929 5.86205L12.0464 5.80234C12.0854 5.78265 12.1256 5.76375 12.1657 5.75122C12.2301 5.72944 12.2573 5.73545 12.2672 5.74148C12.2762 5.75275 12.2815 5.76117 12.288 5.77425C12.3063 5.81198 12.3244 5.85995 12.343 5.91603C12.3844 6.04204 12.4257 6.20551 12.4674 6.38388C12.5549 6.75532 12.6458 7.19336 12.7425 7.50959C12.802 7.64812 12.8669 7.84341 13.0917 7.63609C13.1436 7.58926 13.213 7.55201 13.2615 7.50024C13.3731 7.39476 13.4805 7.27724 13.5899 7.15133C13.6976 7.02598 13.8059 6.89394 13.9146 6.76088C14.132 6.49652 14.3471 6.23693 14.5769 6.0237C15.03 5.60343 15.5105 5.38704 16.1348 5.66791C16.3205 5.74492 16.5209 5.74129 16.7007 5.71636C16.8715 5.69333 17.0491 5.64823 17.2199 5.62025C17.5399 5.56674 17.7538 5.58748 17.901 5.87801C17.9783 6.02943 18.0105 6.19633 18.0186 6.38043C18.0273 6.57247 18.0092 6.77214 17.9924 6.97229C17.9595 7.37488 17.9214 7.83615 18.1349 8.25879C18.1894 8.44949 18.3385 8.53949 18.4765 8.58268C18.5431 8.60312 18.6148 8.61592 18.6875 8.6247C18.7514 8.63331 18.815 8.63752 18.8736 8.64306L18.9488 8.65184C18.9389 8.67573 18.9185 8.70612 18.8795 8.75348C18.5148 9.15992 18.0694 9.37545 17.6 9.2096C17.5599 9.19965 17.5094 9.17062 17.4565 9.12456C17.4284 9.10086 17.4025 9.07392 17.3763 9.04661L17.2909 8.95795C17.2361 8.90023 17.1672 8.8303 17.0886 8.78579C17.0014 8.73629 16.8892 8.71165 16.7693 8.76687C16.1877 9.15915 15.5826 9.48761 15.0211 9.22716C14.8692 9.11577 14.7743 8.97801 14.7799 8.79C14.8275 7.81666 15.2134 7.17503 15.6451 6.59501Z" fill="#FAFAFA"/>
<path d="M2.4577 7.82792C2.61694 7.56462 2.64762 5.93571 2.61246 5.0775C2.55934 3.75898 2.635 3.42365 3.63919 2.62888C4.59114 1.87413 5.43579 1.22438 6.39537 0.693381C6.55853 0.642835 6.74016 0.693381 6.82527 0.774868C6.89941 0.838497 6.96696 0.987344 6.79824 1.16362C6.40979 1.55216 6.04769 1.84585 5.68044 2.12587C5.3087 2.40799 4.93594 2.67024 4.53505 2.99144C4.46197 3.0501 4.37924 3.11353 4.29487 3.18213C4.20708 3.25388 4.11756 3.33097 4.03445 3.41266C3.86868 3.57796 3.71037 3.78392 3.6585 4.03042C3.62162 4.962 3.80496 5.99045 3.757 6.95052C3.71037 7.87839 3.44631 8.70535 2.55953 9.29233C1.71755 9.67927 0.737529 9.36321 0.0912177 8.71701C-0.00412879 8.62203 -0.0214211 8.48771 0.0239592 8.41778C0.0770781 8.34557 0.13077 8.2718 0.189526 8.19595C0.247613 8.12028 0.307419 8.04996 0.36971 7.98653C0.49152 7.86385 0.614955 7.78093 0.749376 7.75303C0.845487 7.75113 0.95526 7.78819 1.08777 7.85334C1.23003 7.92233 1.37075 8.00983 1.50804 8.07481C1.81137 8.21983 2.18263 8.29683 2.4577 7.82792Z" fill="#FAFAFA"/>
<path d="M10.399 4.42623C10.3862 4.7052 10.2856 5.17209 10.361 5.39947C10.8918 4.94547 11.1603 4.33012 11.4857 3.69403C11.7508 3.11297 12.04 2.0847 11.6123 1.65984C11.492 1.58179 11.2202 1.98334 11.1348 2.12797C10.7175 2.88606 10.5507 3.56773 10.399 4.42623ZM5.16555 8.27257C5.19097 8.44932 5.38014 8.58747 5.55727 8.57581C6.11339 8.44932 6.46678 7.90514 6.65624 7.42534C6.72149 7.17045 6.85849 6.74367 6.61896 6.47857C6.49249 6.41436 6.37716 6.43815 6.21113 6.53933C5.56691 6.94384 5.14013 7.53923 5.16555 8.27257ZM10.2565 10.0821C10.2468 10.0733 10.2398 10.0637 10.2237 10.0381C10.1949 9.99149 10.0666 9.73525 9.98563 9.54914C9.7894 9.09438 9.69691 8.61537 9.52379 8.12373C9.50439 8.07787 9.48892 8.04844 9.46638 8.01941C9.37839 7.91011 9.24501 7.96913 9.19762 8.00009C8.90233 8.26856 8.63118 8.54619 8.34515 8.79191C8.0656 9.03115 7.77956 9.23388 7.46228 9.35808C7.27762 9.38941 7.11596 9.2524 7.00275 9.05618C6.96137 8.98204 6.91238 8.87025 6.86499 8.78237C6.84033 8.7386 6.811 8.68816 6.77776 8.65339C6.76209 8.63675 6.73458 8.6104 6.69521 8.59721C6.64888 8.58097 6.59881 8.58727 6.55715 8.61746C6.4 8.72255 6.23128 8.84216 6.05263 8.95606C5.87655 9.06784 5.69656 9.16968 5.51427 9.24037C5.15323 9.38157 4.79355 9.4005 4.43756 9.1477C4.11848 8.88096 4.212 8.35015 4.35845 7.97812C4.76917 6.96008 5.39849 6.22731 6.50977 5.72851C6.72617 5.62007 7.09323 5.62999 7.24455 5.72038C7.53356 5.95645 7.61582 6.27078 7.6355 6.63497C7.64515 6.82308 7.63779 7.01625 7.63597 7.20733C7.63358 7.40833 7.63703 7.60476 7.66875 7.78819C7.83822 8.04844 8.09446 8.10348 8.33493 7.96168C8.50785 7.84324 8.71976 7.69878 8.90423 7.55777C9.08603 7.41943 9.26125 7.26865 9.35116 7.13281L9.37207 7.06898C9.3501 4.66938 9.82685 2.41956 11.6536 0.851113C11.8205 0.718036 12.0237 0.751281 12.0848 0.805738C12.5983 1.2561 12.7135 2.25236 12.4427 3.22456C12.0643 4.52214 11.3377 5.73872 10.4343 6.79317L10.4045 6.86378C10.3927 7.36592 10.4944 7.82355 10.6366 8.27065C10.7768 8.71204 10.9593 9.15113 11.1168 9.61372C11.1312 9.65768 11.1348 9.68329 11.1341 9.69856C11.1307 9.7169 11.1246 9.72836 11.1118 9.73946C11.093 9.75627 11.0739 9.7725 11.0566 9.78875C10.912 9.9332 10.7257 10.0182 10.5714 10.0649C10.4949 10.0884 10.4279 10.1019 10.3781 10.1099L10.321 10.1161C10.2837 10.1019 10.267 10.0916 10.2565 10.0821Z" fill="#FAFAFA"/>
<path d="M29.8035 7.33328C30.2077 7.24232 30.619 7.00977 30.8716 6.64436C30.9675 6.49606 30.9473 6.18719 30.7671 6.05851C30.6079 5.96269 30.4597 5.94328 30.2987 6.0182C29.8428 6.27968 29.6086 6.86494 29.8035 7.33328ZM23.5134 7.92427C23.5134 8.16826 23.6008 8.38629 23.8382 8.50016C24.0383 8.57545 24.2393 8.50016 24.4136 8.43769C24.6639 8.2873 24.8955 8.03719 24.9896 7.74866C25.0646 7.38638 25.1397 6.87353 24.8016 6.61082C24.6261 6.49865 24.3764 6.49865 24.2013 6.61082C23.7008 6.88559 23.5637 7.44887 23.5134 7.92427ZM20.1093 7.23086C20.13 7.37875 20.1915 7.50466 20.2314 7.64703C20.2576 7.74791 20.3482 8.02459 20.4574 8.05363C20.5196 8.06108 20.5448 8.04408 20.6299 7.92026C20.9217 7.41658 21.0518 6.96144 21.1674 6.30931C21.1799 6.18348 21.1574 6.15806 21.0931 6.11985C20.7168 5.89791 20.3568 5.82254 19.9269 5.7224C19.8262 5.70016 19.7994 5.80285 19.8226 5.90421L19.8614 6.1227C19.8843 6.20001 20.032 6.68018 20.1093 7.23086ZM22.8378 6.20783C22.6844 6.2021 22.5783 6.18719 22.4942 6.17563C22.4476 6.16886 22.4067 6.16332 22.3705 6.16045C22.3324 6.1573 22.2907 6.15683 22.2502 6.16332C22.0551 6.19551 21.9821 6.37397 21.9025 6.62964C21.7229 7.06041 21.5693 7.50524 21.3934 7.94012C21.2179 8.37482 21.023 8.79175 20.7559 9.17639C20.6612 9.30192 20.5049 9.34434 20.3552 9.29656C20.196 9.22166 20.0805 9.09842 19.985 8.94805C19.9359 8.86931 19.8937 8.78583 19.8559 8.70194C19.8158 8.61595 19.7806 8.52939 19.7459 8.44552C19.4402 7.46512 19.0593 6.51804 18.8736 5.4827C18.8494 5.20402 18.9084 4.85923 19.1879 4.7529C19.3834 4.68295 19.7536 4.74688 20.1922 4.8639C20.6225 4.98055 21.068 5.13113 21.3639 5.1875C21.4576 5.20269 21.5255 5.14689 21.5687 5.07304C21.6073 5.00749 21.6484 4.89246 21.6967 4.71774C21.9276 3.51998 22.203 2.32987 22.3572 1.09945C22.3987 0.976003 22.487 0.898714 22.61 0.880371C22.8613 0.900052 23.0868 0.987563 23.2281 1.15944C23.2352 1.1665 23.2504 1.19603 23.2569 1.25135C23.2631 1.30532 23.2622 1.35949 23.2582 1.39781C23.2136 2.03389 23.0898 2.66178 22.9385 3.28535C22.7861 3.91561 22.6053 4.54253 22.4494 5.1657C22.4081 5.36902 22.539 5.4762 22.6658 5.52436C22.7206 5.54377 22.7855 5.55895 22.8528 5.57233C22.9125 5.58283 22.9708 5.59143 23.028 5.60404C23.5617 5.74026 24.02 5.73293 24.4641 5.65715C24.8977 5.58513 25.317 5.44345 25.7799 5.30672C25.9022 5.27318 25.9965 5.23622 26.0789 5.22341C26.1372 5.21501 26.1687 5.22237 26.2057 5.25485C26.3354 5.36902 26.4735 5.43875 26.607 5.48978C26.7336 5.53803 26.8586 5.57184 26.9742 5.60929C27.1861 5.67894 27.3167 5.7549 27.3628 5.97913C27.4454 6.34044 27.4605 6.76635 27.5258 7.15174C27.5925 7.54307 27.7201 7.93859 28.0459 8.16979C28.1756 8.24316 28.3055 8.23285 28.4065 8.1952C28.4519 8.1782 28.4945 8.15527 28.5356 8.13081L28.6344 8.07044C28.8234 7.93249 28.8471 7.84096 28.832 7.67205C28.8264 7.61282 28.818 7.53504 28.8234 7.41964C28.8287 7.30269 28.8481 7.14677 28.897 6.93659C29.022 6.35458 29.4699 5.74735 30.0354 5.54433C30.3562 5.43533 30.7178 5.43292 31.0518 5.54194C31.4465 5.76827 31.6423 6.19399 31.5825 6.67157C31.5259 7.06501 31.3353 7.26887 31.0988 7.43129C30.9724 7.51804 30.836 7.59026 30.7037 7.66727C30.5677 7.74599 30.3095 7.89426 30.186 8.00852L30.151 8.06317C30.0901 8.30566 30.3382 8.51527 30.502 8.56532C30.7528 8.62761 31.1426 8.55424 31.4097 8.51736C31.6725 8.4801 31.947 8.41953 32.2225 8.37578C32.765 8.29304 33.2659 8.29362 33.6862 8.67193C33.6977 8.68187 33.7046 8.69277 33.6987 8.72429C33.6923 8.76346 33.668 8.81602 33.6259 8.8783C33.5459 8.99696 33.4283 9.11007 33.3737 9.15651C33.3647 9.16376 33.3452 9.16873 33.2888 9.15594C33.0924 9.07951 32.8519 8.97652 32.5985 8.91976C32.333 8.85976 32.0393 8.84468 31.7572 8.97499C31.5819 9.04492 31.3954 9.12631 31.1986 9.19969C31.0088 9.27001 30.8112 9.33248 30.6137 9.3686C30.2269 9.43949 29.8614 9.40071 29.5487 9.13205C29.4926 9.09842 29.4593 9.06613 29.4222 9.02179C29.3811 8.97079 29.3439 8.91518 29.3044 8.86838C29.2175 8.7606 29.0745 8.63696 28.8571 8.71551C28.599 8.83647 28.2674 9.05351 27.9588 9.19187C27.645 9.33229 27.4331 9.35121 27.3088 9.23045C26.9748 8.82901 26.8512 8.35361 26.7457 7.83523C26.6923 7.57193 26.6461 7.3069 26.5817 7.04645C26.5168 6.7824 26.4325 6.51909 26.3029 6.26859C26.1705 6.09234 25.8866 5.92286 25.6641 6.05277C25.5725 6.11325 25.5565 6.2084 25.5698 6.28389C25.5747 6.31292 25.5843 6.34617 25.598 6.38209L25.6355 6.4764C25.6897 6.60738 25.7506 6.76586 25.7441 6.95419C25.7962 7.85147 25.3011 8.7755 24.4189 9.16989C24.0176 9.39019 23.3553 9.36917 23.0047 9.09652C22.6083 8.74569 22.5496 8.11686 22.6951 7.62677C22.8241 7.29086 22.9912 6.97252 23.2095 6.67597C23.2569 6.60422 23.2978 6.51309 23.2849 6.41927C23.2246 6.26859 23.1056 6.23803 23.0319 6.22646C22.9671 6.21576 22.8943 6.21778 22.8378 6.20783Z" fill="#FAFAFA"/>
<path d="M72.6028 7.91426C72.6406 8.07686 72.7521 8.21445 72.903 8.3029C73.253 8.38907 73.6701 8.35086 73.9081 8.08795C74.1699 7.75012 74.1663 7.11652 74.0159 6.80171C73.9284 6.61255 73.6328 6.52658 73.3954 6.66309C72.9579 6.95123 72.515 7.3011 72.6028 7.91426ZM50.7238 7.31524C50.6737 7.58045 50.5238 8.12119 50.8748 8.24385C51.2448 8.30654 51.5182 7.92113 51.6718 7.77018C51.9369 7.44096 52.0637 7.06262 51.9997 6.6073C51.9756 6.40534 51.842 6.12369 51.5591 6.25525C51.1173 6.50805 50.8748 6.8601 50.7238 7.31524ZM55.1675 6.59497C54.971 7.10925 54.6556 7.75088 55.1338 8.22857C55.3619 8.40017 55.6081 8.35391 55.7558 8.26793C56.4418 7.86399 56.3285 6.7634 56.2338 6.44174C56.1845 6.22171 56.062 5.96385 55.7926 6.00111C55.5347 6.06188 55.2827 6.35136 55.1675 6.59497ZM59.5702 7.19791C59.4769 7.4723 59.3219 7.95228 59.6636 8.15768C59.9447 8.29087 60.2879 8.07801 60.4624 7.91559C60.7956 7.52102 60.9917 7.01907 60.8056 6.48807C60.7291 6.29108 60.4804 6.20259 60.2985 6.30732C59.9384 6.53135 59.7189 6.8022 59.5702 7.19791ZM40.5179 6.46007C40.3414 6.70656 40.4236 6.7957 40.6897 6.8407C41.0141 6.89182 41.3375 6.85961 41.6005 6.67541C41.6942 6.59134 41.8101 6.43418 41.743 6.24426C41.6455 6.02777 41.4626 5.89574 41.1712 5.96863C40.8914 6.05844 40.684 6.24426 40.5179 6.46007ZM55.7736 10.7277C54.9573 11.6849 54.2428 12.6287 53.809 13.7011C53.7456 13.8542 53.6045 14.0573 53.7456 14.2239C53.9618 14.365 54.1784 14.1219 54.3576 13.9809C55.2764 13.0886 55.8251 11.9018 55.9266 10.6638C55.9345 10.5763 55.8538 10.6313 55.7736 10.7277ZM70.1265 8.13763L70.1633 8.1533C70.2445 8.17756 70.3419 8.14011 70.3969 8.11507C70.4593 8.08679 70.5352 8.04208 70.6118 7.99202C70.7569 7.89726 70.9158 7.77839 71.0352 7.69547C71.3459 7.48854 71.6288 7.24072 71.9029 6.98888C72.1741 6.73991 72.4398 6.48492 72.7218 6.25784C73.2761 5.81015 73.8762 5.49104 74.6741 5.55152L79.0708 5.54234C79.2846 5.54234 79.5366 5.71583 79.5273 5.9781C79.5141 6.27646 79.3977 6.40247 79.1081 6.39196L78.7041 6.35394C77.5689 6.18761 76.3186 6.19858 75.1157 6.11929C75.0822 6.11929 75.037 6.11872 74.9995 6.12083C74.9664 6.12321 74.8946 6.13151 74.8431 6.1724C74.741 6.26622 74.7294 6.33121 74.7725 6.44622C74.7834 6.47918 74.8013 6.52505 74.8191 6.59842C74.8365 6.67408 74.8562 6.77632 74.8719 6.92085C74.9453 7.80516 74.5661 8.68123 73.7554 9.08115C73.2655 9.31617 72.5163 9.29287 72.072 9.01618C71.773 8.76455 71.6535 8.51232 71.5817 8.16189C71.5419 7.94522 71.3811 7.90413 71.24 7.96182C71.187 7.98323 71.1363 8.01687 71.096 8.04706C71.0571 8.07648 71.0211 8.10705 70.9933 8.13017C70.4085 8.60995 69.4482 9.2086 69.1694 9.25751C69.0582 9.2814 68.9657 9.21224 68.898 9.05823C68.8586 8.86219 68.8929 8.6883 68.9377 8.50181C68.9618 8.40226 68.986 8.30559 68.9997 8.20795C69.0148 8.10592 69.0195 7.99662 69.0007 7.88255C68.9848 7.83687 68.9686 7.79867 68.9353 7.77114C68.8901 7.73273 68.834 7.72795 68.7874 7.74535C68.7708 7.75128 68.7569 7.75949 68.7461 7.76771L68.6915 7.81471C68.373 8.10592 68.0388 8.50887 67.6913 8.82092C67.3554 9.12263 67.0421 9.30261 66.7361 9.26116C66.5502 9.12263 66.514 8.92983 66.525 8.67683C66.5313 8.53889 66.5502 8.39463 66.5606 8.25246C66.5721 8.10705 66.5759 7.95114 66.5461 7.80037C66.544 7.7828 66.5418 7.76616 66.5377 7.74955C66.534 7.7314 66.525 7.69452 66.4978 7.66338C66.4632 7.62097 66.4078 7.59765 66.3469 7.61179C66.3019 7.62134 66.2667 7.64867 66.2432 7.66988C66.0188 7.83572 65.8218 8.01229 65.6222 8.19036C65.4248 8.36634 65.2262 8.54022 64.9914 8.70053C64.9082 8.75709 64.8028 8.83964 64.6834 8.92562C64.5698 9.00816 64.4439 9.09415 64.3138 9.16332C64.0499 9.30529 63.8335 9.34331 63.676 9.22712C63.6014 9.16923 63.5605 8.9688 63.5527 8.65505C63.5449 8.35775 63.5627 8.04208 63.54 7.87356L63.5337 7.83516C63.5302 7.82025 63.5234 7.78681 63.503 7.75681C63.4615 7.69852 63.4034 7.68401 63.3529 7.69452C63.3085 7.70389 63.2713 7.73102 63.252 7.74859C63.1193 7.86343 62.9931 7.99603 62.87 8.1315C62.7454 8.26698 62.6221 8.40875 62.4934 8.54576C62.2428 8.81193 61.9878 9.04121 61.6978 9.15988C61.4826 9.18129 61.2967 8.99269 61.1551 8.76398C61.1447 8.74792 61.1351 8.73054 61.1267 8.71258L61.097 8.64587C61.077 8.6006 61.0498 8.54519 61.0036 8.49283C60.9397 8.39768 60.7994 8.41946 60.7344 8.4615C60.4515 8.62602 60.1911 8.86008 59.9075 9.03129C59.6414 9.19236 59.3722 9.28293 59.0462 9.20458C58.8433 9.14938 58.669 8.98695 58.6062 8.78996C58.5894 8.74907 58.5778 8.69555 58.57 8.6413C58.5631 8.58111 58.5588 8.52187 58.5553 8.46168C58.5475 8.34168 58.5354 8.18922 58.4548 8.06197C58.4111 7.98323 58.3432 7.96069 58.2806 7.96719C58.2227 7.97444 58.1718 8.00464 58.1472 8.02452C57.9623 8.18615 57.7793 8.37187 57.6028 8.56525C57.4289 8.75594 57.2591 8.95332 57.0929 9.14536L57.0658 9.20038C56.6686 11.5959 56.0309 14.1385 54.042 15.392C53.8313 15.4804 53.5507 15.5208 53.3441 15.4453C52.9314 15.186 52.8029 14.685 52.9056 14.159C53.1152 13.4738 53.4562 12.8377 53.8602 12.2173C54.2662 11.5911 54.73 10.9917 55.1802 10.3835L56.1573 9.19809C56.1786 9.16982 56.206 9.13102 56.217 9.09224C56.2422 9.00529 56.1859 8.92084 56.0945 8.91224C56.0728 8.91053 56.0509 8.91415 56.0397 8.91626L56.0068 8.92409L55.9423 8.94205C55.6893 9.03378 55.4069 9.16025 55.1234 9.22216C54.8526 9.28197 54.5912 9.27739 54.3474 9.13943C54.3171 9.12491 54.2858 9.0993 54.25 9.05555C54.2118 9.00624 54.1766 8.94951 54.1416 8.9002C54.106 8.84918 54.0577 8.78251 53.9927 8.74353C53.9125 8.69346 53.8127 8.6927 53.7215 8.7504C53.6245 8.82185 53.5249 8.90517 53.4286 8.98161C53.3341 9.05612 53.2435 9.12396 53.1504 9.17784C52.9678 9.28197 52.7835 9.33108 52.5562 9.26076C52.4439 9.22351 52.3707 9.14879 52.3032 9.04121C52.2271 8.92141 52.1678 8.78154 52.095 8.66347C52.0746 8.63423 52.0384 8.58761 51.9882 8.56199C51.9279 8.53163 51.8557 8.52818 51.7864 8.57041C51.6923 8.62926 51.5963 8.70798 51.5031 8.78632C51.4102 8.8641 51.3139 8.94798 51.2108 9.02325C51.0079 9.17267 50.8021 9.27222 50.5792 9.25599C50.3172 9.24605 50.0836 9.13198 49.9768 8.91798L49.9521 8.83238C49.9408 8.79129 49.9265 8.74792 49.9091 8.71027C49.8922 8.67225 49.8674 8.62467 49.8259 8.58818C49.7786 8.54711 49.6588 8.49972 49.3444 8.83238C49.2348 8.94798 49.1061 9.10791 48.974 9.20287C48.7146 9.38686 48.4485 9.52216 48.1602 9.37599C47.8059 9.18069 47.7337 8.88816 47.7897 8.44889C47.849 7.98552 48.0456 7.41384 48.1702 6.76399C48.1728 6.74249 48.1777 6.70868 48.1798 6.67648C48.1827 6.63902 48.1833 6.5968 48.1777 6.55677C48.1649 6.46371 48.1106 6.35136 47.9763 6.30444C47.8396 6.27043 47.7478 6.36396 47.6715 6.48492C47.5903 6.61513 47.4754 6.84863 47.2905 7.25274C46.7756 8.42061 46.0293 9.29841 45.1786 9.36489C44.9788 9.37446 44.7861 9.25313 44.6959 9.06549C44.5853 8.79262 44.6419 8.36692 44.7567 7.90909C44.8708 7.4509 45.0297 7.00532 45.0741 6.73724C45.1318 6.46162 44.9993 6.36292 44.8688 6.33798C44.7127 6.30864 44.5728 6.48206 44.491 6.66549C44.3885 6.91474 44.1406 7.4509 44.0232 7.67828C43.8146 8.07933 43.0748 9.21318 42.0034 9.31101C41.0818 9.47707 40.2015 9.04485 39.6766 8.23546C39.586 8.09634 39.4596 7.60377 39.4502 7.52198C39.4338 7.37447 39.3815 7.273 39.3093 7.20861C39.2737 7.17689 39.2363 7.15741 39.2045 7.14518C39.1778 7.1341 39.1538 7.12798 39.1354 7.12377C39.1107 7.11538 39.0865 7.10544 39.0039 7.07887C38.5018 6.9178 38.0168 6.78778 37.4879 6.74143C37.3566 6.74143 37.2418 6.78623 37.1868 6.91379C36.7016 8.01514 36.4423 9.1553 35.9471 10.2536C35.8506 10.404 35.582 10.407 35.3611 10.3484C35.1965 10.2991 35.102 10.25 34.9631 10.1357C34.9584 10.1309 34.9328 10.0608 34.9746 9.92552C35.1801 9.1444 35.4777 8.50831 35.7334 7.70657L35.7385 7.65192C35.7035 7.44976 35.6526 7.26136 35.5929 7.0764C35.5352 6.89487 35.4685 6.71756 35.4014 6.53947C35.2707 6.19047 35.1447 5.85313 35.0805 5.49104C35.0842 5.37001 35.157 5.27254 35.2738 5.22879C35.4047 5.20156 35.5237 5.20547 35.6526 5.22277C35.7931 5.2414 35.9377 5.27512 36.1079 5.30054C36.1956 5.29136 36.3605 5.22171 36.3165 5.04699C35.8356 3.71432 35.447 2.4624 35.2173 1.02991C35.202 0.836064 35.2918 0.648714 35.4178 0.574099C35.4618 0.542858 35.5458 0.505407 35.682 0.51726C39.9123 0.682247 44.2365 0.903614 48.3248 1.10166C48.3913 1.10768 48.4441 1.11274 48.4872 1.12373C48.5253 1.13396 48.5449 1.14704 48.5553 1.16271C48.5831 1.19968 48.5893 1.28404 48.5449 1.50435C48.4582 1.831 48.288 1.94918 47.966 1.99293C47.7883 2.0173 47.5756 2.01672 47.322 2.00707C47.0595 1.99895 46.7572 1.9809 46.4093 1.97115C43.0795 1.88603 39.7687 1.49881 36.5245 1.20389C36.4873 1.20227 36.4454 1.19911 36.4055 1.19758C36.3642 1.19701 36.3143 1.19968 36.2656 1.21115C36.1525 1.23923 36.0598 1.31987 36.043 1.4732C36.034 1.55049 36.0392 1.6319 36.0482 1.70479C36.0567 1.77787 36.0686 1.84676 36.078 1.90361C36.1641 2.21687 36.2373 2.50615 36.3427 2.79066C36.4495 3.08063 36.5916 3.37068 36.8101 3.65701C36.8681 3.72694 36.9442 3.73372 37.0033 3.71902C37.0594 3.70544 37.1081 3.67114 37.1287 3.65042C37.2183 3.54437 37.3046 3.41519 37.3838 3.28756C37.4619 3.16212 37.5388 3.02904 37.6184 2.89929C37.7783 2.6405 37.9356 2.42467 38.1203 2.3104C38.1927 2.28002 38.3907 2.33114 38.4453 2.47864C38.4594 2.5525 38.475 2.69713 38.4469 2.78168L37.7595 5.15102C37.7012 5.34383 37.7564 5.7444 38.0502 5.85495C38.1041 5.87453 38.2948 5.96023 38.3347 5.97675C38.4521 6.02472 39.1583 6.26672 39.2115 6.28323C39.4109 6.344 39.5005 6.26852 39.5811 6.17452C40.0759 5.57378 40.6107 5.28457 41.4113 5.31525C41.8377 5.32471 42.1971 5.60654 42.3785 5.97906C42.5152 6.27331 42.5017 6.49916 42.3397 6.75663C42.0228 7.34123 41.4029 7.50707 40.738 7.4853C40.6023 7.50134 40.5357 7.56689 40.5216 7.65458C40.5076 7.73102 40.5357 7.81089 40.561 7.86057C40.6175 7.971 40.7206 8.09177 40.7764 8.15271C41.2012 8.54175 41.8095 8.72269 42.3906 8.49226C42.8154 8.3203 43.6082 7.86592 43.995 6.64265C44.0336 6.4706 44.0023 6.28477 43.8504 6.14986C43.8095 6.11271 43.7099 5.94217 43.7193 5.77422C43.7193 5.61544 43.8019 5.44175 43.8995 5.33101C44.0907 5.15962 44.293 5.13841 44.5397 5.19974C44.5638 5.20606 44.5975 5.22019 44.6425 5.24454C44.6892 5.27121 44.7389 5.30217 44.7923 5.3315C44.9039 5.39388 45.0443 5.46458 45.2062 5.47976C45.4116 5.49888 45.5374 5.46304 45.6368 5.41929C45.6757 5.40113 45.7114 5.38204 45.7485 5.36789C45.7763 5.35586 45.8025 5.3485 45.8354 5.34744C45.9362 5.34247 45.9874 5.39493 45.9958 5.48158C45.9827 5.66111 45.9283 5.86095 45.8534 6.07526C45.7757 6.2948 45.6793 6.51902 45.5918 6.73437C45.4228 7.14939 45.2449 7.60529 45.3641 7.92113C45.5128 8.11679 45.728 8.14164 45.8894 8.08411C46.3836 7.8277 47.181 6.57539 46.974 6.1682L46.883 5.94685C46.8593 5.88743 46.8399 5.83736 46.8288 5.7897C46.8102 5.71086 46.8106 5.64457 46.8505 5.53422C46.8902 5.43553 46.9239 5.39493 46.9599 5.36951C47.0045 5.33809 47.0589 5.31888 47.1684 5.28249C47.2555 5.25421 47.3265 5.26098 47.3983 5.28487C47.4386 5.29825 47.477 5.31629 47.5163 5.33809C47.56 5.36139 47.6022 5.387 47.6468 5.41193C47.8339 5.52295 48.0712 5.65134 48.417 5.54684C48.5144 5.52563 48.603 5.48263 48.6827 5.43811C48.7601 5.39493 48.8378 5.34486 48.9163 5.3037C49.0615 5.22697 49.1773 5.20395 49.3035 5.27331L49.3401 5.2906C49.3507 5.29508 49.3618 5.30111 49.3737 5.30923C49.3984 5.32547 49.4225 5.34744 49.4393 5.37783C49.4696 5.43285 49.5005 5.55964 49.3765 5.82247C49.2632 6.07076 49.0278 6.48444 48.822 6.90175C48.6202 7.312 48.4279 7.76178 48.4322 8.07113C48.4297 8.10933 48.4307 8.13227 48.4322 8.1598C48.4369 8.20985 48.4459 8.28074 48.4661 8.34168C48.5479 8.64474 48.8402 8.69824 49.0309 8.4869C49.2667 8.19914 49.469 7.8852 49.6567 7.57682C49.8441 7.27128 50.0222 6.96404 50.2204 6.67694C50.6101 6.11166 51.0629 5.64352 51.7933 5.4234C52.0517 5.35691 52.2695 5.50785 52.4499 5.79073C52.6286 6.06943 52.7348 6.43123 52.7669 6.66128C52.7972 6.90385 52.8328 7.17499 52.8919 7.42683C52.9534 7.68056 53.0418 7.93318 53.1885 8.12043C53.2607 8.20908 53.3672 8.19762 53.4286 8.177C53.4924 8.15579 53.5558 8.11278 53.6098 8.06846C53.7203 7.97598 53.834 7.84451 53.9017 7.73273C54.132 7.3479 54.3339 6.90653 54.5738 6.49285C54.8102 6.08624 55.006 5.77708 55.3711 5.52248C55.8229 5.22592 56.5161 5.48425 56.8409 5.96262C57.0957 6.31285 57.2055 7.06262 57.173 7.66108L57.1794 7.70886C57.2407 7.8621 57.3612 7.89935 57.4735 7.8682C57.5158 7.85674 57.5547 7.83516 57.5829 7.81816L57.6535 7.77497C58.1519 7.35727 58.6124 6.85589 59.1043 6.41394C59.5917 5.97675 60.0993 5.61133 60.6867 5.44833C60.859 5.40009 61.085 5.43238 61.2065 5.6053C61.3955 5.89163 61.4851 6.22534 61.5589 6.58639C61.5957 6.76837 61.6288 6.95411 61.6675 7.13676C61.7074 7.32403 61.7544 7.51108 61.8193 7.68861C61.9457 7.91559 62.204 8.09329 62.4934 7.97177C62.7432 7.76961 62.9364 7.53878 63.1132 7.2946C63.2876 7.05384 63.4494 6.79408 63.6055 6.54884C63.9252 6.04591 64.1904 5.65499 64.4664 5.5369C64.5242 5.50051 64.7226 5.56442 64.7488 5.69405C64.8218 6.07344 64.7865 6.4362 64.7212 6.8085C64.6547 7.18912 64.5576 7.56477 64.5189 7.95267C64.5277 8.21348 64.7431 8.18024 64.8233 8.14717C64.8683 8.12846 64.9139 8.10095 64.9499 8.07801L65.0466 8.01266C65.5119 7.66452 65.8529 7.3137 66.1593 6.93977C66.4628 6.56986 66.7383 6.16926 67.0771 5.71842C67.2663 5.42817 67.3969 5.37974 67.5346 5.49495C67.662 5.64819 67.6966 5.91647 67.686 6.20203C67.6739 6.49207 67.6179 6.75586 67.6095 6.84863L67.3822 8.01266C67.4078 8.10896 67.4577 8.15672 67.5254 8.17203C67.5771 8.18425 67.6264 8.17335 67.6616 8.16361C67.7328 8.14164 67.8056 8.09902 67.8502 8.0677C68.1085 7.87738 68.3259 7.65421 68.5182 7.42071C68.7082 7.19141 68.8786 6.94838 69.0463 6.71392C69.3822 6.24578 69.6943 5.83812 70.1277 5.6228C70.2619 5.54426 70.4294 5.60129 70.5086 5.75931C70.5677 5.88112 70.5055 6.19858 70.3801 6.65049C70.3206 6.86392 70.2535 7.0894 70.1942 7.3072C70.1355 7.53116 70.0856 7.74592 70.0643 7.93279C70.0559 7.99393 70.0602 8.05107 70.0774 8.08259C70.094 8.11928 70.1265 8.13763 70.1265 8.13763Z" fill="#FAFAFA"/>
</svg>
