<svg width="60" height="14" viewBox="0 0 60 14" fill="none" xmlns="http://www.w3.org/2000/svg">
<path d="M1 1H4.92903C6.33226 1.08 7.79785 1.49 8.7957 2.5C9.95986 3.66 10.3237 5.34 10.3029 6.9C10.2821 8.54 9.92867 10.3 8.74373 11.55C7.86022 12.5 6.54014 12.94 5.24086 13H1V1ZM3.98315 3.18V10.82C4.71075 10.84 5.52151 10.8 6.09319 10.31C6.93513 9.58 7.11183 8.42 7.17419 7.39C7.22617 6.17 7.13262 4.8 6.23871 3.85C5.67742 3.24 4.78351 3.14 3.98315 3.18ZM16.4355 1H19.4082C19.4082 2.64 19.4186 4.28 19.4082 5.92C20.7283 4.3 21.986 2.63 23.2957 1H26.3828L22.9215 5.29C22.8591 5.39 22.724 5.46 22.724 5.59C24.1792 8.06 25.6136 10.54 27.0688 13H23.857C22.8695 11.28 21.8717 9.57 20.8842 7.85C20.3645 8.41 19.9176 9.04 19.4186 9.63C19.3979 10.75 19.4186 11.88 19.4082 13H16.4043L16.4355 12.91C16.4251 8.94 16.4251 4.97 16.4355 1ZM32.6921 1H35.2699C36.6108 3.31 37.962 5.63 39.3029 7.94C39.3548 8.01 39.438 8.13 39.49 8.19C39.4796 5.8 39.4796 3.4 39.49 1H42.0574V13H39.49C38.0971 10.63 36.7147 8.24 35.3219 5.87L35.2491 5.8C35.2803 8.2 35.2491 10.6 35.2699 13H32.6921V1ZM47.9197 1H51.0692C51.8384 2.64 52.7427 4.25 53.543 5.88C53.5742 5.88 53.6262 5.88 53.647 5.87C54.4681 4.24 55.3204 2.62 56.1728 1H58.8961L59 1.02C57.6487 3.52 56.3079 6.02 54.9566 8.52V13H51.9527C52.0047 11.51 51.9631 10 51.9735 8.51C50.6222 6.01 49.2814 3.5 47.9197 1Z" fill="#FAFAFA" stroke="#FAFAFA" stroke-width="0.09375"/>
</svg>
