<svg width="94" height="12" viewBox="0 0 94 12" fill="none" xmlns="http://www.w3.org/2000/svg">
<mask id="path-1-inside-1_0_43" fill="white">
<path d="M0 11.7139H2.10661V7.53508C2.10661 6.79084 2.10661 5.87272 2.48815 5.33484C2.86778 4.75014 3.54958 4.56002 3.93017 4.56002C5.70496 4.56002 5.70496 6.6504 5.70496 7.37649V11.7139H7.81061V6.96567C7.81061 6.28353 7.81061 4.8132 7.00354 3.84826C6.27583 2.96071 5.11782 2.62633 4.35856 2.62633C3.02651 2.62633 2.29786 3.35719 1.94978 3.68967V2.92727H0V11.7139Z"/>
<path fill-rule="evenodd" clip-rule="evenodd" d="M17.3916 8.26342C17.4519 7.97967 17.5178 7.61471 17.5178 7.2039C17.5178 4.98932 15.7583 2.57889 12.9699 2.57889C10.2599 2.57889 8.34362 4.86129 8.34362 7.34529C8.34362 9.90858 10.3718 11.9999 12.9862 11.9999C15.0459 11.9999 16.7241 10.5296 17.2319 8.94556H15.0125C14.6175 9.67356 13.9214 10.0681 12.9862 10.0681C11.4811 10.0681 10.6568 8.83378 10.5612 8.26342H17.3916ZM10.498 6.56952C10.8939 4.93868 12.2097 4.51163 12.9862 4.51163C14.0323 4.51163 15.1244 5.16033 15.3625 6.56952H10.498Z"/>
<path d="M20.2213 11.7139H21.518L23.1828 6.01602H23.2134L24.8629 11.7139H26.1615L29.3774 2.92727H27.1283L25.5103 8.29461H25.4797L24.052 2.92727H22.3748L20.9328 8.29461H20.9012L19.3014 2.92727H17.0514L20.2213 11.7139Z"/>
<path fill-rule="evenodd" clip-rule="evenodd" d="M33.4559 11.714H35.3876V10.6535C35.9087 11.2401 36.6565 11.9996 38.3519 11.9996C41.5668 11.9996 42.7239 9.03984 42.7239 7.28098C42.7239 4.95653 40.9816 2.62635 38.3041 2.62635C37.3211 2.62635 36.2903 2.99226 35.5616 3.72122V0H33.4559V11.714ZM35.4344 7.20359C35.4344 5.92147 36.4327 4.56004 38.0488 4.56004C39.3808 4.56004 40.6173 5.58708 40.6173 7.29913C40.6173 9.0064 39.4602 10.0688 38.0813 10.0688C36.8458 10.0688 35.4344 9.15066 35.4344 7.20359Z"/>
<path fill-rule="evenodd" clip-rule="evenodd" d="M52.5606 2.92768H50.6261V4.03879H50.5945C50.5305 3.91077 49.4681 2.62578 47.6799 2.62578C45.2405 2.62578 43.2745 4.5738 43.2745 7.26703C43.2745 10.1943 45.2874 12 47.5537 12C48.661 12 49.9615 11.4124 50.6261 10.6252V11.7143H52.5606V2.92768ZM50.5649 7.29951C50.5649 8.9294 49.4537 10.0682 47.9954 10.0682C46.4913 10.0682 45.3811 8.84914 45.3811 7.36161C45.3811 6.04796 46.2685 4.56043 47.9954 4.56043C49.2481 4.56043 50.5649 5.4776 50.5649 7.29951Z"/>
<path d="M55.7873 0.000373568H53.6807V11.7143H55.7873V0.000373568Z"/>
<path fill-rule="evenodd" clip-rule="evenodd" d="M65.7047 2.92768H63.7722V4.03879H63.7396C63.6756 3.91077 62.6132 2.62578 60.825 2.62578C58.3828 2.62578 56.4196 4.5738 56.4196 7.26703C56.4196 10.1943 58.4325 12 60.6978 12C61.8061 12 63.1047 11.4124 63.7722 10.6252V11.7143H65.7047V2.92768ZM63.7081 7.29951C63.7081 8.9294 62.5998 10.0682 61.1415 10.0682C59.6354 10.0682 58.5272 8.84914 58.5272 7.36161C58.5272 6.04796 59.4145 4.56043 61.1415 4.56043C62.3932 4.56043 63.7081 5.4776 63.7081 7.29951Z"/>
<path d="M66.8263 11.7139H68.932V7.53508C68.932 6.79084 68.932 5.87272 69.3135 5.33484C69.6931 4.75014 70.3768 4.56002 70.7555 4.56002C72.5294 4.56002 72.5294 6.6504 72.5294 7.37649V11.7139H74.6379V6.96567C74.6379 6.28353 74.6379 4.8132 73.8279 3.84826C73.0993 2.96071 71.9441 2.62633 71.183 2.62633C69.8509 2.62633 69.1242 3.35719 68.7742 3.68967V2.92727H66.8263V11.7139Z"/>
<path d="M82.1244 8.84941C81.5688 9.736 80.8736 10.0685 80.1765 10.0685C78.5901 10.0685 77.5297 8.81788 77.5297 7.31411C77.5297 5.50939 78.7976 4.55973 80.08 4.55973C81.3795 4.55973 81.872 5.39856 82.1244 5.84091H84.5026C83.5989 3.13335 81.1882 2.62604 80.08 2.62604C77.6559 2.62604 75.423 4.59222 75.423 7.28067C75.423 10.1946 77.8443 11.9993 80.0972 11.9993C82.1569 11.9993 83.7873 10.8118 84.5026 8.84941H82.1244Z"/>
<path fill-rule="evenodd" clip-rule="evenodd" d="M93.8747 8.26342C93.9369 7.97967 94 7.61471 94 7.2039C94 4.98932 92.2424 2.57889 89.454 2.57889C86.744 2.57889 84.8267 4.86129 84.8267 7.34529C84.8267 9.90858 86.8549 11.9999 89.4693 11.9999C91.5281 11.9999 93.2092 10.5296 93.715 8.94556H91.4975C91.1007 9.67356 90.4055 10.0681 89.4693 10.0681C87.9632 10.0681 87.1399 8.83378 87.0471 8.26342H93.8747ZM86.9821 6.56952C87.379 4.93868 88.6928 4.51163 89.4693 4.51163C90.5164 4.51163 91.6084 5.16033 91.8456 6.56952H86.9821Z"/>
</mask>
<path d="M0 11.7139H2.10661V7.53508C2.10661 6.79084 2.10661 5.87272 2.48815 5.33484C2.86778 4.75014 3.54958 4.56002 3.93017 4.56002C5.70496 4.56002 5.70496 6.6504 5.70496 7.37649V11.7139H7.81061V6.96567C7.81061 6.28353 7.81061 4.8132 7.00354 3.84826C6.27583 2.96071 5.11782 2.62633 4.35856 2.62633C3.02651 2.62633 2.29786 3.35719 1.94978 3.68967V2.92727H0V11.7139Z" fill="#FAFAFA"/>
<path fill-rule="evenodd" clip-rule="evenodd" d="M17.3916 8.26342C17.4519 7.97967 17.5178 7.61471 17.5178 7.2039C17.5178 4.98932 15.7583 2.57889 12.9699 2.57889C10.2599 2.57889 8.34362 4.86129 8.34362 7.34529C8.34362 9.90858 10.3718 11.9999 12.9862 11.9999C15.0459 11.9999 16.7241 10.5296 17.2319 8.94556H15.0125C14.6175 9.67356 13.9214 10.0681 12.9862 10.0681C11.4811 10.0681 10.6568 8.83378 10.5612 8.26342H17.3916ZM10.498 6.56952C10.8939 4.93868 12.2097 4.51163 12.9862 4.51163C14.0323 4.51163 15.1244 5.16033 15.3625 6.56952H10.498Z" fill="#FAFAFA"/>
<path d="M20.2213 11.7139H21.518L23.1828 6.01602H23.2134L24.8629 11.7139H26.1615L29.3774 2.92727H27.1283L25.5103 8.29461H25.4797L24.052 2.92727H22.3748L20.9328 8.29461H20.9012L19.3014 2.92727H17.0514L20.2213 11.7139Z" fill="#FAFAFA"/>
<path fill-rule="evenodd" clip-rule="evenodd" d="M33.4559 11.714H35.3876V10.6535C35.9087 11.2401 36.6565 11.9996 38.3519 11.9996C41.5668 11.9996 42.7239 9.03984 42.7239 7.28098C42.7239 4.95653 40.9816 2.62635 38.3041 2.62635C37.3211 2.62635 36.2903 2.99226 35.5616 3.72122V0H33.4559V11.714ZM35.4344 7.20359C35.4344 5.92147 36.4327 4.56004 38.0488 4.56004C39.3808 4.56004 40.6173 5.58708 40.6173 7.29913C40.6173 9.0064 39.4602 10.0688 38.0813 10.0688C36.8458 10.0688 35.4344 9.15066 35.4344 7.20359Z" fill="#FAFAFA"/>
<path fill-rule="evenodd" clip-rule="evenodd" d="M52.5606 2.92768H50.6261V4.03879H50.5945C50.5305 3.91077 49.4681 2.62578 47.6799 2.62578C45.2405 2.62578 43.2745 4.5738 43.2745 7.26703C43.2745 10.1943 45.2874 12 47.5537 12C48.661 12 49.9615 11.4124 50.6261 10.6252V11.7143H52.5606V2.92768ZM50.5649 7.29951C50.5649 8.9294 49.4537 10.0682 47.9954 10.0682C46.4913 10.0682 45.3811 8.84914 45.3811 7.36161C45.3811 6.04796 46.2685 4.56043 47.9954 4.56043C49.2481 4.56043 50.5649 5.4776 50.5649 7.29951Z" fill="#FAFAFA"/>
<path d="M55.7873 0.000373568H53.6807V11.7143H55.7873V0.000373568Z" fill="#FAFAFA"/>
<path fill-rule="evenodd" clip-rule="evenodd" d="M65.7047 2.92768H63.7722V4.03879H63.7396C63.6756 3.91077 62.6132 2.62578 60.825 2.62578C58.3828 2.62578 56.4196 4.5738 56.4196 7.26703C56.4196 10.1943 58.4325 12 60.6978 12C61.8061 12 63.1047 11.4124 63.7722 10.6252V11.7143H65.7047V2.92768ZM63.7081 7.29951C63.7081 8.9294 62.5998 10.0682 61.1415 10.0682C59.6354 10.0682 58.5272 8.84914 58.5272 7.36161C58.5272 6.04796 59.4145 4.56043 61.1415 4.56043C62.3932 4.56043 63.7081 5.4776 63.7081 7.29951Z" fill="#FAFAFA"/>
<path d="M66.8263 11.7139H68.932V7.53508C68.932 6.79084 68.932 5.87272 69.3135 5.33484C69.6931 4.75014 70.3768 4.56002 70.7555 4.56002C72.5294 4.56002 72.5294 6.6504 72.5294 7.37649V11.7139H74.6379V6.96567C74.6379 6.28353 74.6379 4.8132 73.8279 3.84826C73.0993 2.96071 71.9441 2.62633 71.183 2.62633C69.8509 2.62633 69.1242 3.35719 68.7742 3.68967V2.92727H66.8263V11.7139Z" fill="#FAFAFA"/>
<path d="M82.1244 8.84941C81.5688 9.736 80.8736 10.0685 80.1765 10.0685C78.5901 10.0685 77.5297 8.81788 77.5297 7.31411C77.5297 5.50939 78.7976 4.55973 80.08 4.55973C81.3795 4.55973 81.872 5.39856 82.1244 5.84091H84.5026C83.5989 3.13335 81.1882 2.62604 80.08 2.62604C77.6559 2.62604 75.423 4.59222 75.423 7.28067C75.423 10.1946 77.8443 11.9993 80.0972 11.9993C82.1569 11.9993 83.7873 10.8118 84.5026 8.84941H82.1244Z" fill="#FAFAFA"/>
<path fill-rule="evenodd" clip-rule="evenodd" d="M93.8747 8.26342C93.9369 7.97967 94 7.61471 94 7.2039C94 4.98932 92.2424 2.57889 89.454 2.57889C86.744 2.57889 84.8267 4.86129 84.8267 7.34529C84.8267 9.90858 86.8549 11.9999 89.4693 11.9999C91.5281 11.9999 93.2092 10.5296 93.715 8.94556H91.4975C91.1007 9.67356 90.4055 10.0681 89.4693 10.0681C87.9632 10.0681 87.1399 8.83378 87.0471 8.26342H93.8747ZM86.9821 6.56952C87.379 4.93868 88.6928 4.51163 89.4693 4.51163C90.5164 4.51163 91.6084 5.16033 91.8456 6.56952H86.9821Z" fill="#FAFAFA"/>
<path d="M0 11.7139H2.10661V7.53508C2.10661 6.79084 2.10661 5.87272 2.48815 5.33484C2.86778 4.75014 3.54958 4.56002 3.93017 4.56002C5.70496 4.56002 5.70496 6.6504 5.70496 7.37649V11.7139H7.81061V6.96567C7.81061 6.28353 7.81061 4.8132 7.00354 3.84826C6.27583 2.96071 5.11782 2.62633 4.35856 2.62633C3.02651 2.62633 2.29786 3.35719 1.94978 3.68967V2.92727H0V11.7139Z" stroke="#FAFAFA" stroke-width="6.063" mask="url(#path-1-inside-1_0_43)"/>
<path fill-rule="evenodd" clip-rule="evenodd" d="M17.3916 8.26342C17.4519 7.97967 17.5178 7.61471 17.5178 7.2039C17.5178 4.98932 15.7583 2.57889 12.9699 2.57889C10.2599 2.57889 8.34362 4.86129 8.34362 7.34529C8.34362 9.90858 10.3718 11.9999 12.9862 11.9999C15.0459 11.9999 16.7241 10.5296 17.2319 8.94556H15.0125C14.6175 9.67356 13.9214 10.0681 12.9862 10.0681C11.4811 10.0681 10.6568 8.83378 10.5612 8.26342H17.3916ZM10.498 6.56952C10.8939 4.93868 12.2097 4.51163 12.9862 4.51163C14.0323 4.51163 15.1244 5.16033 15.3625 6.56952H10.498Z" stroke="#FAFAFA" stroke-width="6.063" mask="url(#path-1-inside-1_0_43)"/>
<path d="M20.2213 11.7139H21.518L23.1828 6.01602H23.2134L24.8629 11.7139H26.1615L29.3774 2.92727H27.1283L25.5103 8.29461H25.4797L24.052 2.92727H22.3748L20.9328 8.29461H20.9012L19.3014 2.92727H17.0514L20.2213 11.7139Z" stroke="#FAFAFA" stroke-width="6.063" mask="url(#path-1-inside-1_0_43)"/>
<path fill-rule="evenodd" clip-rule="evenodd" d="M33.4559 11.714H35.3876V10.6535C35.9087 11.2401 36.6565 11.9996 38.3519 11.9996C41.5668 11.9996 42.7239 9.03984 42.7239 7.28098C42.7239 4.95653 40.9816 2.62635 38.3041 2.62635C37.3211 2.62635 36.2903 2.99226 35.5616 3.72122V0H33.4559V11.714ZM35.4344 7.20359C35.4344 5.92147 36.4327 4.56004 38.0488 4.56004C39.3808 4.56004 40.6173 5.58708 40.6173 7.29913C40.6173 9.0064 39.4602 10.0688 38.0813 10.0688C36.8458 10.0688 35.4344 9.15066 35.4344 7.20359Z" stroke="#FAFAFA" stroke-width="6.063" mask="url(#path-1-inside-1_0_43)"/>
<path fill-rule="evenodd" clip-rule="evenodd" d="M52.5606 2.92768H50.6261V4.03879H50.5945C50.5305 3.91077 49.4681 2.62578 47.6799 2.62578C45.2405 2.62578 43.2745 4.5738 43.2745 7.26703C43.2745 10.1943 45.2874 12 47.5537 12C48.661 12 49.9615 11.4124 50.6261 10.6252V11.7143H52.5606V2.92768ZM50.5649 7.29951C50.5649 8.9294 49.4537 10.0682 47.9954 10.0682C46.4913 10.0682 45.3811 8.84914 45.3811 7.36161C45.3811 6.04796 46.2685 4.56043 47.9954 4.56043C49.2481 4.56043 50.5649 5.4776 50.5649 7.29951Z" stroke="#FAFAFA" stroke-width="6.063" mask="url(#path-1-inside-1_0_43)"/>
<path d="M55.7873 0.000373568H53.6807V11.7143H55.7873V0.000373568Z" stroke="#FAFAFA" stroke-width="6.063" mask="url(#path-1-inside-1_0_43)"/>
<path fill-rule="evenodd" clip-rule="evenodd" d="M65.7047 2.92768H63.7722V4.03879H63.7396C63.6756 3.91077 62.6132 2.62578 60.825 2.62578C58.3828 2.62578 56.4196 4.5738 56.4196 7.26703C56.4196 10.1943 58.4325 12 60.6978 12C61.8061 12 63.1047 11.4124 63.7722 10.6252V11.7143H65.7047V2.92768ZM63.7081 7.29951C63.7081 8.9294 62.5998 10.0682 61.1415 10.0682C59.6354 10.0682 58.5272 8.84914 58.5272 7.36161C58.5272 6.04796 59.4145 4.56043 61.1415 4.56043C62.3932 4.56043 63.7081 5.4776 63.7081 7.29951Z" stroke="#FAFAFA" stroke-width="6.063" mask="url(#path-1-inside-1_0_43)"/>
<path d="M66.8263 11.7139H68.932V7.53508C68.932 6.79084 68.932 5.87272 69.3135 5.33484C69.6931 4.75014 70.3768 4.56002 70.7555 4.56002C72.5294 4.56002 72.5294 6.6504 72.5294 7.37649V11.7139H74.6379V6.96567C74.6379 6.28353 74.6379 4.8132 73.8279 3.84826C73.0993 2.96071 71.9441 2.62633 71.183 2.62633C69.8509 2.62633 69.1242 3.35719 68.7742 3.68967V2.92727H66.8263V11.7139Z" stroke="#FAFAFA" stroke-width="6.063" mask="url(#path-1-inside-1_0_43)"/>
<path d="M82.1244 8.84941C81.5688 9.736 80.8736 10.0685 80.1765 10.0685C78.5901 10.0685 77.5297 8.81788 77.5297 7.31411C77.5297 5.50939 78.7976 4.55973 80.08 4.55973C81.3795 4.55973 81.872 5.39856 82.1244 5.84091H84.5026C83.5989 3.13335 81.1882 2.62604 80.08 2.62604C77.6559 2.62604 75.423 4.59222 75.423 7.28067C75.423 10.1946 77.8443 11.9993 80.0972 11.9993C82.1569 11.9993 83.7873 10.8118 84.5026 8.84941H82.1244Z" stroke="#FAFAFA" stroke-width="6.063" mask="url(#path-1-inside-1_0_43)"/>
<path fill-rule="evenodd" clip-rule="evenodd" d="M93.8747 8.26342C93.9369 7.97967 94 7.61471 94 7.2039C94 4.98932 92.2424 2.57889 89.454 2.57889C86.744 2.57889 84.8267 4.86129 84.8267 7.34529C84.8267 9.90858 86.8549 11.9999 89.4693 11.9999C91.5281 11.9999 93.2092 10.5296 93.715 8.94556H91.4975C91.1007 9.67356 90.4055 10.0681 89.4693 10.0681C87.9632 10.0681 87.1399 8.83378 87.0471 8.26342H93.8747ZM86.9821 6.56952C87.379 4.93868 88.6928 4.51163 89.4693 4.51163C90.5164 4.51163 91.6084 5.16033 91.8456 6.56952H86.9821Z" stroke="#FAFAFA" stroke-width="6.063" mask="url(#path-1-inside-1_0_43)"/>
</svg>
